<?xml version="1.0" encoding="UTF-8"?>
<svg xmlns="http://www.w3.org/2000/svg" height="16px" viewBox="0 0 16 16" width="16px"><path d="m 10.988281 0.0273438 c -0.464843 0.0039062 -0.945312 0.2812502 -1 0.9609372 c 0 0.269531 0.109375 0.527344 0.304688 0.71875 l 1.707031 1.792969 s 0 0.5 -0.5 0.5 h -2.355469 c -0.0625 -0.015625 -0.128906 -0.023438 -0.199219 -0.023438 h -7.082031 c -0.550781 0 -1 0.449219 -1 1 c 0 0.550782 0.449219 0.996094 1 1 l 5.636719 0.023438 s 0.5 0 0.5 0.5 c 0 0.34375 -0.238281 0.449219 -0.386719 0.484375 h -6.734375 c -0.550781 0 -1 0.445313 -1 1 c 0 0.550781 0.460938 1.035156 1.011719 1.035156 l 6.609375 -0.007812 s 0.5 -0.015625 0.5 0.484375 s -0.5 0.515625 -0.5 0.515625 h -0.671875 c -0.550781 -0.003907 -1 0.472656 -1 1.023437 c 0 0.550782 0.449219 1 1 1 h 0.855469 c 0.144531 0.050782 0.316406 0.167969 0.316406 0.460938 c 0 0.5 -0.5 0.5 -0.5 0.5 h -0.371094 c -0.550781 0 -1 0.449218 -1 1 c 0 0.554687 0.449219 1 1 1 h 5.871094 s 3 0 3 -3 v -6 c -0.003906 -0.949219 -0.5 -2 -1.292969 -2.707032 l -3 -3 c -0.167969 -0.167968 -0.441406 -0.2656245 -0.71875 -0.2617182 z m 0 0" fill="#222222"/></svg>
