<?xml version="1.0" encoding="UTF-8"?>
<svg xmlns="http://www.w3.org/2000/svg" height="16px" viewBox="0 0 16 16" width="16px"><g fill="#222222"><path d="m 14 3.988281 c 1.105469 0 2 -0.894531 2 -2 s -0.894531 -1.9999998 -2 -1.9999998 s -2 0.8945308 -2 1.9999998 s 0.894531 2 2 2 z m 0 0"/><path d="m 5.914062 -0.0078125 c -0.234374 0.0195313 -0.453124 0.1210935 -0.621093 0.2890625 l -2 2 c -0.390625 0.390625 -0.390625 1.023438 0 1.414062 c 0.390625 0.390626 1.023437 0.390626 1.414062 0 l 1.40625 -1.40625 l 1.804688 1.261719 l -1.789063 1.449219 c -1.1875 0.082031 -2.28125 0.542969 -3.144531 1.265625 l 1.414063 1.414063 c 0.585937 -0.433594 1.3125 -0.691407 2.101562 -0.691407 h 0.019531 c 0.757813 0 1.457031 0.246094 2.023438 0.652344 c 0.003906 0.003906 0.007812 0.007813 0.011719 0.011719 l 0.433593 0.367187 c 0.625 0.628907 1.011719 1.5 1.011719 2.46875 c 0 0.789063 -0.257812 1.515625 -0.691406 2.101563 l 1.414062 1.414062 c 0.796875 -0.953125 1.277344 -2.183594 1.277344 -3.515625 c 0 -0.628906 -0.109375 -1.234375 -0.308594 -1.800781 l 1.179688 -0.339844 l -0.367188 4.050782 c -0.050781 0.550781 0.355469 1.035156 0.90625 1.085937 c 0.550782 0.050781 1.035156 -0.355469 1.085938 -0.90625 l 0.5 -5.5 c 0.03125 -0.328125 -0.105469 -0.648437 -0.359375 -0.859375 c -0.253907 -0.210938 -0.59375 -0.28125 -0.914063 -0.191406 l -2.984375 0.851562 l -0.171875 -0.144531 l 1.234375 -1.648437 c 0.160157 -0.214844 0.230469 -0.488282 0.1875 -0.753907 c -0.042969 -0.269531 -0.191406 -0.507812 -0.414062 -0.664062 l -1.410157 -0.984375 l -3.589843 -2.515625 c -0.191407 -0.1328128 -0.425781 -0.1953128 -0.660157 -0.1757815 z m -3.636718 6.9804685 c -0.796875 0.953125 -1.277344 2.183594 -1.277344 3.515625 c 0 3.027344 2.472656 5.5 5.5 5.5 c 1.332031 0 2.5625 -0.480469 3.515625 -1.277343 l -1.414063 -1.414063 h -0.003906 c -0.582031 0.433594 -1.308594 0.691406 -2.097656 0.691406 c -1.945312 0 -3.5 -1.554687 -3.5 -3.5 c 0 -0.789062 0.257812 -1.515625 0.691406 -2.101562 z m 0 0"/></g></svg>
