<?xml version="1.0"?>
<svg xmlns="http://www.w3.org/2000/svg" xmlns:gpa="https://www.gtk.org/grappa" width="16" height="16" gpa:version="1" gpa:state="4" gpa:keywords="adw widget-buttons"><defs id="defs1" fill="url(&quot;#gpa:foreground&quot;) rgb(0,0,0)" stroke="none" class="foreground foreground-fill" gpa:states="none" gpa:animation-repeat="0" gpa:animation-segment="0" gpa:fill="foreground">
    </defs><path id="buttons" fill="none" stroke="url(&quot;#gpa:foreground&quot;) rgb(0,0,0)" stroke-opacity="1" stroke-width="2" stroke-linecap="round" stroke-linejoin="round" stroke-miterlimit="4" stroke-dashoffset="22.5589" d="M 3 2 L 13 2 C 14.1079998 2, 15 2.89199996, 15 4 C 15 5.1079998, 14.1079998 6, 13 6 L 3 6 C 1.89199996 6, 1 5.1079998, 1 4 C 1 2.89199996, 1.89199996 2, 3 2 Z M 3 9 L 13 9 C 14.1079998 9, 15 9.8920002, 15 11 C 15 12.1079998, 14.1079998 13, 13 13 L 3 13 C 1.89199996 13, 1 12.1079998, 1 11 C 1 9.8920002, 1.89199996 9, 3 9 Z" class="transparent-fill foreground-stroke" gpa:stroke-width="0.5 2 3" gpa:stroke="foreground" gpa:fill="none">
    </path></svg>
