<?xml version="1.0" encoding="UTF-8" standalone="no"?>
<svg
   height="16px"
   viewBox="0 0 16 16"
   width="16px"
   version="1.1"
   id="svg5"
   sodipodi:docname="cassette-wave-genre-soviet_music.svg"
   inkscape:version="1.3.2 (091e20ef0f, 2023-11-25)"
   xmlns:inkscape="http://www.inkscape.org/namespaces/inkscape"
   xmlns:sodipodi="http://sodipodi.sourceforge.net/DTD/sodipodi-0.dtd"
   xmlns="http://www.w3.org/2000/svg"
   xmlns:svg="http://www.w3.org/2000/svg">
  <defs
     id="defs5" />
  <sodipodi:namedview
     id="namedview5"
     pagecolor="#ffffff"
     bordercolor="#000000"
     borderopacity="0.25"
     inkscape:showpageshadow="2"
     inkscape:pageopacity="0.0"
     inkscape:pagecheckerboard="0"
     inkscape:deskcolor="#d1d1d1"
     inkscape:zoom="22.627417"
     inkscape:cx="2.541165"
     inkscape:cy="18.981398"
     inkscape:window-width="1920"
     inkscape:window-height="1131"
     inkscape:window-x="0"
     inkscape:window-y="0"
     inkscape:window-maximized="1"
     inkscape:current-layer="svg5" />
  <path
     id="path99-5"
     style="color:#000000;fill:#2e3436;fill-opacity:1;stroke-width:1.19521;stroke-linecap:round;stroke-linejoin:round;stroke-miterlimit:0;-inkscape-stroke:none;paint-order:stroke fill markers"
     d="M 7.9999998,-2.5e-7 C 3.6098262,-2.5e-7 2.5e-7,3.6098258 2.5e-7,7.9999989 2.5e-7,12.390174 3.6098262,16 7.9999998,16 12.390175,16 16,12.390174 16,7.9999988 16,3.6098257 12.390173,-2.5e-7 7.9999998,-2.5e-7 Z m 0,2.39042885 A 5.6099799,5.6099799 0 0 1 13.609572,7.9999989 5.6099799,5.6099799 0 0 1 7.9999998,13.609571 5.6099799,5.6099799 0 0 1 2.390429,7.9999989 5.6099799,5.6099799 0 0 1 7.9999998,2.3904286 Z m 0,1.9842424 c -0.1874394,0 -0.3751436,0.098843 -0.4715495,0.2941351 L 6.6437116,6.4616277 4.6664721,6.7487588 C 4.2353945,6.8114239 4.0627449,7.3410962 4.3746716,7.6451696 l 1.4309892,1.3936387 -0.336154,1.9702367 c -0.073637,0.429416 0.3754395,0.755973 0.7610153,0.553254 l 1.7694777,-0.929093 1.7694779,0.929093 C 10.15497,11.765018 10.604118,11.438461 10.530493,11.009045 L 10.194339,9.0388082 11.625328,7.6451695 c 0.312023,-0.3040733 0.13941,-0.8337815 -0.2918,-0.8964108 L 9.3562878,6.4616277 8.4715492,4.6688061 C 8.3752149,4.4735139 8.187439,4.374671 7.9999998,4.374671 Z" />
</svg>
