<?xml version="1.0" encoding="UTF-8" standalone="no"?>
<svg
   height="16px"
   viewBox="0 0 16 16"
   width="16px"
   version="1.1"
   id="svg5"
   sodipodi:docname="cassette-wave-genre-rock.svg"
   inkscape:version="1.3.2 (091e20ef0f, 2023-11-25)"
   xmlns:inkscape="http://www.inkscape.org/namespaces/inkscape"
   xmlns:sodipodi="http://sodipodi.sourceforge.net/DTD/sodipodi-0.dtd"
   xmlns="http://www.w3.org/2000/svg"
   xmlns:svg="http://www.w3.org/2000/svg">
  <defs
     id="defs5" />
  <sodipodi:namedview
     id="namedview5"
     pagecolor="#ffffff"
     bordercolor="#000000"
     borderopacity="0.25"
     inkscape:showpageshadow="2"
     inkscape:pageopacity="0.0"
     inkscape:pagecheckerboard="0"
     inkscape:deskcolor="#d1d1d1"
     inkscape:zoom="16"
     inkscape:cx="-0.71875"
     inkscape:cy="16.03125"
     inkscape:window-width="1920"
     inkscape:window-height="1131"
     inkscape:window-x="0"
     inkscape:window-y="0"
     inkscape:window-maximized="1"
     inkscape:current-layer="svg5" />
  <path
     id="rect5-2"
     style="fill:#2e3436;fill-opacity:1;stroke-width:3.65884;stroke-dasharray:none;paint-order:stroke markers fill"
     d="M 13.992188 0.46875 C 13.975489 0.46875 13.959845 0.46987287 13.943359 0.47070312 C 13.942052 0.47076981 13.940761 0.47063112 13.939453 0.47070312 C 13.923692 0.47157111 13.90829 0.47296749 13.892578 0.47460938 C 13.881529 0.47576394 13.870387 0.47697838 13.859375 0.47851562 C 13.845071 0.48047505 13.830499 0.4818 13.816406 0.484375 C 13.81378 0.48486282 13.811216 0.48581829 13.808594 0.48632812 C 13.789006 0.4900716 13.76914 0.49509817 13.75 0.5 C 13.735156 0.5038486 13.719763 0.50714919 13.705078 0.51171875 C 13.684158 0.51819825 13.662853 0.52537008 13.642578 0.53320312 C 13.636061 0.53573719 13.62952 0.5383341 13.623047 0.54101562 C 13.605933 0.54805245 13.590816 0.55647889 13.574219 0.56445312 C 13.563799 0.56947033 13.553242 0.57466365 13.542969 0.58007812 C 13.514404 0.59509281 13.487705 0.61119991 13.460938 0.62890625 C 13.436247 0.6452388 13.411688 0.66316307 13.388672 0.68164062 C 13.386818 0.68313172 13.384658 0.68404008 13.382812 0.68554688 C 13.381375 0.68671842 13.380337 0.68827345 13.378906 0.68945312 C 13.377488 0.69062452 13.376413 0.69217864 13.375 0.69335938 C 13.352391 0.71222251 13.33132 0.73112082 13.310547 0.75195312 C 13.296359 0.76618096 13.280856 0.77982988 13.267578 0.79492188 L 8.7148438 5.3476562 C 8.4824736 4.9585572 8.1617599 4.6800783 7.9023438 4.5175781 C 7.4731536 4.2487409 7.090089 4.1398052 6.7070312 4.125 C 6.4771956 4.1157016 6.2476398 4.1409046 6.0078125 4.1875 C 5.368276 4.3118815 4.6968166 4.7126672 4.2578125 5.296875 C 3.8080263 5.8954437 3.5930391 6.4167968 3.3964844 6.8359375 C 2.8286975 6.9295413 2.0875628 7.1292299 1.2871094 7.9296875 C -0.438054 9.6549222 -0.42455462 12.513015 1.296875 14.234375 C 3.0181424 15.956086 5.8763433 15.968871 7.6015625 14.244141 C 8.212589 13.633102 8.3377235 13.14463 8.4960938 12.6875 C 8.5661007 12.485404 8.6078289 12.299587 8.6640625 12.103516 C 8.6806655 12.096316 8.6800846 12.095841 8.6972656 12.087891 C 8.9337022 11.983632 9.2217326 11.868291 9.5898438 11.636719 C 9.9579569 11.405147 10.709224 11.012838 10.845703 9.7617188 C 10.860653 9.6247224 10.889378 9.423727 10.859375 9.0839844 C 10.829383 8.7442313 10.764992 8.1194957 10.105469 7.5234375 C 9.988001 7.4172722 9.8593945 7.3308999 9.7246094 7.2597656 L 14.449219 2.5351562 L 15.035156 2.5351562 C 15.569515 2.5351562 16 2.1046603 16 1.5703125 L 16 1.4335938 C 16 0.8992459 15.569515 0.46875 15.035156 0.46875 L 13.992188 0.46875 z M 6.5214844 6.203125 C 6.6373331 6.201055 6.7403173 6.2278943 6.8066406 6.2695312 C 7.0901993 6.4471513 7.0983016 6.7602899 6.7460938 7.3164062 L 5.2675781 8.7949219 C 4.8897379 9.172757 4.8897379 9.7823112 5.2675781 10.160156 L 5.3632812 10.255859 C 5.7411309 10.633715 6.3506743 10.633705 6.7285156 10.255859 L 7.8027344 9.1816406 C 8.6553397 8.5943949 8.8301432 9.1780569 8.7910156 9.5371094 C 8.7354009 10.04694 7.0098792 10.355809 6.8828125 10.833984 C 6.6560804 11.687205 6.4504528 12.473381 6.140625 12.783203 C 5.2097678 13.714055 3.6961957 13.710355 2.7597656 12.773438 C 1.8233366 11.837006 1.819211 10.321488 2.75 9.390625 C 3.270018 8.870607 3.9917475 8.8862837 4.6523438 8.7070312 C 4.9301829 8.6316109 5.3790516 7.2438908 5.9101562 6.5371094 C 6.0944991 6.2917971 6.3284033 6.206865 6.5214844 6.203125 z M 3.9101562 9.8261719 L 3.2089844 10.529297 L 4.9101562 12.232422 L 5.6132812 11.529297 L 3.9101562 9.8261719 z " />
</svg>
