<?xml version="1.0" encoding="UTF-8" standalone="no"?>
<svg
   height="16px"
   viewBox="0 0 16 16"
   width="16px"
   version="1.1"
   id="svg5"
   sodipodi:docname="cassette-wave-collection.svg"
   inkscape:version="1.3.2 (091e20ef0f, 2023-11-25)"
   xmlns:inkscape="http://www.inkscape.org/namespaces/inkscape"
   xmlns:sodipodi="http://sodipodi.sourceforge.net/DTD/sodipodi-0.dtd"
   xmlns="http://www.w3.org/2000/svg"
   xmlns:svg="http://www.w3.org/2000/svg">
  <defs
     id="defs5" />
  <sodipodi:namedview
     id="namedview5"
     pagecolor="#ffffff"
     bordercolor="#000000"
     borderopacity="0.25"
     inkscape:showpageshadow="2"
     inkscape:pageopacity="0.0"
     inkscape:pagecheckerboard="0"
     inkscape:deskcolor="#d1d1d1"
     inkscape:zoom="14.738757"
     inkscape:cx="0.84810408"
     inkscape:cy="19.506394"
     inkscape:window-width="1920"
     inkscape:window-height="1131"
     inkscape:window-x="0"
     inkscape:window-y="0"
     inkscape:window-maximized="1"
     inkscape:current-layer="svg5" />
  <path
     id="path2-3"
     style="color:#000000;fill:#2e3436;fill-opacity:1;stroke-width:0.995184;-inkscape-stroke:none"
     d="M 5.1074219 0.7265625 C 3.9934449 0.74803931 2.9163823 1.1290651 2.015625 1.8300781 C 0.81484176 2.7652782 0.094134511 4.1446281 0.009765625 5.6621094 L 0.009765625 5.6640625 C -0.073444512 7.1669173 0.40386403 8.5713829 1.1269531 9.7089844 C 2.2124708 11.41713 4.3429025 13.666624 7.1503906 14.900391 L 8 15.273438 L 8.8476562 14.900391 C 11.655005 13.666604 13.78748 11.4168 14.873047 9.7089844 C 15.595487 8.5721121 16.073354 7.1667597 15.990234 5.6640625 C 15.906324 4.1460418 15.185168 2.7652582 13.984375 1.8300781 L 13.982422 1.828125 C 12.781491 0.89376622 11.266979 0.53111051 9.7714844 0.82617188 C 9.1111374 0.95617149 8.541805 1.2742435 8 1.6230469 C 7.4582051 1.2742535 6.8886228 0.95626138 6.2285156 0.82617188 C 5.8546694 0.75235159 5.4787509 0.71937027 5.1074219 0.7265625 z M 10.912109 2.8886719 C 11.576162 2.9047229 12.234777 3.1325794 12.759766 3.5410156 C 13.45971 4.086137 13.908054 4.9441349 13.957031 5.8300781 C 14.013771 6.8495672 13.711711 7.767097 13.164062 8.6289062 C 12.433981 9.7774761 10.210866 12.079646 8.0722656 13.019531 C 5.9335453 12.079646 3.7084074 9.7774759 2.9785156 8.6289062 C 2.4307472 7.767097 2.1291377 6.8495672 2.1855469 5.8300781 C 2.2348935 4.9441349 2.6828884 4.086137 3.3828125 3.5410156 C 3.9077657 3.1324468 4.5679993 2.9067676 5.2324219 2.890625 C 5.4538927 2.884635 5.674993 2.9023595 5.8925781 2.9453125 C 6.5028408 3.0655823 7.0672201 3.3840004 7.5039062 3.8261719 L 6.7304688 5.390625 L 4.7871094 5.6738281 C 4.3635857 5.7354096 4.1954351 6.2558932 4.5019531 6.5546875 L 5.9082031 7.9257812 L 5.5761719 9.8613281 C 5.503811 10.28325 5.9472811 10.603463 6.3261719 10.404297 L 8.0644531 9.4921875 L 9.8027344 10.404297 C 10.181557 10.60352 10.623173 10.283306 10.550781 9.8613281 L 10.21875 7.9257812 L 11.625 6.5546875 C 11.93162 6.2558932 11.763604 5.7354011 11.339844 5.6738281 L 9.3964844 5.390625 L 8.6289062 3.8378906 C 9.0671686 3.3895044 9.6343766 3.0665102 10.25 2.9453125 C 10.467528 2.9023939 10.690759 2.8833215 10.912109 2.8886719 z " />
</svg>
