<?xml version="1.0" encoding="UTF-8" standalone="no"?>
<svg
   height="16px"
   viewBox="0 0 16 16"
   width="16px"
   version="1.1"
   id="svg5"
   sodipodi:docname="cassette-wave-genre-alternative.svg"
   inkscape:version="1.3.2 (091e20ef0f, 2023-11-25)"
   xmlns:inkscape="http://www.inkscape.org/namespaces/inkscape"
   xmlns:sodipodi="http://sodipodi.sourceforge.net/DTD/sodipodi-0.dtd"
   xmlns="http://www.w3.org/2000/svg"
   xmlns:svg="http://www.w3.org/2000/svg">
  <defs
     id="defs5" />
  <sodipodi:namedview
     id="namedview5"
     pagecolor="#ffffff"
     bordercolor="#000000"
     borderopacity="0.25"
     inkscape:showpageshadow="2"
     inkscape:pageopacity="0.0"
     inkscape:pagecheckerboard="0"
     inkscape:deskcolor="#d1d1d1"
     inkscape:zoom="16"
     inkscape:cx="-2.78125"
     inkscape:cy="16.90625"
     inkscape:window-width="1920"
     inkscape:window-height="1131"
     inkscape:window-x="0"
     inkscape:window-y="0"
     inkscape:window-maximized="1"
     inkscape:current-layer="svg5" />
  <path
     id="path81"
     style="fill:#2e3436;fill-opacity:1;stroke-width:3.65967;paint-order:stroke markers fill"
     d="M 7.9303669,0.00157483 C 7.5190469,0.01744459 7.150655,0.29660533 7.0382615,0.71606674 L 6.9171606,1.1701929 C 3.6280899,1.6957516 1.082144,4.5723332 1.082144,8.0002509 c 0,0.3875878 0.034401,0.7674294 0.09688,1.138343 L 0.77333829,9.2718042 C 0.26526411,9.4376941 -0.01017033,9.9807967 0.1557269,10.488863 l 0.0423896,0.131192 c 0.1658962,0.508076 0.70898369,0.783512 1.2170589,0.617611 l 0.4137588,-0.135228 c 0.4436527,0.873236 1.0667689,1.644211 1.8205417,2.258521 l -0.3713743,1.388617 c -0.1383336,0.51627 0.1659396,1.042398 0.6821982,1.180728 l 0.1311919,0.03633 c 0.5162607,0.138329 1.0444136,-0.165928 1.1827472,-0.682198 l 0.226054,-0.841648 c 0.7770375,0.305065 1.618635,0.47431 2.4987024,0.47431 0.9160894,0 1.7924846,-0.183461 2.5955837,-0.512658 l 0.236146,0.879996 c 0.138334,0.51627 0.666486,0.820527 1.182747,0.682198 l 0.131191,-0.03633 c 0.516259,-0.13833 0.820532,-0.664458 0.682199,-1.180728 l -0.391558,-1.45926 c 1.512727,-1.272836 2.480539,-3.176744 2.480539,-5.2900651 0,-0.3883966 -0.03414,-0.768714 -0.09688,-1.1403613 L 15.226662,6.7266792 C 15.734743,6.5607894 16.010169,6.0197048 15.844273,5.5116394 L 15.801887,5.3804473 C 15.635991,4.8723716 15.092914,4.5969356 14.58483,4.7628357 L 14.17107,4.8980644 C 13.199751,2.9850805 11.366598,1.5746263 9.1938466,1.1903764 L 9.0666912,0.71606674 C 8.9434502,0.25612085 8.5112816,-0.03606927 8.0534859,0.00359314 8.0125121,-4.4391526e-5 7.9707321,1.7608474e-5 7.9303669,0.00157483 Z M 6.3035857,3.4610073 5.1268941,7.8508938 3.1913083,8.4826339 a 4.8504215,4.8504215 0 0 1 -0.04239,-0.482383 4.8504215,4.8504215 0 0 1 3.154663,-4.5392436 z m 3.5139282,0.056513 A 4.8504215,4.8504215 0 0 1 12.180988,5.5479689 L 10.507786,6.0949387 Z M 8.0514677,4.9162289 8.5399054,6.7367703 7.4701862,7.085943 Z m 4.7552053,2.6016385 a 4.8504215,4.8504215 0 0 1 0.04239,0.482383 4.8504215,4.8504215 0 0 1 -1.033389,2.9750316 L 11.042646,8.0930944 Z M 9.0767833,8.736944 10.051642,12.37399 A 4.8504215,4.8504215 0 0 1 7.9989902,12.850319 4.8504215,4.8504215 0 0 1 6.0432201,12.418394 L 6.8323907,9.4696009 Z M 4.4870814,10.234552 4.2610275,11.082255 A 4.8504215,4.8504215 0 0 1 3.8190117,10.452533 Z" />
</svg>
