<?xml version="1.0" encoding="UTF-8" standalone="no"?>
<svg
   height="16px"
   viewBox="0 0 16 16"
   width="16px"
   version="1.1"
   id="svg5"
   sodipodi:docname="cassette-wave-mood-sentimental.svg"
   inkscape:version="1.3.2 (091e20ef0f, 2023-11-25)"
   xmlns:inkscape="http://www.inkscape.org/namespaces/inkscape"
   xmlns:sodipodi="http://sodipodi.sourceforge.net/DTD/sodipodi-0.dtd"
   xmlns="http://www.w3.org/2000/svg"
   xmlns:svg="http://www.w3.org/2000/svg">
  <defs
     id="defs5" />
  <sodipodi:namedview
     id="namedview5"
     pagecolor="#ffffff"
     bordercolor="#000000"
     borderopacity="0.25"
     inkscape:showpageshadow="2"
     inkscape:pageopacity="0.0"
     inkscape:pagecheckerboard="0"
     inkscape:deskcolor="#d1d1d1"
     inkscape:zoom="16.000001"
     inkscape:cx="4.8437498"
     inkscape:cy="12.843749"
     inkscape:window-width="1920"
     inkscape:window-height="1131"
     inkscape:window-x="0"
     inkscape:window-y="0"
     inkscape:window-maximized="1"
     inkscape:current-layer="svg5" />
  <path
     id="path1434"
     style="color:#000000;fill:#2e3436;fill-opacity:1;stroke-width:1.01752;stroke-linecap:round;stroke-linejoin:round;stroke-miterlimit:0;-inkscape-stroke:none;paint-order:stroke fill markers"
     d="M 8.0019531 0 C 3.5981606 0 -1.1842367e-15 3.6160273 0 8.0019531 C 0 12.387859 3.5981606 16 8.0019531 16 C 12.405725 16 16.00001 12.387859 16 8.0019531 C 16 3.6160374 12.405725 0 8.0019531 0 z M 8.0019531 1.9550781 A 6.0315491 6.0448406 0 0 1 14.03125 8.0019531 A 6.0315491 6.0448406 0 0 1 8.0019531 14.044922 A 6.0315491 6.0448406 0 0 1 1.96875 8.0019531 A 6.0315491 6.0448406 0 0 1 8.0019531 1.9550781 z M 4.4453125 5.0449219 C 4.222776 5.0503303 4.0000411 5.126827 3.8242188 5.2636719 C 3.589779 5.4462517 3.4403281 5.7325672 3.4238281 6.0292969 C 3.4049381 6.3707665 3.5059833 6.6781472 3.6894531 6.9667969 C 3.9339229 7.3514965 4.6801451 8.1227003 5.3964844 8.4375 C 6.1127837 8.1227003 6.8570327 7.3514965 7.1015625 6.9667969 C 7.2849923 6.6781472 7.3861875 6.3707665 7.3671875 6.0292969 C 7.3507875 5.7325672 7.2012366 5.4462517 6.9667969 5.2636719 C 6.7323471 5.0812321 6.4164397 5.0050001 6.125 5.0625 C 5.8139603 5.1237299 5.5388642 5.338564 5.3964844 5.6210938 C 5.2541745 5.338564 4.9770853 5.1237999 4.6660156 5.0625 C 4.5931407 5.04812 4.5194913 5.0431191 4.4453125 5.0449219 z M 9.6542969 5.0449219 C 9.4317604 5.0503303 9.2090254 5.126827 9.0332031 5.2636719 C 8.7987634 5.4462517 8.6493125 5.7325672 8.6328125 6.0292969 C 8.6139225 6.3707665 8.7149677 6.6781472 8.8984375 6.9667969 C 9.1429073 7.3514965 9.8871763 8.1227003 10.603516 8.4375 C 11.319815 8.1227003 12.066017 7.3514965 12.310547 6.9667969 C 12.493977 6.6781472 12.595172 6.3707665 12.576172 6.0292969 C 12.559772 5.7325672 12.410221 5.4462517 12.175781 5.2636719 C 11.941331 5.0812321 11.625424 5.0050001 11.333984 5.0625 C 11.022945 5.1237299 10.745895 5.338564 10.603516 5.6210938 C 10.461206 5.338564 10.18607 5.1237999 9.875 5.0625 C 9.8021251 5.04812 9.7284757 5.0431191 9.6542969 5.0449219 z M 5.2578125 9.8769531 C 5.2354125 9.8770131 5.2129062 9.8779063 5.1914062 9.8789062 C 5.1894063 9.8789562 5.1875469 9.8788563 5.1855469 9.8789062 C 5.1362469 9.8799062 5.0864487 9.8826719 5.0429688 9.8886719 C 5.0389688 9.8892419 5.03495 9.889625 5.03125 9.890625 C 5.02925 9.890935 5.0273906 9.8925781 5.0253906 9.8925781 C 5.0056906 9.8955781 4.98705 9.8973438 4.96875 9.9023438 C 4.96575 9.9029537 4.9639375 9.9032969 4.9609375 9.9042969 C 4.7792577 9.9493968 4.6659656 10.064557 4.6660156 10.341797 C 4.6660156 10.346797 4.6659056 10.350769 4.6660156 10.355469 C 4.6660156 10.360469 4.6657556 10.365994 4.6660156 10.371094 C 4.6658756 10.376094 4.6660156 10.381519 4.6660156 10.386719 C 4.6660156 10.390719 4.6659356 10.394738 4.6660156 10.398438 C 4.6659856 10.401437 4.6660156 10.404203 4.6660156 10.408203 C 4.6663956 10.418903 4.6669188 10.429053 4.6679688 10.439453 C 4.6863687 10.809883 6.2946359 11.504494 7.8652344 11.521484 C 7.8840344 11.521684 7.903175 11.521464 7.921875 11.521484 C 7.956875 11.521524 7.9924738 11.522044 8.0273438 11.521484 C 8.0461437 11.521464 8.0651844 11.521684 8.0839844 11.521484 C 9.6545928 11.504484 11.26285 10.809883 11.28125 10.439453 C 11.28225 10.429053 11.283203 10.418803 11.283203 10.408203 C 11.283203 10.404203 11.283233 10.401437 11.283203 10.398438 C 11.283283 10.394438 11.283203 10.390419 11.283203 10.386719 C 11.283203 10.381719 11.283343 10.376294 11.283203 10.371094 C 11.283463 10.366094 11.283203 10.360769 11.283203 10.355469 C 11.283313 10.350469 11.283203 10.346497 11.283203 10.341797 C 11.283253 10.064557 11.171914 9.9494168 10.990234 9.9042969 C 10.987234 9.9035869 10.985422 9.9033437 10.982422 9.9023438 C 10.963222 9.8973438 10.942575 9.893325 10.921875 9.890625 C 10.920875 9.890425 10.918969 9.890825 10.917969 9.890625 C 10.913969 9.890075 10.90995 9.8896719 10.90625 9.8886719 C 10.86245 9.8826719 10.813352 9.8809062 10.763672 9.8789062 C 10.761672 9.8788563 10.759812 9.8789562 10.757812 9.8789062 C 10.615563 9.8749063 10.452567 9.8828125 10.279297 9.8828125 L 7.9863281 9.8945312 L 5.6699219 9.8828125 C 5.6619219 9.8828125 5.6543844 9.8828525 5.6464844 9.8828125 C 5.5845844 9.8828025 5.5250168 9.8823894 5.4667969 9.8808594 C 5.4627969 9.8807594 5.4587781 9.8809494 5.4550781 9.8808594 C 5.3857782 9.8788594 5.3204724 9.8769531 5.2578125 9.8769531 z " />
</svg>
