<?xml version="1.0" encoding="UTF-8" standalone="no"?>
<svg
   height="16px"
   viewBox="0 0 16 16"
   width="16px"
   version="1.1"
   id="svg5"
   sodipodi:docname="cassette-wave-mood-relax.svg"
   inkscape:version="1.3.2 (091e20ef0f, 2023-11-25)"
   xmlns:inkscape="http://www.inkscape.org/namespaces/inkscape"
   xmlns:sodipodi="http://sodipodi.sourceforge.net/DTD/sodipodi-0.dtd"
   xmlns="http://www.w3.org/2000/svg"
   xmlns:svg="http://www.w3.org/2000/svg">
  <defs
     id="defs5" />
  <sodipodi:namedview
     id="namedview5"
     pagecolor="#ffffff"
     bordercolor="#000000"
     borderopacity="0.25"
     inkscape:showpageshadow="2"
     inkscape:pageopacity="0.0"
     inkscape:pagecheckerboard="0"
     inkscape:deskcolor="#d1d1d1"
     inkscape:zoom="22.627418"
     inkscape:cx="7.1815529"
     inkscape:cy="13.678096"
     inkscape:window-width="1920"
     inkscape:window-height="1131"
     inkscape:window-x="0"
     inkscape:window-y="0"
     inkscape:window-maximized="1"
     inkscape:current-layer="svg5" />
  <path
     id="path1325"
     style="color:#000000;fill:#2e3436;fill-opacity:1;stroke-width:1.01752;stroke-linecap:round;stroke-linejoin:round;stroke-miterlimit:0;-inkscape-stroke:none;paint-order:stroke fill markers"
     d="M 8.0019531 0 C 3.598165 0 -1.1842367e-15 3.6160418 0 8.0019531 C 0 9.7632072 0.58090704 11.398668 1.5605469 12.726562 C 1.3724486 12.839926 1.2367051 13.02689 1.1914062 13.253906 C 1.1756063 13.328676 1.1774594 13.472128 1.1933594 13.548828 C 1.2246793 13.695038 1.291972 13.824064 1.3886719 13.927734 C 1.4426518 13.985424 1.486902 14.021263 1.6074219 14.101562 C 2.3488921 14.595761 3.1164463 14.853948 3.9628906 14.894531 C 5.1502147 15.595096 6.5306213 16 8.0019531 16 C 10.101866 16 12.017419 15.17866 13.447266 13.84375 C 13.456445 13.850486 13.465443 13.856463 13.474609 13.863281 C 13.600499 13.956821 13.630647 13.978259 13.685547 14.005859 C 13.798557 14.062759 13.906333 14.087471 14.033203 14.087891 C 14.246703 14.088581 14.426848 14.01662 14.580078 13.869141 C 14.698658 13.754941 14.776294 13.613122 14.808594 13.451172 C 14.822494 13.381712 14.822494 13.231709 14.808594 13.162109 C 14.778674 13.01168 14.708376 12.874445 14.603516 12.765625 C 14.581597 12.742841 14.53448 12.703939 14.484375 12.664062 C 15.435812 11.347398 16.000004 9.7358563 16 8.0019531 C 16 3.6160418 12.405721 -1.1842367e-15 8.0019531 0 z M 8.0019531 1.9550781 C 11.332996 1.9563281 14.032371 4.6635701 14.03125 8.0019531 C 14.031011 8.799734 13.87415 9.5605921 13.59375 10.257812 C 13.035806 9.9622866 12.461723 9.7703038 11.873047 9.6855469 C 11.117572 9.5768463 10.347288 9.6300518 9.46875 9.8535156 L 9.390625 9.5839844 C 9.3096027 9.3072962 9.0227696 9.1494536 8.7460938 9.2304688 L 8.6738281 9.2519531 C 8.397152 9.3329685 8.2392967 9.6217514 8.3203125 9.8984375 L 8.4042969 10.185547 C 8.1122027 10.291508 7.7728991 10.424718 7.265625 10.630859 C 6.4655258 10.955969 6.1763753 11.066244 5.8222656 11.183594 C 4.6719668 11.564883 3.8599661 11.598632 3.0917969 11.294922 C 3.039277 11.274179 2.9612895 11.236001 2.8828125 11.197266 C 2.3050952 10.270233 1.9691125 9.1754566 1.96875 8.0019531 C 1.9686509 7.6847356 1.9934671 7.3680016 2.0429688 7.0546875 C 2.5070181 4.1170954 5.0343142 1.9542734 8.0019531 1.9550781 z M 7.0058594 2.8242188 C 6.9629099 2.8256855 6.9182306 2.8330445 6.875 2.8457031 L 6.8046875 2.8652344 C 6.5280115 2.9462497 6.3701562 3.2350326 6.4511719 3.5117188 L 6.609375 4.0507812 C 6.6903969 4.3274695 6.9772304 4.485312 7.2539062 4.4042969 L 7.3261719 4.3847656 C 7.602848 4.3037502 7.7607033 4.0149674 7.6796875 3.7382812 L 7.5214844 3.1972656 C 7.4531219 2.9638099 7.2377863 2.816298 7.0058594 2.8242188 z M 9.6757812 3.1132812 C 9.5002997 3.1211006 9.3329861 3.2187781 9.2421875 3.3847656 L 8.9726562 3.8789062 C 8.8342995 4.1318458 8.9267619 4.4456314 9.1796875 4.5839844 L 9.2441406 4.6210938 C 9.4970664 4.7594467 9.812812 4.6669962 9.9511719 4.4140625 L 10.220703 3.9199219 C 10.35906 3.6669823 10.266598 3.3512437 10.013672 3.2128906 L 9.9492188 3.1777344 C 9.8622755 3.1301755 9.7677001 3.1091854 9.6757812 3.1132812 z M 8.0117188 4.4785156 C 7.1788449 4.4786465 6.366312 4.9182157 5.9433594 5.6914062 C 5.3281659 6.816034 5.7503731 8.2598048 6.875 8.875 C 7.9996269 9.4901951 9.4433998 9.0679859 10.058594 7.9433594 C 10.673797 6.8187186 10.24964 5.3769114 9.125 4.7617188 C 8.7735541 4.5694703 8.3902978 4.4784561 8.0117188 4.4785156 z M 4.828125 4.5332031 C 4.6526423 4.5410243 4.4853254 4.638705 4.3945312 4.8046875 L 4.359375 4.8691406 C 4.221022 5.1220663 4.3134728 5.4378121 4.5664062 5.5761719 L 5.0605469 5.8457031 C 5.3134864 5.9840599 5.6292251 5.8915976 5.7675781 5.6386719 L 5.8027344 5.5742188 C 5.9410871 5.3212926 5.8486366 5.0055474 5.5957031 4.8671875 L 5.1015625 4.5976562 C 5.0146145 4.5500961 4.9200445 4.5291063 4.828125 4.5332031 z M 11.435547 5.2480469 C 11.392596 5.2495132 11.349873 5.2568725 11.306641 5.2695312 L 10.765625 5.4277344 C 10.488936 5.5087563 10.333047 5.7955898 10.414062 6.0722656 L 10.433594 6.1445312 C 10.514614 6.4212071 10.803392 6.5790627 11.080078 6.4980469 L 11.619141 6.3398438 C 11.895829 6.2588218 12.053672 5.9700352 11.972656 5.6933594 L 11.953125 5.6230469 C 11.884769 5.3896017 11.667479 5.2401286 11.435547 5.2480469 z M 7.890625 5.59375 A 1.2301474 1.2301474 0 0 1 8.5898438 5.7382812 A 1.2301474 1.2301474 0 0 1 9.0800781 7.4082031 A 1.2301474 1.2301474 0 0 1 7.4101562 7.8964844 A 1.2301474 1.2301474 0 0 1 6.921875 6.2265625 A 1.2301474 1.2301474 0 0 1 7.890625 5.59375 z M 5.0507812 7.1171875 C 5.0078308 7.1186539 4.9631541 7.1260132 4.9199219 7.1386719 L 4.3808594 7.296875 C 4.1041712 7.3778972 3.9463286 7.6666836 4.0273438 7.9433594 L 4.046875 8.0136719 C 4.1278899 8.290348 4.4166734 8.4482033 4.6933594 8.3671875 L 5.234375 8.2089844 C 5.5110632 8.1279621 5.6669526 7.8391758 5.5859375 7.5625 L 5.5664062 7.4921875 C 5.4980495 7.258742 5.2827135 7.1092692 5.0507812 7.1171875 z M 10.666016 7.7265625 C 10.490533 7.7343837 10.323216 7.8320644 10.232422 7.9980469 L 10.197266 8.0625 C 10.058913 8.3154257 10.151367 8.6311714 10.404297 8.7695312 L 10.898438 9.0390625 C 11.151377 9.1774193 11.467116 9.0849572 11.605469 8.8320312 L 11.640625 8.7675781 C 11.778978 8.5146524 11.686523 8.1989066 11.433594 8.0605469 L 10.939453 7.7910156 C 10.852505 7.7434555 10.757935 7.7224657 10.666016 7.7265625 z M 6.4824219 8.9511719 C 6.3069404 8.9589913 6.1396268 9.0566687 6.0488281 9.2226562 L 5.7792969 9.7167969 C 5.6409401 9.9697364 5.7334025 10.283522 5.9863281 10.421875 L 6.0507812 10.458984 C 6.3037069 10.597337 6.6194527 10.504883 6.7578125 10.251953 L 7.0273438 9.7578125 C 7.1657005 9.504873 7.0732382 9.1891343 6.8203125 9.0507812 L 6.7558594 9.015625 C 6.6689161 8.9680662 6.5743408 8.947076 6.4824219 8.9511719 z M 11.044922 11.201172 C 11.323192 11.196972 11.516593 11.211306 11.757812 11.253906 C 12.119196 11.317788 12.477105 11.441325 12.828125 11.623047 C 12.801684 11.658392 12.773283 11.691823 12.746094 11.726562 C 12.458446 11.631023 12.16802 11.560048 11.873047 11.517578 C 10.981148 11.389248 10.070211 11.485066 8.9824219 11.822266 C 8.5249423 11.964085 8.1283841 12.112291 7.265625 12.462891 C 6.4655258 12.788 6.1763753 12.900228 5.8222656 13.017578 C 5.5268775 13.11549 5.2538028 13.19003 4.9980469 13.242188 C 4.8873513 13.178364 4.7780037 13.111535 4.671875 13.041016 C 5.1912401 12.990037 5.7547333 12.8611 6.3828125 12.648438 C 6.7631521 12.519658 7.0798803 12.397083 7.9746094 12.033203 C 8.8908285 11.660573 9.3864218 11.487798 9.8945312 11.361328 C 10.324721 11.254258 10.663252 11.207172 11.044922 11.201172 z M 11.044922 13.035156 C 11.150816 13.033558 11.241392 13.034763 11.330078 13.039062 C 10.376285 13.673356 9.2323082 14.044461 8.0019531 14.044922 C 7.8573963 14.044962 7.7142806 14.037328 7.5722656 14.027344 C 7.7118223 13.97123 7.7925529 13.941228 7.9746094 13.867188 C 8.8908285 13.494558 9.3864218 13.321782 9.8945312 13.195312 C 10.324721 13.088243 10.663252 13.041156 11.044922 13.035156 z " />
</svg>
