<?xml version="1.0" encoding="UTF-8" standalone="no"?>
<svg
   height="16px"
   viewBox="0 0 16 16"
   width="16px"
   version="1.1"
   id="svg5"
   sodipodi:docname="cassette-wave-genre-sounds_of_nature&amp;noise_of_city.svg"
   inkscape:version="1.3.2 (091e20ef0f, 2023-11-25)"
   xmlns:inkscape="http://www.inkscape.org/namespaces/inkscape"
   xmlns:sodipodi="http://sodipodi.sourceforge.net/DTD/sodipodi-0.dtd"
   xmlns="http://www.w3.org/2000/svg"
   xmlns:svg="http://www.w3.org/2000/svg">
  <defs
     id="defs5" />
  <sodipodi:namedview
     id="namedview5"
     pagecolor="#ffffff"
     bordercolor="#000000"
     borderopacity="0.25"
     inkscape:showpageshadow="2"
     inkscape:pageopacity="0.0"
     inkscape:pagecheckerboard="0"
     inkscape:deskcolor="#d1d1d1"
     inkscape:zoom="16"
     inkscape:cx="0.78125"
     inkscape:cy="15.96875"
     inkscape:window-width="1920"
     inkscape:window-height="1131"
     inkscape:window-x="0"
     inkscape:window-y="0"
     inkscape:window-maximized="1"
     inkscape:current-layer="svg5" />
  <path
     id="path32"
     style="fill:#2e3436;fill-opacity:1;stroke-width:3.42557;paint-order:stroke markers fill"
     d="M 9.9594991,5.5629309e-4 C 9.7581292,-0.00911658 9.5721856,0.10807416 9.4928583,0.2933871 L 6.9952921,5.1789443 5.2817574,3.431404 C 5.0428861,3.1890018 4.6350096,3.2625292 4.4958364,3.5730962 L 2.3836735,8.296179 c -0.1027258,0.2301758 -0.011514,0.5006574 0.209705,0.6215586 l 5.0990407,2.7960654 c 0.150355,0.08203 0.3328667,0.07867 0.4798653,-0.0095 L 13.422464,8.5795643 C 13.617014,8.4635091 13.70496,8.2279582 13.634058,8.0127948 L 10.397801,0.33306136 C 10.335121,0.1418383 10.16054,0.00941665 9.9594991,5.5629309e-4 Z M 6.6420054,0.89983088 A 0.4836921,0.4836921 0 0 0 6.2547126,1.0604161 L 5.699278,1.6800846 A 0.4836921,0.4836921 0 0 0 5.633155,2.2317403 l 0.5988869,1.1127588 a 0.4836921,0.4836921 0 0 0 0.8501551,0.00189 L 7.5960686,2.4017681 A 0.4836921,0.4836921 0 0 0 7.5658409,1.8916758 L 7.010406,1.1019785 A 0.4836921,0.4836921 0 0 0 6.6420054,0.89983088 Z M 9.8933763,4.0208448 11.278184,6.7507864 10.086077,8.1696008 8.1515029,8.0071264 Z M 5.3157637,6.2954813 6.5683254,9.0254238 4.573295,7.9334462 Z m 6.5386373,4.2791137 c -0.117314,0.0016 -0.236859,0.02723 -0.351398,0.07746 L 7.9569118,12.206892 3.8988386,11.141365 C 3.4149729,11.014254 2.9226472,11.301728 2.7955264,11.785593 l -0.032117,0.12469 c -0.1271208,0.483856 0.1603628,0.976201 0.6442286,1.103312 l 1.6965315,0.445859 -1.5812883,0.693349 C 3.064726,14.353747 2.8571858,14.882985 3.0581299,15.341131 l 0.051009,0.119021 c 0.2009345,0.458146 0.7320618,0.663807 1.190217,0.462862 l 3.8143625,-1.671972 3.7217896,0.976734 c 0.483856,0.127112 0.976191,-0.160362 1.103312,-0.644229 l 0.03211,-0.124689 c 0.127121,-0.483865 -0.160363,-0.976191 -0.644228,-1.103312 l -1.358359,-0.357064 1.311128,-0.574327 c 0.458146,-0.200935 0.665695,-0.732063 0.464751,-1.190218 l -0.051,-0.117132 c -0.1507,-0.343617 -0.486881,-0.547265 -0.838819,-0.54221 z" />
</svg>
