<?xml version="1.0" encoding="UTF-8" standalone="no"?>
<svg
   height="16px"
   viewBox="0 0 16 16"
   width="16px"
   version="1.1"
   id="svg5"
   sodipodi:docname="cassette-wave-era-unfamiliar.svg"
   inkscape:version="1.3.2 (091e20ef0f, 2023-11-25)"
   xmlns:inkscape="http://www.inkscape.org/namespaces/inkscape"
   xmlns:sodipodi="http://sodipodi.sourceforge.net/DTD/sodipodi-0.dtd"
   xmlns="http://www.w3.org/2000/svg"
   xmlns:svg="http://www.w3.org/2000/svg">
  <defs
     id="defs5" />
  <sodipodi:namedview
     id="namedview5"
     pagecolor="#ffffff"
     bordercolor="#000000"
     borderopacity="0.25"
     inkscape:showpageshadow="2"
     inkscape:pageopacity="0.0"
     inkscape:pagecheckerboard="0"
     inkscape:deskcolor="#d1d1d1"
     inkscape:zoom="22.627417"
     inkscape:cx="6.607029"
     inkscape:cy="11.512582"
     inkscape:window-width="1920"
     inkscape:window-height="1131"
     inkscape:window-x="0"
     inkscape:window-y="0"
     inkscape:window-maximized="1"
     inkscape:current-layer="svg5" />
  <path
     id="path80"
     style="color:#000000;fill:#2e3436;fill-opacity:1;stroke-width:1.01752;stroke-linecap:round;stroke-linejoin:round;stroke-miterlimit:0;-inkscape-stroke:none;paint-order:stroke fill markers"
     d="M 8.0019531 0 C 3.5981606 0 0 3.6160375 0 8.0019531 C 0 12.387859 3.5981606 16 8.0019531 16 C 12.405725 16 16.00001 12.387859 16 8.0019531 C 16 3.6160375 12.405725 0 8.0019531 0 z M 8.0019531 1.9550781 A 6.0315491 6.0448405 0 0 1 14.03125 8.0019531 A 6.0315491 6.0448405 0 0 1 8.0019531 14.044922 A 6.0315491 6.0448405 0 0 1 1.96875 8.0019531 A 6.0315491 6.0448405 0 0 1 8.0019531 1.9550781 z M 8.0917969 3.6132812 C 7.7631922 3.6104488 7.4238729 3.6481813 7.1738281 3.7382812 C 7.0034283 3.7996812 6.7274467 3.930147 6.5605469 4.0292969 C 6.2679672 4.2031167 5.5923454 4.8090009 5.4160156 5.0566406 L 5.3300781 5.1777344 L 5.640625 5.4609375 C 5.8114448 5.6165473 6.0953746 5.8811683 6.2714844 6.0488281 L 6.5917969 6.3535156 L 6.7617188 6.1542969 C 7.1565084 5.6919973 7.4980803 5.46955 7.8125 5.46875 C 8.1629796 5.46812 8.518212 5.7243691 8.6074219 6.0429688 C 8.6538218 6.2086786 8.648753 6.245832 8.5644531 6.4199219 C 8.5049532 6.5427418 8.3521142 6.7182777 8.1464844 6.8984375 C 7.509005 7.4569169 7.130628 7.8622252 7.0175781 8.109375 C 6.9173482 8.3286148 6.9101562 8.3919143 6.9101562 8.9648438 L 6.9101562 9.5820312 L 7.9179688 9.5722656 L 8.9238281 9.5605469 L 8.9453125 9.1347656 C 8.9705125 8.6281761 8.9861967 8.5972652 9.4414062 8.1972656 C 10.504165 7.2633966 10.759671 6.7778691 10.644531 5.90625 C 10.499751 4.8103611 9.8971422 4.0419622 8.9394531 3.7265625 C 8.7366283 3.6596926 8.4204015 3.6161137 8.0917969 3.6132812 z M 7.8769531 10.029297 C 7.5693668 10.026586 7.2715341 10.152856 7.0332031 10.398438 C 6.8523833 10.584767 6.6972656 10.94665 6.6972656 11.1875 C 6.6972656 12.045359 7.6074608 12.636717 8.375 12.279297 C 8.8271595 12.068747 9.1139106 11.563461 9.0566406 11.076172 C 9.0084407 10.666062 8.8060571 10.374438 8.4296875 10.173828 C 8.2499952 10.078053 8.0615049 10.030924 7.8769531 10.029297 z " />
</svg>
