<?xml version="1.0" encoding="UTF-8" standalone="no"?>
<svg
   height="16px"
   viewBox="0 0 16 16"
   width="16px"
   version="1.1"
   id="svg5"
   sodipodi:docname="cassette-wave-mood-aggression.svg"
   inkscape:version="1.3.2 (091e20ef0f, 2023-11-25)"
   xmlns:inkscape="http://www.inkscape.org/namespaces/inkscape"
   xmlns:sodipodi="http://sodipodi.sourceforge.net/DTD/sodipodi-0.dtd"
   xmlns="http://www.w3.org/2000/svg"
   xmlns:svg="http://www.w3.org/2000/svg">
  <defs
     id="defs5" />
  <sodipodi:namedview
     id="namedview5"
     pagecolor="#ffffff"
     bordercolor="#000000"
     borderopacity="0.25"
     inkscape:showpageshadow="2"
     inkscape:pageopacity="0.0"
     inkscape:pagecheckerboard="0"
     inkscape:deskcolor="#d1d1d1"
     inkscape:zoom="16"
     inkscape:cx="3.15625"
     inkscape:cy="11.96875"
     inkscape:window-width="1920"
     inkscape:window-height="1131"
     inkscape:window-x="0"
     inkscape:window-y="0"
     inkscape:window-maximized="1"
     inkscape:current-layer="svg5" />
  <path
     id="path1182"
     style="fill:#2e3436;fill-opacity:1;stroke-width:3.60346;paint-order:stroke markers fill"
     d="M 8.0009969,2.5e-7 C 3.5972067,2.5e-7 0,3.6150747 0,8.0009903 0,12.386897 3.5972067,16 8.0009969,16 12.404766,16 16.00001,12.386897 16,8.0009904 16,3.6150748 12.404766,2.5e-7 8.0009969,2.5e-7 Z m 0,1.95518085 A 6.031546,6.0448401 0 0 1 14.03215,8.0009903 6.031546,6.0448401 0 0 1 8.0009969,14.044819 6.031546,6.0448401 0 0 1 1.9678505,8.0009903 6.031546,6.0448401 0 0 1 8.0009969,1.9551811 Z M 5.0103427,4.7879161 C 4.6887375,4.7947825 4.3800912,4.9632332 4.2068537,5.2613593 L 4.1390657,5.378234 C 4.0111593,5.598349 3.9817055,5.8475767 4.0373838,6.0755226 a 1.4683864,1.4589327 0 0 0 -0.095701,0.5071189 1.4683864,1.4589327 0 0 0 1.4674143,1.457967 1.4683864,1.4589327 0 0 0 1.4694081,-1.457967 1.4683864,1.4589327 0 0 0 -0.013956,-0.1723413 c 2.3e-4,-0.0013 -2.244e-4,-0.00266 0,-0.00397 C 6.9299232,6.0270572 6.7559961,5.6319679 6.4000008,5.4277532 L 5.5087851,4.9146959 C 5.3516097,4.8245362 5.1788026,4.7843186 5.0103427,4.7879161 Z m 6.0690343,0 c -0.153556,0.00412 -0.307705,0.044817 -0.450592,0.1267798 L 9.7355764,5.4277572 C 9.3814794,5.6308837 9.2085311,6.022981 9.2710281,6.4003962 a 1.4683864,1.4589327 0 0 0 -0.011963,0.1822453 1.4683864,1.4589327 0 0 0 1.4674139,1.457967 1.4683864,1.4589327 0 0 0 1.469409,-1.457967 1.4683864,1.4589327 0 0 0 -0.0957,-0.5090997 c 0.05491,-0.227308 0.02579,-0.4759454 -0.101682,-0.6953078 L 11.930716,5.2613593 C 11.749229,4.9490369 11.417198,4.7788519 11.079376,4.7879161 Z M 5.6363864,9.1459697 c -0.5386503,-1.014e-4 -0.9794367,0.412378 -1.02081,0.9369823 -0.00204,0.02667 -0.00598,0.05404 -0.00598,0.08122 0,0.0041 -8.16e-5,0.0081 0,0.01189 -3.06e-5,0.003 0,0.0059 0,0.0099 3.879e-4,0.01085 9.73e-4,0.02115 0.00199,0.0317 0.056961,1.141523 3.0730925,1.222236 3.3016823,1.222236 0.010412,0 0.059395,-9.68e-4 0.085732,-0.002 0.026235,6.48e-4 0.077313,0.002 0.087725,0.002 0.2285898,0 3.2447003,-0.08073 3.3016813,-1.222236 10e-4,-0.01329 0.002,-0.02603 0.002,-0.03962 1.12e-4,-0.0051 0,-0.0091 0,-0.01386 1.02e-4,-0.5623849 -0.45877,-1.0183123 -1.024797,-1.0182007 l -2.3646104,0.00991 z" />
</svg>
