<?xml version="1.0" encoding="UTF-8" standalone="no"?>
<svg
   height="16px"
   viewBox="0 0 16 16"
   width="16px"
   version="1.1"
   id="svg5"
   sodipodi:docname="cassette-wave-genre-light_music.svg"
   inkscape:version="1.3.2 (091e20ef0f, 2023-11-25)"
   xmlns:inkscape="http://www.inkscape.org/namespaces/inkscape"
   xmlns:sodipodi="http://sodipodi.sourceforge.net/DTD/sodipodi-0.dtd"
   xmlns="http://www.w3.org/2000/svg"
   xmlns:svg="http://www.w3.org/2000/svg">
  <defs
     id="defs5" />
  <sodipodi:namedview
     id="namedview5"
     pagecolor="#ffffff"
     bordercolor="#000000"
     borderopacity="0.25"
     inkscape:showpageshadow="2"
     inkscape:pageopacity="0.0"
     inkscape:pagecheckerboard="0"
     inkscape:deskcolor="#d1d1d1"
     inkscape:zoom="11.313709"
     inkscape:cx="-3.5797281"
     inkscape:cy="17.810252"
     inkscape:window-width="1920"
     inkscape:window-height="1131"
     inkscape:window-x="0"
     inkscape:window-y="0"
     inkscape:window-maximized="1"
     inkscape:current-layer="svg5" />
  <path
     id="path87"
     style="color:#000000;fill:#2e3436;fill-opacity:1;stroke-width:1.10101;stroke-linecap:round;stroke-linejoin:round;stroke-miterlimit:0;-inkscape-stroke:none;paint-order:stroke fill markers"
     d="M 11.913927,7.6229346e-4 C 11.702753,0.00507029 11.499638,0.03009829 11.316981,0.07287709 10.342839,0.3010337 9.6596049,0.760274 8.9332017,1.3308705 A 2.5162957,2.5162957 0 0 0 8.7929794,1.4470544 C 7.4813228,2.6406786 6.7928719,4.234222 6.603509,5.6136588 6.5152077,6.2571732 6.507613,6.8534125 6.5313952,7.4065007 6.5075032,7.4002443 6.4832821,7.3944721 6.4592814,7.3884722 5.9813105,7.2689837 5.4751708,7.19475 4.9488874,7.1901583 4.4226041,7.1855429 3.8766572,7.2492794 3.3223092,7.4065007 1.8170068,7.8334091 0.61063534,8.7350462 0.28549569,10.675684 0.12293136,11.646003 0.46817173,12.863969 1.15888,13.644389 c 0.6907083,0.780418 1.5531305,1.206968 2.5199943,1.502382 A 2.5162957,2.5162957 0 0 0 5.860332,14.798218 l 0.00401,-0.0021 c -0.014582,0.244956 0.0562,0.495592 0.2223525,0.703114 l 0.092146,0.114181 c 0.3558909,0.444519 0.9997671,0.516157 1.4442892,0.160254 L 15.367401,9.5739365 c 0.444522,-0.3558897 0.516154,-1.0017647 0.160254,-1.4462924 l -0.09214,-0.1141812 c -0.211996,-0.264795 -0.52582,-0.39407 -0.839331,-0.3826066 l 0.232367,-0.1943079 a 2.5162957,2.5162957 0 0 0 0.899421,-1.7928419 c 0.0425,-0.7771586 0.04274,-1.5040257 -0.07011,-2.2455592 C 15.545039,2.6566189 15.365239,1.8176069 14.576145,0.99233413 13.935006,0.32180159 12.828977,-0.01801691 11.913927,7.6229346e-4 Z M 12.154308,2.4867025 c 0.90699,-0.017077 1.162788,1.1711353 1.061682,3.0187856 L 9.2837574,8.7906951 A 2.5162957,2.5162957 0 0 0 9.1635669,8.6785173 C 8.969855,6.7711543 8.775704,4.8640884 10.485663,3.3080051 11.194946,2.7508626 11.742035,2.4944644 12.154308,2.4867025 Z M 4.9949593,9.6841112 c 0.8037381,-0.00363 1.5101396,0.2786853 2.1774514,0.6750708 A 2.5162957,2.5162957 0 0 0 7.4047791,10.64163 L 4.4140386,12.740957 C 1.6896086,11.908545 2.8795402,10.148202 4.007394,9.8283395 4.3534308,9.7301957 4.6818869,9.6855074 4.9949593,9.6841112 Z" />
</svg>
