<?xml version="1.0" encoding="UTF-8" standalone="no"?>
<svg
   height="16px"
   viewBox="0 0 16 16"
   width="16px"
   version="1.1"
   id="svg5"
   sodipodi:docname="cassette-wave-genre-classic.svg"
   inkscape:version="1.3.2 (091e20ef0f, 2023-11-25)"
   xmlns:inkscape="http://www.inkscape.org/namespaces/inkscape"
   xmlns:sodipodi="http://sodipodi.sourceforge.net/DTD/sodipodi-0.dtd"
   xmlns="http://www.w3.org/2000/svg"
   xmlns:svg="http://www.w3.org/2000/svg">
  <defs
     id="defs5" />
  <sodipodi:namedview
     id="namedview5"
     pagecolor="#ffffff"
     bordercolor="#000000"
     borderopacity="0.25"
     inkscape:showpageshadow="2"
     inkscape:pageopacity="0.0"
     inkscape:pagecheckerboard="0"
     inkscape:deskcolor="#d1d1d1"
     inkscape:zoom="16"
     inkscape:cx="-3.65625"
     inkscape:cy="20.15625"
     inkscape:window-width="1920"
     inkscape:window-height="1131"
     inkscape:window-x="0"
     inkscape:window-y="0"
     inkscape:window-maximized="1"
     inkscape:current-layer="svg5" />
  <path
     id="path164"
     style="color:#000000;fill:#2e3436;fill-opacity:1;stroke-width:1.12357;stroke-linejoin:round;-inkscape-stroke:none"
     d="M 4.2951221,5e-7 A 2.1267244,2.1267244 0 0 0 2.16867,2.1264525 2.1267244,2.1267244 0 0 0 3.1715478,3.9303161 V 14.189515 A 2.1267244,2.1267244 0 0 0 2.16867,15.98899 H 4.0844519 C 4.1292019,15.99469 4.1741379,16 4.2205098,16 h 0.1492247 c 0.046908,0 0.093007,-0.0051 0.1382522,-0.01101 H 6.4215742 A 2.1267244,2.1267244 0 0 0 6.3535452,15.45573 C 9.8532838,14.346612 13.151713,11.371178 13.722612,8.0318016 13.855677,7.2540635 13.870824,6.3158879 13.744556,5.5454542 13.477574,3.916149 12.596383,2.506288 11.249432,1.6283057 10.312709,1.0177554 9.2344842,0.7209577 8.1617977,0.7263733 c -0.00337,-0.00225 -0.00761,-0.00653 -0.010977,-0.00878 v 0.00219 c -0.00337,2.24e-5 -0.00648,-0.00219 -0.010977,-0.00219 -0.6765149,0.00595 -1.3482306,0.138012 -1.9859955,0.3862264 A 2.1267244,2.1267244 0 0 0 4.2951221,5e-7 Z M 7.9862392,3.719646 c 0.081106,5.853e-4 0.1805205,0.00593 0.3116163,0.010966 0.020357,7.809e-4 0.037376,0.00126 0.057056,0.00219 v 5.2118926 c 0,0.3042739 0.2443566,0.5486199 0.5486202,0.5486199 h 0.079001 c 0.3042637,0 0.5486201,-0.244346 0.5486201,-0.5486199 V 4.0773459 c 0.07934,0.051578 0.160534,0.1080149 0.250171,0.1755585 C 10.62106,4.8856678 11.043179,6.0140869 10.773229,7.5534039 10.661995,8.1876616 10.415189,8.7916693 9.9722438,9.4538245 8.9970047,10.91174 7.2304673,11.97411 5.5723093,12.561211 c -0.0539,0.0191 -0.1042733,0.04383 -0.1536137,0.07022 V 3.9303161 a 2.1267244,2.1267244 0 0 0 0.1250862,-0.087779 c 0.1740386,0.1817325 0.4057113,0.3036561 0.6561499,0.3401441 v 6.1291858 c 0,0.304275 0.2443566,0.548621 0.5486203,0.548621 h 0.079001 c 0.3042635,0 0.5486202,-0.244346 0.5486202,-0.548621 V 3.8337584 C 7.6630301,3.7424714 7.7429185,3.7178909 7.9862392,3.719646 Z" />
</svg>
