<?xml version="1.0" encoding="UTF-8" standalone="no"?>
<svg
   height="16px"
   viewBox="0 0 16 16"
   width="16px"
   version="1.1"
   id="svg5"
   sodipodi:docname="cassette-wave-genre-bandstand.svg"
   inkscape:version="1.3.2 (091e20ef0f, 2023-11-25)"
   xmlns:inkscape="http://www.inkscape.org/namespaces/inkscape"
   xmlns:sodipodi="http://sodipodi.sourceforge.net/DTD/sodipodi-0.dtd"
   xmlns="http://www.w3.org/2000/svg"
   xmlns:svg="http://www.w3.org/2000/svg">
  <defs
     id="defs5" />
  <sodipodi:namedview
     id="namedview5"
     pagecolor="#ffffff"
     bordercolor="#000000"
     borderopacity="0.25"
     inkscape:showpageshadow="2"
     inkscape:pageopacity="0.0"
     inkscape:pagecheckerboard="0"
     inkscape:deskcolor="#d1d1d1"
     inkscape:zoom="16"
     inkscape:cx="-4.65625"
     inkscape:cy="16.15625"
     inkscape:window-width="1920"
     inkscape:window-height="1131"
     inkscape:window-x="0"
     inkscape:window-y="0"
     inkscape:window-maximized="1"
     inkscape:current-layer="svg5" />
  <path
     id="path201"
     style="color:#000000;fill:#2e3436;fill-opacity:1;stroke-width:1.22415;stroke-linecap:round;stroke-linejoin:round;stroke-miterlimit:0;-inkscape-stroke:none;paint-order:stroke fill markers"
     d="M 8 0 C 3.6114845 0 0 3.6114845 0 8 C 0 12.388516 3.6114845 16 8 16 C 12.388516 16 16 12.388516 16 8 C 16 3.6114845 12.388516 0 8 0 z M 8 2.4492188 C 11.046447 2.4492188 13.550781 4.9535527 13.550781 8 C 13.550781 11.046447 11.046447 13.550781 8 13.550781 C 4.9535527 13.550781 2.4492187 11.046447 2.4492188 8 C 2.4492188 4.9535527 4.9535527 2.4492187 8 2.4492188 z M 8.78125 4.2070312 C 8.4060138 4.1848909 8.1233984 4.3760702 8.0878906 4.7675781 C 8.0880742 5.0981711 8.3559079 5.2723473 8.6816406 5.3691406 C 9.8831894 5.6784334 10.724348 6.7593032 10.730469 8 C 10.726769 8.4554313 10.619663 8.9069665 10.390625 9.2988281 C 10.112756 9.7741646 10.396503 10.259485 10.855469 10.259766 C 11.092354 10.258666 11.314315 10.103532 11.398438 9.8847656 C 11.712015 9.3254652 11.892578 8.6819351 11.892578 8 C 11.892578 6.1906628 10.63092 4.6582099 8.9472656 4.2304688 C 8.8902847 4.2185639 8.8348552 4.2101942 8.78125 4.2070312 z M 8 7.1386719 C 7.5004014 7.1385005 7.0948884 7.5433701 7.09375 8.0429688 C 7.0935786 8.5434972 7.4994711 8.9493897 8 8.9492188 C 8.5005289 8.9493897 8.906421 8.5434972 8.90625 8.0429688 C 8.905111 7.5433701 8.4995986 7.1385005 8 7.1386719 z " />
</svg>
