<?xml version="1.0" encoding="UTF-8" standalone="no"?>
<svg
   height="16px"
   viewBox="0 0 16 16"
   width="16px"
   version="1.1"
   id="svg5"
   sodipodi:docname="cassette-wave-genre-punk.svg"
   inkscape:version="1.3.2 (091e20ef0f, 2023-11-25)"
   xmlns:inkscape="http://www.inkscape.org/namespaces/inkscape"
   xmlns:sodipodi="http://sodipodi.sourceforge.net/DTD/sodipodi-0.dtd"
   xmlns="http://www.w3.org/2000/svg"
   xmlns:svg="http://www.w3.org/2000/svg">
  <defs
     id="defs5" />
  <sodipodi:namedview
     id="namedview5"
     pagecolor="#ffffff"
     bordercolor="#000000"
     borderopacity="0.25"
     inkscape:showpageshadow="2"
     inkscape:pageopacity="0.0"
     inkscape:pagecheckerboard="0"
     inkscape:deskcolor="#d1d1d1"
     inkscape:zoom="16"
     inkscape:cx="-4.65625"
     inkscape:cy="16.15625"
     inkscape:window-width="1920"
     inkscape:window-height="1131"
     inkscape:window-x="0"
     inkscape:window-y="0"
     inkscape:window-maximized="1"
     inkscape:current-layer="svg5" />
  <path
     id="path802"
     style="fill:#2e3436;fill-opacity:1;stroke-width:3.10368;paint-order:stroke markers fill"
     inkscape:transform-center-x="-2.2560875"
     inkscape:transform-center-y="-3.7601404"
     d="M 12.401185,2.5039952e-5 C 11.473827,2.6139952e-5 10.548269,0.35024425 9.8515523,1.0469656 c -0.0048,0.00473 -0.0092,0.00706 -0.0129,0.010754 -0.0012,0.00121 -0.0053,0.00524 -0.0065,0.00645 L 6.8655139,4.0308583 C 6.5449941,4.3513777 6.690674,5.0125987 7.19013,5.5120532 L 7.3169668,5.6388906 C 7.8164466,6.1383704 8.4776539,6.2840141 8.7981617,5.9635068 L 9.3098083,5.45186 11.764851,2.9968167 c 0.32052,-0.3205184 0.836058,-0.3205063 1.156579,0 l 0.08169,0.081692 c 0.32052,0.3205205 0.32052,0.8360593 0,1.1565787 l -2.455041,2.4571872 -0.509496,0.5116467 c -0.2742237,0.2742236 -0.2064587,0.79517 0.131136,1.253319 L 7.0912413,11.535718 C 6.9408035,10.915661 6.6249718,10.329912 6.1474901,9.8524439 5.4687394,9.1736871 4.5721037,8.8251486 3.6687994,8.8076533 L 6.4807052,4.1469409 C 6.7148577,3.7588373 6.591476,3.2588512 6.2033842,3.0247586 l -0.09889,-0.060194 C 5.7164034,2.730408 5.2142669,2.8537926 4.9801622,3.2418852 L 0.9020389,10.002929 c -0.00133,0.0022 -0.00299,0.0042 -0.0043,0.0064 -1.2435531,1.405151 -1.19386852,3.602264 0.148339,4.944483 1.3934437,1.393444 3.7101339,1.395589 5.1035659,0.0022 0.00478,-0.0047 0.00919,-0.0092 0.012899,-0.0129 0.0012,-0.0012 0.0031,-0.0031 0.0043,-0.0043 L 11.751953,9.3536959 c 0.042,-0.042 0.07864,-0.087597 0.10964,-0.1354355 0.03946,-0.023206 0.07464,-0.050988 0.107492,-0.083841 l 2.966691,-2.9666891 0.0065,-0.00645 0.0129,-0.010743 C 16.348613,4.7571056 16.346466,2.440415 14.952968,1.0469711 14.256252,0.35025525 13.328543,2.9439952e-5 12.401185,3.0539952e-5 Z M 3.5978569,10.677958 a 1.7268117,1.7268117 0 0 1 1.2210722,0.503047 1.7268117,1.7268117 0 0 1 0,2.444294 1.7268117,1.7268117 0 0 1 -2.4421445,0 1.7268117,1.7268117 0 0 1 0,-2.442144 1.7268117,1.7268117 0 0 1 1.2210723,-0.505197 z" />
</svg>
