<?xml version="1.0" encoding="UTF-8" standalone="no"?>
<svg
   height="16px"
   viewBox="0 0 16 16"
   width="16px"
   version="1.1"
   id="svg5"
   sodipodi:docname="cassette-wave-mood-epic.svg"
   inkscape:version="1.3.2 (091e20ef0f, 2023-11-25)"
   xmlns:inkscape="http://www.inkscape.org/namespaces/inkscape"
   xmlns:sodipodi="http://sodipodi.sourceforge.net/DTD/sodipodi-0.dtd"
   xmlns="http://www.w3.org/2000/svg"
   xmlns:svg="http://www.w3.org/2000/svg">
  <defs
     id="defs5" />
  <sodipodi:namedview
     id="namedview5"
     pagecolor="#ffffff"
     bordercolor="#000000"
     borderopacity="0.25"
     inkscape:showpageshadow="2"
     inkscape:pageopacity="0.0"
     inkscape:pagecheckerboard="0"
     inkscape:deskcolor="#d1d1d1"
     inkscape:zoom="16.000001"
     inkscape:cx="4.0312498"
     inkscape:cy="10.09375"
     inkscape:window-width="1920"
     inkscape:window-height="1131"
     inkscape:window-x="0"
     inkscape:window-y="0"
     inkscape:window-maximized="1"
     inkscape:current-layer="svg5" />
  <path
     id="path1422"
     style="color:#000000;fill:#2e3436;fill-opacity:1;stroke-width:1.01752;stroke-linecap:round;stroke-linejoin:round;stroke-miterlimit:0;-inkscape-stroke:none;paint-order:stroke fill markers"
     d="M 8.0009969,2.5e-7 C 3.5972067,2.5e-7 0,3.6150747 0,8.0009903 0,12.386896 3.5972067,16 8.0009969,16 12.404766,16 16.00001,12.386896 16,8.0009904 16,3.6150748 12.404766,2.5e-7 8.0009969,2.5e-7 Z m 0,1.95518085 A 6.031546,6.0448401 0 0 1 13.541682,5.615946 H 13.362243 C 13.246979,5.204346 12.944555,4.912715 12.58866,4.912715 H 8.9520249 c -0.3558181,0 -0.6548121,0.2917577 -0.7695949,0.703231 H 7.8195639 C 7.7046078,5.2041046 7.4038626,4.9107342 7.0479752,4.9107342 H 3.4093458 c -0.3558954,0 -0.6566296,0.2933704 -0.7715887,0.7052118 H 2.4762617 A 6.031546,6.0448401 0 0 1 8.0009969,1.9551811 Z m 2.8311521,3.3576822 c 0.05712,0.0014 0.114202,0.033289 0.143552,0.093104 h 0.0019 l 0.273147,0.5566422 0.612088,0.089142 c 0.116795,0.017039 0.172404,0.1444234 0.119625,0.2396928 -0.0038,0.00681 -0.0091,0.013398 -0.01395,0.019809 -0.005,0.00657 -0.0098,0.013755 -0.01595,0.01981 l -0.442618,0.433824 0.103677,0.6140896 c 0.02276,0.1335944 -0.115943,0.2353955 -0.235265,0.1723403 L 10.830072,7.260121 10.283779,7.5513178 C 10.164436,7.6144038 10.023726,7.5125718 10.04652,7.3789775 L 10.15219,6.7648879 9.7095733,6.3310639 c -0.012071,-0.011829 -0.020377,-0.026008 -0.027913,-0.039619 -0.037677,-0.068056 -0.021632,-0.1527858 0.033894,-0.2020555 0.022211,-0.019708 0.050383,-0.032762 0.083738,-0.037637 l 0.6120867,-0.089142 0.273147,-0.5566422 c 0.02613,-0.053146 0.07319,-0.084531 0.123614,-0.091123 0.0081,-0.00101 0.01576,-0.00218 0.02393,-0.00198 z M 2.1871651,6.4519002 h 0.4007476 v 1.1251701 c 0,0.595307 0.3702458,1.1578003 0.8214331,1.0756471 L 7.0479752,7.9910853 c 0.4511873,-0.082092 0.821433,-0.4803299 0.821433,-1.075647 V 6.4519002 H 8.130592 v 0.4635381 c 0,0.5953171 0.3702457,0.9935546 0.8214329,1.075647 L 12.58866,8.6527174 c 0.451188,0.082153 0.823427,-0.4783592 0.823427,-1.0736662 v -1.127151 h 0.416698 A 6.031546,6.0448401 0 0 1 14.03215,8.0009903 6.031546,6.0448401 0 0 1 8.0009969,14.044819 6.031546,6.0448401 0 0 1 1.9678505,8.0009903 6.031546,6.0448401 0 0 1 2.1871651,6.4519002 Z M 4.5438007,9.0964464 C 3.9777723,9.0963348 3.518901,9.5522622 3.5190031,10.114647 c 0,0.0051 -1.123e-4,0.0091 0,0.01386 0,0.01359 8.811e-4,0.02633 0.00199,0.03962 0.22075,0.304808 0.5136349,0.571437 0.8573209,0.802278 0.00919,0.0061 0.016834,0.01372 0.025919,0.01981 0.039607,0.02617 0.078713,0.0521 0.1196262,0.07725 0.9333357,0.592528 2.1370336,0.876144 3.3415575,0.889439 0.089525,9.84e-4 0.1797055,0.002 0.2691589,0 1.2554726,-0.0141 2.5110634,-0.321619 3.4591904,-0.966695 0.01154,-0.0071 0.02256,-0.01617 0.03389,-0.02377 0.34051,-0.229745 0.632161,-0.495669 0.851339,-0.798316 0.001,-0.01329 0.0019,-0.02602 0.0019,-0.03962 1.12e-4,-0.0051 0,-0.0091 0,-0.01386 1.02e-4,-0.5623849 -0.45877,-1.0183123 -1.024798,-1.0182007 -1.5487,0.3585737 -2.5021756,0.6280932 -3.449221,0.6754987 -0.0051,-2.536e-4 -0.010642,2.637e-4 -0.01595,0 C 7.0439419,9.7244726 6.0922964,9.4549836 4.5436986,9.0964403 Z" />
</svg>
