<?xml version="1.0" encoding="UTF-8" standalone="no"?>
<svg
   height="16px"
   viewBox="0 0 16 16"
   width="16px"
   version="1.1"
   id="svg5"
   sodipodi:docname="cassette-wave-era-new_year's_tales.svg"
   inkscape:version="1.3.2 (091e20ef0f, 2023-11-25)"
   xmlns:inkscape="http://www.inkscape.org/namespaces/inkscape"
   xmlns:sodipodi="http://sodipodi.sourceforge.net/DTD/sodipodi-0.dtd"
   xmlns="http://www.w3.org/2000/svg"
   xmlns:svg="http://www.w3.org/2000/svg">
  <defs
     id="defs5" />
  <sodipodi:namedview
     id="namedview5"
     pagecolor="#ffffff"
     bordercolor="#000000"
     borderopacity="0.25"
     inkscape:showpageshadow="2"
     inkscape:pageopacity="0.0"
     inkscape:pagecheckerboard="0"
     inkscape:deskcolor="#d1d1d1"
     inkscape:zoom="16"
     inkscape:cx="1.09375"
     inkscape:cy="6.53125"
     inkscape:window-width="1920"
     inkscape:window-height="1131"
     inkscape:window-x="0"
     inkscape:window-y="0"
     inkscape:window-maximized="1"
     inkscape:current-layer="svg5" />
  <path
     id="path146"
     style="fill:#2e3436;fill-opacity:1;stroke-width:1.97916;paint-order:stroke markers fill"
     inkscape:transform-center-x="1.2143527"
     inkscape:transform-center-y="4.5320768"
     d="M 8.0214844 0 C 5.9663264 0.007999992 3.9097209 0.79543718 2.3515625 2.3535156 C -0.76474438 5.4696725 -0.79247064 10.574877 2.3164062 13.683594 C 5.4252731 16.792301 10.532131 16.764604 13.648438 13.648438 C 16.106085 11.19092 16.641414 7.4947251 15.234375 4.5175781 C 15.352375 4.4665782 15.463887 4.3935449 15.560547 4.296875 L 15.666016 4.1933594 C 16.075135 3.7842298 16.075165 3.1239633 15.666016 2.7148438 L 15.1875 2.2363281 C 15.30815 1.8735385 15.223303 1.4576985 14.933594 1.1679688 L 14.828125 1.0625 C 14.538255 0.77267029 14.124628 0.689707 13.761719 0.81054688 L 13.283203 0.33398438 C 12.874064 -0.075135216 12.217733 -0.075125216 11.808594 0.33398438 L 11.703125 0.43945312 C 11.606325 0.53625303 11.531499 0.64756512 11.480469 0.765625 C 10.39116 0.25111551 9.2072232 -0.0047299953 8.0214844 0 z M 7.8886719 1.9550781 C 8.1097675 1.9491563 8.3320877 1.9540325 8.5546875 1.9726562 C 9.8572162 2.0882361 11.082969 2.6234377 12.048828 3.4980469 C 12.090928 3.5663468 12.141902 3.6321263 12.201172 3.6914062 L 12.304688 3.7949219 C 12.378487 3.8687218 12.463581 3.9293925 12.550781 3.9765625 C 14.655839 6.3619801 14.52719 9.988975 12.257812 12.257812 C 9.885995 14.62968 6.0568758 14.64591 3.7050781 12.294922 C 1.3522105 9.9434644 1.3674767 6.1146751 3.7402344 3.7421875 C 4.851702 2.6311574 6.3410023 1.9965312 7.8886719 1.9550781 z M 9.4765625 3.9316406 C 9.3555333 3.9408899 9.2463474 4.0422103 9.2480469 4.1855469 L 9.2597656 5.1425781 L 8.5 5.6933594 C 8.3343642 5.813587 8.374488 6.0768507 8.5683594 6.1386719 L 9.4589844 6.4238281 L 9.734375 7.3359375 C 9.7945711 7.5349486 10.050664 7.576541 10.167969 7.40625 L 10.707031 6.6269531 L 11.636719 6.6386719 C 11.839859 6.6412541 11.958734 6.4040191 11.837891 6.2363281 L 11.279297 5.4707031 L 11.578125 4.5644531 C 11.643343 4.3671337 11.459823 4.1791838 11.267578 4.2460938 L 10.386719 4.5527344 L 9.640625 3.9804688 C 9.5897853 3.9415481 9.5315758 3.9274364 9.4765625 3.9316406 z M 8.6816406 6.546875 C 8.6007257 6.5508058 8.5202715 6.5759399 8.4453125 6.6210938 L 4.1582031 9.203125 C 4.1193491 9.2265306 4.0850926 9.2540312 4.0546875 9.2851562 L 3.8457031 9.0722656 C 3.6423345 8.8668658 3.3171909 8.8692347 3.1171875 9.078125 L 3.0664062 9.1308594 C 2.8661515 9.3394024 2.8705537 9.6718236 3.0722656 9.8789062 L 6.1230469 12.958984 C 6.3263764 13.164354 6.6503495 13.162543 6.8515625 12.955078 L 6.9023438 12.902344 C 7.1031195 12.694419 7.0981964 12.36138 6.8964844 12.154297 L 6.6914062 11.947266 C 6.7199287 11.916488 6.7461649 11.882457 6.7675781 11.84375 L 9.2226562 7.4082031 C 9.3492065 7.1794657 9.2904435 6.896228 9.0976562 6.7363281 C 9.0811773 6.7195881 9.0708715 6.6982556 9.0546875 6.6816406 L 9.0507812 6.6855469 C 8.9497252 6.5901478 8.8164989 6.5403237 8.6816406 6.546875 z M 7.2734375 8.6386719 L 6.5820312 9.8886719 A 0.66404148 0.6817221 0 0 0 6.0078125 10.082031 A 0.66404148 0.6817221 0 0 0 5.96875 10.994141 L 5.890625 11.136719 L 4.8574219 10.09375 L 5.6035156 9.6445312 A 0.66404148 0.6817221 0 0 0 6.4121094 9.5351562 A 0.66404148 0.6817221 0 0 0 6.6035156 9.0429688 L 7.2734375 8.6386719 z " />
</svg>
