<?xml version="1.0" encoding="UTF-8" standalone="no"?>
<svg
   height="16px"
   viewBox="0 0 16 16"
   width="16px"
   version="1.1"
   id="svg5"
   sodipodi:docname="cassette-wave-era-eternal_hits.svg"
   inkscape:version="1.3.2 (091e20ef0f, 2023-11-25)"
   xmlns:inkscape="http://www.inkscape.org/namespaces/inkscape"
   xmlns:sodipodi="http://sodipodi.sourceforge.net/DTD/sodipodi-0.dtd"
   xmlns="http://www.w3.org/2000/svg"
   xmlns:svg="http://www.w3.org/2000/svg">
  <defs
     id="defs5" />
  <sodipodi:namedview
     id="namedview5"
     pagecolor="#ffffff"
     bordercolor="#000000"
     borderopacity="0.25"
     inkscape:showpageshadow="2"
     inkscape:pageopacity="0.0"
     inkscape:pagecheckerboard="0"
     inkscape:deskcolor="#d1d1d1"
     inkscape:zoom="8"
     inkscape:cx="-1.4375"
     inkscape:cy="13.8125"
     inkscape:window-width="1920"
     inkscape:window-height="1131"
     inkscape:window-x="0"
     inkscape:window-y="0"
     inkscape:window-maximized="1"
     inkscape:current-layer="svg5" />
  <path
     id="path1689"
     style="fill:#2e3436;fill-opacity:1;stroke-width:3.88646;paint-order:stroke markers fill"
     d="M 1.2128906 0 C 0.64530033 0 0.18945312 0.4578085 0.18945312 1.0253906 L 0.18945312 1.1699219 C 0.18945312 1.7375142 0.64530033 2.1953125 1.2128906 2.1953125 L 2.0039062 2.1953125 C 1.8958418 2.6548922 1.8401952 3.1263552 1.8398438 3.5996094 A 1.5606219 1.5606219 0 0 0 1.8398438 3.6015625 C 1.8400534 3.7395301 1.8469478 3.8739174 1.8554688 4.0019531 C 1.8637087 4.1293172 1.8752271 4.2588133 1.8925781 4.3925781 C 1.9099691 4.5266075 1.9304511 4.6574775 1.9550781 4.7832031 C 1.9771301 4.8959034 2.0030438 4.998847 2.0273438 5.0957031 A 1.5606219 1.5606219 0 0 0 2.0273438 5.0996094 C 2.0227638 5.0814954 2.0279244 5.1024338 2.0449219 5.1679688 A 1.5606219 1.5606219 0 0 0 2.0449219 5.1738281 C 2.1134578 5.4328709 2.1990369 5.6766982 2.2910156 5.9042969 C 2.3368586 6.017567 2.385708 6.1232466 2.4316406 6.2207031 C 2.4253306 6.2073721 2.4293952 6.2200029 2.4550781 6.2734375 A 1.5606219 1.5606219 0 0 0 2.4570312 6.2753906 C 2.5033122 6.3711475 2.5529818 6.4714924 2.6074219 6.5703125 C 2.6101719 6.5754025 2.6088881 6.573035 2.6113281 6.578125 C 2.6146881 6.584235 2.6176338 6.5894961 2.6210938 6.5957031 A 1.5606219 1.5606219 0 0 0 2.6269531 6.6074219 C 2.6870331 6.7145864 2.7536417 6.8251762 2.8261719 6.9375 C 2.9019738 7.0548916 2.9762133 7.1602244 3.046875 7.2558594 C 3.1187489 7.3530413 3.1979149 7.4565058 3.2871094 7.5625 C 3.3694343 7.6602919 3.4501061 7.7466958 3.5273438 7.828125 C 3.4773998 7.8806339 3.4284612 7.929728 3.3769531 7.9882812 C 3.2832822 8.0947232 3.2041083 8.1949852 3.1328125 8.2871094 A 1.5606219 1.5606219 0 0 0 3.1230469 8.2988281 A 1.5606219 1.5606219 0 0 0 3.1191406 8.3046875 C 3.1644756 8.2451576 3.1008512 8.3320514 3.0976562 8.3339844 A 1.5606219 1.5606219 0 0 0 3.0625 8.3828125 C 3.029194 8.4271805 2.9956478 8.4743174 2.9609375 8.5234375 C 2.9402085 8.5527445 2.9214346 8.5763849 2.9003906 8.6074219 A 1.5606219 1.5606219 0 0 0 2.890625 8.6230469 A 1.5606219 1.5606219 0 0 0 2.8886719 8.625 C 2.8806319 8.637008 2.8732534 8.6500004 2.8652344 8.6621094 A 1.5606219 1.5606219 0 0 0 2.8535156 8.6757812 C 2.8018317 8.7543412 2.7514652 8.8369046 2.7011719 8.921875 C 2.6580659 8.9937179 2.6500463 9.0068516 2.6757812 8.9628906 A 1.5606219 1.5606219 0 0 0 2.6738281 8.96875 C 2.6131603 9.0733904 2.549233 9.1863483 2.4882812 9.3085938 C 2.4299213 9.4255578 2.3857281 9.5289607 2.3476562 9.6171875 C 2.3591752 9.5901195 2.3512881 9.6066786 2.3144531 9.6953125 A 1.5606219 1.5606219 0 0 0 2.3125 9.6972656 C 2.274146 9.7897665 2.2488977 9.8606291 2.2304688 9.9101562 C 2.2225288 9.9315262 2.1981316 9.9872703 2.1660156 10.082031 C 2.1286287 10.192472 2.1100795 10.264486 2.1015625 10.292969 L 2.1035156 10.291016 C 2.0915076 10.331106 2.0732395 10.384374 2.0546875 10.453125 A 1.5606219 1.5606219 0 0 0 2.0546875 10.455078 C 2.0324425 10.537708 2.007922 10.632499 1.984375 10.740234 C 1.990885 10.709804 1.9824318 10.734528 1.9628906 10.830078 C 1.9347637 10.968697 1.9154415 11.101601 1.8984375 11.226562 C 1.8835705 11.335599 1.8760707 11.416821 1.8710938 11.46875 C 1.8684438 11.49623 1.8616037 11.556293 1.8554688 11.646484 A 1.5606219 1.5606219 0 0 0 1.8554688 11.648438 C 1.8471288 11.774784 1.8400577 11.90612 1.8398438 12.044922 A 1.5606219 1.5606219 0 0 0 1.8398438 12.0625 C 1.844787 12.654242 1.9358384 13.240608 2.1074219 13.804688 L 1.2128906 13.804688 C 0.64530033 13.804688 0.18945312 14.262496 0.18945312 14.830078 L 0.18945312 14.974609 C 0.18945313 15.542202 0.64530033 16 1.2128906 16 L 14.787109 16 C 15.35471 16 15.810547 15.542202 15.810547 14.974609 L 15.810547 14.830078 C 15.810547 14.262496 15.35471 13.804688 14.787109 13.804688 L 13.892578 13.804688 C 14.064178 13.240638 14.155273 12.654317 14.160156 12.0625 A 1.5606219 1.5606219 0 0 0 14.160156 12.060547 A 1.5606219 1.5606219 0 0 0 14.160156 12.058594 A 1.5606219 1.5606219 0 0 0 14.160156 12.056641 A 1.5606219 1.5606219 0 0 0 14.160156 12.054688 A 1.5606219 1.5606219 0 0 0 14.160156 12.052734 A 1.5606219 1.5606219 0 0 0 14.160156 12.050781 A 1.5606219 1.5606219 0 0 0 14.160156 12.048828 A 1.5606219 1.5606219 0 0 0 14.160156 12.046875 A 1.5606219 1.5606219 0 0 0 14.160156 12.044922 C 14.159945 11.906995 14.153041 11.776483 14.144531 11.648438 C 14.138331 11.554618 14.131476 11.494852 14.128906 11.46875 L 14.128906 11.466797 C 14.123806 11.413067 14.118066 11.333666 14.103516 11.226562 A 1.5606219 1.5606219 0 0 0 14.103516 11.224609 C 14.086536 11.09986 14.065279 10.968901 14.037109 10.830078 A 1.5606219 1.5606219 0 0 0 14.035156 10.828125 C 14.014196 10.725651 14.006115 10.696687 14.015625 10.740234 C 13.991995 10.632113 13.969426 10.537444 13.947266 10.455078 C 13.928316 10.384758 13.909867 10.331231 13.898438 10.292969 A 1.5606219 1.5606219 0 0 0 13.898438 10.291016 C 13.890238 10.263436 13.873507 10.193032 13.835938 10.082031 C 13.804118 9.9881053 13.779714 9.9320857 13.771484 9.9101562 L 13.771484 9.9082031 C 13.752764 9.8577292 13.7256 9.7870602 13.6875 9.6953125 A 1.5606219 1.5606219 0 0 0 13.6875 9.6933594 A 1.5606219 1.5606219 0 0 0 13.6875 9.6914062 C 13.64678 9.5939193 13.633917 9.5699096 13.654297 9.6171875 C 13.616357 9.5293676 13.569951 9.4253746 13.511719 9.3085938 C 13.450509 9.1857682 13.388487 9.0729227 13.328125 8.96875 A 1.5606219 1.5606219 0 0 0 13.322266 8.9589844 C 13.343736 8.9954143 13.327251 8.9665416 13.306641 8.9316406 L 13.302734 8.921875 C 13.254964 8.8410771 13.205386 8.7665364 13.15625 8.6914062 C 13.18468 8.7388272 13.174204 8.68957 13.03125 8.5097656 C 12.98102 8.4392457 12.929624 8.3656118 12.882812 8.3046875 C 12.777837 8.1524633 12.748298 8.1325039 12.867188 8.2871094 C 12.795618 8.1946085 12.715509 8.09338 12.623047 7.9882812 L 12.625 7.9882812 C 12.57288 7.9289543 12.523064 7.8810509 12.472656 7.828125 C 12.550186 7.7464111 12.630733 7.6581662 12.712891 7.5605469 C 12.802031 7.454634 12.881045 7.3534075 12.953125 7.2558594 C 13.024125 7.1597975 13.098193 7.0546168 13.173828 6.9375 C 13.245858 6.8260106 13.311753 6.7169968 13.371094 6.6113281 C 13.370717 6.6119998 13.373147 6.6074219 13.373047 6.6074219 A 1.5606219 1.5606219 0 0 0 13.388672 6.578125 C 13.390072 6.575075 13.391178 6.5753256 13.392578 6.5722656 C 13.447808 6.4721328 13.498438 6.3714936 13.544922 6.2753906 A 1.5606219 1.5606219 0 0 0 13.546875 6.2695312 C 13.569975 6.2211953 13.574562 6.209896 13.570312 6.21875 L 13.572266 6.2128906 C 13.617236 6.1173367 13.665628 6.0144335 13.710938 5.9023438 C 13.802707 5.6752743 13.886639 5.4340812 13.955078 5.1757812 L 13.955078 5.1738281 C 13.973148 5.1055462 13.979319 5.0769791 13.974609 5.0957031 A 1.5606219 1.5606219 0 0 0 13.974609 5.09375 C 13.998739 4.9973821 14.022852 4.8939503 14.044922 4.78125 C 14.069612 4.6552801 14.090052 4.5263429 14.107422 4.3925781 C 14.124672 4.259607 14.136241 4.1290831 14.144531 4.0019531 L 14.144531 3.9960938 C 14.152931 3.8688111 14.159956 3.7379324 14.160156 3.6015625 A 1.5606219 1.5606219 0 0 0 14.160156 3.5996094 C 14.159878 3.12609 14.104152 2.6549139 13.996094 2.1953125 L 14.787109 2.1953125 C 15.35471 2.1953125 15.810547 1.7375142 15.810547 1.1699219 L 15.810547 1.0253906 C 15.810547 0.4578085 15.35471 1.4802959e-16 14.787109 0 L 1.2128906 0 z M 3.6230469 2.1953125 L 12.376953 2.1953125 C 12.522942 2.6491554 12.599254 3.1226802 12.599609 3.5996094 C 12.599457 3.6993353 12.596444 3.7997293 12.589844 3.8984375 C 12.583444 3.9973494 12.573197 4.0939192 12.560547 4.1914062 C 12.547837 4.2893002 12.532502 4.3862578 12.513672 4.4824219 C 12.498312 4.5608798 12.478334 4.6395603 12.458984 4.7167969 C 12.454184 4.7360299 12.450322 4.7562596 12.445312 4.7753906 C 12.396093 4.9614402 12.335241 5.141275 12.263672 5.3183594 C 12.231382 5.3982423 12.196807 5.474989 12.160156 5.5527344 C 12.153556 5.5668794 12.147335 5.5836133 12.140625 5.5976562 C 12.101635 5.6782512 12.061145 5.7559338 12.017578 5.8339844 C 12.015978 5.8370344 12.011366 5.840694 12.009766 5.84375 C 11.962926 5.9272959 11.915217 6.0094525 11.863281 6.0898438 C 11.810841 6.1710487 11.756694 6.2484265 11.699219 6.3261719 C 11.641589 6.4041208 11.5801 6.4823551 11.517578 6.5566406 C 11.455158 6.6308246 11.389398 6.7012693 11.322266 6.7714844 C 11.255156 6.8416993 11.186884 6.9104179 11.115234 6.9765625 C 10.971091 7.1094014 10.815778 7.2352504 10.654297 7.3496094 C 10.573517 7.4067993 10.491109 7.4595153 10.40625 7.5117188 L 10.40625 7.5136719 C 10.227133 7.6819337 10.232562 8.004287 10.40625 8.1367188 C 10.45453 8.1662297 10.501894 8.1972747 10.548828 8.2285156 C 10.631398 8.2835686 10.712741 8.34261 10.791016 8.4023438 C 10.794016 8.4043837 10.795928 8.4051431 10.798828 8.4082031 C 10.875678 8.4672241 10.950892 8.5304547 11.023438 8.59375 C 11.025237 8.59579 11.027497 8.5975694 11.029297 8.5996094 C 11.096417 8.6584273 11.161303 8.7170191 11.224609 8.7792969 C 11.237089 8.7915079 11.249399 8.8039913 11.261719 8.8164062 C 11.327129 8.8822452 11.392018 8.9479737 11.453125 9.0175781 C 11.516795 9.0899301 11.575917 9.1660703 11.634766 9.2421875 C 11.638066 9.2462575 11.641231 9.2510734 11.644531 9.2558594 C 11.701201 9.3296363 11.756573 9.4035374 11.808594 9.4804688 C 11.811794 9.4845387 11.815259 9.4893596 11.818359 9.4941406 C 11.868659 9.5691386 11.917112 9.646864 11.962891 9.7246094 C 11.968391 9.7337694 11.971153 9.7427941 11.976562 9.7519531 C 12.024752 9.835092 12.072339 9.917816 12.115234 10.003906 C 12.152944 10.079516 12.187173 10.156731 12.220703 10.234375 C 12.229103 10.253915 12.239797 10.275182 12.248047 10.294922 C 12.269967 10.347732 12.288634 10.399395 12.308594 10.453125 C 12.324544 10.495865 12.342732 10.538626 12.357422 10.582031 C 12.374952 10.633831 12.388607 10.687827 12.404297 10.740234 C 12.416427 10.780834 12.428433 10.82038 12.439453 10.861328 C 12.458413 10.931748 12.476548 11.002681 12.492188 11.074219 C 12.497087 11.096609 12.503213 11.118235 12.507812 11.140625 C 12.527612 11.238215 12.543151 11.336433 12.556641 11.435547 C 12.564741 11.495687 12.572325 11.558491 12.578125 11.619141 C 12.582425 11.663711 12.586914 11.707118 12.589844 11.751953 C 12.596444 11.850663 12.599409 11.949102 12.599609 12.048828 C 12.594609 12.649493 12.473529 13.243357 12.240234 13.796875 L 3.7636719 13.796875 C 3.5303756 13.243345 3.4053769 12.649493 3.4003906 12.048828 C 3.4005432 11.949098 3.4055734 11.850662 3.4121094 11.751953 C 3.4151594 11.706973 3.4214853 11.663675 3.4257812 11.619141 C 3.4315812 11.558491 3.4370695 11.495688 3.4453125 11.435547 C 3.4588065 11.336437 3.4723855 11.238214 3.4921875 11.140625 C 3.4967675 11.118035 3.5028165 11.096709 3.5078125 11.074219 C 3.5234425 11.002779 3.543521 10.931848 3.5625 10.861328 C 3.573531 10.820418 3.5855163 10.780772 3.5976562 10.740234 C 3.6133582 10.687724 3.6270083 10.633828 3.6445312 10.582031 C 3.6592152 10.538681 3.6754603 10.49581 3.6914062 10.453125 C 3.7113612 10.399495 3.7300441 10.347726 3.7519531 10.294922 C 3.7600931 10.275282 3.772703 10.253915 3.78125 10.234375 C 3.81477 10.156625 3.8489998 10.079515 3.8867188 10.003906 C 3.9296207 9.9178163 3.9752471 9.8350918 4.0234375 9.7519531 C 4.0288275 9.7427931 4.0335675 9.7337684 4.0390625 9.7246094 C 4.0848445 9.6468635 4.1332849 9.5691385 4.1835938 9.4941406 C 4.1867437 9.4900706 4.1883463 9.4852497 4.1914062 9.4804688 C 4.2434262 9.4035378 4.2987878 9.3296361 4.3554688 9.2558594 C 4.3587287 9.2517894 4.3638115 9.2469735 4.3671875 9.2421875 C 4.4260354 9.1661716 4.4851562 9.0899303 4.5488281 9.0175781 C 4.6099361 8.9480752 4.6728693 8.8823474 4.7382812 8.8164062 C 4.7505642 8.8040933 4.7629646 8.7915079 4.7753906 8.7792969 C 4.8387066 8.7170189 4.9035816 8.6583254 4.9707031 8.5996094 C 4.9725331 8.5975694 4.9747325 8.59579 4.9765625 8.59375 C 5.0491074 8.5304551 5.124322 8.4672246 5.2011719 8.4082031 C 5.2041219 8.4061631 5.2079875 8.4054037 5.2109375 8.4023438 C 5.2892124 8.3426098 5.3705561 8.2834666 5.453125 8.2285156 C 5.500047 8.1972747 5.5454619 8.1664337 5.59375 8.1367188 C 5.7674052 8.0042769 5.7747366 7.6819337 5.5957031 7.5136719 L 5.59375 7.5117188 C 5.5088984 7.4595271 5.426481 7.406799 5.3457031 7.3496094 C 5.1842196 7.2352504 5.0289101 7.1094014 4.8847656 6.9765625 C 4.8131157 6.9105197 4.7448457 6.8416995 4.6777344 6.7714844 C 4.6106026 6.7012693 4.5448522 6.6308244 4.4824219 6.5566406 C 4.4198999 6.4823551 4.3603616 6.4041208 4.3027344 6.3261719 C 4.2452699 6.2484265 4.1911093 6.171049 4.1386719 6.0898438 C 4.0867432 6.0094525 4.0370749 5.9272957 3.9902344 5.84375 C 3.9886062 5.8406971 3.9879563 5.8370373 3.9863281 5.8339844 C 3.9427744 5.7559338 3.9003067 5.678251 3.8613281 5.5976562 C 3.8546119 5.5836133 3.8484113 5.5668792 3.8417969 5.5527344 C 3.8051425 5.474989 3.770572 5.39814 3.7382812 5.3183594 C 3.6667127 5.141275 3.6039093 4.9614402 3.5546875 4.7753906 C 3.5497012 4.7561577 3.5458696 4.7361315 3.5410156 4.7167969 C 3.5216607 4.6396621 3.503637 4.5608796 3.4882812 4.4824219 C 3.4694352 4.3862578 3.4540958 4.2893004 3.4414062 4.1914062 C 3.4287676 4.0939192 3.4185204 3.9973492 3.4121094 3.8984375 C 3.405495 3.7997293 3.4005433 3.6993352 3.4003906 3.5996094 C 3.4007454 3.1226802 3.4770575 2.6491554 3.6230469 2.1953125 z M 9.3261719 3.5351562 C 9.0034749 3.5340652 8.5719381 3.5355819 7.9882812 3.5371094 C 5.9608877 3.5421974 5.8334983 3.545719 5.7402344 3.59375 C 5.4523149 3.7418428 5.3256709 4.0979103 5.46875 4.359375 C 5.5078303 4.4307807 5.8007947 4.7192639 6.2578125 5.1386719 C 6.9984199 5.8183335 7.2633281 6.1077661 7.5585938 6.546875 C 7.7238038 6.7925872 7.9888776 7.2658044 7.9707031 7.3339844 C 7.9657771 7.3525054 7.984746 7.3710938 8 7.3710938 C 8.015254 7.3710938 8.0273438 7.3571427 8.0273438 7.3398438 C 8.0273437 7.2732717 8.2750729 6.788022 8.4238281 6.5644531 C 8.7137492 6.1287532 9.0008686 5.8191678 9.7402344 5.140625 C 10.199901 4.718785 10.49052 4.4308938 10.53125 4.3574219 C 10.58392 4.2625806 10.592851 4.213708 10.582031 4.0878906 C 10.567201 3.9142762 10.510012 3.7847442 10.402344 3.6835938 C 10.276814 3.5652736 10.294263 3.5384293 9.3261719 3.5351562 z M 8 7.8535156 L 7.7890625 8.109375 C 5.7270509 10.612624 4.8395706 11.713831 4.8066406 11.806641 C 4.7537767 11.955984 4.7728513 12.228051 4.8476562 12.390625 C 4.9437686 12.599551 5.1035343 12.750152 5.2792969 12.794922 C 5.3289776 12.808052 6.5766738 12.815453 8.0527344 12.814453 L 10.736328 12.810547 L 10.837891 12.75 C 11.073899 12.610994 11.224806 12.333824 11.224609 12.039062 C 11.224519 11.914895 11.211921 11.847294 11.175781 11.771484 C 11.125594 11.666253 11.025 11.540683 9.3515625 9.5019531 C 8.8042104 8.8351337 8.2755773 8.1923131 8.1777344 8.0722656 L 8 7.8535156 z " />
</svg>
