<?xml version="1.0" encoding="UTF-8" standalone="no"?>
<svg
   height="16px"
   viewBox="0 0 16 16"
   width="16px"
   version="1.1"
   id="svg5"
   sodipodi:docname="cassette-wave-mood-gloomy.svg"
   inkscape:version="1.3.2 (091e20ef0f, 2023-11-25)"
   xmlns:inkscape="http://www.inkscape.org/namespaces/inkscape"
   xmlns:sodipodi="http://sodipodi.sourceforge.net/DTD/sodipodi-0.dtd"
   xmlns="http://www.w3.org/2000/svg"
   xmlns:svg="http://www.w3.org/2000/svg">
  <defs
     id="defs5" />
  <sodipodi:namedview
     id="namedview5"
     pagecolor="#ffffff"
     bordercolor="#000000"
     borderopacity="0.25"
     inkscape:showpageshadow="2"
     inkscape:pageopacity="0.0"
     inkscape:pagecheckerboard="0"
     inkscape:deskcolor="#d1d1d1"
     inkscape:zoom="11.313709"
     inkscape:cx="-0.3093592"
     inkscape:cy="5.7894365"
     inkscape:window-width="1920"
     inkscape:window-height="1131"
     inkscape:window-x="0"
     inkscape:window-y="0"
     inkscape:window-maximized="1"
     inkscape:current-layer="svg5" />
  <path
     id="path1334"
     style="fill:#2e3436;fill-opacity:1;stroke-width:3.60346;paint-order:stroke markers fill"
     d="M 8.0009969,2.5e-7 C 3.5972067,2.5e-7 0,3.6150747 0,8.0009903 0,12.386897 3.5972067,16 8.0009969,16 12.404766,16 16.00001,12.386897 16,8.0009904 16,3.6150748 12.404766,2.5e-7 8.0009969,2.5e-7 Z m 0,1.95518085 A 6.031546,6.0448401 0 0 1 14.03215,8.0009903 6.031546,6.0448401 0 0 1 8.0009969,14.044819 6.031546,6.0448401 0 0 1 1.9678505,8.0009903 6.031546,6.0448401 0 0 1 8.0009969,1.9551811 Z m -3.174081,3.3774913 c -0.5279726,0 -0.9530218,0.4223236 -0.9530218,0.9468864 v 0.134704 c 0,0.081295 0.010688,0.1625195 0.029907,0.237712 a 1.4683864,1.4589327 0 0 0 -0.029907,0.279311 1.4683864,1.4589327 0 0 0 1.4674144,1.457967 1.4683864,1.4589327 0 0 0 1.4694081,-1.457967 1.4683864,1.4589327 0 0 0 -0.029907,-0.2773302 v -0.00198 c 0.019525,-0.075749 0.029907,-0.1557494 0.029907,-0.237712 v -0.134704 c 0,-0.5245628 -0.4250493,-0.9468763 -0.9530219,-0.9468864 z m 5.3153901,0 c -0.5279736,1e-6 -0.9530226,0.4223338 -0.9530226,0.9468864 v 0.134704 c -1e-6,0.081963 0.010382,0.1639435 0.02991,0.2396928 a 1.4683864,1.4589327 0 0 0 -0.02991,0.2773302 1.4683864,1.4589327 0 0 0 1.4694076,1.457967 1.4683864,1.4589327 0 0 0 1.467415,-1.457967 1.4683864,1.4589327 0 0 0 -0.02991,-0.279311 v -0.00198 c 0.01922,-0.075193 0.02991,-0.154436 0.02991,-0.2357312 V 6.2795619 c 10e-6,-0.5245628 -0.425049,-0.9468763 -0.953022,-0.9468864 z M 7.9132711,9.3916059 c -0.2285898,0 -3.2447211,0.080712 -3.3016823,1.2222361 -0.00102,0.01055 -0.0016,0.02084 -0.00199,0.0317 0,0.0041 -3.06e-5,0.0069 0,0.0099 -8.16e-5,0.0038 0,0.0078 0,0.01189 0,0.02718 0.00394,0.05455 0.00598,0.08122 0.041373,0.524604 0.4821597,0.937082 1.0208099,0.936981 l 2.3646106,-0.0099 2.3646117,0.0099 c 0.566028,1.12e-4 1.024899,-0.455814 1.024797,-1.018199 0,-0.0048 1.12e-4,-0.0088 0,-0.01386 0,-0.01359 -9.73e-4,-0.02633 -0.002,-0.03962 -0.05694,-1.1415468 -3.0730486,-1.2222791 -3.3016384,-1.2222791 -0.010412,0 -0.06149,0.00133 -0.087725,0.00198 -0.026337,-0.00101 -0.075319,-0.00198 -0.085733,-0.00198 z" />
</svg>
