<?xml version="1.0" encoding="UTF-8" standalone="no"?>
<svg
   height="16px"
   viewBox="0 0 16 16"
   width="16px"
   version="1.1"
   id="svg5"
   sodipodi:docname="cassette-wave-era-tales_for_sleeping.svg"
   inkscape:version="1.3.2 (091e20ef0f, 2023-11-25)"
   xmlns:inkscape="http://www.inkscape.org/namespaces/inkscape"
   xmlns:sodipodi="http://sodipodi.sourceforge.net/DTD/sodipodi-0.dtd"
   xmlns="http://www.w3.org/2000/svg"
   xmlns:svg="http://www.w3.org/2000/svg">
  <defs
     id="defs5" />
  <sodipodi:namedview
     id="namedview5"
     pagecolor="#ffffff"
     bordercolor="#000000"
     borderopacity="0.25"
     inkscape:showpageshadow="2"
     inkscape:pageopacity="0.0"
     inkscape:pagecheckerboard="0"
     inkscape:deskcolor="#d1d1d1"
     inkscape:zoom="11.313709"
     inkscape:cx="10.739184"
     inkscape:cy="26.383922"
     inkscape:window-width="1920"
     inkscape:window-height="1131"
     inkscape:window-x="0"
     inkscape:window-y="0"
     inkscape:window-maximized="1"
     inkscape:current-layer="svg5" />
  <path
     id="path224-9"
     style="color:#000000;fill:#2e3436;fill-opacity:1;stroke-width:1.07165;stroke-linecap:round;stroke-linejoin:round;stroke-miterlimit:0;-inkscape-stroke:none;paint-order:stroke fill markers"
     d="M 11.761719 0.021484375 C 11.523395 0.006260841 11.291622 0.19308124 11.294922 0.46484375 L 11.316406 2.1269531 L 9.9589844 3.0859375 C 9.6634483 3.2948904 9.7361156 3.7519312 10.082031 3.859375 L 11.667969 4.3535156 L 12.162109 5.9394531 C 12.269514 6.2853299 12.726246 6.3584617 12.935547 6.0625 L 13.896484 4.7050781 L 15.556641 4.7265625 C 15.919069 4.7310503 16.127724 4.3207399 15.912109 4.0292969 L 14.917969 2.6972656 L 15.453125 1.1230469 C 15.569491 0.78011045 15.241451 0.45402469 14.898438 0.5703125 L 13.324219 1.1035156 L 11.992188 0.109375 C 11.919619 0.055260427 11.84116 0.026558886 11.761719 0.021484375 z M 1.1191406 0.033203125 C 1.0976037 0.032748053 1.0762453 0.034669445 1.0546875 0.037109375 L 1.0566406 0.044921875 L 0.93164062 0.068359375 C 0.81023776 0.1189187 0.71407163 0.21882438 0.66796875 0.34179688 L 0.24414062 1.4628906 C 0.13889711 1.7355981 0.30218084 2.0377272 0.58789062 2.0996094 L 1.1015625 2.2109375 L 0.21289062 3.8789062 C 0.044571603 4.1980574 0.27783295 4.5798534 0.63867188 4.5761719 L 2.7148438 4.5507812 C 2.9276243 4.549085 3.1149563 4.4057647 3.171875 4.2011719 L 3.4707031 3.1171875 C 3.5556494 2.820711 3.3394992 2.5246311 3.03125 2.5117188 L 2.859375 2.5039062 L 3.3398438 1.5175781 C 3.4552473 1.2762012 3.3493538 0.98678367 3.1054688 0.87695312 L 1.3066406 0.076171875 C 1.2474728 0.049089327 1.1837514 0.034568341 1.1191406 0.033203125 z M 5.1582031 1.3535156 L 5.1601562 1.3652344 L 5.0703125 1.3828125 C 4.9815474 1.4186315 4.9130634 1.4909745 4.8789062 1.5800781 L 4.5703125 2.3945312 C 4.4936766 2.593075 4.6122734 2.8125533 4.8203125 2.8574219 L 5.1933594 2.9375 L 4.546875 4.1503906 C 4.4234224 4.3832086 4.5939244 4.6624452 4.8574219 4.6582031 L 6.3671875 4.6386719 C 6.5214732 4.6368865 6.6560412 4.5330702 6.6972656 4.3847656 L 6.9160156 3.5976562 C 6.9771487 3.3813843 6.8203142 3.1639921 6.5957031 3.15625 L 6.4707031 3.1523438 L 6.8203125 2.4335938 C 6.9040604 2.2581194 6.8278104 2.0484466 6.6503906 1.96875 L 5.34375 1.3867188 C 5.2862708 1.3608309 5.2228209 1.3496367 5.1601562 1.3574219 L 5.1582031 1.3535156 z M 8.1992188 2.59375 L 8.1992188 2.5996094 L 8.1445312 2.609375 C 8.0899523 2.631485 8.0461628 2.6768217 8.0253906 2.7324219 L 7.8378906 3.2304688 C 7.7915007 3.3517923 7.8631314 3.4859764 7.9902344 3.5136719 L 8.2207031 3.5625 L 7.8242188 4.3066406 C 7.7478598 4.4495128 7.851606 4.6219109 8.0136719 4.6191406 L 8.9394531 4.6074219 C 9.0343381 4.6066057 9.1174817 4.5411487 9.1425781 4.4492188 L 9.2773438 3.96875 C 9.3150037 3.8361473 9.2180138 3.7043242 9.0800781 3.6992188 L 9.0039062 3.6953125 L 9.21875 3.2539062 C 9.2702223 3.1455369 9.2207769 3.0152317 9.1113281 2.9667969 L 8.3105469 2.6113281 C 8.2752751 2.5961242 8.2376761 2.5889118 8.1992188 2.59375 z M 10.283203 4.5683594 C 10.13883 4.575191 9.9950737 4.6168362 9.8613281 4.6953125 L 2.2128906 9.1835938 C 2.1438717 9.2240924 2.0833757 9.2723681 2.0292969 9.3261719 L 1.6542969 8.9570312 C 1.2914362 8.6000511 0.71232504 8.6037502 0.35546875 8.9667969 L 0.26367188 9.0605469 C -0.092581687 9.4230538 -0.086118404 9.9978664 0.2734375 10.357422 L 5.7167969 15.714844 C 6.0795879 16.071784 6.6585553 16.065648 7.0175781 15.705078 L 7.1074219 15.613281 C 7.4656432 15.251914 7.4575612 14.674358 7.0976562 14.314453 L 6.7324219 13.955078 C 6.783276 13.901611 6.8309568 13.842623 6.8691406 13.775391 L 11.248047 6.0644531 C 11.473844 5.6669127 11.369371 5.1763397 11.025391 4.8984375 C 10.995991 4.8693445 10.978099 4.8296582 10.949219 4.8007812 L 10.943359 4.8085938 C 10.76305 4.6427923 10.523824 4.5569733 10.283203 4.5683594 z M 7.7695312 8.2050781 L 6.5351562 10.376953 A 1.1848173 1.1848173 0 0 0 5.5117188 10.712891 A 1.1848173 1.1848173 0 0 0 5.4433594 12.298828 L 5.3027344 12.546875 L 3.4589844 10.734375 L 4.7929688 9.9511719 A 1.1848173 1.1848173 0 0 0 6.234375 9.7617188 A 1.1848173 1.1848173 0 0 0 6.5742188 8.90625 L 7.7695312 8.2050781 z " />
</svg>
