<?xml version="1.0" encoding="UTF-8" standalone="no"?>
<svg
   height="16px"
   viewBox="0 0 16 16"
   width="16px"
   version="1.1"
   id="svg5"
   sodipodi:docname="cassette-wave-mood-calmness.svg"
   inkscape:version="1.3.2 (091e20ef0f, 2023-11-25)"
   xmlns:inkscape="http://www.inkscape.org/namespaces/inkscape"
   xmlns:sodipodi="http://sodipodi.sourceforge.net/DTD/sodipodi-0.dtd"
   xmlns="http://www.w3.org/2000/svg"
   xmlns:svg="http://www.w3.org/2000/svg">
  <defs
     id="defs5" />
  <sodipodi:namedview
     id="namedview5"
     pagecolor="#ffffff"
     bordercolor="#000000"
     borderopacity="0.25"
     inkscape:showpageshadow="2"
     inkscape:pageopacity="0.0"
     inkscape:pagecheckerboard="0"
     inkscape:deskcolor="#d1d1d1"
     inkscape:zoom="16.000001"
     inkscape:cx="4.8437498"
     inkscape:cy="12.843749"
     inkscape:window-width="1920"
     inkscape:window-height="1131"
     inkscape:window-x="0"
     inkscape:window-y="0"
     inkscape:window-maximized="1"
     inkscape:current-layer="svg5" />
  <path
     id="path1404"
     style="color:#000000;fill:#2e3436;fill-opacity:1;stroke-width:1.01752;stroke-linecap:round;stroke-linejoin:round;stroke-miterlimit:0;-inkscape-stroke:none;paint-order:stroke fill markers"
     d="M 8.0009973,2.5e-7 C 3.5972068,2.5e-7 0,3.6150747 0,8.0009903 0,12.386896 3.5972068,16 8.0009973,16 12.404766,16 16.00001,12.386896 16,8.0009904 16,3.6150748 12.404766,2.5e-7 8.0009973,2.5e-7 Z m 0,1.95518085 A 6.031546,6.0448401 0 0 1 14.03215,8.0009903 6.031546,6.0448401 0 0 1 8.0009973,14.044819 6.031546,6.0448401 0 0 1 1.9678505,8.0009903 6.031546,6.0448401 0 0 1 2.04162,7.0560847 6.031546,6.0448401 0 0 1 8.0009973,1.9551811 Z M 4.4839874,5.5763279 C 3.9424682,5.6034999 3.5129226,6.0497173 3.5130216,6.5945274 3.5140416,7.7773712 5.1890905,7.870249 5.389159,7.870249 c 0.014414,0 0.033819,-0.00109 0.057819,-0.00198 C 5.518976,7.865589 5.6308535,7.858099 5.7639865,7.838556 6.2965216,7.7603817 7.1672286,7.4947142 7.1695949,6.6163223 7.1696959,6.0539477 6.7108153,5.5980204 6.1447966,5.5981218 l -1.6069788,-0.02179 h -0.00204 c -0.017027,2.84e-5 -0.035014,-8.438e-4 -0.051837,0 z m 5.3173829,0 C 9.6616234,5.5833362 9.5300727,5.6181844 9.410592,5.6753743 9.395658,5.6825247 9.381254,5.691309 9.366728,5.699146 9.0472471,5.8715532 8.8303342,6.2078887 8.8304046,6.5945274 8.8311702,7.48166 9.7738597,7.7547101 10.329719,7.8365722 c 0.185286,0.027288 0.326805,0.033677 0.376822,0.033677 0.01441,0 0.03382,-0.00109 0.05782,-0.00198 0.072,-0.00268 0.183875,-0.01017 0.317009,-0.029713 0.532535,-0.078176 1.403241,-0.3438438 1.405607,-1.2222358 1.02e-4,-0.5623746 -0.458779,-1.0183019 -1.024797,-1.0182005 l -1.606978,-0.02179 h -0.002 c -0.017027,2.84e-5 -0.035014,-8.438e-4 -0.051837,0 z M 5.1997508,9.8373157 c -0.022866,6.09e-5 -0.045845,9.159e-4 -0.067792,0.00198 -0.00204,5.07e-5 -0.00398,-5.07e-5 -0.00602,0 -0.050326,0.00101 -0.1011623,0.00382 -0.1455451,0.00991 -0.00408,5.771e-4 -0.00817,9.26e-4 -0.011964,0.00198 -0.00204,3.144e-4 -0.00398,0.00198 -0.00602,0.00198 -0.02011,0.00304 -0.039138,0.00484 -0.057819,0.0099 -0.00306,6.187e-4 -0.0049,9.169e-4 -0.00796,0.00198 -0.1854607,0.045742 -0.3011103,0.1625433 -0.3010593,0.4437303 0,0.0051 -1.123e-4,0.0091 0,0.01386 0,0.0051 -2.654e-4,0.01067 0,0.01585 -0.0051,0.166964 0.00919,1.164982 1.0128354,1.164789 l 1.9479127,-0.0079 c 0.00102,8.1e-5 0.00296,-8.1e-5 0.00398,0 0.1001415,0.0061 0.2008567,0.0089 0.3010594,0.0099 0.019191,2.03e-4 0.03873,-2.1e-5 0.057819,0 0.035728,3.9e-5 0.072069,5.68e-4 0.1076639,0 0.019191,-2.1e-5 0.038627,2.03e-4 0.057819,0 0.1002436,-10e-4 0.2009587,-0.0039 0.3010593,-0.0099 h 0.00398 l 1.9479129,0.0079 c 0.999933,1.93e-4 1.017602,-0.98884 1.012835,-1.164789 2.66e-4,-0.0051 0,-0.01047 0,-0.01585 1.13e-4,-0.0051 0,-0.0091 0,-0.01386 5.1e-5,-0.281187 -0.113605,-0.3979673 -0.299065,-0.4437303 -0.0031,-7.191e-4 -0.0049,-9.159e-4 -0.008,-0.00198 -0.0196,-0.00507 -0.04068,-0.00915 -0.06181,-0.011885 -10e-4,-2.029e-4 -0.003,2.028e-4 -0.004,0 -0.0041,-5.579e-4 -0.0082,-9.271e-4 -0.01196,-0.00198 -0.04471,-0.00609 -0.09483,-0.00788 -0.145546,-0.00991 -0.002,-5.07e-5 -0.004,5.07e-5 -0.006,0 -0.14521,-0.00406 -0.311598,0.00397 -0.488474,0.00397 l -1.6608095,0.00792 c -0.4551475,-0.015011 -0.9264729,-0.014909 -1.3816816,0 l -1.6628046,-0.00792 c -0.00817,0 -0.015863,4.06e-5 -0.023928,0 -0.063188,-1.02e-5 -0.1239958,-3.783e-4 -0.1834273,-0.00198 -0.00408,-1.014e-4 -0.00817,9.13e-5 -0.011964,0 -0.070742,-0.00203 -0.1374072,-0.00397 -0.2013711,-0.00397 z" />
</svg>
