<?xml version="1.0" encoding="UTF-8" standalone="no"?>
<svg
   height="16px"
   viewBox="0 0 16 16"
   width="16px"
   version="1.1"
   id="svg5"
   sodipodi:docname="cassette-wave-mood-dream.svg"
   inkscape:version="1.3.2 (091e20ef0f, 2023-11-25)"
   xmlns:inkscape="http://www.inkscape.org/namespaces/inkscape"
   xmlns:sodipodi="http://sodipodi.sourceforge.net/DTD/sodipodi-0.dtd"
   xmlns="http://www.w3.org/2000/svg"
   xmlns:svg="http://www.w3.org/2000/svg">
  <defs
     id="defs5" />
  <sodipodi:namedview
     id="namedview5"
     pagecolor="#ffffff"
     bordercolor="#000000"
     borderopacity="0.25"
     inkscape:showpageshadow="2"
     inkscape:pageopacity="0.0"
     inkscape:pagecheckerboard="0"
     inkscape:deskcolor="#d1d1d1"
     inkscape:zoom="11.313709"
     inkscape:cx="-7.4688154"
     inkscape:cy="15.24699"
     inkscape:window-width="1920"
     inkscape:window-height="1131"
     inkscape:window-x="0"
     inkscape:window-y="0"
     inkscape:window-maximized="1"
     inkscape:current-layer="svg5" />
  <path
     id="path1360"
     style="color:#000000;fill:#2e3436;fill-opacity:1;stroke-width:1.01752;stroke-linecap:round;stroke-linejoin:round;stroke-miterlimit:0;-inkscape-stroke:none;paint-order:stroke fill markers"
     d="M 8.0009969,2.5e-7 C 3.5972067,2.5e-7 0,3.6150749 0,8.0009902 0,12.386897 3.5972067,16 8.0009969,16 12.404766,16 16.00001,12.386896 16,8.0009903 16,3.615075 12.404766,2.5e-7 8.0009969,2.5e-7 Z m 0,1.95518125 A 6.031546,6.0448401 0 0 1 14.03215,8.0009902 6.031546,6.0448401 0 0 1 8.0009969,14.044819 6.031546,6.0448401 0 0 1 1.9678505,8.0009902 6.031546,6.0448401 0 0 1 8.0009969,1.9551815 Z M 4.5358256,4.9028104 C 3.9706994,4.9037514 3.5129199,5.359276 3.5130218,5.9210101 3.5133444,6.2947559 3.6803693,6.5593569 3.9157633,6.7470594 A 1.4683864,1.4589327 0 0 0 5.3413085,7.8702486 1.4683864,1.4589327 0 0 0 6.7588786,6.788659 C 6.997067,6.6028884 7.1685436,6.3331971 7.1695951,5.9428004 7.1696972,5.3804264 6.7108157,4.9244993 6.1447975,4.9246007 l -1.6069781,-0.02179 z m 5.3173834,0 C 9.2880825,4.9037514 8.8303031,5.359276 8.830405,5.9210101 8.8307276,6.2947559 8.9977524,6.5593569 9.2331466,6.7470594 A 1.4683864,1.4589327 0 0 0 10.658691,7.8702486 1.4683864,1.4589327 0 0 0 12.076262,6.788659 C 12.314034,6.6029092 12.485928,6.332757 12.486978,5.9428004 12.487081,5.3804264 12.028199,4.9244993 11.462181,4.9246007 L 9.855203,4.9028107 Z M 4.5438007,9.1519125 C 3.9777723,9.1518011 3.518901,9.6077281 3.5190031,10.170113 c 0,0.0051 -1.123e-4,0.0091 0,0.01386 0,0.01359 8.812e-4,0.02633 0.00199,0.03962 0.2207498,0.304809 0.5136348,0.571438 0.8573208,0.802279 0.00919,0.0061 0.016834,0.01372 0.025919,0.01981 0.039607,0.02617 0.078713,0.0521 0.1196262,0.07725 0.9333358,0.592527 2.1370337,0.876142 3.3415576,0.889439 0.089525,9.84e-4 0.1797055,0.002 0.2691589,0 1.2554728,-0.0141 2.5110624,-0.321621 3.4591904,-0.966695 0.01154,-0.0071 0.02256,-0.01617 0.03389,-0.02377 0.340511,-0.229745 0.632162,-0.495668 0.851339,-0.798317 0.001,-0.01329 0.002,-0.02602 0.002,-0.03962 1.13e-4,-0.0051 0,-0.0091 0,-0.01387 1.02e-4,-0.562376 -0.458768,-1.0183031 -1.024797,-1.0181915 -1.548699,0.3585732 -2.5021754,0.6280928 -3.4492207,0.6754982 -0.0051,-2.535e-4 -0.010642,2.637e-4 -0.01595,0 C 7.0440861,9.7799385 6.0924406,9.5104493 4.5438427,9.1519064 Z" />
</svg>
