<?xml version="1.0" encoding="UTF-8" standalone="no"?>
<svg
   height="16px"
   viewBox="0 0 16 16"
   width="16px"
   version="1.1"
   id="svg5"
   sodipodi:docname="cassette-wave-mood-new_year.svg"
   inkscape:version="1.3.2 (091e20ef0f, 2023-11-25)"
   xmlns:inkscape="http://www.inkscape.org/namespaces/inkscape"
   xmlns:sodipodi="http://sodipodi.sourceforge.net/DTD/sodipodi-0.dtd"
   xmlns="http://www.w3.org/2000/svg"
   xmlns:svg="http://www.w3.org/2000/svg">
  <defs
     id="defs5" />
  <sodipodi:namedview
     id="namedview5"
     pagecolor="#ffffff"
     bordercolor="#000000"
     borderopacity="0.25"
     inkscape:showpageshadow="2"
     inkscape:pageopacity="0.0"
     inkscape:pagecheckerboard="0"
     inkscape:deskcolor="#d1d1d1"
     inkscape:zoom="16.000001"
     inkscape:cx="-0.031249999"
     inkscape:cy="17.593749"
     inkscape:window-width="1920"
     inkscape:window-height="1131"
     inkscape:window-x="0"
     inkscape:window-y="0"
     inkscape:window-maximized="1"
     inkscape:current-layer="svg5" />
  <path
     id="path1317"
     style="color:#000000;fill:#2e3436;fill-opacity:1;stroke-width:1.01912;stroke-linecap:round;stroke-linejoin:round;stroke-miterlimit:0;-inkscape-stroke:none;paint-order:stroke fill markers"
     d="M 8.0209801,6.4381707e-5 C 5.965812,0.0082831 3.9105687,0.79481716 2.3524097,2.3529009 -0.7639084,5.4690634 -0.79226595,10.574789 2.3166087,13.683509 c 3.1088665,3.10871 8.2148643,3.080368 11.3311743,-0.0358 2.457644,-2.457521 2.994245,-6.153782 1.5872,-9.1309146 0.117967,-0.050987 0.229513,-0.1240924 0.326191,-0.220765 L 15.66659,4.1926085 c 0.409133,-0.4091154 0.409142,-1.068611 0,-1.4777325 L 15.187246,2.2355527 C 15.307904,1.8727559 15.224396,1.4572649 14.934648,1.1675282 L 14.829231,1.0621227 C 14.539371,0.77227703 14.12407,0.69067839 13.761153,0.81152446 L 13.2838,0.334195 c -0.409144,-0.40912353 -1.066682,-0.40911538 -1.475818,0 L 11.702567,0.43960564 C 11.605797,0.53637699 11.532785,0.64768361 11.481791,0.76578026 10.39248,0.25126849 9.2067218,-0.00467684 8.0209801,6.4381707e-5 Z M 8.5540246,1.9730261 a 6.0215732,6.0739508 45.165238 0 1 3.4946234,1.5254655 c 0.04211,0.068267 0.09385,0.1336217 0.153151,0.1929206 l 0.103426,0.1034208 c 0.07384,0.073841 0.157472,0.133802 0.244644,0.1809881 A 6.0215732,6.0739508 45.165238 0 1 12.25749,12.257486 6.0215732,6.0739508 45.165238 0 1 3.7049107,12.295276 6.0215732,6.0739508 45.165238 0 1 3.7407117,3.7411339 6.0215732,6.0739508 45.165238 0 1 8.5540246,1.9730261 Z M 8.3491605,3.9002437 V 7.5120366 C 8.0162057,7.2891779 7.6163586,7.1600062 7.1856118,7.1600062 c -1.1572303,0 -2.0963765,0.9371146 -2.0963765,2.0942834 0,1.1571754 0.9391462,2.0942824 2.0963765,2.0942824 1.1233416,0 2.0396891,-0.882654 2.0923986,-1.9928503 0.00121,-0.020203 0.00157,-0.041452 0.00199,-0.061655 V 5.7618286 c 0.2793327,0.1667857 0.50923,0.4216048 0.7319416,0.6682612 0.04177,0.046241 0.08372,0.092134 0.125305,0.1372326 L 11.141681,5.5012866 C 10.390891,4.6968549 9.4452115,4.1258568 8.3491605,3.9002437 Z" />
</svg>
