<?xml version="1.0" encoding="UTF-8" standalone="no"?>
<svg
   height="16px"
   viewBox="0 0 16 16"
   width="16px"
   version="1.1"
   id="svg5"
   sodipodi:docname="cassette-wave-era-1960s.svg"
   inkscape:version="1.3.2 (091e20ef0f, 2023-11-25)"
   xmlns:inkscape="http://www.inkscape.org/namespaces/inkscape"
   xmlns:sodipodi="http://sodipodi.sourceforge.net/DTD/sodipodi-0.dtd"
   xmlns="http://www.w3.org/2000/svg"
   xmlns:svg="http://www.w3.org/2000/svg">
  <defs
     id="defs5" />
  <sodipodi:namedview
     id="namedview5"
     pagecolor="#ffffff"
     bordercolor="#000000"
     borderopacity="0.25"
     inkscape:showpageshadow="2"
     inkscape:pageopacity="0.0"
     inkscape:pagecheckerboard="0"
     inkscape:deskcolor="#d1d1d1"
     inkscape:zoom="11.313709"
     inkscape:cx="2.6074561"
     inkscape:cy="17.545086"
     inkscape:window-width="1920"
     inkscape:window-height="1131"
     inkscape:window-x="0"
     inkscape:window-y="0"
     inkscape:window-maximized="1"
     inkscape:current-layer="svg5" />
  <path
     id="path34"
     style="color:#000000;-inkscape-font-specification:Nasalization;fill:#2e3436;fill-opacity:1;stroke-width:1.05298;stroke-linecap:round;stroke-linejoin:round;stroke-miterlimit:0;-inkscape-stroke:none;paint-order:stroke fill markers"
     d="m 13.876953,0.29394464 c -0.63318,0 -1.200774,0.22126866 -1.578125,0.66506144 C 11.936259,1.3853963 11.766706,1.9741695 11.753906,2.6642399 11.723925,2.5382312 11.681472,2.4202618 11.589843,2.3317092 11.30077,2.0523901 10.903784,1.9545706 10.458984,1.9545706 H 9.7753906 c 0.053589,-0.00816 0.056351,-0.03447 0.1308594,-0.03447 h 1.443359 A 0.42610701,0.44236073 0 0 0 11.77539,1.4780785 V 0.79679597 A 0.42610701,0.44236073 0 0 0 11.349609,0.35274581 H 9.90625 c -0.6259325,0 -1.1883116,0.19643545 -1.5703125,0.62653654 C 7.9539367,1.4093834 7.7832031,2.0206824 7.7832032,2.7473725 c 0,0.7234482 0.1662771,1.3259061 0.5214843,1.7538968 0.3552073,0.4279807 0.8872513,0.6387023 1.453125,0.6387023 h 0.6406245 c 0.50648,0 0.941223,-0.1855812 1.216797,-0.5129894 0.266729,-0.3169075 0.358885,-0.7242925 0.365234,-1.1334432 0.08566,0.3634368 0.09674,0.7817631 0.316407,1.0401723 0.376867,0.4433443 0.944559,0.6630339 1.580078,0.6630339 0.635519,0 1.201258,-0.2196896 1.578125,-0.6630339 C 15.831946,4.0903672 16,3.4708207 16,2.7473725 16,2.0206824 15.830475,1.4027887 15.453125,0.95900608 15.075773,0.5152133 14.510133,0.29394464 13.876953,0.29394464 Z M 1.3769532,0.29597227 A 1.378081,1.5843877 0 0 0 1.3151008e-8,1.8815761 V 4.1241309 A 1.378081,1.5843877 0 0 0 1.3769532,5.707707 H 2.15625 v 9.002661 a 1.378081,1.5843877 0 0 0 1.3769532,1.583576 h 2.3125 A 1.378081,1.5843877 0 0 0 7.2246094,14.710368 V 4.9392366 C 7.2246094,3.645355 7.0182828,2.3184737 6.1386719,1.4030562 5.2590619,0.48765906 4.1136659,0.29597226 2.7695313,0.29597227 Z M 13.876953,1.8612998 c 0.283287,0 0.385051,0.061422 0.464843,0.1642378 0.07979,0.1027846 0.154297,0.3273876 0.154297,0.7177797 0,0.3945822 -0.07338,0.6214042 -0.152343,0.7238626 C 14.26478,3.5696489 14.163639,3.62939 13.876953,3.62939 13.590266,3.62939 13.486372,3.570311 13.40625,3.4671799 13.32613,3.3640589 13.25,3.1369514 13.25,2.7433173 c 0,-0.3903921 0.07428,-0.6151174 0.154296,-0.7177797 0.08003,-0.1026622 0.18597,-0.1642378 0.472657,-0.1642378 z m -2.066407,1.0645039 c 0.0072,0.01937 0.01213,0.03951 0.01367,0.062857 -0.0055,-0.020797 -0.009,-0.041651 -0.01367,-0.062857 z M 9.4316406,3.3881025 h 0.9609374 c 0.05345,0 0.08367,0.00535 0.09961,0.010143 5.69e-4,0.00713 0.002,0.01562 0.002,0.050691 0,0.086249 -0.01742,0.1032248 -0.01758,0.1034085 -1.7e-4,1.835e-4 -0.0057,0.020276 -0.107422,0.020276 H 9.8457032 c -0.238562,0 -0.3329473,-0.049062 -0.3964844,-0.1176024 -0.00795,-0.00816 -0.00946,-0.055493 -0.017578,-0.066911 z M 8.6054688,6.0260443 A 0.82287422,0.94900428 0 0 0 7.7832032,6.9770012 v 8.3680148 a 0.82287422,0.94900428 0 0 0 0.8222656,0.948928 H 9.875 a 0.82287422,0.94900428 0 0 0 0.822265,-0.948928 v -2.536562 c 0.512859,0.01203 0.866301,0.05722 0.921875,0.08516 0.06304,0.0316 0.07125,0.01754 0.244141,0.405527 l 1.105469,2.479786 a 0.82287422,0.94900428 0 0 0 0.732422,0.515017 h 1.417968 a 0.82287422,0.94900428 0 0 0 0.732422,-1.384868 L 14.68164,12.283298 c -0.23157,-0.520784 -0.456906,-0.958541 -0.777344,-1.328095 -0.03583,-0.04139 -0.09466,-0.04854 -0.132812,-0.08718 C 13.99913,10.560288 14.340841,10.372916 14.5,10.006278 l 0.002,-0.002 1.138672,-2.5994174 A 0.82287422,0.94900428 0 0 0 14.90625,6.0280719 h -1.367188 a 0.82287422,0.94900428 0 0 0 -0.730469,0.5190724 l -1.107421,2.5020909 c -0.182785,0.4097827 -0.21851,0.4295735 -0.244141,0.4440502 -0.02216,0.01254 -0.324971,0.055074 -0.759766,0.068939 V 6.9770012 A 0.82287422,0.94900428 0 0 0 9.875,6.0280719 Z" />
</svg>
