<?xml version="1.0" encoding="UTF-8" standalone="no"?>
<svg
   height="16px"
   viewBox="0 0 16 16"
   width="16px"
   version="1.1"
   id="svg5"
   sodipodi:docname="cassette-wave-mood-spring.svg"
   inkscape:version="1.3.2 (091e20ef0f, 2023-11-25)"
   xmlns:inkscape="http://www.inkscape.org/namespaces/inkscape"
   xmlns:sodipodi="http://sodipodi.sourceforge.net/DTD/sodipodi-0.dtd"
   xmlns="http://www.w3.org/2000/svg"
   xmlns:svg="http://www.w3.org/2000/svg">
  <defs
     id="defs5" />
  <sodipodi:namedview
     id="namedview5"
     pagecolor="#ffffff"
     bordercolor="#000000"
     borderopacity="0.25"
     inkscape:showpageshadow="2"
     inkscape:pageopacity="0.0"
     inkscape:pagecheckerboard="0"
     inkscape:deskcolor="#d1d1d1"
     inkscape:zoom="11.313709"
     inkscape:cx="4.5519999"
     inkscape:cy="15.865708"
     inkscape:window-width="1920"
     inkscape:window-height="1131"
     inkscape:window-x="0"
     inkscape:window-y="0"
     inkscape:window-maximized="1"
     inkscape:current-layer="svg5" />
  <path
     id="path1182"
     style="fill:#2e3436;fill-opacity:1;stroke-width:3.60346;paint-order:stroke markers fill"
     d="M 8.0019531 0 C 5.9470711 0 4.0666099 0.78700159 2.6464844 2.0722656 L 2.3378906 1.7636719 C 2.2625917 1.688372 2.1532942 1.6413347 2.0488281 1.6367188 C 1.9443621 1.6320988 1.8454042 1.669917 1.7949219 1.7636719 L 1.7558594 1.8027344 C 1.6053446 1.9534042 1.6052706 2.1951133 1.7558594 2.3457031 L 2.0664062 2.65625 C 0.78406263 4.0780221 0 5.9559375 0 8.0019531 C 0 12.387856 3.5981673 16 8.0019531 16 C 10.053337 16 11.926892 15.214529 13.345703 13.933594 L 13.664062 14.251953 C 13.814658 14.402553 14.056523 14.402613 14.207031 14.251953 L 14.244141 14.214844 C 14.394655 14.064175 14.394731 13.820511 14.244141 13.669922 L 13.929688 13.355469 C 15.216008 11.933172 16.000005 10.051941 16 8.0019531 C 16 3.6160419 12.405718 1.1842367e-15 8.0019531 0 z M 8.0019531 1.9550781 C 11.333305 1.9552955 14.031784 4.6632588 14.03125 8.0019531 C 14.030996 9.5221629 13.469585 10.908626 12.544922 11.970703 L 11.767578 11.193359 C 11.756248 11.044036 11.695008 10.897321 11.580078 10.783203 L 11.083984 10.291016 C 10.970995 10.178831 10.827987 10.119581 10.681641 10.107422 L 10.320312 9.7460938 C 10.639428 9.2770392 10.826407 8.7118204 10.824219 8.109375 L 10.826172 8.1074219 C 10.820472 6.5158285 9.4959442 5.2013313 7.9042969 5.2070312 C 7.308893 5.2093612 6.7508268 5.3964279 6.2871094 5.7128906 L 5.8984375 5.3242188 C 5.8782158 5.1922379 5.8190957 5.0644685 5.7167969 4.9628906 L 5.2246094 4.4707031 C 5.1237473 4.3705552 4.9975687 4.3131677 4.8671875 4.2929688 L 4.0273438 3.453125 C 5.0888857 2.5210489 6.4796817 1.9546733 8.0019531 1.9550781 z M 7.9433594 2.9921875 L 7.8496094 2.9960938 C 7.6933034 2.9969507 7.5500074 3.0474751 7.4394531 3.140625 C 7.4215151 3.155425 7.4048109 3.1687369 7.3886719 3.1855469 C 7.275687 3.3031728 7.2063643 3.4682884 7.2070312 3.6445312 L 7.2070312 4.3398438 C 7.2083912 4.6977244 7.5014123 4.9875921 7.859375 4.9863281 L 7.9492188 4.9863281 C 8.3064961 4.9843781 8.5969531 4.691945 8.5957031 4.3339844 L 8.5898438 3.6347656 C 8.588484 3.276882 8.3013181 2.9908875 7.9433594 2.9921875 z M 3.4472656 4.0371094 L 4.1777344 4.7675781 C 4.1432604 4.9619529 4.1981445 5.1694929 4.34375 5.3242188 C 4.2371689 5.4365986 4.1711502 5.5882385 4.1679688 5.7558594 L 4.1679688 5.8496094 C 4.1614688 6.207612 4.44091 6.4994004 4.7988281 6.5058594 L 5.4003906 6.5195312 C 5.3307437 6.6378941 5.2663567 6.7642114 5.2128906 6.8945312 C 5.0665498 7.2499749 4.9946397 7.6186094 4.9902344 7.984375 L 4.4570312 7.6621094 C 4.1513828 7.4782676 3.7537467 7.5806459 3.5683594 7.8847656 L 3.5214844 7.9609375 C 3.4348995 8.1046554 3.4112587 8.2738564 3.4414062 8.4257812 C 3.0992824 8.5158812 2.8948384 8.8587763 2.9804688 9.203125 L 3 9.2949219 C 3.0859609 9.6405045 3.4336768 9.8446407 3.7792969 9.7617188 C 3.8045138 9.9493736 3.910434 10.122935 4.0859375 10.228516 L 4.1640625 10.277344 C 4.470813 10.461881 4.8662334 10.365353 5.0507812 10.058594 L 5.3828125 9.5117188 C 5.6285147 9.9514993 5.9803783 10.3322 6.4238281 10.605469 L 5.8730469 10.910156 C 5.5598434 11.083571 5.4477856 11.474002 5.6210938 11.787109 L 5.6660156 11.867188 C 5.7472345 12.013921 5.8787293 12.118115 6.0253906 12.167969 C 5.9322487 12.509364 6.1295161 12.859017 6.4707031 12.957031 L 6.5605469 12.984375 C 6.9017802 13.082395 7.2513051 12.887685 7.3535156 12.548828 L 7.359375 12.548828 C 7.5324278 12.617068 7.7339943 12.611212 7.9101562 12.513672 L 7.9921875 12.466797 C 8.3053777 12.29339 8.4175619 11.901117 8.2441406 11.587891 L 7.9433594 11.041016 C 8.4607838 11.046516 8.9732903 10.919924 9.4238281 10.677734 L 9.4121094 11.287109 C 9.4056894 11.645062 9.6889019 11.938938 10.046875 11.945312 L 10.140625 11.945312 C 10.308415 11.948312 10.465489 11.887192 10.582031 11.785156 C 10.782312 11.987524 11.081733 12.030816 11.324219 11.912109 L 11.964844 12.552734 C 10.904742 13.48041 9.5198101 14.044823 8.0019531 14.044922 C 4.6705947 14.045808 1.9693073 11.340655 1.96875 8.0019531 C 1.9685073 6.4850102 2.5265762 5.0985659 3.4472656 4.0371094 z M 11.050781 4.2597656 C 10.890857 4.2570219 10.729868 4.3129363 10.603516 4.4277344 C 10.595316 4.4351844 10.586025 4.4431719 10.578125 4.4511719 L 10.085938 4.9492188 C 9.8337145 5.2032395 9.8397358 5.6091474 10.09375 5.8613281 L 10.15625 5.9238281 C 10.41026 6.1760779 10.818087 6.1758947 11.070312 5.921875 L 11.5625 5.4277344 C 11.814759 5.1737146 11.812651 4.7658846 11.558594 4.5136719 L 11.492188 4.4472656 C 11.369644 4.3255911 11.212633 4.2634498 11.052734 4.2597656 L 11.050781 4.2597656 z M 7.90625 6.5917969 A 1.5274071 1.5274071 0 0 1 9.4394531 8.1132812 A 1.5274071 1.5274071 0 0 1 9.3085938 8.734375 L 7.3007812 6.7246094 A 1.5274071 1.5274071 0 0 1 7.90625 6.5917969 z M 12.390625 7.4101562 L 11.693359 7.4160156 C 11.537051 7.4168756 11.393758 7.467397 11.283203 7.5605469 C 11.265273 7.5753469 11.248562 7.5886588 11.232422 7.6054688 C 11.119435 7.7230956 11.0501 7.8882243 11.050781 8.0644531 L 11.050781 8.15625 C 11.052181 8.5141246 11.341253 8.8001281 11.699219 8.7988281 L 12.398438 8.7949219 C 12.755724 8.7929619 13.042316 8.504433 13.041016 8.1464844 L 13.041016 8.0566406 C 13.039616 7.698781 12.748591 7.4088563 12.390625 7.4101562 z " />
</svg>
