<?xml version="1.0" encoding="UTF-8" standalone="no"?>
<svg
   height="16px"
   viewBox="0 0 16 16"
   width="16px"
   version="1.1"
   id="svg5"
   sodipodi:docname="cassette-wave-genre-children's_music.svg"
   inkscape:version="1.3.2 (091e20ef0f, 2023-11-25)"
   xmlns:inkscape="http://www.inkscape.org/namespaces/inkscape"
   xmlns:sodipodi="http://sodipodi.sourceforge.net/DTD/sodipodi-0.dtd"
   xmlns="http://www.w3.org/2000/svg"
   xmlns:svg="http://www.w3.org/2000/svg">
  <defs
     id="defs5" />
  <sodipodi:namedview
     id="namedview5"
     pagecolor="#ffffff"
     bordercolor="#000000"
     borderopacity="0.25"
     inkscape:showpageshadow="2"
     inkscape:pageopacity="0.0"
     inkscape:pagecheckerboard="0"
     inkscape:deskcolor="#d1d1d1"
     inkscape:zoom="16"
     inkscape:cx="-1.21875"
     inkscape:cy="15.34375"
     inkscape:window-width="1920"
     inkscape:window-height="1131"
     inkscape:window-x="0"
     inkscape:window-y="0"
     inkscape:window-maximized="1"
     inkscape:current-layer="svg5" />
  <path
     id="path209"
     style="color:#000000;fill:#2e3436;fill-opacity:1;stroke-width:1.05287;stroke-linecap:round;stroke-linejoin:round;stroke-miterlimit:0;-inkscape-stroke:none;paint-order:stroke fill markers"
     d="M 14.917118,5.1091345e-8 C 14.665862,1.1010913e-6 14.414587,0.09536755 14.222061,0.28789359 L 13.835463,0.67449222 13.459145,0.29817483 c -0.385056,-0.38505727 -1.005056,-0.38505727 -1.390111,0 l -0.09871,0.0987062 c -0.0958,0.0957971 -0.169842,0.20520879 -0.217973,0.32285179 -0.813218,-0.1018753 -1.652789,0.0364944 -2.3956815,0.41744448 -0.00913,-0.00802 -0.017391,-0.017048 -0.026733,-0.024676 C 8.9431374,0.79663412 8.3748444,0.81937082 8.0138539,1.1803616 l -0.098706,0.098706 C 7.6439221,1.5503039 7.5636904,1.9383324 7.6745517,2.278467 6.3276793,2.197528 4.9523609,2.664594 3.9381117,3.6788618 L 1.4087659,6.2061506 c -1.87790357,1.8779179 -1.87792599,4.9944924 0,6.8724184 l 1.5114383,1.511439 c 0.9976402,0.997641 2.3453755,1.466861 3.6706359,1.404506 1.1693474,-0.05502 2.3215143,-0.524231 3.201782,-1.404506 l 2.5293459,-2.52729 c 1.014612,-1.01462 1.479768,-2.3911585 1.398337,-3.7384971 0.3403,0.1111921 0.727979,0.030793 0.999401,-0.2405967 l 0.09871,-0.098706 c 0.370298,-0.3702413 0.382936,-0.9558664 0.04113,-1.3428146 0.381086,-0.7432717 0.521694,-1.5818868 0.419502,-2.3956816 0.02899,-0.011856 0.05633,-0.026379 0.08431,-0.041127 0.08562,-0.045125 0.166342,-0.1025944 0.238539,-0.1747926 l 0.09871,-0.098706 c 0.385057,-0.3850572 0.385057,-1.0050552 0,-1.3901125 L 15.324281,2.1653671 15.71088,1.7787674 c 0.385051,-0.385052 0.385056,-1.00505628 0,-1.39011139 L 15.612174,0.28789359 C 15.419646,0.09536443 15.168374,-9.9890865e-7 14.917118,5.1091345e-8 Z M 7.491534,4.3595228 c 0.6645057,0.027848 1.3207854,0.2967187 1.830177,0.8061004 l 1.511438,1.5114385 c 0.679167,0.6791806 0.931135,1.619612 0.754691,2.4923304 -0.44901,0.8472089 -0.547853,1.1269869 -1.165967,1.8137279 l -0.203581,0.203581 -1.488818,1.488818 -0.2035816,0.203582 c -0.6943838,0.720887 -0.683118,0.959492 -1.955616,1.02202 -0.7733963,0.06031 -1.5671081,-0.205785 -2.161254,-0.799932 L 2.897584,11.589751 C 2.3034381,10.995605 2.0373417,10.201879 2.0976527,9.4284961 l 0.4318396,0.4318394 c 0.2406649,0.2406565 0.5726981,0.3316065 0.8821864,0.2714435 0.1856931,-0.0361 0.3635294,-0.127047 0.5079255,-0.2714435 l 0.098706,-0.09871 c 0.3850566,-0.3850565 0.3850417,-1.0050545 0,-1.3901118 L 3.1196729,7.4728798 3.3232544,7.2692988 4.2218919,8.1679356 C 4.4625476,8.4085923 4.794591,8.499542 5.1040783,8.4393781 5.2897708,8.4032795 5.4676105,8.3123298 5.6120039,8.1679356 l 0.098706,-0.098706 c 0.3850416,-0.3850562 0.3850491,-1.0050468 0,-1.3901115 L 4.8120726,5.7804801 5.0156541,5.576899 5.9142916,6.4755368 C 6.154952,6.7161967 6.4869864,6.8071422 6.796478,6.7469783 6.982173,6.7108808 7.1600046,6.61993 7.3044036,6.4755368 l 0.098706,-0.098706 c 0.3850561,-0.3850583 0.385064,-1.0050637 0,-1.3901125 L 6.8293801,4.4129884 C 7.0475652,4.3688796 7.2700321,4.3502397 7.491534,4.3595228 Z M 7.9603884,5.6283083 V 9.362692 C 7.9173585,9.3338898 7.8718571,9.3082199 7.8267238,9.2824931 7.51079,9.1024077 7.1450272,8.9987131 6.7553504,8.9987131 c -0.1495561,0 -0.2949274,0.014326 -0.4359523,0.043184 -0.035256,0.00721 -0.070266,0.015772 -0.1048749,0.024676 -0.553753,0.1424738 -1.0224838,0.498293 -1.3119696,0.9747239 -0.018092,0.02978 -0.034735,0.05978 -0.051409,0.09048 -0.1667491,0.306958 -0.2611601,0.66047 -0.2611601,1.034359 0,1.196454 0.9689178,2.165366 2.1653667,2.165366 1.1614119,0 2.110871,-0.914669 2.1653668,-2.062548 0.00125,-0.0209 0.00162,-0.0408 0.00205,-0.06169 V 7.555135 c 0.2887992,0.1724468 0.5244314,0.4338587 0.7546901,0.688887 0.04318,0.047811 0.08656,0.095261 0.129552,0.1418905 L 10.847544,7.2857498 C 10.071314,6.4540142 9.0935847,5.8615792 7.9603884,5.6283083 Z" />
</svg>
