<?xml version="1.0" encoding="UTF-8" standalone="no"?>
<svg
   height="16px"
   viewBox="0 0 16 16"
   width="16px"
   version="1.1"
   id="svg5"
   sodipodi:docname="cassette-wave-era-1980s.svg"
   inkscape:version="1.3.2 (091e20ef0f, 2023-11-25)"
   xmlns:inkscape="http://www.inkscape.org/namespaces/inkscape"
   xmlns:sodipodi="http://sodipodi.sourceforge.net/DTD/sodipodi-0.dtd"
   xmlns="http://www.w3.org/2000/svg"
   xmlns:svg="http://www.w3.org/2000/svg">
  <defs
     id="defs5" />
  <sodipodi:namedview
     id="namedview5"
     pagecolor="#ffffff"
     bordercolor="#000000"
     borderopacity="0.25"
     inkscape:showpageshadow="2"
     inkscape:pageopacity="0.0"
     inkscape:pagecheckerboard="0"
     inkscape:deskcolor="#d1d1d1"
     inkscape:zoom="11.313709"
     inkscape:cx="2.6074561"
     inkscape:cy="17.545086"
     inkscape:window-width="1920"
     inkscape:window-height="1131"
     inkscape:window-x="0"
     inkscape:window-y="0"
     inkscape:window-maximized="1"
     inkscape:current-layer="svg5" />
  <path
     id="path51"
     style="color:#000000;-inkscape-font-specification:Nasalization;fill:#2e3436;fill-opacity:1;stroke-width:1.05025;stroke-linecap:round;stroke-linejoin:round;stroke-miterlimit:0;-inkscape-stroke:none;paint-order:stroke fill markers"
     d="M 1.3691409,0.33496098 A 1.3708504,1.584508 0 0 0 2.780655e-7,1.9208951 V 4.1632192 A 1.3708504,1.584508 0 0 0 1.3691409,5.7471149 h 0.7753906 v 9.0039481 a 1.3708504,1.584508 0 0 0 1.3691407,1.583896 H 5.8164065 A 1.3708504,1.584508 0 0 0 7.1875003,14.751063 V 4.9806479 C 7.1875003,3.686668 6.9804649,2.357341 6.1054691,1.4418536 5.2304743,0.52638699 4.0929417,0.33496098 2.7558597,0.33496098 Z m 12.5175781,0 c -0.629858,0 -1.192987,0.21867805 -1.56836,0.66250509 C 12.166693,1.1767862 12.04757,1.3849678 11.960938,1.6171628 11.910998,1.3090407 11.779449,1.0171638 11.546875,0.80177237 11.242751,0.52010704 10.817391,0.39203883 10.310547,0.39203883 H 9.4296883 c -0.506845,0 -0.932205,0.12806821 -1.236329,0.40973354 -0.304124,0.28166323 -0.439453,0.69515303 -0.439453,1.10281483 0,0.3896371 0.29618,0.6174246 0.539063,0.8704299 -0.250553,0.254788 -0.550781,0.4868734 -0.550781,0.8867367 0,0.4021782 0.132676,0.8158507 0.433593,1.1007776 0.300916,0.2849373 0.726817,0.4178869 1.236328,0.4178869 h 0.9140627 c 0.509511,0 0.938084,-0.1337345 1.240234,-0.4178869 0.222026,-0.2087963 0.352589,-0.4860437 0.40625,-0.7786981 0.08522,0.2205619 0.198434,0.4193001 0.34375,0.5911577 0.37489,0.4433783 0.938128,0.6625051 1.570313,0.6625051 0.632184,0 1.197375,-0.2191268 1.572265,-0.6625051 C 15.833873,4.1316128 16,3.5127897 16,2.7892856 16,2.0625502 15.832402,1.4412827 15.457031,0.99746607 15.08166,0.55363903 14.516576,0.33496098 13.886719,0.33496098 Z m 0,1.56758792 c 0.281799,0 0.383516,0.060256 0.46289,0.1630781 0.07937,0.102794 0.154297,0.3271216 0.154297,0.7175435 0,0.3946135 -0.07575,0.6211829 -0.154297,0.7236586 -0.07855,0.1024704 -0.177709,0.1630791 -0.46289,0.1630781 -0.285182,0 -0.389046,-0.061925 -0.46875,-0.1651164 -0.0797,-0.1031384 -0.154297,-0.3279555 -0.154297,-0.7216203 0,-0.3904219 0.0747,-0.6148737 0.154297,-0.7175435 0.07961,-0.1026583 0.183568,-0.1630781 0.46875,-0.1630781 z m -4.4746097,0.044847 h 0.9199217 c 0.119451,0 0.145682,0.023446 0.144531,0.022423 5.59e-4,0.00407 0.002,0.013644 0.002,0.04077 0,0.0071 -8.9e-5,0.00745 0,0.012231 -0.02479,0.0071 -0.07169,0.016307 -0.152344,0.016307 H 9.4180153 c -0.08267,0 -0.130639,-0.011218 -0.15625,-0.018346 1.32e-4,-0.00407 0,-0.00337 0,-0.010187 0,-0.026917 9.5e-5,-0.035267 0,-0.038732 -2.06e-4,1.535e-4 0.02931,-0.024461 0.15039,-0.024461 z m 2.3808597,0.458657 c -0.01129,0.1242545 -0.01953,0.2515368 -0.01953,0.383233 0,0.1165979 0.0068,0.2295377 0.01562,0.3404256 C 11.686208,3.0041113 11.561006,2.8914001 11.445309,2.7750171 11.561905,2.6535555 11.690253,2.5365265 11.792966,2.4060526 Z M 9.3964843,3.5149835 H 10.34375 c 0.109272,0 0.14668,0.017525 0.154297,0.020385 -5.49e-4,0.00407 -0.002,0.0026 -0.002,0.022424 0,0.029359 -0.0016,0.034253 -0.002,0.038731 -0.0015,1.837e-4 -0.03489,0.022423 -0.152344,0.022423 H 9.3963903 c -0.119571,0 -0.152897,-0.02538 -0.152343,-0.024461 -1.5e-4,-0.00407 0,-0.0091 0,-0.036692 0,-0.019068 -0.0012,-0.018353 -0.002,-0.022424 0.0081,-0.00303 0.04678,-0.020385 0.154296,-0.020385 z M 8.5605473,6.067156 a 0.81855671,0.94907637 0 0 0 -0.818359,0.9499295 v 8.3699825 a 0.81855671,0.94907637 0 0 0 0.818359,0.947891 h 1.261719 a 0.81855671,0.94907637 0 0 0 0.8183587,-0.947891 v -2.537903 c 0.510166,0.01203 0.862687,0.05565 0.917969,0.08358 0.06271,0.0316 0.07021,0.01967 0.242187,0.407696 l 1.09961,2.478787 a 0.81855671,0.94907637 0 0 0 0.728515,0.515734 h 1.41211 a 0.81855671,0.94907637 0 0 0 0.726562,-1.384125 L 14.603516,12.32324 c -0.230355,-0.520824 -0.454681,-0.957466 -0.773438,-1.327047 -0.03565,-0.04139 -0.0929,-0.04698 -0.130859,-0.08562 0.226452,-0.307755 0.566286,-0.495609 0.724609,-0.862274 l 0.002,-0.0041 1.132813,-2.5990567 A 0.81855671,0.94907637 0 0 0 14.828125,6.067156 H 13.46875 A 0.81855671,0.94907637 0 0 0 12.740234,6.5869664 L 11.638672,9.0902155 C 11.456846,9.5000294 11.42198,9.5201248 11.396484,9.534603 11.374434,9.547138 11.073139,9.588002 10.640625,9.601873 V 7.0191239 A 0.81855671,0.94907637 0 0 0 9.8222663,6.067156 Z" />
</svg>
