<?xml version="1.0" encoding="UTF-8" standalone="no"?>
<svg
   height="16px"
   viewBox="0 0 16 16"
   width="16px"
   version="1.1"
   id="svg5"
   sodipodi:docname="cassette-wave-era-circle_of_king&amp;fool.svg"
   inkscape:version="1.3.2 (091e20ef0f, 2023-11-25)"
   xmlns:inkscape="http://www.inkscape.org/namespaces/inkscape"
   xmlns:sodipodi="http://sodipodi.sourceforge.net/DTD/sodipodi-0.dtd"
   xmlns="http://www.w3.org/2000/svg"
   xmlns:svg="http://www.w3.org/2000/svg">
  <defs
     id="defs5" />
  <sodipodi:namedview
     id="namedview5"
     pagecolor="#ffffff"
     bordercolor="#000000"
     borderopacity="0.25"
     inkscape:showpageshadow="2"
     inkscape:pageopacity="0.0"
     inkscape:pagecheckerboard="0"
     inkscape:deskcolor="#d1d1d1"
     inkscape:zoom="16"
     inkscape:cx="3.46875"
     inkscape:cy="18.46875"
     inkscape:window-width="1920"
     inkscape:window-height="1131"
     inkscape:window-x="0"
     inkscape:window-y="0"
     inkscape:window-maximized="1"
     inkscape:current-layer="svg5" />
  <path
     id="path258"
     style="fill:#2e3436;fill-opacity:1;stroke-width:4.13876;paint-order:stroke markers fill"
     d="M 1.0917969 0.47460938 C 0.48735011 0.47460938 1.4802959e-16 0.96196909 0 1.5664062 L 0 14.433594 C 0 15.038031 0.48735011 15.525391 1.0917969 15.525391 L 1.2460938 15.525391 C 1.8505308 15.525391 2.3378906 15.038031 2.3378906 14.433594 L 2.3378906 13.167969 L 3.3828125 14.978516 C 3.6276883 15.402647 4.1096275 15.59916 4.5625 15.498047 C 4.637435 15.514203 4.7150162 15.525391 4.7949219 15.525391 L 4.9511719 15.525391 C 5.5556187 15.525391 6.0410156 15.038031 6.0410156 14.433594 L 6.0410156 13.466797 L 6.3652344 13.279297 L 6.3652344 14.433594 C 6.3652344 15.038031 6.8506313 15.525391 7.4550781 15.525391 L 7.6113281 15.525391 C 7.9730401 15.525391 8.2899923 15.349566 8.4882812 15.080078 C 8.6865186 15.3501 9.007009 15.525391 9.3691406 15.525391 L 9.390625 15.525391 L 9.5234375 15.525391 L 14.908203 15.525391 C 15.51264 15.525391 16 15.038031 16 14.433594 L 16 14.277344 L 16 1.5664062 C 16 0.96196909 15.51264 0.47460938 14.908203 0.47460938 L 14.753906 0.47460938 C 14.14946 0.47460938 13.662109 0.96196909 13.662109 1.5664062 L 13.662109 13.1875 L 13.306641 13.1875 L 13.306641 5.3828125 C 13.306641 4.7783753 12.821234 4.2929687 12.216797 4.2929688 L 12.060547 4.2929688 C 11.4561 4.2929688 10.970703 4.7783753 10.970703 5.3828125 L 10.970703 13.1875 L 10.615234 13.1875 L 10.615234 1.5664062 C 10.615234 0.96196909 10.127875 0.47460938 9.5234375 0.47460938 L 9.3691406 0.47460938 C 8.7646938 0.47460938 8.2773438 0.96196909 8.2773438 1.5664062 L 8.2773438 8.8984375 C 8.092916 8.7556706 7.8636499 8.6679688 7.6113281 8.6679688 L 7.4550781 8.6679688 C 6.8506313 8.6679688 6.3652344 9.1553285 6.3652344 9.7597656 L 6.3652344 10.582031 L 6.0410156 10.769531 L 6.0410156 9.7597656 C 6.0410156 9.1553285 5.5556187 8.6679688 4.9511719 8.6679688 L 4.7949219 8.6679688 C 4.1904751 8.6679688 3.7050781 9.1553285 3.7050781 9.7597656 L 3.7050781 10.861328 L 2.6015625 8.9492188 C 2.649684 8.8948421 2.6946452 8.8349635 2.7324219 8.7695312 L 5.9667969 3.1660156 C 6.2690107 2.6425576 6.0918174 1.977995 5.5683594 1.6757812 L 5.4335938 1.5976562 C 4.9101358 1.2954329 4.2455828 1.4726358 3.9433594 1.9960938 L 2.3378906 4.7773438 L 2.3378906 1.5664062 C 2.3378906 0.96196909 1.8505308 0.47460938 1.2460938 0.47460938 L 1.0917969 0.47460938 z " />
</svg>
