<?xml version="1.0" encoding="UTF-8" standalone="no"?>
<svg
   height="16px"
   viewBox="0 0 16 16"
   width="16px"
   version="1.1"
   id="svg5"
   sodipodi:docname="cassette-wave-era-1970s.svg"
   inkscape:version="1.3.2 (091e20ef0f, 2023-11-25)"
   xmlns:inkscape="http://www.inkscape.org/namespaces/inkscape"
   xmlns:sodipodi="http://sodipodi.sourceforge.net/DTD/sodipodi-0.dtd"
   xmlns="http://www.w3.org/2000/svg"
   xmlns:svg="http://www.w3.org/2000/svg">
  <defs
     id="defs5" />
  <sodipodi:namedview
     id="namedview5"
     pagecolor="#ffffff"
     bordercolor="#000000"
     borderopacity="0.25"
     inkscape:showpageshadow="2"
     inkscape:pageopacity="0.0"
     inkscape:pagecheckerboard="0"
     inkscape:deskcolor="#d1d1d1"
     inkscape:zoom="11.313709"
     inkscape:cx="2.6074561"
     inkscape:cy="17.545086"
     inkscape:window-width="1920"
     inkscape:window-height="1131"
     inkscape:window-x="0"
     inkscape:window-y="0"
     inkscape:window-maximized="1"
     inkscape:current-layer="svg5" />
  <path
     id="path47"
     style="color:#000000;-inkscape-font-specification:Nasalization;fill:#2e3436;fill-opacity:1;stroke-width:1.05492;stroke-linecap:round;stroke-linejoin:round;stroke-miterlimit:0;-inkscape-stroke:none;paint-order:stroke fill markers"
     d="M 1.3828125,0.26757812 A 1.3829921,1.584612 0 0 0 0,1.8538372 v 2.2429907 a 1.3829921,1.584612 0 0 0 1.3828125,1.5822177 h 0.78125 V 14.68536 a 1.3829921,1.584612 0 0 0 1.3808594,1.582218 H 5.8671875 A 1.3829921,1.584612 0 0 0 7.25,14.68536 V 4.9131956 C 7.25,3.6191308 7.042902,2.2904757 6.1601562,1.3749284 5.2774116,0.4594017 4.1282215,0.26757812 2.7792969,0.26757812 Z m 12.2968755,0 c -0.635437,0 -1.205288,0.21893799 -1.583985,0.66279362 C 11.973535,1.0735585 11.997951,1.3308185 11.917969,1.5082955 11.907847,1.2480041 11.845415,0.95339528 11.628906,0.71819696 11.396542,0.46576688 11.034937,0.32415807 10.601562,0.32415806 H 8.2382812 A 0.42762552,0.44242336 0 0 0 7.8105469,0.76871476 V 1.4496948 a 0.42762552,0.44242336 0 0 0 0.4277343,0.442536 h 1.9648438 l -1.7949219,2.513766 a 0.42762552,0.44242336 0 0 0 0.34375,0.7052287 h 0.828125 A 0.42762552,0.44242336 0 0 0 9.921875,4.931382 l 1.621094,-2.2773426 a 0.42762552,0.44242336 0 0 0 0.002,-0.00404 c 0.0045,-0.00611 0.0076,-0.013681 0.01172,-0.020207 -0.0056,0.027937 -0.0098,0.058915 -0.0098,0.090932 0,0.7235507 0.168663,1.3429026 0.546875,1.7863097 0.378211,0.4434068 0.948154,0.6627936 1.585938,0.6627936 0.637783,0 1.205774,-0.2193868 1.583984,-0.6627936 0.378209,-0.4434071 0.546875,-1.062759 0.546875,-1.7863097 0,-0.7267828 -0.170134,-1.3465057 -0.548828,-1.79035106 C 14.88305,0.48651564 14.315138,0.26757972 13.679702,0.26757972 Z m 0,1.56605198 c 0.284297,0 0.386719,0.060848 0.466796,0.1636777 0.08007,0.1027993 0.154298,0.3289263 0.154297,0.7193736 0,0.394638 -0.0731,0.6209421 -0.152343,0.723415 -0.07925,0.1024827 -0.181042,0.161657 -0.46875,0.161657 -0.287708,0 -0.390294,-0.058521 -0.470704,-0.161657 -0.08041,-0.1031355 -0.158203,-0.3297252 -0.158203,-0.723415 0,-0.3904473 0.07595,-0.6166967 0.15625,-0.7193736 0.08031,-0.1026772 0.184949,-0.1636777 0.472657,-0.1636777 z M 11.693359,2.241814 c -0.0086,0.061076 -0.03019,0.1129613 -0.05273,0.1636777 0.01352,-0.054754 0.02796,-0.1097392 0.05273,-0.1636777 z M 8.6367188,6.0003389 A 0.82580669,0.94913867 0 0 0 7.8105469,6.9500736 v 8.3697904 a 0.82580669,0.94913867 0 0 0 0.8261719,0.947714 h 1.2734374 a 0.82580669,0.94913867 0 0 0 0.8242188,-0.947714 v -2.538015 c 0.514685,0.01203 0.870009,0.05693 0.925781,0.08487 0.06326,0.03161 0.07258,0.01811 0.246094,0.406164 l 1.109375,2.479413 A 0.82580669,0.94913867 0 0 0 13.75,16.267578 h 1.423828 a 0.82580669,0.94913867 0 0 0 0.734375,-1.384188 l -1.175781,-2.626926 c -0.232396,-0.520859 -0.457717,-0.958002 -0.779297,-1.327608 -0.03596,-0.04139 -0.09452,-0.04824 -0.132813,-0.08689 0.228458,-0.307775 0.570743,-0.496154 0.730469,-0.8628437 l 0.0039,-0.00202 1.142578,-2.6006567 a 0.82580669,0.94913867 0 0 0 -0.738282,-1.376105 h -1.371093 a 0.82580669,0.94913867 0 0 0 -0.734375,0.519323 l -1.111328,2.5036625 c -0.183436,0.4098408 -0.218418,0.430078 -0.244141,0.4445566 -0.02224,0.012541 -0.327328,0.052817 -0.763672,0.066684 V 6.9500736 A 0.82580669,0.94913867 0 0 0 9.9101562,6.0003389 Z" />
</svg>
