<?xml version="1.0" encoding="UTF-8" standalone="no"?>
<svg
   height="16px"
   viewBox="0 0 16 16"
   width="16px"
   version="1.1"
   id="svg5"
   sodipodi:docname="cassette-wave-classes-concentration.svg"
   inkscape:version="1.3.2 (091e20ef0f, 2023-11-25)"
   xmlns:inkscape="http://www.inkscape.org/namespaces/inkscape"
   xmlns:sodipodi="http://sodipodi.sourceforge.net/DTD/sodipodi-0.dtd"
   xmlns="http://www.w3.org/2000/svg"
   xmlns:svg="http://www.w3.org/2000/svg">
  <defs
     id="defs5" />
  <sodipodi:namedview
     id="namedview5"
     pagecolor="#ffffff"
     bordercolor="#000000"
     borderopacity="0.25"
     inkscape:showpageshadow="2"
     inkscape:pageopacity="0.0"
     inkscape:pagecheckerboard="0"
     inkscape:deskcolor="#d1d1d1"
     inkscape:zoom="14.738757"
     inkscape:cx="-6.5473635"
     inkscape:cy="13.128651"
     inkscape:window-width="1920"
     inkscape:window-height="1131"
     inkscape:window-x="0"
     inkscape:window-y="0"
     inkscape:window-maximized="1"
     inkscape:current-layer="svg5" />
  <path
     id="path1608"
     style="fill:#2e3436;stroke-width:0.506874;stroke-linecap:round;stroke-linejoin:round;stroke-miterlimit:0;paint-order:stroke fill markers"
     d="M 7.9335938 0 C 7.4092834 0 6.9863281 0.42294513 6.9863281 0.94726562 L 6.9863281 1.0214844 C 3.9055636 1.4682265 1.4382425 3.9144396 0.96289062 6.9863281 L 0.94726562 6.9863281 C 0.42294513 6.9863281 -7.4014794e-17 7.4092834 0 7.9335938 L 0 8.0664062 C 0 8.5900623 0.42190169 9.0126201 0.9453125 9.0136719 C 1.368841 12.148725 3.8620057 14.660821 6.9882812 15.113281 C 7.0192559 15.609216 7.4295941 16 7.9335938 16 L 8.0664062 16 C 8.5704059 16 8.9807441 15.609216 9.0117188 15.113281 C 12.138019 14.660816 14.631193 12.148767 15.054688 9.0136719 C 15.578098 9.0126201 16 8.5900623 16 8.0664062 L 16 7.9335938 C 16 7.4092834 15.577055 6.9863281 15.052734 6.9863281 L 15.037109 6.9863281 C 14.561756 3.9144396 12.094431 1.4682265 9.0136719 1.0214844 L 9.0136719 0.94726562 C 9.0136719 0.42294513 8.5907166 7.4014794e-17 8.0664062 0 L 7.9335938 0 z M 6.9863281 3.0878906 L 6.9863281 3.4296875 C 6.9863281 3.954008 7.4092834 4.3769531 7.9335938 4.3769531 L 8.0664062 4.3769531 C 8.5907166 4.3769531 9.0136719 3.954008 9.0136719 3.4296875 L 9.0136719 3.0878906 A 5.0925724 5.0925724 0 0 1 12.962891 6.9863281 L 12.570312 6.9863281 C 12.045992 6.9863281 11.623047 7.4092834 11.623047 7.9335938 L 11.623047 8.0664062 C 11.623047 8.5907166 12.045992 9.0136719 12.570312 9.0136719 L 12.998047 9.0136719 A 5.0925724 5.0925724 0 0 1 9.0136719 13.046875 L 9.0136719 12.570312 C 9.0136719 12.045992 8.5907166 11.623047 8.0664062 11.623047 L 7.9335938 11.623047 C 7.4092834 11.623047 6.9863281 12.045992 6.9863281 12.570312 L 6.9863281 13.046875 A 5.0925724 5.0925724 0 0 1 3.0019531 9.0136719 L 3.4296875 9.0136719 C 3.9540081 9.0136719 4.3769531 8.5907166 4.3769531 8.0664062 L 4.3769531 7.9335938 C 4.3769531 7.4092834 3.9540081 6.9863281 3.4296875 6.9863281 L 3.0371094 6.9863281 A 5.0925724 5.0925724 0 0 1 6.9863281 3.0878906 z M 8 5.2617188 A 2.8055809 2.8055809 0 0 0 5.1953125 8.0683594 A 2.8055809 2.8055809 0 0 0 8 10.873047 A 2.8055809 2.8055809 0 0 0 10.804688 8.0683594 A 2.8055809 2.8055809 0 0 0 8 5.2617188 z " />
</svg>
