<?xml version="1.0" encoding="UTF-8" standalone="no"?>
<svg
   height="16px"
   viewBox="0 0 16 16"
   width="16px"
   version="1.1"
   id="svg5"
   sodipodi:docname="cassette-wave-era-forks.svg"
   inkscape:version="1.3.2 (091e20ef0f, 2023-11-25)"
   xmlns:inkscape="http://www.inkscape.org/namespaces/inkscape"
   xmlns:sodipodi="http://sodipodi.sourceforge.net/DTD/sodipodi-0.dtd"
   xmlns="http://www.w3.org/2000/svg"
   xmlns:svg="http://www.w3.org/2000/svg">
  <defs
     id="defs5" />
  <sodipodi:namedview
     id="namedview5"
     pagecolor="#ffffff"
     bordercolor="#000000"
     borderopacity="0.25"
     inkscape:showpageshadow="2"
     inkscape:pageopacity="0.0"
     inkscape:pagecheckerboard="0"
     inkscape:deskcolor="#d1d1d1"
     inkscape:zoom="22.627417"
     inkscape:cx="4.1321553"
     inkscape:cy="6.9163882"
     inkscape:window-width="1920"
     inkscape:window-height="1131"
     inkscape:window-x="0"
     inkscape:window-y="0"
     inkscape:window-maximized="1"
     inkscape:current-layer="svg5" />
  <path
     id="path318"
     style="color:#000000;fill:#2e3436;fill-opacity:1;stroke:none;stroke-width:0.27396;stroke-linecap:round;stroke-linejoin:round;stroke-miterlimit:0;-inkscape-stroke:none;paint-order:stroke fill markers"
     d="m 14.485222,1.4104233 h -0.003 C 14.298185,1.234782 14.060721,1.1499592 13.82283,1.1540589 c -0.235181,1.98e-5 -0.468843,0.087553 -0.648455,0.2673432 -0.166251,0.1664096 -0.222902,0.4012135 -0.233057,0.633357 L 12.765835,2.2329913 C 12.672325,1.7289581 12.52584,1.2281808 12.139328,0.84148996 c -3.87e-4,-4.0699e-4 -9.93e-4,-0.002978 -9.93e-4,-0.003971 -0.175254,-0.17506557 -0.370004,-0.31944801 -0.573053,-0.43869629 -0.01678,-0.009927 -0.03196,-0.0192576 -0.04795,-0.0287871 h -0.003 c -0.01777,-0.008934 -0.03574,-0.0194561 -0.05351,-0.0287872 -0.02492,-0.0136987 -0.04963,-0.0270004 -0.07534,-0.0397064 -0.05966,-0.0301769 -0.12044,-0.0577728 -0.182332,-0.083582 h -0.003 c -0.006,-9.9266e-4 -0.0069,-0.003971 -0.01092,-0.005956 l -9.92e-4,-9.9266e-4 c -0.006,-0.002978 -0.014,-0.005956 -0.01777,-0.006949 -0.07465,-0.0298791 -0.151807,-0.0556882 -0.230317,-0.0795121 -0.006,-9.9266e-4 -0.01271,-0.002978 -0.01916,-0.005956 l -9.93e-4,-9.9266e-4 c -0.02948,-0.008934 -0.05936,-0.0128053 -0.08914,-0.02054807 C 10.769908,0.08107165 10.70895,0.06360083 10.645777,0.05178817 10.561797,0.03580634 10.476379,0.02359662 10.389412,0.01476194 c -0.005,-7.0478e-4 -0.01003,-5.3603e-4 -0.01509,-9.9266e-4 -0.03524,-0.002978 -0.07137,-0.002978 -0.106939,-0.005956 -0.05787,-0.0039706 -0.115268,-0.0099266 -0.174103,-0.0099266 h -0.003 c -0.100169,6.949e-5 -0.2005568,0.0079413 -0.3002298,0.01786788 -0.035339,0.002978 -0.070479,0.0079413 -0.1055694,0.01230899 -0.070082,0.0099266 -0.1391611,0.02342679 -0.2083793,0.03841596 -0.025015,0.005956 -0.050328,0.0069486 -0.075442,0.01230899 l -9.926e-4,9.9266e-4 c -0.010522,0.0019853 -0.02025,0.0049633 -0.030177,0.0079413 -0.087056,0.02233486 -0.172703,0.04943449 -0.2577343,0.07951209 -0.040401,0.0138972 -0.079512,0.0314673 -0.1192681,0.0479455 -0.059163,0.0241216 -0.1177693,0.0486404 -0.1754925,0.0767326 -0.024122,0.0115149 -0.050328,0.0207466 -0.074052,0.0328571 l -9.927e-4,-9.9266e-4 c -0.00496,0.003971 -0.014989,0.012309 -0.023328,0.0178679 -0.00993,0.005956 -0.018761,0.009927 -0.028787,0.0150884 -0.00496,0.003971 -0.012011,0.006949 -0.017868,0.009927 -0.059659,0.0328571 -0.1196553,0.0651185 -0.1768524,0.10281975 l -0.00298,0.002978 c -0.07713,0.0509235 -0.1540013,0.10771357 -0.2275773,0.16725333 l -0.00298,0.002978 c -0.075261,0.0608505 -0.1457,0.12644548 -0.2151465,0.19604089 l -9.927e-4,9.9266e-4 c -0.065416,0.0656149 -0.1283807,0.13486283 -0.1850815,0.20700938 -0.026405,0.033453 -0.04328,0.062339 -0.057574,0.082292 -0.030971,0.043677 -0.064324,0.09063 -0.09599,0.1425757 -0.045861,0.075144 -0.089836,0.1515991 -0.1274973,0.231687 l 9.9e-6,0.00298 c -7.048e-4,0.00397 -0.00298,0.00496 -0.00397,0.00993 -9.927e-4,0.00397 -0.00397,0.00993 -0.00397,0.00993 -0.034048,0.073953 -0.066012,0.1480648 -0.093211,0.2248273 l 9.927e-4,9.926e-4 c -10e-6,4.97e-5 -0.00893,0.039706 -0.00993,0.039806 -1e-5,1.99e-5 6.651e-4,0.00496 9.926e-4,0.00993 -0.092317,0.2763169 -0.1386647,0.5650322 -0.1576642,0.8568246 -0.00199,0.019456 -0.00695,0.042089 -0.00794,0.060354 -0.068692,0.047251 -0.133354,0.09599 -0.190561,0.1466953 l -9.926e-4,9.927e-4 -9.927e-4,9.926e-4 c -3.673e-4,3.673e-4 -0.00199,9.927e-4 -0.00298,0.00298 -0.00199,9.927e-4 -0.00596,0.00298 -0.00596,0.00298 -0.00199,9.927e-4 -0.00199,0.00199 -0.00298,0.00298 -0.00199,9.927e-4 -0.00496,0.00298 -0.00596,0.00596 -0.00596,0.00695 -0.00993,0.012309 -0.012309,0.015088 l -9.926e-4,9.926e-4 -9.927e-4,9.927e-4 C 6.7500637,3.206595 6.6180697,3.6099228 6.557567,4.0031155 L 4.7068142,3.5095523 C 4.5580144,3.4696474 4.4088176,3.4481067 4.2598887,3.4382793 c -0.011217,0 -0.022235,-0.00199 -0.032857,-0.00298 C 3.3937629,3.3918228 2.5510042,3.8059805 2.0787858,4.5443808 1.9574132,4.7342569 1.8622767,4.9463884 1.7991137,5.1722781 c 0.00695,-0.013699 8.93e-5,-0.00596 -0.00993,0.020548 l 9.927e-4,9.927e-4 c -6.949e-4,0.00199 -0.00298,0.00695 -0.00397,0.00993 l -0.026008,0.09738 0.00397,-0.00397 0.021938,-0.021938 c -0.015684,0.017074 -0.027398,0.03782 -0.032857,0.060354 -0.025412,0.094898 -0.043975,0.1895286 -0.054894,0.2824118 l 9.926e-4,9.927e-4 c 9.927e-4,0.00199 0.00298,6.353e-4 0.00596,0.00298 l -0.00695,-9.927e-4 c -0.010919,0.095295 -0.014989,0.1880297 -0.012309,0.2783022 0.00496,0.1841087 0.036232,0.3635321 0.089141,0.5360266 0.026405,0.086858 0.058666,0.1687721 0.094601,0.250885 0.036133,0.082589 0.076534,0.1627566 0.120638,0.2412859 7.048e-4,0.00199 6.75e-4,0.00496 9.927e-4,0.00695 9.926e-4,0.00199 0.00397,9.926e-4 0.00695,0.00397 0.042585,0.074747 0.087751,0.1506958 0.1370864,0.2220879 0.00298,0.00298 0.00496,0.00695 0.00794,0.010919 0.022335,0.032162 0.047747,0.064424 0.071273,0.09599 C 1.9114531,7.4845413 1.620415,7.7079593 1.3633259,7.9432397 1.2178516,8.0760775 1.0818372,8.2121712 0.95478668,8.3490392 0.82792469,8.4857285 0.7112474,8.6242642 0.60520151,8.7644278 0.26151274,9.2181728 0.03226778,9.8027902 0.00336151,10.419143 l -9.9266e-4,9.93e-4 v 0.003 c -0.002978005,0.05986 -0.002978005,0.119248 -9.9266e-4,0.179592 0.0079413,0.423995 0.11360004,0.857897 0.34684543,1.262634 0.004963,0.0079 0.0111178,0.0138 0.0178679,0.02055 l -0.006949,-0.004 0.009927,0.01509 0.0753429,0.135726 c 7.0478e-4,6.95e-4 0.003971,3.18e-4 0.003971,9.93e-4 0.0317651,0.0546 0.0646222,0.109083 0.10144988,0.161764 4.9633e-4,3.18e-4 9.9266e-4,0.002 0.002978,0.003 0.0136987,0.01926 0.0287871,0.03683 0.0424859,0.05619 0.007941,0.01122 0.0174708,0.02293 0.0260077,0.03425 0.0142943,0.01856 0.0272982,0.03822 0.0424859,0.05618 0.0387137,0.04715 0.0773282,0.09103 0.11790818,0.131607 0.002978,0.003 0.005956,0.006 0.007941,0.0079 l 9.9266e-4,9.93e-4 0.002978,0.003 c 0.11968505,0.119883 0.25065666,0.22035 0.38934116,0.307089 0.00397,0.003 0.00893,0.006 0.013699,0.0079 0.00298,0.002 0.00596,0.004 0.00794,0.006 0.00298,0.003 0.00496,0.003 0.00596,0.006 9.629e-4,4.37e-4 0.00397,0.004 0.00397,0.004 l 9.927e-4,9.93e-4 c 0.030673,0.01807 0.062637,0.03454 0.094601,0.05072 0.012607,0.0069 0.025412,0.0129 0.038416,0.01916 0.00496,0.002 0.00893,0.005 0.012309,0.0069 6.949e-4,7.05e-4 0.00199,0.005 0.00298,0.006 7.048e-4,7.05e-4 0.00298,6.75e-4 0.00397,9.93e-4 9.926e-4,4.17e-4 0.00397,0.002 0.00596,0.003 0.1583889,0.07951 0.3250764,0.143211 0.4962706,0.189191 0.1115055,0.02998 0.2237158,0.05301 0.3386262,0.06988 0.122266,0.01807 0.2467456,0.02859 0.371523,0.03425 0.07306,0.003 0.1480354,6.16e-4 0.2220878,-10e-6 -4.864e-4,0.07405 -0.00397,0.149138 0,0.222098 0.00596,0.124728 0.017471,0.247887 0.035636,0.370153 0.016776,0.114911 0.038416,0.228501 0.068494,0.339986 l 9.927e-4,9.93e-4 c 0.046159,0.171988 0.1078029,0.338616 0.1878212,0.49765 9.927e-4,0.002 0.00199,0.005 0.00298,0.006 4.765e-4,8.94e-4 -2.98e-5,0.003 9.927e-4,0.004 4.764e-4,9.03e-4 0.00298,8.54e-4 0.00397,9.93e-4 0.00199,0.005 0.00496,0.0089 0.00695,0.01231 0.00596,0.0133 0.012706,0.02541 0.019158,0.03842 0.016677,0.03177 0.032361,0.06423 0.050725,0.0946 0,0 0.00397,0.003 0.00397,0.004 9.927e-4,0.002 0.00298,0.005 0.00397,0.0069 0.00199,0.003 0.00298,0.004 0.00397,0.0069 0.00298,0.004 0.00496,0.0099 0.00695,0.01509 0.086758,0.138695 0.1885359,0.268336 0.3084592,0.387972 l 0.00298,0.003 9.926e-4,9.92e-4 c 0.00298,0.003 0.00496,0.006 0.00794,0.0079 0.040699,0.0404 0.083781,0.07991 0.1316169,0.117898 0.017868,0.01509 0.037622,0.02809 0.056184,0.04249 0.010423,0.0089 0.022335,0.01836 0.034247,0.02601 0.018662,0.01449 0.036728,0.02869 0.056185,0.04248 1.985e-4,5.36e-4 0.00298,0.003 0.00298,0.003 0.052809,0.03683 0.1071775,0.06968 0.1617738,0.10145 7.048e-4,7.05e-4 9.927e-4,0.003 0.00298,0.003 l 0.1329768,0.07544 0.017769,0.0099 c 0.00496,0.004 0.00993,0.0089 0.015088,0.01231 0.4046282,0.233563 0.838649,0.338745 1.2626242,0.346855 0.060254,9.93e-4 0.1197942,9.93e-4 0.1795921,-9.92e-4 l 9.926e-4,-9.93e-4 9.927e-4,-9.93e-4 C 6.1915712,15.969593 6.7775683,15.741772 7.2312935,15.398013 7.3713777,15.291898 7.5100623,15.17536 7.646692,15.048418 7.78356,14.921378 7.918274,14.783983 8.0511118,14.638519 8.286402,14.38146 8.51119,14.091762 8.7283443,13.788534 c 0.031864,0.02343 0.062637,0.04745 0.094601,0.06988 -9.926e-4,-0.002 -0.00199,-0.004 -0.00596,-0.0079 9.92e-5,10e-6 0.011019,0.0099 0.017769,0.01509 0.071471,0.04943 0.1459905,0.09589 0.220718,0.138466 0.00298,0.003 0.00298,0.005 0.00596,0.006 9.628e-4,4.37e-4 0.00298,0.002 0.00596,0.003 0.078519,0.04417 0.1587066,0.08458 0.241276,0.120638 0.082192,0.03584 0.164057,0.0679 0.2508751,0.0946 0.1724747,0.05291 0.351898,0.08388 0.5360356,0.08914 0.09023,0.003 0.184506,-6e-5 0.279673,-0.01092 l -9.93e-4,-0.0069 c 9.93e-4,0.002 9.93e-4,0.004 0.003,0.006 l 9.93e-4,9.92e-4 c 0.09281,-0.01092 0.187523,-0.02938 0.282411,-0.05479 0.02243,-0.006 0.04318,-0.01757 0.06035,-0.03286 l -0.02194,0.02194 -0.004,0.004 0.09867,-0.02462 c 0.003,-9.93e-4 0.005,-0.003 0.0079,-0.003 l 0.003,10e-6 c 0.02641,-0.0089 0.03276,-0.01469 0.01916,-0.0079 0.226019,-0.06264 0.437991,-0.158369 0.627887,-0.279672 0.7384,-0.472209 1.153888,-1.316347 1.110449,-2.149616 -7.04e-4,-0.01052 -0.003,-0.02194 -0.003,-0.03296 -0.0099,-0.1489 -0.03137,-0.298146 -0.07127,-0.446926 l -0.49491,-1.8521158 c 0.393193,-0.060552 0.79791,-0.1911169 1.10497,-0.520968 l 9.92e-4,-9.926e-4 9.93e-4,-9.927e-4 c 0.003,-0.00298 0.0069,-0.00794 0.0137,-0.013699 0.003,-0.00199 0.005,-0.00199 0.0069,-0.00397 4.37e-4,-9.629e-4 0.003,-0.00298 0.004,-0.00397 0,0 0.002,-0.00496 0.003,-0.00596 5.36e-4,-2.184e-4 0.003,-0.00298 0.003,-0.00298 l 9.93e-4,-9.927e-4 9.92e-4,-9.926e-4 c 0.05043,-0.057475 0.0994,-0.1217895 0.146686,-0.1905511 0.01807,-0.00199 0.04229,-0.00496 0.06164,-0.00695 0.291812,-0.01896 0.580508,-0.065317 0.856834,-0.1576543 0.004,0 0.0099,9.926e-4 0.0099,9.926e-4 7.9e-5,-9.92e-5 0.03971,-0.00993 0.03981,-0.00993 l 9.92e-4,9.927e-4 c 0.07683,-0.026703 0.149644,-0.060552 0.223458,-0.094601 0,0 0.006,-6.75e-4 0.0099,-9.927e-4 0.004,-9.927e-4 0.0079,-0.00298 0.01092,-0.00596 l 9.93e-4,-9.926e-4 c 0.08011,-0.037721 0.156532,-0.081696 0.231687,-0.1274973 0.05192,-0.031567 0.09907,-0.064721 0.142575,-0.09599 0.01995,-0.014294 0.04904,-0.03117 0.08229,-0.057574 0.07236,-0.056482 0.141345,-0.1169453 0.207009,-0.1823319 l 9.93e-4,-9.926e-4 c 0.06959,-0.069586 0.135012,-0.1427644 0.19604,-0.2179783 5.46e-4,-1.985e-4 0.003,-0.00298 0.003,-0.00298 0.05956,-0.073655 0.115,-0.1490777 0.165884,-0.2262074 l 0.003,-0.00298 c 0.03752,-0.057177 0.07008,-0.1171438 0.10281,-0.1768523 0.004,-0.00596 0.0069,-0.012309 0.0099,-0.017868 0.0069,-0.012706 0.01509,-0.025511 0.02194,-0.038416 0,0 -0.004,0.00695 -0.0079,0.010919 2.28e-4,-5.857e-4 7.9e-5,-0.00298 9.92e-4,-0.00397 0.006,-0.00794 0.0139,-0.017967 0.01777,-0.023328 l -9.93e-4,-9.926e-4 c 0.01241,-0.023625 0.02114,-0.050129 0.03286,-0.074052 0.02809,-0.057674 0.0541,-0.11496 0.07812,-0.1741126 0.01618,-0.039806 0.03216,-0.080207 0.04656,-0.120638 0.03018,-0.085071 0.05738,-0.1706879 0.07951,-0.2577343 0.003,-0.00993 0.0089,-0.019754 0.01102,-0.030177 l -9.92e-4,-9.927e-4 c 0.006,-0.025015 0.0089,-0.048938 0.0137,-0.074052 0.01489,-0.069188 0.0272,-0.1397368 0.03703,-0.2097591 0.005,-0.035041 0.01023,-0.06899 0.0137,-0.1041797 0.01022,-0.099673 0.01767,-0.2000806 0.01787,-0.30024 l -10e-6,-0.00298 c 7e-5,-0.058765 -0.006,-0.1161511 -0.0099,-0.1741026 -0.002,-0.035637 -0.002,-0.07167 -0.006,-0.1069294 -7.05e-4,-0.00496 -5.96e-4,-0.010125 -9.93e-4,-0.015088 -0.0089,-0.086957 -0.02114,-0.1723358 -0.03703,-0.2563744 -0.01181,-0.063133 -0.0276,-0.1255219 -0.04388,-0.1864415 -0.0079,-0.029879 -0.01439,-0.059857 -0.02333,-0.089141 -9.93e-4,-0.00695 -0.004,-0.013004 -0.006,-0.019158 -0.02402,-0.07842 -0.04963,-0.1557087 -0.07951,-0.2303071 -0.002,-0.00496 -0.005,-0.01211 -0.0069,-0.017868 l -9.93e-4,-9.927e-4 c -0.002,-0.00496 -0.003,-0.00794 -0.006,-0.013699 l -9.92e-4,-9.926e-4 c -0.02571,-0.061843 -0.05351,-0.1226829 -0.08358,-0.1823319 -0.013,-0.025611 -0.02601,-0.050526 -0.03981,-0.075442 -0.0099,-0.017967 -0.01956,-0.035934 -0.02879,-0.053504 l 9.92e-4,-9.927e-4 c -0.0089,-0.01628 -0.02005,-0.032758 -0.03018,-0.049335 C 15.477932,4.2369242 15.33349,4.0422138 15.158464,3.86691 l -9.92e-4,-9.926e-4 C 14.770781,3.4794052 14.270014,3.3329184 13.76597,3.2393998 l 0.176853,-0.1768523 c 0.232173,-0.010125 0.466947,-0.064126 0.633367,-0.2303071 0.179741,-0.1796418 0.268693,-0.4146342 0.268713,-0.6498252 0.004,-0.2378613 -0.08328,-0.4755836 -0.259114,-0.6594143 l 10e-6,-0.00298 -0.003,-0.00298 c -0.03047,-0.026305 -0.05648,-0.056482 -0.08497,-0.084972 l -9.93e-4,-9.927e-4 -9.92e-4,-9.926e-4 c -9.93e-4,-0.00199 -0.004,-0.00298 -0.0069,-0.00397 l 9.93e-4,-9.926e-4 z m -0.392091,3.5095901 9.93e-4,9.927e-4 c 0.03345,0.033552 0.06353,0.068891 0.09321,0.1041896 0.207099,0.2555306 0.30832,0.5675237 0.308459,0.8787624 0.0079,0.3228429 -0.117868,0.6194101 -0.311199,0.8760327 -0.02928,0.034942 -0.05867,0.072365 -0.09321,0.1069293 -0.09549,0.095295 -0.204259,0.173388 -0.318048,0.2357965 -0.113759,0.06224 -0.235638,0.1086169 -0.361934,0.1370964 -0.0409,0.00893 -0.08805,0.015287 -0.139826,0.021938 -0.03037,0.00298 -0.04933,0.00695 -0.0535,0.00695 -0.06045,0.00496 -0.122892,0.00596 -0.186442,0.00298 -9.9e-5,1e-5 -0.005,0.00199 -0.0069,9.927e-4 -0.004,0 -0.0069,-9.927e-4 -0.01102,-0.00298 -0.06045,-0.00397 -0.122395,-0.011217 -0.182332,-0.023327 l -9.93e-4,-9.927e-4 c -9.92e-4,3.872e-4 -0.006,2.383e-4 -0.01102,-9.9e-6 -0.116945,-0.025511 -0.228699,-0.07296 -0.246765,-0.057574 -5e-5,0 -0.005,-5.559e-4 -0.01092,0.00298 -0.06224,0.014592 -0.0679,0.030773 -0.08775,0.063034 -0.0944,0.1544282 -0.192149,0.3050842 -0.309829,0.4414361 l -9.93e-4,9.926e-4 c -0.03802,0.044967 -0.07931,0.087453 -0.122017,0.130247 0.0089,-0.00893 0.0069,-0.00695 -0.003,0.00298 -0.003,0.00199 -0.004,0.00298 -0.006,0.00596 -0.153009,0.1502094 -0.323419,0.2807045 -0.50587,0.390721 h -0.003 c -0.01956,0.012607 -0.03286,0.023327 -0.0411,0.027397 -2e-5,0 -0.006,0.00298 -0.0079,0.00596 -0.01539,0.00695 -0.03196,0.015188 -0.05618,0.028787 -0.05092,0.027497 -0.09758,0.053107 -0.142566,0.074052 -0.37467,0.1758299 -0.684509,0.2273986 -0.89934,0.2495052 -0.08398,0.00893 -0.138705,0.089935 -0.116529,0.1713728 l 0.770464,2.8762142 c 0.0948,0.353844 -0.03951,0.71135 -0.309829,0.921268 -0.362312,0.276525 -1.1389288,0.371523 -1.4545551,-0.250875 -9.927e-4,-0.003 -0.00199,-0.0079 -0.00397,-0.0099 -0.025015,-0.05072 -0.046456,-0.103425 -0.061744,-0.160394 L 8.8956221,11.041611 c -9.926e-4,-0.002 -0.00397,-0.003 -0.00397,-0.004 l 9.9e-6,-0.003 c -0.00298,-0.003 -0.00496,-0.005 -0.00794,-0.0079 l 0.00695,9.93e-4 c -6.055e-4,-0.002 -0.00199,-0.004 -0.00298,-0.006 l -9.927e-4,-9.93e-4 -9.926e-4,-9.93e-4 c -0.078619,-0.117461 -0.1699335,-0.07971 -0.2892612,-0.03425 -0.047945,0.01588 -0.084872,0.0807 -0.086361,0.08358 -0.048938,0.133315 -0.106433,0.270888 -0.1699831,0.40855 l -9.927e-4,9.92e-4 c -0.00893,0.02025 -0.016577,0.03792 -0.024717,0.0548 -0.073755,0.155421 -0.1576345,0.314346 -0.2453956,0.470233 -0.043181,0.07653 -0.092714,0.153366 -0.1425758,0.235797 -0.048342,0.07991 -0.092218,0.156989 -0.1384661,0.228947 -0.06492,0.100596 -0.131736,0.195475 -0.1987902,0.292001 -0.066707,0.09609 -0.133622,0.189975 -0.20152,0.281042 -0.070082,0.0942 -0.1408882,0.189856 -0.2111189,0.276932 l -9.927e-4,9.93e-4 c -0.1024425,0.126872 -0.2028104,0.244949 -0.30159,0.353695 l -0.00397,0.004 c -0.00199,9.93e-4 -0.00298,0.003 -0.00596,0.006 -0.1984031,0.21778 -0.3861945,0.393372 -0.5387863,0.50862 -0.1053014,0.07971 -0.2173926,0.148392 -0.3358765,0.19879 l -0.00298,-10e-6 C 5.8683522,14.44036 5.7450539,14.47332 5.6217059,14.4891 5.5597639,14.496 5.4981495,14.499 5.4352546,14.497 5.3710296,14.495 5.3091073,14.491 5.250183,14.47913 l -9.927e-4,-9.93e-4 C 5.1261005,14.455007 5.0043308,14.410837 4.8858965,14.34241 L 4.7186432,14.24374 c -0.033651,-0.01946 -0.065813,-0.03951 -0.09738,-0.06164 -0.00496,-0.004 -0.010919,-0.0069 -0.016478,-0.01092 -0.02978,-0.02134 -0.057971,-0.04497 -0.084972,-0.06859 -9.926e-4,-0.002 -0.00199,-0.002 -0.00298,-0.003 -0.03117,-0.027 -0.060652,-0.05509 -0.086362,-0.08358 l -9.926e-4,-9.93e-4 c -0.081696,-0.08726 -0.1482936,-0.187196 -0.2001601,-0.293381 1.99e-5,0 -9.926e-4,-0.002 -0.00298,-0.003 -4.765e-4,-9.03e-4 -7.545e-4,-0.003 -9.927e-4,-0.004 -0.017868,-0.03633 -0.032758,-0.07187 -0.046655,-0.109679 -0.00695,-0.01658 -0.011912,-0.03484 -0.016478,-0.05211 -0.011217,-0.03385 -0.020945,-0.0681 -0.028787,-0.10282 l -9.927e-4,-0.0099 c -0.010324,-0.04596 -0.017967,-0.09262 -0.021938,-0.139836 l 9.927e-4,-9.93e-4 c -0.00199,-0.02561 -0.00199,-0.05112 -0.00298,-0.07673 -0.00298,-0.110969 0.00794,-0.22442 0.035636,-0.334506 0.00993,-0.03832 0.020747,-0.07594 0.034247,-0.113789 0.00794,-0.02184 0.016677,-0.04318 0.026008,-0.06442 0.00794,-0.01787 0.017471,-0.03564 0.026008,-0.0535 0.011614,-0.02422 0.022236,-0.04775 0.035636,-0.07127 0.138754,-0.138 0.2765551,-0.27723 0.4071594,-0.420878 -0.00298,0.003 0.00596,-0.006 0.00596,-0.006 0.068692,-0.07574 0.1340985,-0.151907 0.20016,-0.230317 0.032262,-0.03931 0.062538,-0.07981 0.094601,-0.119278 0.042784,-0.05261 0.08517,-0.105192 0.1261175,-0.159024 0.037721,-0.05043 0.074648,-0.101083 0.111039,-0.152175 0.012408,-0.01668 0.025412,-0.03355 0.037026,-0.05072 0.00199,-9.93e-4 9.927e-4,-0.003 0.00298,-0.003 0.035537,-0.05122 0.068295,-0.103594 0.10144,-0.156294 0.020052,-0.03127 0.043776,-0.06135 0.063034,-0.09321 v -0.003 c 5.36e-4,-1.89e-4 0.00298,-0.003 0.00298,-0.003 l 9.926e-4,-9.93e-4 c 0.048343,-0.07981 0.093906,-0.161684 0.1370963,-0.244025 -0.00199,9.92e-4 -0.00596,0.0069 -0.011018,0.0137 4.467e-4,-9.53e-4 8.537e-4,-0.003 9.927e-4,-0.004 0.00596,-0.0069 0.010125,-0.0129 0.012309,-0.01509 5.36e-4,-2.08e-4 0.00298,-0.003 0.00298,-0.003 4.368e-4,-9.63e-4 8.637e-4,-0.002 9.927e-4,-0.004 0.046159,-0.08864 0.090134,-0.17994 0.130247,-0.272813 0.02293,-0.04993 0.031864,-0.101172 0.027397,-0.153545 l 9.926e-4,-0.004 v -0.003 c -3.077e-4,-5.06e-4 -9.926e-4,-0.004 -9.926e-4,-0.004 l -9.9e-6,-0.006 -9.927e-4,-9.93e-4 c -0.00496,-0.04278 -0.017471,-0.08984 -0.049335,-0.131617 -6.949e-4,-3.97e-4 -0.00397,-0.002 -0.00596,-0.003 v -0.003 c -9.926e-4,-0.002 -0.00596,-0.006 -0.00596,-0.006 -1.99e-5,-10e-6 -0.00199,-0.003 -0.00298,-0.003 -6.254e-4,-7.64e-4 -0.00298,-0.003 -0.00298,-0.003 -3.97e-5,-4.9e-5 -0.00496,-0.003 -0.00695,-0.004 l -9.927e-4,-9.93e-4 c -7.048e-4,-6.95e-4 -9.927e-4,-0.002 -0.00298,-0.003 -0.041791,-0.03196 -0.090034,-0.04536 -0.1329767,-0.05072 l -9.927e-4,-9.92e-4 c -0.00199,6.94e-4 -0.00298,-6.95e-4 -0.00596,0 -9.926e-4,-2.88e-4 -0.00298,-6.66e-4 -0.00397,-9.93e-4 -6.055e-4,-5e-5 -0.00199,6.75e-4 -0.00397,9.93e-4 h -0.00298 c -0.052313,-0.005 -0.1036338,0.005 -0.1535447,0.0274 -0.092913,0.04 -0.1841385,0.08408 -0.2728029,0.130237 -0.00199,9.43e-4 -0.00199,6.65e-4 -0.00397,9.93e-4 l -0.00397,0.004 c -0.00298,0.002 -0.00893,0.006 -0.015088,0.01231 -0.00199,9.53e-4 -0.00199,6.75e-4 -0.00397,9.93e-4 0.00596,-0.005 0.012408,-0.0099 0.013699,-0.01092 -0.082391,0.04308 -0.1655558,0.08735 -0.2453856,0.135716 l -9.926e-4,9.93e-4 c -1.787e-4,1.88e-4 -0.00298,0.003 -0.00298,0.003 l -9.927e-4,9.93e-4 c -0.031864,0.01926 -0.060453,0.04159 -0.091821,0.06164 -0.052611,0.03325 -0.1064429,0.06462 -0.1576642,0.10009 -4.467e-4,9.53e-4 -0.00298,0.003 -0.00397,0.004 -0.017173,0.01152 -0.032758,0.02601 -0.049335,0.03842 -0.051122,0.03633 -0.1021448,0.07296 -0.1521649,0.111049 -0.053703,0.0411 -0.1064033,0.08348 -0.1590341,0.126128 -0.03921,0.03226 -0.080406,0.06174 -0.1192682,0.0946 -0.078519,0.06591 -0.1560859,0.132669 -0.2316869,0.20154 -1.886e-4,1.79e-4 -0.00794,0.0069 -0.00596,0.006 -0.1441542,0.130118 -0.2844468,0.266877 -0.422238,0.405789 -0.023427,0.0136 -0.04606,0.02511 -0.069983,0.03703 -0.017868,0.0079 -0.036828,0.01668 -0.054795,0.02472 -0.021441,0.0089 -0.042684,0.01817 -0.064424,0.02601 -0.038118,0.0133 -0.074152,0.02531 -0.1124088,0.03564 -0.1101357,0.0274 -0.223567,0.03862 -0.3345166,0.03564 -0.02571,-2.78e-4 -0.051321,-4.27e-4 -0.076733,-0.003 -0.047052,-0.004 -0.095196,-0.01082 -0.141206,-0.02055 -0.00397,-7.05e-4 -0.00695,2.9e-5 -0.00993,-9.93e-4 -0.034842,-0.0079 -0.068891,-0.01817 -0.1028197,-0.02879 -0.017074,-0.006 -0.03385,-0.01171 -0.050725,-0.01787 -0.03782,-0.0138 -0.076038,-0.02909 -0.1124187,-0.04665 l -0.00298,-10e-6 -9.927e-4,-9.93e-4 -9.926e-4,-9.92e-4 C 2.1662392,11.719866 2.066318,11.653248 1.9791227,11.571533 l -9.926e-4,-9.93e-4 c -0.028589,-0.02571 -0.05678,-0.05519 -0.083582,-0.08636 -9.927e-4,-0.002 -0.00298,-0.003 -0.00397,-0.004 -0.023824,-0.0267 -0.045762,-0.05678 -0.067203,-0.08636 -0.00397,-0.005 -0.00695,-0.0089 -0.011019,-0.0137 -0.021938,-0.03177 -0.043578,-0.06492 -0.063034,-0.09867 L 1.6506514,11.114224 C 1.5822571,10.995809 1.5380143,10.87407 1.5149349,10.75093 l -9.926e-4,-9.93e-4 c -0.011614,-0.05886 -0.015883,-0.120876 -0.017769,-0.185071 -0.00199,-0.06284 4.17e-4,-0.124619 0.00794,-0.186452 0.015088,-0.117133 0.046059,-0.234277 0.091821,-0.346845 -5.46e-4,-5.46e-4 9.927e-4,-0.004 9.927e-4,-0.004 9.926e-4,-0.003 0.00298,-0.006 0.00397,-0.0099 9.927e-4,-0.002 0.00298,-0.004 0.00397,-0.004 l 9.927e-4,-9.93e-4 C 1.6561905,9.894244 1.7222421,9.7821826 1.8019031,9.6768315 1.9175679,9.5246666 2.0941125,9.3350884 2.3118922,9.1366854 c 0.00199,-9.927e-4 0.00298,-7.346e-4 0.00596,-0.00298 l 0.00596,-0.00596 C 2.4324806,9.0288825 2.5507164,8.9286436 2.6774989,8.8261515 l 9.927e-4,-9.927e-4 C 2.7655476,8.7548788 2.8612403,8.6842209 2.955424,8.6140299 3.04655,8.5461319 3.140436,8.4793358 3.2364659,8.4125099 3.3329529,8.3455049 3.429181,8.2772103 3.5298367,8.2123499 3.6016057,8.1659929 3.6775247,8.1237049 3.757424,8.0752536 3.839815,8.0253226 3.9179768,7.9744986 3.9945904,7.9313079 4.1504678,7.8435569 4.3080228,7.7610071 4.4634437,7.6872822 c 0.017272,-0.00695 0.034644,-0.015684 0.054795,-0.024717 l 9.927e-4,-9.927e-4 c 0.1376025,-0.06363 0.2752746,-0.1210251 0.4085392,-0.169993 0.00397,-7.048e-4 0.067997,-0.038317 0.083582,-0.086362 0.045464,-0.119278 0.083185,-0.2107417 -0.034247,-0.2892711 L 4.976113,7.114954 4.9751203,7.1139614 c -0.00199,-9.927e-4 -0.00596,-0.00199 -0.00794,-0.00298 l 0.00397,0.00695 c -0.00298,-0.00298 -0.00596,-0.00596 -0.00794,-0.00794 h -0.00298 c -9.629e-4,-4.367e-4 -0.00298,-0.00298 -0.00397,-0.00397 L 3.8183832,6.7989307 C 3.7613053,6.783743 3.7072549,6.763592 3.6566094,6.738577 3.6526387,6.7378722 3.6516461,6.7346063 3.6486681,6.732621 3.0262503,6.4169848 3.1212479,5.6403572 3.3977831,5.278066 3.6076911,5.0077944 3.9638377,4.8748176 4.3176814,4.9695968 L 7.1966345,5.74006 c 0.081398,0.022136 0.1611782,-0.033651 0.169993,-0.1178983 0.021839,-0.2149208 0.075045,-0.5233007 0.2508751,-0.8979604 0.021044,-0.044968 0.045166,-0.093112 0.072663,-0.1439457 0.013103,-0.02432 0.020846,-0.041295 0.028787,-0.056185 0.00199,-0.00298 0.00596,-0.00794 0.00596,-0.00794 0.00397,-0.00794 0.015088,-0.02164 0.027397,-0.041096 v -0.00298 c 0.1100166,-0.1824609 0.2404621,-0.3529503 0.390721,-0.5058795 0.00199,-9.927e-4 0.00298,-0.00298 0.00596,-0.00596 0.00993,-0.00993 0.012011,-0.011217 0.00298,-0.00298 0.042684,-0.042684 0.085269,-0.083979 0.130237,-0.1220078 l 9.829e-4,-9.857e-4 c 0.1363617,-0.1176898 0.2869979,-0.2154668 0.441436,-0.3098291 0.03246,-0.019754 0.046754,-0.02432 0.061743,-0.086362 l 0.00397,-0.012309 c 0.015983,-0.018761 -0.03504,-0.1366292 -0.060353,-0.2577338 l 0.00298,0.027398 -0.00298,-0.00596 c -6.949e-4,-0.010522 3.573e-4,-0.020449 0,-0.021938 l -9.927e-4,-9.926e-4 c -0.012011,-0.060056 -0.019357,-0.121859 -0.023328,-0.1823517 0,-0.00397 -9.927e-4,-0.00695 0,-0.010919 l -9.9e-6,-0.00596 c -0.00298,-0.063629 -0.00199,-0.1287083 0.00298,-0.1891911 6.949e-4,-0.00397 0.00496,-0.021838 0.00794,-0.052115 0.00596,-0.051916 0.012706,-0.098869 0.021938,-0.1398361 C 8.7671024,2.4598836 8.8133604,2.337975 8.8756002,2.2242161 8.9380385,2.1104076 9.0147116,2.0030018 9.1100268,1.9075377 9.1445714,1.8729931 9.1826896,1.841625 9.2169562,1.8115474 9.4735887,1.6182268 9.7715356,1.494045 10.094358,1.5017084 c 0.311209,1.588e-4 0.623262,0.1013406 0.878773,0.3084592 0.03603,0.028986 0.06949,0.061247 0.102809,0.0946 v -0.00298 c 0.08309,0.083086 0.151461,0.1747876 0.20976,0.2728128 0.0069,0.011614 0.01757,0.021541 0.02333,0.034247 0.01003,0.017074 0.01558,0.037324 0.02472,0.054894 0.01975,0.039409 0.0404,0.078321 0.05619,0.1192681 0.01102,0.029383 0.01826,0.060453 0.0274,0.090431 0.0089,0.029581 0.02045,0.057673 0.0274,0.087751 l 9.92e-4,9.927e-4 10e-6,0.00298 -10e-6,0.00298 v 0.00298 l 9.93e-4,9.927e-4 c 0.01013,0.045464 0.01568,0.091126 0.02194,0.1370864 0.002,0.016081 0.006,0.031864 0.0069,0.047946 0,3.97e-5 9.93e-4,0.00496 0.003,0.00794 0.0079,0.092119 0.005,0.183801 -0.006,0.2769324 -0.006,0.046357 -0.01211,0.090034 -0.02055,0.1274973 -0.003,0.00993 -0.003,0.020052 -0.006,0.030177 -0.01122,0.048045 -0.02452,0.095395 -0.0411,0.1425758 -0.01479,0.089042 -0.006,0.1140467 0.07266,0.1741026 l -0.278302,0.2783023 c -0.245277,0.2452764 -0.243897,0.6444549 9.92e-4,0.8897412 l 0.003,0.00298 0.04665,0.046655 c 2e-5,10e-6 9.93e-4,0.00199 0.003,0.00298 l 9.93e-4,9.927e-4 9.93e-4,9.926e-4 9.92e-4,9.927e-4 c 6.95e-4,7.048e-4 0.003,0.00298 0.003,0.00298 l 0.04795,0.047945 0.003,0.00298 c 0.245286,0.2452764 0.645825,0.2452764 0.891101,0 l 0.275563,-0.2783023 c 0.06006,0.078718 0.08646,0.088744 0.175472,0.074052 0.04705,-0.016776 0.0944,-0.030276 0.142576,-0.041096 0.01052,-0.00199 0.01995,-0.00397 0.03018,-0.00596 0.03752,-0.00794 0.07981,-0.015982 0.126117,-0.021938 0.09311,-0.010919 0.186194,-0.011912 0.278312,-0.00397 l 0.0079,0.00298 c 0.01618,0.00199 0.03206,0.00496 0.04795,0.00695 0.04606,0.00596 0.09182,0.011316 0.137087,0.021938 l 0.003,10e-6 0.003,-10e-6 0.003,0.00298 9.92e-4,-9.926e-4 9.93e-4,-9.927e-4 c 0.02998,0.00695 0.05827,0.018265 0.08775,0.027397 0.02998,0.00993 0.05986,0.017471 0.08914,0.028787 0.0411,0.015783 0.0812,0.03792 0.120638,0.057574 0.01737,0.00893 0.03613,0.013699 0.0535,0.023327 0.01251,0.00695 0.02194,0.016577 0.03425,0.023327 0.09807,0.058269 0.192467,0.1266635 0.275553,0.209759 z m -4.020929,-0.771833 -0.004,9.926e-4 C 10.007283,4.0882237 9.935543,4.0427102 9.8598526,4.0120767 c -0.023228,-0.00893 -0.047449,-0.015486 -0.071273,-0.021938 -0.015486,-0.00397 -0.030574,-0.010622 -0.046655,-0.013699 -0.030375,-0.00596 -0.061049,-0.00794 -0.091821,-0.00993 -0.00893,-7.048e-4 -0.018265,-0.00199 -0.027397,-0.00298 h -0.00298 c -0.00596,-7.048e-4 -0.011515,9.53e-4 -0.017868,9.927e-4 -0.026206,8.437e-4 -0.053504,0.00397 -0.079512,0.00794 -0.00695,9.926e-4 -0.013401,-3.177e-4 -0.020548,9.926e-4 l -9.927e-4,-9.926e-4 c -0.016379,0.00397 -0.030574,0.00794 -0.046655,0.013699 l -0.011018,0.00298 c -0.00794,0.00298 -0.016081,0.00596 -0.024717,0.00794 -0.011019,0.00397 -0.022236,0.00695 -0.032857,0.010919 -0.00496,0.00199 -0.00794,0.00496 -0.012309,0.00695 -0.033254,0.013997 -0.066409,0.030276 -0.09738,0.050725 -0.035934,0.023327 -0.069387,0.050129 -0.1000701,0.080902 l -0.049335,0.049335 -9.927e-4,9.926e-4 c -0.030772,0.030872 -0.056284,0.06363 -0.079512,0.09867 l -9.926e-4,9.926e-4 c -0.020548,0.030375 -0.035339,0.062935 -0.049335,0.09599 -0.00199,0.00397 -0.00496,0.00695 -0.00596,0.010919 -0.00298,0.00695 -0.00397,0.015982 -0.00695,0.023328 -0.00794,0.022434 -0.015188,0.044173 -0.020548,0.067203 -0.00298,0.00993 -0.00695,0.017669 -0.00794,0.027397 -9.926e-4,0.00695 4.964e-4,0.012706 0,0.019158 -0.00397,0.025412 -0.00695,0.051221 -0.00794,0.076733 0,0.00695 -9.927e-4,0.016081 -9.927e-4,0.023327 l 9.927e-4,9.926e-4 c 0,9.927e-4 6.65e-4,0.00496 9.926e-4,0.00695 2.78e-4,0.035537 9.927e-4,0.07306 0.00794,0.1124088 l -9.9e-6,0.00298 c 3.375e-4,9.331e-4 0.00496,0.010224 0.00794,0.019158 0.013699,0.058567 0.034445,0.1149203 0.064424,0.1686232 0.00596,0.012508 0.011019,0.024221 0.019158,0.035636 0.00397,0.00496 0.00893,0.00993 0.012309,0.015089 0.020647,0.029085 0.042486,0.058964 0.068593,0.084972 l 9.926e-4,9.927e-4 0.4729729,0.4729728 c -0.013996,-0.00397 -0.026703,-0.00893 -0.039806,-0.012309 L 9.560808,5.5480961 C 9.555848,5.5474012 9.547209,5.5471034 9.54165,5.5451161 9.529738,5.5431261 9.52001,5.5401561 9.507403,5.5381661 9.50645,5.5377094 9.502443,5.537501 9.500453,5.5371734 9.492513,5.5364686 9.485365,5.5351834 9.478515,5.5341934 h -0.00298 c -0.00298,0 -0.00695,-0.00298 -0.012309,-0.00397 l -9.926e-4,9.926e-4 -0.00298,1e-5 -0.00596,-0.00298 c -0.025214,-9.927e-4 -0.054696,-1.291e-4 -0.084972,0.00298 -0.00794,0 -0.014493,-9.828e-4 -0.021938,0 -0.035736,0.00397 -0.073755,0.018166 -0.1110489,0.034247 -0.00199,7.942e-4 -0.00397,-2.97e-5 -0.00695,9.927e-4 -0.033751,0.015287 -0.065218,0.037721 -0.093211,0.063034 -0.00496,0.00397 -0.010919,0.00496 -0.015088,0.00993 -0.024717,0.02432 -0.042188,0.049931 -0.057574,0.074052 v 0.00298 c -0.016379,0.027695 -0.027199,0.057276 -0.035637,0.087751 -0.00496,0.014394 -0.00596,0.028787 -0.00794,0.043876 -0.00298,0.015585 -0.00695,0.033056 -0.00794,0.046655 l -9.927e-4,9.926e-4 c -0.00298,0.028589 -1.29e-4,0.047747 9.9e-6,0.046655 -7.047e-4,0.00596 0.00199,0.012905 0.00298,0.019158 0,9.926e-4 -0.00298,0.00397 -9.926e-4,0.00695 l -9.927e-4,9.927e-4 9.927e-4,0.00397 -9.927e-4,9.927e-4 0.00298,0.00794 c 2.184e-4,5.459e-4 -9.927e-4,0.00397 -9.927e-4,0.00397 l 9.927e-4,9.927e-4 c 9.926e-4,0.016776 0.00596,0.03514 0.00794,0.052115 9.926e-4,0.00993 0.00298,0.018066 0.00596,0.027397 0.00596,0.027 0.014394,0.053703 0.023327,0.080902 0.00298,0.00993 0.00298,0.019357 0.00695,0.028787 0.023228,0.063828 0.05549,0.1279936 0.094601,0.1905511 0.00199,0.00397 0.00496,0.00596 0.00695,0.00993 0.00794,0.00893 0.00893,0.012408 0.00397,0.00397 9.926e-4,0.00199 9.926e-4,9.927e-4 0.00298,0.00298 0.014691,0.024519 0.034842,0.047846 0.052115,0.071273 0.013004,0.017173 0.024122,0.035041 0.038416,0.052115 0.032956,0.040004 0.068791,0.078519 0.1083091,0.1165284 l 9.927e-4,9.926e-4 9.926e-4,9.927e-4 9.927e-4,9.926e-4 c 0.037324,0.040103 0.075144,0.076832 0.1151486,0.1096691 0.016974,0.014195 0.036034,0.023923 0.053504,0.037026 0.023129,0.01757 0.045662,0.038217 0.069883,0.053504 9.628e-4,4.367e-4 0.00298,9.231e-4 0.00397,9.926e-4 -0.00794,-0.00496 -0.00496,-0.00397 0.00397,0.00397 0.00298,0.00298 0.00596,0.00496 0.00993,0.00695 l 9.927e-4,9.926e-4 c 0.062637,0.039012 0.1269414,0.070975 0.190561,0.094601 0.00893,0.00397 0.018464,0.00496 0.027397,0.00794 0.027199,0.00893 0.055291,0.016081 0.082292,0.021938 0.00794,0.00298 0.017967,0.00397 0.027397,0.00596 0.016776,0.00298 0.032758,0.00695 0.049335,0.00794 h 0.003 l 0.003,9.9e-6 0.01102,0.00298 9.92e-4,-9.927e-4 0.003,1e-5 9.93e-4,-9.927e-4 c 9.93e-4,0 0.006,-7.048e-4 0.0079,0 0.006,7.048e-4 0.01281,0.00199 0.01916,0.00298 -9.43e-4,3.375e-4 0.01549,0.00298 0.04388,0 h 0.003 c 0.0131,-0.00199 0.03008,-0.00695 0.04527,-0.00993 0.01519,-0.00298 0.03177,-0.00397 0.04665,-0.00794 0.03047,-0.00893 0.05847,-0.020945 0.08636,-0.037026 4.97e-4,-3.078e-4 0.003,6.75e-4 0.004,9.926e-4 0.02452,-0.014691 0.04973,-0.032857 0.07405,-0.057574 0.004,-0.00397 0.005,-0.010919 0.0099,-0.015088 0.02531,-0.028192 0.04606,-0.058269 0.06174,-0.091821 0.002,-0.00298 0.003,-0.00496 0.004,-0.00695 0.01638,-0.037324 0.02809,-0.074053 0.03286,-0.1096691 7.05e-4,-0.00794 -0.002,-0.015684 -9.92e-4,-0.023327 0.003,-0.030375 0.006,-0.058468 0.004,-0.083582 l -0.003,-0.00794 v -0.00298 l 9.93e-4,-9.926e-4 c 0,-0.00298 -0.002,-0.00596 -0.003,-0.010919 v -0.00298 c -9.93e-4,-0.00695 -0.003,-0.015982 -0.004,-0.023327 -7.04e-4,-0.00199 -6.65e-4,-0.00496 -9.92e-4,-0.00695 -0.003,-0.012309 -0.005,-0.022434 -0.0069,-0.034247 -9.93e-4,-0.00596 -1.09e-4,-0.012905 -9.93e-4,-0.017868 -9.9e-5,-4.665e-4 -0.002,-0.00199 -0.003,-0.00298 -0.003,-0.012805 -0.0089,-0.026107 -0.01231,-0.039806 l 0.474343,0.4716128 9.93e-4,9.927e-4 c 0.02611,0.026008 0.0544,0.049534 0.08358,0.069883 0.005,0.00397 0.01062,0.00893 0.01509,0.012309 0.01161,0.00794 0.02472,0.011713 0.03703,0.017868 0.0536,0.030177 0.108588,0.052512 0.167254,0.065813 0.0079,0.00397 0.01747,0.00794 0.01916,0.00794 l 0.003,-9.9e-6 c 0.03941,0.00695 0.07693,0.00794 0.112419,0.00794 0.002,7.048e-4 0.006,7.048e-4 0.0079,0 l 9.93e-4,9.926e-4 c 0.0069,0 0.01469,-0.00298 0.02194,-0.00298 0.02571,-6.949e-4 0.05281,-0.00298 0.07812,-0.00695 0.006,-6.948e-4 0.01201,5.361e-4 0.01777,-9.926e-4 0.0099,-9.927e-4 0.01767,-0.00695 0.0274,-0.00794 0.02293,-0.00596 0.04467,-0.012607 0.0672,-0.020548 0.0069,-0.00298 0.01648,-0.00397 0.02333,-0.00695 0.005,-0.00199 0.0079,-0.00397 0.01092,-0.00596 0.03306,-0.013997 0.06522,-0.029085 0.09599,-0.049335 l 9.93e-4,-9.926e-4 c 0.03554,-0.022931 0.06919,-0.05003 0.10008,-0.080902 l 9.93e-4,-9.927e-4 0.04934,-0.049335 c 0.03077,-0.030772 0.05748,-0.064324 0.0809,-0.10008 0.02084,-0.030673 0.03663,-0.064126 0.05072,-0.09738 0.002,-0.00496 0.005,-0.00893 0.0069,-0.012309 0.005,-0.010224 0.0069,-0.021938 0.01092,-0.032857 0.003,-0.00794 0.006,-0.01628 0.0079,-0.024717 7.04e-4,-0.00397 9.92e-4,-0.00794 0.003,-0.010919 0.005,-0.01618 0.01052,-0.030078 0.0137,-0.046655 6.95e-4,-0.00794 3.78e-4,-0.013401 9.93e-4,-0.020548 0.004,-0.026008 0.0069,-0.053306 0.0079,-0.079512 7.05e-4,-0.00596 -2.78e-4,-0.012706 0,-0.019158 v -0.00298 c -6.95e-4,-0.00893 -0.002,-0.016677 -9.92e-4,-0.026008 -9.93e-4,-0.030772 -0.004,-0.061446 -0.0099,-0.091821 -0.003,-0.015883 -0.0079,-0.032261 -0.01231,-0.047945 -0.0069,-0.023824 -0.01271,-0.048144 -0.02194,-0.071273 C 11.956476,6.0511178 11.909516,5.980669 11.84858,5.9197395 L 10.960276,5.0313899 Z m -2.9845219,-1.2653739 -0.00794,0.00596 c -3.077e-4,4.963e-4 -0.00199,0.00298 -9.927e-4,0.00397 z m 1.0597244,4.9696346 a 1.4289237,1.4289237 0 0 0 -2.0207486,-10e-6 1.4289237,1.4289237 0 0 0 0,2.0207486 1.4289237,1.4289237 0 0 0 2.0207486,0 1.4289237,1.4289237 0 0 0 0,-2.0207386 z" />
</svg>
