<?xml version="1.0" encoding="UTF-8" standalone="no"?>
<svg
   height="16px"
   viewBox="0 0 16 16"
   width="16px"
   version="1.1"
   id="svg5"
   sodipodi:docname="cassette-wave-genre- blues.svg"
   inkscape:version="1.3.2 (091e20ef0f, 2023-11-25)"
   xmlns:inkscape="http://www.inkscape.org/namespaces/inkscape"
   xmlns:sodipodi="http://sodipodi.sourceforge.net/DTD/sodipodi-0.dtd"
   xmlns="http://www.w3.org/2000/svg"
   xmlns:svg="http://www.w3.org/2000/svg">
  <defs
     id="defs5" />
  <sodipodi:namedview
     id="namedview5"
     pagecolor="#ffffff"
     bordercolor="#000000"
     borderopacity="0.25"
     inkscape:showpageshadow="2"
     inkscape:pageopacity="0.0"
     inkscape:pagecheckerboard="0"
     inkscape:deskcolor="#d1d1d1"
     inkscape:zoom="16"
     inkscape:cx="-0.65625"
     inkscape:cy="16.84375"
     inkscape:window-width="1920"
     inkscape:window-height="1131"
     inkscape:window-x="0"
     inkscape:window-y="0"
     inkscape:window-maximized="1"
     inkscape:current-layer="svg5" />
  <path
     id="path191"
     style="color:#000000;fill:#2e3436;fill-opacity:1;stroke-width:1.00728;stroke-linecap:round;stroke-linejoin:round;stroke-miterlimit:0;-inkscape-stroke:none;paint-order:stroke fill markers"
     d="M 8.486257,-2.2465183e-8 C 7.2914516,3.5000853e-4 6.0974493,0.44934057 5.1991477,1.3476562 L 2.7792258,3.765625 c -1.79660323,1.7966081 -1.79661323,4.7795611 0,6.576172 l 1.4472656,1.445312 c 0.5319024,0.531903 1.1676152,0.906095 1.8457031,1.123047 v 1.074219 H 5.5624289 c -0.5209748,0 -0.9414062,0.420431 -0.9414062,0.941406 v 0.132813 C 4.6210227,15.579568 5.0414541,16 5.5624289,16 H 8.595632 c 0.5209749,0 0.9414063,-0.420432 0.9414063,-0.941406 v -0.132813 c 0,-0.520975 -0.4204314,-0.941406 -0.9414063,-0.941406 H 8.0858664 v -0.884766 c 0.9968873,-0.120774 1.9603326,-0.557987 2.7148436,-1.3125 l 2.419922,-2.4179684 c 1.796603,-1.7966082 1.796993,-4.7795678 0,-6.5761719 L 11.77532,1.3457031 C 10.877013,0.44739752 9.6810625,-3.5005347e-4 8.486257,-2.2465183e-8 Z M 8.5995383,2 C 9.235271,2.026642 9.8641595,2.2822041 10.351492,2.7695312 l 1.445312,1.4472656 c 0.649765,0.6497676 0.889503,1.549831 0.720703,2.3847656 L 11.968679,6.0527343 c -0.368393,-0.3683841 -0.961696,-0.3683841 -1.330078,0 l -0.09375,0.09375 c -0.368392,0.3683842 -0.368382,0.961693 0,1.3300781 L 11.404226,8.3359374 11.208913,8.53125 10.349538,7.671875 c -0.3683821,-0.3683852 -0.9616957,-0.3683852 -1.3300779,0 l -0.095703,0.09375 c -0.3683821,0.3683851 -0.3683821,0.9616929 0,1.3300781 L 9.7850851,9.9550782 9.5897727,10.15039 8.7303977,9.2910156 c -0.3683822,-0.3683852 -0.961696,-0.3683842 -1.3300782,0 l -0.095703,0.09375 c -0.3683821,0.368384 -0.3683922,0.9616924 0,1.3300784 l 0.4140624,0.414062 C 6.9787724,11.186603 6.2206903,10.931701 5.6522727,10.363281 L 4.205007,8.9160156 C 3.6365894,8.3475949 3.3816851,7.5895072 3.439382,6.8496093 l 0.4140625,0.4121094 c 0.3683923,0.3683851 0.9597429,0.3683841 1.328125,0 l 0.095703,-0.09375 c 0.3683821,-0.3683841 0.3683821,-0.961693 0,-1.3300781 l -0.859375,-0.859375 0.1933593,-0.1953125 0.8613281,0.859375 c 0.3683822,0.3683851 0.961696,0.3683841 1.3300782,0 l 0.09375,-0.09375 c 0.3683821,-0.3683842 0.368382,-0.961693 0,-1.3300781 l -0.859375,-0.859375 0.1953125,-0.1953126 0.859375,0.859375 c 0.368382,0.3683842 0.961686,0.3683842 1.3300781,0 l 0.09375,-0.09375 c 0.368382,-0.3683841 0.3683921,-0.9616929 0,-1.3300781 L 7.9667258,2.0507812 C 8.1754617,2.0085815 8.3876274,1.9911193 8.5995383,2 Z m 1.2910156,1.6425781 c -0.2403783,6e-7 -0.4818246,0.093154 -0.6660156,0.2773437 L 5.501882,7.640625 c -0.3683821,0.3683791 -0.3683821,0.9616939 0,1.3300781 l 0.095703,0.095703 c 0.3683922,0.3683851 0.961696,0.3683801 1.3300782,0 L 10.648366,5.34375 c 0.368382,-0.3683802 0.368382,-0.961693 0,-1.3300782 l -0.09375,-0.09375 C 10.370421,3.7357298 10.130932,3.6425775 9.8905539,3.6425781 Z" />
</svg>
