<?xml version="1.0" encoding="UTF-8" standalone="no"?>
<svg
   height="16px"
   viewBox="0 0 16 16"
   width="16px"
   version="1.1"
   id="svg5"
   sodipodi:docname="cassette-wave-genre-chanson.svg"
   inkscape:version="1.3.2 (091e20ef0f, 2023-11-25)"
   xmlns:inkscape="http://www.inkscape.org/namespaces/inkscape"
   xmlns:sodipodi="http://sodipodi.sourceforge.net/DTD/sodipodi-0.dtd"
   xmlns="http://www.w3.org/2000/svg"
   xmlns:svg="http://www.w3.org/2000/svg">
  <defs
     id="defs5" />
  <sodipodi:namedview
     id="namedview5"
     pagecolor="#ffffff"
     bordercolor="#000000"
     borderopacity="0.25"
     inkscape:showpageshadow="2"
     inkscape:pageopacity="0.0"
     inkscape:pagecheckerboard="0"
     inkscape:deskcolor="#d1d1d1"
     inkscape:zoom="16"
     inkscape:cx="1.84375"
     inkscape:cy="7.09375"
     inkscape:window-width="1920"
     inkscape:window-height="1131"
     inkscape:window-x="0"
     inkscape:window-y="0"
     inkscape:window-maximized="1"
     inkscape:current-layer="svg5" />
  <path
     id="path193"
     style="fill:#2e3436;fill-opacity:1;stroke-width:3.80567;stroke-dasharray:none;paint-order:stroke markers fill"
     d="M 14.224609 0 C 13.968162 9.4999905e-07 13.712131 0.098416227 13.515625 0.29492188 L 13.414062 0.39648438 C 13.15929 0.65125758 13.068974 1.0063635 13.144531 1.3320312 L 13.132812 1.34375 C 12.856748 1.3272213 12.575116 1.4248838 12.363281 1.6367188 L 12.261719 1.7382812 C 12.049891 1.9501095 11.952226 2.2317503 11.96875 2.5078125 L 9.0683594 5.4082031 C 8.826936 5.0030675 8.4945427 4.7140647 8.2246094 4.5449219 C 7.7781945 4.2652981 7.3789056 4.1501682 6.9804688 4.1347656 C 6.7414143 4.1251001 6.5033557 4.1507543 6.2539062 4.1992188 C 5.5887102 4.3285862 4.8902136 4.7458644 4.4335938 5.3535156 C 3.9657582 5.9761059 3.7396063 6.5191116 3.5351562 6.9550781 C 2.9999433 7.0433064 2.31721 7.2245229 1.5742188 7.8769531 C 1.497472 7.9445814 1.4218036 8.0156964 1.34375 8.09375 C 1.0633815 8.3741336 0.82696662 8.6828631 0.63476562 9.0117188 C 0.55790498 9.1432898 0.48663881 9.2787379 0.42382812 9.4160156 C 0.39244559 9.4846317 0.36383225 9.5551605 0.3359375 9.625 C 0.28021639 9.7647625 0.23114707 9.9050836 0.18945312 10.048828 C -0.26914998 11.630091 0.12239282 13.417513 1.3535156 14.648438 C 2.024897 15.319986 2.8628759 15.741937 3.7421875 15.912109 L 3.7441406 15.914062 C 4.6962324 16.097942 5.695988 15.98792 6.5878906 15.580078 C 6.6565066 15.548698 6.7237293 15.515389 6.7910156 15.480469 C 7.1953869 15.270897 7.5732004 14.998959 7.9101562 14.662109 C 7.9882322 14.584029 8.0571363 14.504261 8.125 14.427734 C 8.7773922 13.684766 8.9586543 13.002002 9.046875 12.466797 C 9.4828416 12.262346 10.0278 12.040101 10.650391 11.572266 C 11.258057 11.115661 11.675336 10.417164 11.804688 9.7519531 C 11.853147 9.5025037 11.878811 9.262492 11.869141 9.0234375 C 11.853742 8.6250248 11.740561 8.2276648 11.460938 7.78125 C 11.290457 7.5091848 10.996434 7.1718434 10.585938 6.9296875 L 13.488281 4.0273438 C 13.764343 4.0438706 14.045984 3.9442584 14.257812 3.7324219 L 14.359375 3.6328125 C 14.571089 3.4210987 14.668733 3.1391937 14.652344 2.8632812 L 14.666016 2.8496094 C 14.99126 2.9245261 15.345241 2.8364096 15.599609 2.5820312 L 15.701172 2.4804688 C 16.094183 2.0874574 16.094198 1.4555113 15.701172 1.0625 L 15.367188 0.72851562 L 15.267578 0.62890625 L 14.933594 0.29492188 C 14.737092 0.098412427 14.481056 -9.4999905e-07 14.224609 0 z M 6.3867188 6.8515625 C 6.7377906 6.8709475 7.1238514 7.1011968 6.6347656 7.8417969 L 5.4824219 8.9941406 C 5.0894258 9.3871367 5.0894258 10.019099 5.4824219 10.412109 L 5.5820312 10.513672 C 5.9750502 10.906691 6.6089418 10.906683 7.0019531 10.513672 L 8.1191406 9.3964844 C 9.0059597 8.7856798 9.1891361 9.3941183 9.1484375 9.7675781 C 9.0935675 10.270907 7.4749441 10.58318 7.1972656 11.039062 C 7.1465827 11.082142 7.1116455 11.12295 7.1015625 11.160156 C 7.0358336 11.402386 6.9959732 11.652287 6.9472656 11.898438 C 6.8020625 12.395551 6.6507828 12.819615 6.4609375 13.0625 C 6.4384455 13.08803 6.415321 13.113972 6.390625 13.138672 C 6.2090926 13.320159 6.0073196 13.468933 5.7910156 13.582031 C 5.4305646 13.77057 5.0326629 13.864482 4.6347656 13.863281 C 4.5556637 13.863053 4.4772358 13.859252 4.3984375 13.851562 L 4.3964844 13.851562 C 4.3177625 13.843863 4.2380428 13.831666 4.1601562 13.816406 L 4.1582031 13.814453 C 4.0803172 13.799183 4.0041771 13.782516 3.9277344 13.759766 L 3.9257812 13.757812 C 3.8493383 13.735013 3.7736554 13.709897 3.6992188 13.679688 L 3.6972656 13.677734 C 3.6228747 13.647414 3.5502244 13.613993 3.4785156 13.576172 L 3.4765625 13.574219 C 3.4048306 13.536379 3.3341726 13.496466 3.265625 13.451172 L 3.2636719 13.449219 C 3.1952079 13.403859 3.1291635 13.355588 3.0644531 13.302734 L 3.0625 13.300781 C 2.9976071 13.248041 2.9353639 13.191223 2.875 13.130859 L 2.8730469 13.128906 C 2.8126219 13.068516 2.7561029 13.006086 2.703125 12.941406 L 2.7011719 12.939453 C 2.6484369 12.874563 2.6001656 12.80866 2.5546875 12.740234 L 2.5527344 12.738281 C 2.5073704 12.669821 2.4656517 12.599 2.4277344 12.527344 L 2.4257812 12.525391 C 2.3879403 12.453661 2.3566197 12.380858 2.3261719 12.306641 L 2.3242188 12.304688 C 2.2938238 12.230368 2.2689507 12.154476 2.2460938 12.078125 L 2.2441406 12.076172 C 2.2212686 11.999802 2.202811 11.921568 2.1875 11.84375 L 2.1855469 11.84375 C 2.1701979 11.76594 2.1621319 11.686092 2.1542969 11.607422 L 2.1523438 11.607422 C 2.1445938 11.528702 2.140944 11.448091 2.140625 11.369141 C 2.139185 10.892308 2.2738542 10.414494 2.5449219 10.001953 C 2.6355518 9.8643643 2.7422571 9.7343054 2.8632812 9.6132812 C 2.8834182 9.5931443 2.9037904 9.5739045 2.9277344 9.5546875 C 3.1676474 9.3606704 3.5958017 9.2040094 4.0996094 9.0566406 C 4.3475314 9.0074547 4.599726 8.968559 4.84375 8.9023438 C 4.879844 8.8925438 4.9194336 8.8588898 4.9609375 8.8105469 L 4.9609375 8.8085938 C 5.4188561 8.5375878 5.7335694 6.9104908 6.2382812 6.8554688 C 6.2849637 6.8503814 6.335576 6.8487386 6.3867188 6.8515625 z M 4.0703125 10.066406 L 3.3398438 10.796875 L 5.1113281 12.568359 L 5.8417969 11.837891 L 4.0703125 10.066406 z " />
</svg>
