<?xml version="1.0" encoding="UTF-8" standalone="no"?>
<svg
   height="16px"
   viewBox="0 0 16 16"
   width="16px"
   version="1.1"
   id="svg5"
   sodipodi:docname="cassette-wave-genre-pop.svg"
   inkscape:version="1.3.2 (091e20ef0f, 2023-11-25)"
   xmlns:inkscape="http://www.inkscape.org/namespaces/inkscape"
   xmlns:sodipodi="http://sodipodi.sourceforge.net/DTD/sodipodi-0.dtd"
   xmlns="http://www.w3.org/2000/svg"
   xmlns:svg="http://www.w3.org/2000/svg">
  <defs
     id="defs5" />
  <sodipodi:namedview
     id="namedview5"
     pagecolor="#ffffff"
     bordercolor="#000000"
     borderopacity="0.25"
     inkscape:showpageshadow="2"
     inkscape:pageopacity="0.0"
     inkscape:pagecheckerboard="0"
     inkscape:deskcolor="#d1d1d1"
     inkscape:zoom="11.313709"
     inkscape:cx="-7.7339804"
     inkscape:cy="21.699339"
     inkscape:window-width="1920"
     inkscape:window-height="1131"
     inkscape:window-x="0"
     inkscape:window-y="0"
     inkscape:window-maximized="1"
     inkscape:current-layer="svg5" />
  <path
     id="path16"
     style="fill:#2e3436;fill-opacity:1;stroke-width:3.71888;paint-order:stroke markers fill"
     d="M 11.591797 -0.005859375 C 10.456206 -0.0062220059 9.3212901 0.42090902 8.4667969 1.2753906 C 7.7621086 1.9800793 7.3481518 2.8769724 7.2246094 3.8066406 C 7.2179588 3.8152271 7.211501 3.823171 7.2050781 3.8320312 L 2.4980469 10.324219 C 2.4491686 10.391642 2.4107872 10.463508 2.3808594 10.537109 C 2.07822 11.086657 2.0168736 11.740489 2.1972656 12.332031 L 0.47265625 14.058594 C 0.18897439 14.228336 4.8853054e-17 14.536617 0 14.892578 L 0 15.03125 C 0 15.57055 0.43335963 16.005859 0.97265625 16.005859 L 12.453125 16.005859 C 12.992424 16.005859 13.427734 15.57055 13.427734 15.03125 L 13.427734 14.892578 C 13.427734 14.353279 12.992424 13.919922 12.453125 13.919922 L 4.6484375 13.919922 C 4.9370974 13.886764 5.2200529 13.799108 5.4804688 13.658203 C 5.5596316 13.627571 5.636774 13.587505 5.7089844 13.535156 L 12.199219 8.828125 C 12.230741 8.8052744 12.261025 8.7814713 12.289062 8.7558594 C 13.182718 8.6165891 14.039443 8.2086032 14.71875 7.5292969 C 16.427736 5.8203105 16.425842 2.9863343 14.716797 1.2773438 C 13.862306 0.42285267 12.727388 -0.0054967441 11.591797 -0.005859375 z M 11.591797 2.0664062 A 2.3354256 2.3354256 0 0 1 13.242188 2.7519531 A 2.3354256 2.3354256 0 0 1 13.244141 6.0546875 A 2.3354256 2.3354256 0 0 1 9.9414062 6.0546875 A 2.3354256 2.3354256 0 0 1 9.9414062 2.75 A 2.3354256 2.3354256 0 0 1 11.591797 2.0664062 z M 7.7675781 6.609375 C 7.955623 6.9391297 8.1873895 7.2498894 8.4667969 7.5292969 C 8.7602019 7.8227016 9.0871683 8.0631999 9.4355469 8.2558594 L 5.0488281 11.4375 C 4.924257 11.472099 4.787065 11.442057 4.6894531 11.34375 C 4.5930605 11.246934 4.5626007 11.109478 4.5957031 10.986328 L 7.7675781 6.609375 z M 3.6582031 13.820312 C 3.8064349 13.868641 3.9593372 13.902239 4.1132812 13.919922 L 3.5585938 13.919922 L 3.6582031 13.820312 z " />
</svg>
