<?xml version="1.0" encoding="UTF-8" standalone="no"?>
<svg
   height="16px"
   viewBox="0 0 16 16"
   width="16px"
   version="1.1"
   id="svg5"
   sodipodi:docname="cassette-wave-genre-rap&amp;hip_hop.svg"
   inkscape:version="1.3.2 (091e20ef0f, 2023-11-25)"
   xmlns:inkscape="http://www.inkscape.org/namespaces/inkscape"
   xmlns:sodipodi="http://sodipodi.sourceforge.net/DTD/sodipodi-0.dtd"
   xmlns="http://www.w3.org/2000/svg"
   xmlns:svg="http://www.w3.org/2000/svg">
  <defs
     id="defs5" />
  <sodipodi:namedview
     id="namedview5"
     pagecolor="#ffffff"
     bordercolor="#000000"
     borderopacity="0.25"
     inkscape:showpageshadow="2"
     inkscape:pageopacity="0.0"
     inkscape:pagecheckerboard="0"
     inkscape:deskcolor="#d1d1d1"
     inkscape:zoom="16"
     inkscape:cx="1.53125"
     inkscape:cy="10.09375"
     inkscape:window-width="1920"
     inkscape:window-height="1131"
     inkscape:window-x="0"
     inkscape:window-y="0"
     inkscape:window-maximized="1"
     inkscape:current-layer="svg5" />
  <path
     id="path13"
     style="color:#000000;fill:#2e3436;fill-opacity:1;stroke-width:0.93569;stroke-linecap:round;stroke-linejoin:round;stroke-miterlimit:0;-inkscape-stroke:none;paint-order:stroke fill markers"
     d="M 4.5029338,0.35791756 C 2.0406173,0.35791756 5.7289231e-7,2.3985451 5.7289231e-7,4.860851 V 9.6580047 C 5.7289231e-7,12.12034 2.0406173,14.160937 4.5029338,14.160937 h 3.0006565 c 0.021439,0.04153 0.043344,0.08303 0.068196,0.122755 l -0.1285992,0.222126 c -0.2015831,0.349157 -0.086993,0.789093 0.2571991,0.987879 l 0.08963,0.0526 c 0.3442579,0.198766 0.7843793,0.07848 0.9859306,-0.270838 l 0.1208049,-0.212385 c 0.4630806,0.02474 0.9257582,-0.142347 1.2665103,-0.465686 0.04966,-0.03661 0.09753,-0.08024 0.138342,-0.130548 l 3.723543,-4.586713 c 0.01906,-0.023544 0.03693,-0.047253 0.05261,-0.072094 C 14.685826,9.5381766 15.216986,9.087224 15.570291,8.4752744 16.461026,6.9324746 15.920605,4.9137458 14.377827,4.0230011 13.707089,3.6357386 12.947121,3.5187995 12.228655,3.6372021 11.687068,1.7581553 9.9379383,0.35791357 7.8991366,0.35791357 Z m 0,1.88612694 h 3.3961975 c 1.3263448,0 2.4131757,0.9781942 2.5895277,2.2543888 C 10.272314,4.7043801 10.08128,4.9437892 9.9255485,5.2135249 9.5581816,5.8498275 9.4346572,6.5679878 9.5241627,7.2535818 c -0.00279,0.00599 -0.00698,0.014051 -0.00978,0.021434 L 7.6029626,12.274811 H 4.5029338 c -1.4501643,0 -2.6168063,-1.166636 -2.6168063,-2.6168063 V 4.860851 c 0,-1.4501507 1.166642,-2.6168065 2.6168063,-2.6168065 z m 1.699073,0.5027072 c -0.74317,-2.295e-4 -1.4866933,0.2805789 -2.0459022,0.8397942 -1.1184217,1.1184019 -1.1184207,2.9733731 0,4.0918039 0.087013,0.086993 0.179752,0.1662785 0.2747355,0.2396634 C 4.8018669,7.4877793 5.3270597,7.1939141 5.917529,7.1288792 a 1.5283871,1.5283871 0 0 1 -0.7949792,-0.4150253 1.5283871,1.5283871 0 0 1 0,-2.1628111 1.5283871,1.5283871 0 0 1 2.1589139,0.00195 1.5283871,1.5283871 0 0 1 0.1948479,0.2474568 C 8.0723386,4.9672772 8.6148762,5.2517707 9.0857543,5.6246515 9.083759,4.8842671 8.803232,4.1457723 8.245961,3.5884913 7.6867536,3.0292759 6.9451787,2.7469782 6.2020068,2.7467487 Z m 5.5999272,0.9917758 c -0.04114,0.012494 -0.0821,0.026843 -0.122755,0.040917 0.0408,-0.014126 0.08146,-0.02838 0.122755,-0.040917 z m -0.24356,0.083784 c -0.07584,0.029565 -0.150488,0.060378 -0.224075,0.095475 0.07342,-0.034941 0.148435,-0.066026 0.224075,-0.095475 z m -0.28253,0.126651 c -0.06262,0.031421 -0.124477,0.063953 -0.185105,0.099373 0.06067,-0.035365 0.122453,-0.068003 0.185105,-0.099373 z m 1.473049,1.1729836 A 1.7214315,1.7214315 0 0 1 13.610122,5.3538154 1.7214315,1.7214315 0 0 1 14.23948,7.7056287 1.7214315,1.7214315 0 0 1 11.887666,8.3349878 1.7214315,1.7214315 0 0 1 11.25636,5.9831745 1.7214315,1.7214315 0 0 1 12.302692,5.1804009 1.7214315,1.7214315 0 0 1 12.748893,5.1219461 Z M 6.186419,5.3538154 c -0.1546123,0.00776 -0.2763283,0.1356694 -0.276684,0.2922719 -5.58e-5,0.1619738 0.1303102,0.2942802 0.2922718,0.2942204 0.025619,10e-6 0.050389,-0.00376 0.074043,-0.00975 V 5.3635541 c -0.023614,-0.00599 -0.048463,-0.00975 -0.074043,-0.00975 -0.00505,-10e-7 -0.010601,-2.504e-4 -0.015588,0 z m 0.8378456,0.105218 V 8.1245517 C 6.9935578,8.1039967 6.9629458,8.0844563 6.9307377,8.0660971 6.7052796,7.9375826 6.4450169,7.8634554 6.1669342,7.8634554 c -0.8538139,0 -1.5470917,0.6932886 -1.5470917,1.5470924 0,0.8538232 0.6932778,1.5451432 1.5470917,1.5451432 0.8288126,0 1.5043046,-0.651935 1.5431948,-1.4711017 8.978e-4,-0.014865 0.00165,-0.029951 0.00195,-0.044814 V 6.8327105 c 0.2060933,0.1230665 0.3754104,0.3109794 0.5397287,0.4929654 0.030826,0.034119 0.060905,0.06803 0.091582,0.1013203 L 9.0857542,6.6398115 C 8.5318193,6.046257 7.8329403,5.6255064 7.0242646,5.4590334 Z m 3.4215284,3.6865214 c 0.196445,0.1982362 0.42064,0.3749897 0.672225,0.5202433 0.265015,0.1530051 0.547016,0.2625279 0.832,0.3331897 L 9.4306358,13.102914 c -0.081895,0.04769 -0.1869582,0.05124 -0.2747358,0 C 9.068169,13.052034 9.0207004,12.959864 9.0214546,12.8652 Z M 7.3769393,12.878839 c -0.00708,0.02783 -0.011842,0.05576 -0.015588,0.08379 -0.012864,0.05133 -0.023289,0.10201 -0.031176,0.153929 0.0078,-0.05115 0.016545,-0.103328 0.029227,-0.153929 0.00374,-0.02803 0.010147,-0.05567 0.017536,-0.08379 z m -0.048712,0.261096 c -0.00751,0.05462 -0.013444,0.110815 -0.015588,0.165621 -0.00221,0.05672 -0.00147,0.113058 0.00195,0.169517 -0.00351,-0.0565 -0.00411,-0.112744 -0.00195,-0.169517 0.00211,-0.05528 0.00797,-0.11051 0.015588,-0.165621 z m -0.01364,0.342933 c 0.0029,0.04461 0.00729,0.08831 0.01364,0.132496 -0.00641,-0.04408 -0.010667,-0.08798 -0.01364,-0.132496 z m 0.025331,0.198745 c 0.00647,0.03526 0.014733,0.07043 0.023381,0.105217 -0.00873,-0.03484 -0.016834,-0.0699 -0.023381,-0.105217 z m 0.037021,0.155878 c 0.0066,0.02351 0.013835,0.04693 0.021433,0.07014 -0.00766,-0.02327 -0.014767,-0.04658 -0.021433,-0.07014 z" />
</svg>
