<?xml version="1.0" encoding="UTF-8" standalone="no"?>
<svg
   height="16px"
   viewBox="0 0 16 16"
   width="16px"
   version="1.1"
   id="svg5"
   sodipodi:docname="cassette-wave-genre-ska.svg"
   inkscape:version="1.3.2 (091e20ef0f, 2023-11-25)"
   xmlns:inkscape="http://www.inkscape.org/namespaces/inkscape"
   xmlns:sodipodi="http://sodipodi.sourceforge.net/DTD/sodipodi-0.dtd"
   xmlns="http://www.w3.org/2000/svg"
   xmlns:svg="http://www.w3.org/2000/svg">
  <defs
     id="defs5" />
  <sodipodi:namedview
     id="namedview5"
     pagecolor="#ffffff"
     bordercolor="#000000"
     borderopacity="0.25"
     inkscape:showpageshadow="2"
     inkscape:pageopacity="0.0"
     inkscape:pagecheckerboard="0"
     inkscape:deskcolor="#d1d1d1"
     inkscape:zoom="16"
     inkscape:cx="-4.65625"
     inkscape:cy="16.15625"
     inkscape:window-width="1920"
     inkscape:window-height="1131"
     inkscape:window-x="0"
     inkscape:window-y="0"
     inkscape:window-maximized="1"
     inkscape:current-layer="svg5" />
  <path
     id="path202"
     style="color:#000000;fill:#2e3436;fill-opacity:1;stroke-width:1.22415;stroke-linecap:round;stroke-linejoin:round;stroke-miterlimit:0;-inkscape-stroke:none;paint-order:stroke fill markers"
     d="M 8,0 C 3.611482,0 0,3.6114823 0,8 c 0,4.388519 3.611482,8 8,8 4.388519,0 8,-3.611481 8,-8 0,-1.381242 -0.357914,-2.6841508 -0.985056,-3.8230726 l -0.03587,0.038255 v 1.3173941 l -0.0024,0.028692 c 0.0012,-0.014323 -0.0011,0.012303 -0.0024,0.038255 -0.04688,0.9875437 -0.611589,1.8446801 -1.424986,2.3096239 5.02e-4,0.030358 0.0024,0.060495 0.0024,0.090854 0,3.0464496 -2.505254,5.5517046 -5.5517032,5.5517026 -0.2281604,0 -0.4529728,-0.01575 -0.6742376,-0.04304 v -0.70532 c 0,-0.02913 -0.00147,-0.05626 -0.00722,-0.08368 0.016036,0.0012 0.031289,0.0024 0.047815,0.0024 H 8.776982 c 0.232319,0 0.41841,-0.186091 0.41841,-0.41841 v -1.413031 c 0,-0.232318 -0.186091,-0.418409 -0.41841,-0.418409 H 7.3662939 c -0.013833,0 -0.026319,0.0012 -0.040642,0.0024 2.326e-4,-0.0061 0,-0.01114 0,-0.01673 v -1.40836 c 0,-0.02913 -0.00147,-0.05626 -0.00722,-0.08368 0.016036,0.0012 0.031289,0.0024 0.047815,0.0024 H 8.776887 c 0.232319,0 0.41841,-0.188494 0.41841,-0.420801 V 7.1392707 c 0,-0.2323066 -0.186091,-0.4184102 -0.41841,-0.4184102 H 7.3662469 c -0.013711,0 -0.028719,0.00117 -0.043041,0.00239 2.326e-4,-0.00612 0,-0.013497 0,-0.019129 V 5.2982668 c 0,-0.029135 9.475e-4,-0.056261 -0.00477,-0.083682 0.016036,0.00122 0.031289,0.00239 0.047815,0.00239 H 8.776891 c 0.232319,0 0.41841,-0.1908741 0.41841,-0.4231917 V 3.3879259 c 0,-0.2323189 -0.186091,-0.420801 -0.41841,-0.420801 H 7.3662509 c -0.2323189,0 -0.4184102,0.1884821 -0.4184102,0.420801 v 1.4058584 c 0,0.028033 0.00105,0.05724 0.00722,0.083681 -0.016159,-0.00122 -0.033566,0 -0.050214,0 h -1.40813 c -0.017628,0 -0.033194,-0.00122 -0.05021,0 0.0049,-0.026442 0.00956,-0.055649 0.00956,-0.083681 V 3.3879259 c 0,-0.1010131 -0.036758,-0.1933383 -0.095637,-0.2653917 0.7868088,-0.429987 1.6868185,-0.6742376 2.6395695,-0.6742376 0.9456048,0 1.8378578,0.2430693 2.6204428,0.6670653 0.444268,-0.2941751 0.974197,-0.4662291 1.54214,-0.4662291 0.04994,0 0.08679,0.038198 0.136282,0.040647 V 1.2695752 C 11.053834,0.4679552 9.577485,0 8,0 Z m 5.216976,0.6168557 V 3.8876269 C 12.915542,3.6858505 12.552547,3.567244 12.162583,3.567244 c -1.047699,0 -1.895995,0.8483213 -1.895995,1.8959964 0,1.0476983 0.848296,1.8983859 1.895995,1.8983859 1.017009,0 1.848265,-0.7999687 1.895995,-1.8051413 0.0011,-0.018239 0.0012,-0.03675 0.0024,-0.05499 V 2.3024503 c 0.252885,0.1510109 0.460655,0.3815927 0.662284,0.6049019 0.03783,0.041866 0.0748,0.083478 0.112377,0.1243269 L 15.746625,2.0657502 C 15.066844,1.3374199 14.209282,0.8211293 13.216976,0.6168557 Z M 3.3042441,5.056784 c 0.076498,0.09601 0.1902417,0.160192 0.3227733,0.160192 H 5.040048 c 0.016526,0 0.031905,-0.00107 0.047819,-0.00239 -0.00612,0.027421 -0.00717,0.054547 -0.00717,0.083682 v 1.4058571 c 0,0.00612 -2.326e-4,0.013497 0,0.019129 -0.01371,-0.00122 -0.026323,-0.00239 -0.040645,-0.00239 H 3.6270174 c -0.2323308,0 -0.41841,0.1861036 -0.4184099,0.4184102 V 8.547523 c 0,0.232307 0.1860791,0.420801 0.4184099,0.420801 H 5.040048 c 0.016526,0 0.031905,-0.0011 0.047819,-0.0024 -0.00612,0.02742 -0.00717,0.05455 -0.00717,0.08368 v 1.408249 c 0,0.0061 -2.203e-4,0.01114 0,0.01673 -0.013833,-0.0012 -0.028714,-0.0024 -0.043036,-0.0024 H 3.6270174 c -0.2024727,0 -0.3691717,0.142212 -0.4088464,0.332337 C 2.7297225,9.979327 2.4482966,9.020567 2.4482966,8.000024 c 0,-1.0783253 0.3152879,-2.0876025 0.8559475,-2.943216 z m 2.154214,2.0657502 c 0.013833,0.00122 0.026323,0 0.040645,0 h 1.4082486 c 0.01371,0 0.027543,0.00122 0.040642,0 -1.836e-4,0.0049 0,0.010001 0,0.016737 V 8.54752 c 0,0.02901 0.00343,0.05877 0.00955,0.08607 -0.016159,-0.0012 -0.033566,-0.0024 -0.050215,-0.0024 h -1.408224 c -0.017628,0 -0.033194,8.61e-4 -0.05021,0.0024 0.00612,-0.02742 0.00956,-0.05706 0.00956,-0.08607 V 7.1392707 c 0,-0.0049 1.837e-4,-0.010001 0,-0.016737 z m 0,3.7513448 c 0.013833,0.0012 0.026323,0.0024 0.040645,0.0024 h 1.4082486 c 0.01371,0 0.027543,-0.0012 0.040642,-0.0024 -1.836e-4,0.0049 0,0.01004 0,0.01673 v 1.41064 c 0,0.02914 0.00343,0.05626 0.00955,0.08368 -0.016159,-0.0012 -0.033566,-0.0024 -0.050215,-0.0024 h -1.408224 c -0.017628,0 -0.033194,8.61e-4 -0.05021,0.0024 0.00612,-0.02742 0.00956,-0.05455 0.00956,-0.08368 v -1.41064 c 0,-0.0049 1.837e-4,-0.01004 0,-0.01673 z" />
</svg>
