<?xml version="1.0" encoding="UTF-8" standalone="no"?>
<svg
   height="16px"
   viewBox="0 0 16 16"
   width="16px"
   version="1.1"
   id="svg5"
   sodipodi:docname="cassette-wave-era-tales.svg"
   inkscape:version="1.3.2 (091e20ef0f, 2023-11-25)"
   xmlns:inkscape="http://www.inkscape.org/namespaces/inkscape"
   xmlns:sodipodi="http://sodipodi.sourceforge.net/DTD/sodipodi-0.dtd"
   xmlns="http://www.w3.org/2000/svg"
   xmlns:svg="http://www.w3.org/2000/svg">
  <defs
     id="defs5" />
  <sodipodi:namedview
     id="namedview5"
     pagecolor="#ffffff"
     bordercolor="#000000"
     borderopacity="0.25"
     inkscape:showpageshadow="2"
     inkscape:pageopacity="0.0"
     inkscape:pagecheckerboard="0"
     inkscape:deskcolor="#d1d1d1"
     inkscape:zoom="16"
     inkscape:cx="-0.40625"
     inkscape:cy="5.53125"
     inkscape:window-width="1920"
     inkscape:window-height="1131"
     inkscape:window-x="0"
     inkscape:window-y="0"
     inkscape:window-maximized="1"
     inkscape:current-layer="svg5" />
  <path
     id="path224-9"
     style="color:#000000;fill:#2e3436;fill-opacity:1;stroke-width:1.07165;stroke-linecap:round;stroke-linejoin:round;stroke-miterlimit:0;-inkscape-stroke:none;paint-order:stroke fill markers"
     d="M 11.761719,0.02148438 C 11.523395,0.00626084 11.291622,0.19308124 11.294922,0.46484375 L 11.316406,2.1269531 9.9589844,3.0859375 C 9.6634483,3.2948904 9.7361156,3.7519312 10.082031,3.859375 l 1.585938,0.4941406 0.49414,1.5859375 c 0.107405,0.3458768 0.564137,0.4190086 0.773438,0.1230469 l 0.960937,-1.3574219 1.660157,0.021484 c 0.362428,0.00449 0.571083,-0.4058226 0.355468,-0.6972656 L 14.917969,2.6972656 15.453125,1.1230469 C 15.569491,0.78011045 15.241451,0.45402469 14.898438,0.5703125 L 13.324219,1.1035156 11.992188,0.109375 C 11.919619,0.05526043 11.84116,0.02655889 11.761719,0.02148438 Z M 10.283203,4.5683594 C 10.13883,4.575191 9.9950737,4.6168362 9.8613281,4.6953125 L 2.2128906,9.1835938 c -0.069019,0.040499 -0.1295149,0.088774 -0.1835937,0.1425781 l -0.375,-0.3691407 C 1.2914362,8.6000511 0.71232504,8.6037502 0.35546875,8.9667969 l -0.0917969,0.09375 c -0.35625357,0.3625069 -0.34979028,0.9373195 0.009766,1.2968751 l 5.4433594,5.357422 c 0.362791,0.35694 0.9417584,0.350804 1.3007812,-0.0098 l 0.089844,-0.0918 c 0.3582213,-0.361367 0.3501393,-0.938923 -0.00977,-1.298828 L 6.7324219,13.955078 c 0.050854,-0.05347 0.098535,-0.112455 0.1367187,-0.179687 L 11.248047,6.0644531 c 0.225797,-0.3975404 0.121324,-0.8881134 -0.222656,-1.1660156 -0.0294,-0.029093 -0.04729,-0.068779 -0.07617,-0.097656 l -0.0059,0.00781 C 10.76305,4.6427923 10.523824,4.5569733 10.283203,4.5683594 Z M 7.7695312,8.2050781 6.5351562,10.376953 c -0.3752712,-0.05853 -0.7558554,0.06639 -1.0234374,0.335938 -0.4259,0.432988 -0.4554224,1.117908 -0.068359,1.585937 l -0.140625,0.248047 -1.84375,-1.8125 1.3339844,-0.7832031 C 5.260272,10.224857 5.8536659,10.146863 6.234375,9.7617188 6.4583245,9.5340207 6.5808657,9.2255549 6.5742188,8.90625 Z"
     sodipodi:nodetypes="scccccccccccccccsscccccccccccccccccscccccccccc" />
</svg>
