<?xml version="1.0" encoding="UTF-8" standalone="no"?>
<svg
   height="16px"
   viewBox="0 0 16 16"
   width="16px"
   version="1.1"
   id="svg5"
   sodipodi:docname="cassette-wave-mood-sadness.svg"
   inkscape:version="1.3.2 (091e20ef0f, 2023-11-25)"
   xmlns:inkscape="http://www.inkscape.org/namespaces/inkscape"
   xmlns:sodipodi="http://sodipodi.sourceforge.net/DTD/sodipodi-0.dtd"
   xmlns="http://www.w3.org/2000/svg"
   xmlns:svg="http://www.w3.org/2000/svg">
  <defs
     id="defs5" />
  <sodipodi:namedview
     id="namedview5"
     pagecolor="#ffffff"
     bordercolor="#000000"
     borderopacity="0.25"
     inkscape:showpageshadow="2"
     inkscape:pageopacity="0.0"
     inkscape:pagecheckerboard="0"
     inkscape:deskcolor="#d1d1d1"
     inkscape:zoom="11.313709"
     inkscape:cx="4.5519999"
     inkscape:cy="15.865708"
     inkscape:window-width="1920"
     inkscape:window-height="1131"
     inkscape:window-x="0"
     inkscape:window-y="0"
     inkscape:window-maximized="1"
     inkscape:current-layer="svg5" />
  <path
     id="path1188"
     style="fill:#2e3436;fill-opacity:1;stroke-width:3.60346;paint-order:stroke markers fill"
     d="M 8.0009969,2.5e-7 C 3.5972067,2.5e-7 0,3.6150747 0,8.0009903 0,12.386896 3.5972067,16 8.0009969,16 12.404766,16 16.00001,12.386896 16,8.0009904 16,3.6150748 12.404766,2.5e-7 8.0009969,2.5e-7 Z m 0,1.95518085 A 6.031546,6.0448401 0 0 1 14.03215,8.0009903 6.031546,6.0448401 0 0 1 8.0009969,14.044819 6.031546,6.0448401 0 0 1 1.9678505,8.0009903 6.031546,6.0448401 0 0 1 8.0009969,1.9551811 Z M 10.32972,4.6928313 C 10.101548,4.7037003 9.876678,4.7962947 9.7016821,4.9701625 l -0.095701,0.095085 C 9.3466382,5.3229175 9.2677419,5.6897481 9.3687224,6.0141145 A 1.4683864,1.4589327 0 0 0 9.1892834,6.7034788 1.4683864,1.4589327 0 0 0 10.658691,8.1634266 1.4683864,1.4589327 0 0 0 12.126106,6.7034788 1.4683864,1.4589327 0 0 0 12.114146,6.5232143 C 12.164266,6.2312558 12.074726,5.9214679 11.846981,5.6951834 L 11.117261,4.9701625 C 10.92476,4.7789026 10.672597,4.6868534 10.421435,4.6928313 c -0.0072,-3.458e-4 -0.01465,1.805e-4 -0.02193,0 -0.02316,-5.751e-4 -0.04663,-0.00111 -0.06978,0 z M 5.6942057,4.7879161 C 5.5406501,4.7920339 5.3865006,4.8327333 5.2436138,4.9146959 L 4.3504051,5.4277572 C 3.9788994,5.6408699 3.8058051,6.063871 3.8958255,6.4578436 A 1.4683864,1.4589327 0 0 0 3.8738945,6.7034788 1.4683864,1.4589327 0 0 0 5.3413089,8.1634266 1.4683864,1.4589327 0 0 0 6.810717,6.7034788 1.4683864,1.4589327 0 0 0 6.728973,6.2339972 C 6.8470479,5.9676574 6.8394466,5.6506958 6.681122,5.378234 L 6.6133341,5.2613593 C 6.431847,4.9490369 6.0998166,4.7788519 5.7619945,4.7879161 c -0.022582,-0.001 -0.045102,-6.085e-4 -0.067789,0 z m -0.05782,4.3580535 c -0.5386503,-1.014e-4 -0.9794367,0.412378 -1.02081,0.9369824 -0.00204,0.02667 -0.00598,0.05404 -0.00598,0.08122 0,0.0041 -8.16e-5,0.0081 0,0.01189 -3.06e-5,0.003 0,0.0059 0,0.0099 3.879e-4,0.01085 9.73e-4,0.02115 0.00199,0.0317 0.056961,1.141524 3.0730925,1.222236 3.3016823,1.222236 0.010412,0 0.059395,-9.66e-4 0.085732,-0.002 0.026235,6.49e-4 0.077314,0.002 0.087725,0.002 0.22859,0 3.244701,-0.08073 3.301682,-1.222236 10e-4,-0.01329 0.002,-0.02603 0.002,-0.03962 1.12e-4,-0.0051 0,-0.0091 0,-0.01386 1.02e-4,-0.562385 -0.45877,-1.0183123 -1.024797,-1.0182008 l -2.3646111,0.00991 z" />
</svg>
