<?xml version="1.0" encoding="UTF-8" standalone="no"?>
<svg
   height="16px"
   viewBox="0 0 16 16"
   width="16px"
   version="1.1"
   id="svg5"
   sodipodi:docname="cassette-wave-mood-summer.svg"
   inkscape:version="1.3.2 (091e20ef0f, 2023-11-25)"
   xmlns:inkscape="http://www.inkscape.org/namespaces/inkscape"
   xmlns:sodipodi="http://sodipodi.sourceforge.net/DTD/sodipodi-0.dtd"
   xmlns="http://www.w3.org/2000/svg"
   xmlns:svg="http://www.w3.org/2000/svg">
  <defs
     id="defs5" />
  <sodipodi:namedview
     id="namedview5"
     pagecolor="#ffffff"
     bordercolor="#000000"
     borderopacity="0.25"
     inkscape:showpageshadow="2"
     inkscape:pageopacity="0.0"
     inkscape:pagecheckerboard="0"
     inkscape:deskcolor="#d1d1d1"
     inkscape:zoom="11.313709"
     inkscape:cx="-7.4688154"
     inkscape:cy="15.24699"
     inkscape:window-width="1920"
     inkscape:window-height="1131"
     inkscape:window-x="0"
     inkscape:window-y="0"
     inkscape:window-maximized="1"
     inkscape:current-layer="svg5" />
  <path
     id="path1258"
     style="color:#000000;fill:#2e3436;fill-opacity:1;stroke-width:0.65028;stroke-linecap:round;stroke-linejoin:round;stroke-miterlimit:0;-inkscape-stroke:none;paint-order:stroke fill markers"
     d="M 8.00195,0 C 3.59816,0 0,3.61604 0,8.00195 0,12.38786 3.59816,16 8.00195,16 12.40572,16 16.00001,12.38786 16,8.00195 16,3.61604 12.40572,0 8.00195,0 Z m 0,1.95508 a 6.0315491,6.0448405 0 0 1 6.0293,6.04687 6.0315491,6.0448405 0 0 1 -6.0293,6.04297 6.0315491,6.0448405 0 0 1 -6.0332,-6.04297 6.0315491,6.0448405 0 0 1 6.0332,-6.04687 z M 7.92575,3.18359 C 7.60411,3.19979 7.34958,3.4652 7.34958,3.79102 v 0.65625 c 1e-5,0.33633 0.2711,0.60742 0.60742,0.60742 H 8.0429 C 8.37922,5.05468 8.65032,4.7836 8.65032,4.44727 V 3.79102 C 8.65031,3.45468 8.37922,3.18359 8.0429,3.18359 H 7.957 c -0.0105,0 -0.0209,-5.2e-4 -0.0312,0 z M 5.05466,4.38477 c -0.15519,0 -0.31078,0.0588 -0.42969,0.17773 L 4.56247,4.625 c -0.23781,0.23781 -0.23782,0.6196 0,0.85742 l 0.46484,0.46485 c 0.23783,0.23782 0.62157,0.23781 0.85938,0 l 0.0606,-0.0605 c 0.23781,-0.23782 0.23782,-0.62156 0,-0.85938 L 5.48244,4.56255 C 5.36353,4.44364 5.20989,4.38481 5.05471,4.38482 Z m 5.89062,0 C 10.7901,4.38476 10.63646,4.44357 10.51755,4.5625 L 10.0527,5.02734 c -0.23781,0.23783 -0.23781,0.62157 0,0.85938 l 0.0606,0.0605 c 0.23782,0.23781 0.62156,0.23782 0.85938,0 l 0.46484,-0.46485 c 0.23782,-0.23783 0.23781,-0.61961 0,-0.85742 l -0.0625,-0.0625 C 11.25611,4.44354 11.10052,4.38472 10.94533,4.38472 Z M 8,5.26562 C 6.50456,5.26562 5.26367,6.50456 5.26367,8 5.26367,9.49544 6.50456,10.73437 8,10.73437 9.49544,10.73437 10.73633,9.49544 10.73633,8 10.73633,6.50456 9.49544,5.26562 8,5.26562 Z M 8,6.56641 A 1.4350688,1.4350688 0 0 1 9.43555,8 1.4350688,1.4350688 0 0 1 8,9.43359 1.4350688,1.4350688 0 0 1 6.56445,8 1.4350688,1.4350688 0 0 1 8,6.56641 Z M 3.75977,7.34961 C 3.43811,7.36581 3.18359,7.63122 3.18359,7.95703 v 0.0859 c 1e-5,0.33632 0.2711,0.60742 0.60743,0.60742 H 4.44727 C 4.7836,8.65034 5.05469,8.37925 5.05469,8.04293 V 7.95703 C 5.05468,7.62071 4.7836,7.34961 4.44727,7.34961 H 3.79102 c -0.0105,0 -0.0209,-5.2e-4 -0.0312,0 z m 7.76171,0 c -0.32166,0.0162 -0.57617,0.28161 -0.57617,0.60742 v 0.0859 c 0,0.33632 0.27109,0.60742 0.60742,0.60742 h 0.65625 c 0.33634,-10e-6 0.60743,-0.2711 0.60743,-0.60742 V 7.95703 C 12.8164,7.62071 12.54531,7.34961 12.20898,7.34961 h -0.65625 c -0.0105,0 -0.0209,-5.2e-4 -0.0312,0 z M 5.42773,9.875 C 5.28238,9.882 5.13882,9.9413 5.02734,10.05273 L 4.5625,10.51758 c -0.23782,0.23783 -0.23781,0.61961 0,0.85742 l 0.0625,0.0625 c 0.23781,0.23781 0.6196,0.23782 0.85742,0 l 0.46485,-0.46484 c 0.23782,-0.23783 0.23781,-0.62157 0,-0.85938 l -0.0606,-0.0605 C 5.76033,9.92645 5.59242,9.86716 5.42768,9.87505 Z m 5.08594,0 c -0.14535,0.007 -0.28892,0.0663 -0.40039,0.17773 l -0.0606,0.0605 c -0.23781,0.23782 -0.23782,0.62156 0,0.85938 l 0.46484,0.46484 c 0.23783,0.23782 0.61962,0.23782 0.85743,0 l 0.0625,-0.0625 c 0.23781,-0.23781 0.23782,-0.6196 0,-0.85742 L 10.97261,10.05268 C 10.84626,9.92634 10.67835,9.86705 10.51362,9.87495 Z m -2.55664,1.07031 c -0.33632,0 -0.60742,0.27109 -0.60742,0.60742 v 0.65625 c 10e-6,0.33634 0.2711,0.60743 0.60742,0.60743 h 0.0859 c 0.33632,-10e-6 0.60742,-0.2711 0.60742,-0.60743 V 11.55273 C 8.65034,11.2164 8.37925,10.94531 8.04293,10.94531 Z" />
</svg>
