<?xml version="1.0" encoding="UTF-8" standalone="no"?>
<svg
   height="16px"
   viewBox="0 0 16 16"
   width="16px"
   version="1.1"
   id="svg5"
   sodipodi:docname="cassette-wave-era-1990s.svg"
   inkscape:version="1.3.2 (091e20ef0f, 2023-11-25)"
   xmlns:inkscape="http://www.inkscape.org/namespaces/inkscape"
   xmlns:sodipodi="http://sodipodi.sourceforge.net/DTD/sodipodi-0.dtd"
   xmlns="http://www.w3.org/2000/svg"
   xmlns:svg="http://www.w3.org/2000/svg">
  <defs
     id="defs5" />
  <sodipodi:namedview
     id="namedview5"
     pagecolor="#ffffff"
     bordercolor="#000000"
     borderopacity="0.25"
     inkscape:showpageshadow="2"
     inkscape:pageopacity="0.0"
     inkscape:pagecheckerboard="0"
     inkscape:deskcolor="#d1d1d1"
     inkscape:zoom="22.627417"
     inkscape:cx="7.4909125"
     inkscape:cy="12.750019"
     inkscape:window-width="1920"
     inkscape:window-height="1131"
     inkscape:window-x="0"
     inkscape:window-y="0"
     inkscape:window-maximized="1"
     inkscape:current-layer="svg5" />
  <path
     id="path53"
     style="color:#000000;-inkscape-font-specification:Nasalization;fill:#2e3436;fill-opacity:1;stroke-width:1.05232;stroke-linecap:round;stroke-linejoin:round;stroke-miterlimit:0;-inkscape-stroke:none;paint-order:stroke fill markers"
     d="M 1.3750002,0.3046874 A 1.3762663,1.5845101 0 0 0 2.2361623e-7,1.8904742 V 4.1341291 A 1.3762663,1.5845101 0 0 0 1.3750002,5.7178854 H 2.152344 v 9.0030456 a 1.3762663,1.5845101 0 0 0 1.3769531,1.583756 H 5.8378908 A 1.3762663,1.5845101 0 0 0 7.2148442,14.720931 V 4.9503727 c 0,-1.2940325 -0.207485,-2.6236185 -1.0859378,-3.5390863 C 5.2504547,0.49578784 4.1079897,0.3046874 2.7656252,0.3046874 Z m 12.5039058,0 c -0.632343,0 -1.199315,0.22014254 -1.576172,0.66395943 C 12.008909,1.3146873 11.936434,1.8363534 11.876953,2.3635707 11.825327,1.8097427 11.743561,1.2854341 11.458984,0.95240317 11.107811,0.54144681 10.59581,0.36357062 10.072266,0.36357062 H 9.4433592 c -0.539422,0 -0.991594,0.17477393 -1.28125,0.50355331 -0.289655,0.32878947 -0.388672,0.75820707 -0.388671,1.17969547 0,0.4308683 0.110785,0.8413492 0.398437,1.1208121 0.28765,0.2793611 0.683129,0.381726 1.125,0.381726 h 0.685547 c -0.05183,0.010199 -0.05691,0.032487 -0.128906,0.032487 H 8.6191412 A 0.42554587,0.4423949 0 0 0 8.1953122,4.024484 v 0.6802031 a 0.42554587,0.4423949 0 0 0 0.423829,0.4426395 h 1.234375 c 0.6258288,0 1.1914988,-0.1997533 1.5722648,-0.6395938 0.298435,-0.3447151 0.373156,-0.8786051 0.431641,-1.4213199 0.05133,0.5569887 0.136194,1.0959223 0.443359,1.4578681 0.376369,0.4433071 0.943439,0.661929 1.578125,0.661929 0.634688,0 1.199805,-0.2186219 1.576172,-0.661929 C 15.831446,4.1008726 16,3.4809631 16,2.7574793 16,2.030733 15.829981,1.4125044 15.453125,0.96864683 15.07627,0.52482994 14.511252,0.3046874 13.878906,0.3046874 Z m 0,1.5675127 c 0.282918,0 0.38516,0.059358 0.464844,0.1624366 0.07969,0.1027721 0.154297,0.3263596 0.154297,0.7167512 0,0.3946738 -0.07349,0.6224068 -0.152344,0.7248731 -0.07885,0.1024665 -0.180484,0.1644671 -0.466797,0.1644671 -0.286312,0 -0.388735,-0.063318 -0.46875,-0.1664975 -0.08002,-0.1030779 -0.15625,-0.3290865 -0.15625,-0.7228427 0,-0.3903916 0.07438,-0.614081 0.154297,-0.7167512 0.07991,-0.1026703 0.184391,-0.1624366 0.470703,-0.1624366 z m -4.4863278,0.056852 v 0.00203 h 0.521484 c 0.2425398,0 0.3371558,0.048232 0.4003908,0.1177665 0.0078,0.010199 0.01161,0.05579 0.01953,0.067005 H 9.3652332 c -0.05339,0 -0.08369,-0.010146 -0.09961,-0.012183 -5.68e-4,-0.010198 -0.002,-0.015076 -0.002,-0.050761 0,-0.083604 0.01801,-0.099484 0.01953,-0.1015226 0.0016,0 0.0078,-0.022335 0.109375,-0.022335 z M 8.5937502,6.0366672 A 0.82179059,0.9490776 0 0 0 7.7734382,6.986921 v 8.369543 a 0.82179059,0.9490776 0 0 0 0.820312,0.948223 h 1.267578 a 0.82179059,0.9490776 0 0 0 0.8222658,-0.948223 v -2.538072 c 0.512183,0.01224 0.864421,0.05775 0.919922,0.08528 0.06295,0.0316 0.07148,0.01825 0.24414,0.406092 l 1.105469,2.479187 a 0.82179059,0.9490776 0 0 0 0.730469,0.515736 h 1.416015 a 0.82179059,0.9490776 0 0 0 0.730469,-1.384771 l -1.167969,-2.627412 c -0.231265,-0.520794 -0.457328,-0.958326 -0.777343,-1.327919 -0.03579,-0.0418 -0.09276,-0.04653 -0.13086,-0.08528 0.227346,-0.307705 0.567614,-0.496307 0.726563,-0.862943 h 0.002 L 15.621094,7.4153474 A 0.82179059,0.9490776 0 0 0 14.884766,6.0386976 h -1.363282 a 0.82179059,0.9490776 0 0 0 -0.730468,0.519797 l -1.105469,2.5015229 c -0.182544,0.4097634 -0.218544,0.4301923 -0.244141,0.4446701 -0.02213,0.012235 -0.32359,0.054762 -0.757812,0.069035 V 6.9889515 A 0.82179059,0.9490776 0 0 0 9.8613282,6.0386976 Z" />
</svg>
