<?xml version="1.0" encoding="UTF-8" standalone="no"?>
<svg
   height="16px"
   viewBox="0 0 16 16"
   width="16px"
   version="1.1"
   id="svg5"
   sodipodi:docname="cassette-wave-genre- jazz.svg"
   inkscape:version="1.3.2 (091e20ef0f, 2023-11-25)"
   xmlns:inkscape="http://www.inkscape.org/namespaces/inkscape"
   xmlns:sodipodi="http://sodipodi.sourceforge.net/DTD/sodipodi-0.dtd"
   xmlns="http://www.w3.org/2000/svg"
   xmlns:svg="http://www.w3.org/2000/svg">
  <defs
     id="defs5" />
  <sodipodi:namedview
     id="namedview5"
     pagecolor="#ffffff"
     bordercolor="#000000"
     borderopacity="0.25"
     inkscape:showpageshadow="2"
     inkscape:pageopacity="0.0"
     inkscape:pagecheckerboard="0"
     inkscape:deskcolor="#d1d1d1"
     inkscape:zoom="16"
     inkscape:cx="1.71875"
     inkscape:cy="11.09375"
     inkscape:window-width="1920"
     inkscape:window-height="1131"
     inkscape:window-x="0"
     inkscape:window-y="0"
     inkscape:window-maximized="1"
     inkscape:current-layer="svg5" />
  <path
     id="path169"
     style="fill:#2e3436;fill-opacity:1;stroke-width:3.86789;paint-order:stroke markers fill"
     d="M 4.4121094 0.037109375 C 4.0689893 0.041569173 3.7363534 0.24221959 3.4882812 0.54101562 L 1.5957031 2.8203125 L 1.2324219 2.765625 C 0.67371855 2.6823485 0.14574916 3.0265825 0.04296875 3.5820312 L 0.017578125 3.7246094 C -0.085202282 4.2800581 0.27526978 4.8307824 0.83398438 4.9140625 L 1.7539062 5.0507812 C 1.8586652 5.0663957 1.9606276 5.0657997 2.0605469 5.0527344 C 2.392597 5.0370258 2.7125702 4.842476 2.953125 4.5527344 L 4.328125 2.8964844 L 5.4824219 4.5507812 A 0.57188776 0.57188776 0 0 0 5.3496094 5.3476562 A 0.57188776 0.57188776 0 0 0 6.1367188 5.4882812 L 6.6933594 6.2851562 A 0.57188776 0.57188776 0 0 0 6.5742188 7.0703125 A 0.57188776 0.57188776 0 0 0 7.3457031 7.21875 L 7.9042969 8.0195312 A 0.57188776 0.57188776 0 0 0 7.8007812 8.7910156 A 0.57188776 0.57188776 0 0 0 8.5546875 8.953125 L 10.542969 11.800781 C 10.733409 12.290388 11.369907 12.467873 11.863281 12.25 L 11.996094 12.191406 C 12.512824 11.963223 12.671375 11.391182 12.517578 10.847656 L 11.259766 6.4003906 L 12.265625 6.5859375 C 12.241452 6.6180823 12.220436 6.6501537 12.199219 6.6835938 C 12.195312 6.6828806 12.19141 6.6823437 12.1875 6.6816406 C 12.164432 6.7243985 12.141321 6.7782972 12.117188 6.8300781 C 12.112773 6.8392895 12.107702 6.8481536 12.103516 6.8574219 C 11.844466 7.4291504 11.588785 8.455558 12.371094 9.0097656 C 13.210643 9.3736309 13.731501 10.1859 13.808594 11.097656 C 13.916499 12.46578 12.895417 13.66097 11.527344 13.769531 C 10.644304 13.832811 9.7934907 13.422984 9.2949219 12.691406 L 4.765625 4.9511719 C 4.027611 3.6902582 2.1853621 4.7698542 2.7871094 5.8769531 L 7.0097656 13.052734 C 7.4895337 13.839429 7.9192228 14.469431 8.5664062 15.041016 C 9.4424947 15.688792 10.543966 16.038659 11.699219 15.947266 C 14.24462 15.745897 16.187696 13.469226 15.986328 10.923828 C 15.879901 9.5785387 15.214276 8.3965766 14.230469 7.6113281 L 15.013672 6.703125 C 15.252956 6.4258282 15.381616 6.0829232 15.341797 5.7597656 C 15.333249 5.2848245 14.991891 4.8672199 14.505859 4.7773438 L 10.251953 3.9902344 C 10.075364 3.9127586 9.8713957 3.8850979 9.671875 3.9121094 C 9.4121316 3.9242656 9.1707485 4.0354782 8.9941406 4.2148438 C 8.9880951 4.2210011 8.9824558 4.2280587 8.9765625 4.234375 C 8.7278124 4.471381 8.6333185 4.8283875 8.6835938 5.1933594 L 8.6835938 5.1953125 C 8.690633 5.2549398 8.7016532 5.3126167 8.71875 5.3691406 L 5.4726562 0.71875 C 5.4524488 0.68979967 5.4287611 0.65900308 5.40625 0.6328125 C 5.3097338 0.47084013 5.1727197 0.32979273 5.0058594 0.234375 L 4.8789062 0.16210938 C 4.7256705 0.074480235 4.5680731 0.035082194 4.4121094 0.037109375 z " />
</svg>
