<?xml version="1.0" encoding="UTF-8" standalone="no"?>
<svg
   height="16px"
   viewBox="0 0 16 16"
   width="16px"
   version="1.1"
   id="svg5"
   sodipodi:docname="cassette-wave-my_wave.svg"
   inkscape:version="1.3.2 (091e20ef0f, 2023-11-25)"
   xmlns:inkscape="http://www.inkscape.org/namespaces/inkscape"
   xmlns:sodipodi="http://sodipodi.sourceforge.net/DTD/sodipodi-0.dtd"
   xmlns="http://www.w3.org/2000/svg"
   xmlns:svg="http://www.w3.org/2000/svg">
  <defs
     id="defs5" />
  <sodipodi:namedview
     id="namedview5"
     pagecolor="#ffffff"
     bordercolor="#000000"
     borderopacity="0.25"
     inkscape:showpageshadow="2"
     inkscape:pageopacity="0.0"
     inkscape:pagecheckerboard="0"
     inkscape:deskcolor="#d1d1d1"
     inkscape:zoom="8"
     inkscape:cx="-0.9375"
     inkscape:cy="26.4375"
     inkscape:window-width="1920"
     inkscape:window-height="1131"
     inkscape:window-x="0"
     inkscape:window-y="0"
     inkscape:window-maximized="1"
     inkscape:current-layer="svg5" />
  <path
     id="path8"
     style="color:#000000;fill:#2e3436;stroke-width:1.00004;-inkscape-stroke:none"
     d="M 11.640625 1.1953125 C 10.833765 1.182359 9.990526 1.3201488 9.0449219 1.6132812 C 8.5171169 1.7768988 8.0570793 1.9482612 7.0742188 2.3476562 C 6.1656473 2.7168622 5.8440102 2.8411546 5.4472656 2.9726562 C 4.1678478 3.3967232 3.3213227 3.4231931 2.5078125 3.1015625 C 2.40732 3.0618315 2.1392141 2.9295878 2.0390625 2.8691406 C 1.9902384 2.8396747 1.8899007 2.7756341 1.828125 2.734375 C 1.6523036 2.6169466 1.5095061 2.5528664 1.3417969 2.5195312 C 1.1999638 2.4913469 1.0678592 2.4893197 0.92578125 2.5175781 C 0.46804225 2.6086123 0.11292751 2.965963 0.021484375 3.4238281 C -0.0079034162 3.5706027 -0.0057088428 3.7121522 0.025390625 3.8574219 C 0.069494627 4.0634822 0.1656767 4.2533536 0.30664062 4.4042969 C 0.37999048 4.4828397 0.4562938 4.5424989 0.59765625 4.6367188 C 1.4846364 5.2278986 2.4185172 5.540496 3.4394531 5.5820312 L 3.4511719 5.3398438 L 3.4414062 5.5820312 C 4.2723833 5.6155647 5.1875067 5.4540946 6.2402344 5.0976562 C 6.6781085 4.9493993 7.0443287 4.8066596 8.0625 4.3925781 C 9.1002689 3.9705263 9.6478287 3.7788405 10.210938 3.6386719 C 10.687289 3.5201034 11.048665 3.4712122 11.464844 3.4648438 C 11.771188 3.4601438 11.967012 3.4733144 12.228516 3.5195312 C 12.85387 3.630066 13.476271 3.9101894 14.080078 4.359375 C 14.224532 4.4668307 14.282401 4.5062619 14.355469 4.5429688 C 14.512881 4.6220496 14.682952 4.6615385 14.859375 4.6621094 C 15.157112 4.6630715 15.434379 4.5518785 15.648438 4.3457031 C 15.817592 4.1827759 15.932605 3.972792 15.978516 3.7421875 C 16.007256 3.5978484 16.007256 3.4646503 15.978516 3.3203125 C 15.935634 3.1049206 15.833053 2.9054451 15.681641 2.7480469 C 15.579788 2.6421679 15.415555 2.5232142 15.220703 2.3886719 C 14.336931 1.7784355 13.403949 1.3968774 12.4375 1.2578125 C 12.174031 1.2199014 11.909579 1.1996303 11.640625 1.1953125 z M 11.640625 5.9160156 C 10.833733 5.9030616 9.990563 6.0408405 9.0449219 6.3339844 C 8.5170963 6.4976083 8.0571178 6.6689488 7.0742188 7.0683594 C 6.1656118 7.4375798 5.8440258 7.5618525 5.4472656 7.6933594 C 4.1677978 8.117443 3.3213545 8.1439088 2.5078125 7.8222656 C 2.4073161 7.7825332 2.139218 7.6502933 2.0390625 7.5898438 C 1.9902365 7.5603767 1.8899031 7.4963388 1.828125 7.4550781 C 1.6522967 7.3376451 1.5095126 7.2735708 1.3417969 7.2402344 C 1.1999582 7.2120489 1.0678648 7.2100217 0.92578125 7.2382812 C 0.46802434 7.329319 0.11293108 7.6866482 0.021484375 8.1445312 C -0.0079045656 8.2913116 -0.0057100539 8.4328496 0.025390625 8.578125 C 0.069496351 8.7841934 0.16567119 8.9740509 0.30664062 9.125 C 0.37999335 9.2035459 0.45628827 9.2631984 0.59765625 9.3574219 C 1.4846712 9.9486248 2.4184772 10.261197 3.4394531 10.302734 L 3.4511719 10.060547 L 3.4414062 10.302734 C 4.27242 10.336269 5.1874655 10.174811 6.2402344 9.8183594 C 6.6781256 9.6700966 7.0442888 9.5273789 8.0625 9.1132812 C 9.1003095 8.6912129 9.6478062 8.4995492 10.210938 8.359375 C 10.687307 8.2408019 11.048648 8.1919157 11.464844 8.1855469 C 11.7712 8.1808469 11.967001 8.1940144 12.228516 8.2402344 C 12.853894 8.3507735 13.476247 8.630875 14.080078 9.0800781 C 14.224538 9.187538 14.282398 9.2269636 14.355469 9.2636719 C 14.512887 9.3427558 14.682946 9.3822416 14.859375 9.3828125 C 15.157124 9.3837746 15.434371 9.2725897 15.648438 9.0664062 C 15.817599 8.9034726 15.932603 8.6935041 15.978516 8.4628906 C 16.007256 8.318546 16.007256 8.185359 15.978516 8.0410156 C 15.935633 7.8256149 15.833059 7.6261544 15.681641 7.46875 C 15.579784 7.3628669 15.415562 7.2439227 15.220703 7.109375 C 14.336896 6.4991148 13.403987 6.1175859 12.4375 5.9785156 C 12.17402 5.9406031 11.909589 5.9203336 11.640625 5.9160156 z M 11.640625 10.638672 C 10.833733 10.625718 9.990563 10.763496 9.0449219 11.056641 C 8.5170963 11.220264 8.0571178 11.391605 7.0742188 11.791016 C 6.1656118 12.160236 5.8440258 12.284509 5.4472656 12.416016 C 4.1677978 12.840099 3.3213545 12.866566 2.5078125 12.544922 C 2.4073161 12.50519 2.139218 12.37295 2.0390625 12.3125 C 1.9902365 12.283033 1.8899031 12.218995 1.828125 12.177734 C 1.6522967 12.060301 1.5095126 11.996228 1.3417969 11.962891 C 1.1999582 11.934701 1.0678648 11.932728 0.92578125 11.960938 C 0.46802434 12.051977 0.11293108 12.409305 0.021484375 12.867188 C -0.0079045656 13.013968 -0.0057100539 13.155506 0.025390625 13.300781 C 0.069496351 13.50685 0.16567119 13.696707 0.30664062 13.847656 C 0.37999335 13.926206 0.45628827 13.985855 0.59765625 14.080078 C 1.4846712 14.671282 2.4184772 14.983854 3.4394531 15.025391 L 3.4511719 14.783203 L 3.4414062 15.025391 C 4.2724159 15.058921 5.1874655 14.897468 6.2402344 14.541016 C 6.6781256 14.392753 7.0442888 14.250035 8.0625 13.835938 C 9.1003095 13.413869 9.6478062 13.222206 10.210938 13.082031 C 10.687307 12.963458 11.048648 12.914571 11.464844 12.908203 C 11.7712 12.903503 11.967001 12.916701 12.228516 12.962891 C 12.853894 13.07343 13.476247 13.353532 14.080078 13.802734 C 14.224538 13.910194 14.282398 13.94962 14.355469 13.986328 C 14.512887 14.065408 14.682946 14.104899 14.859375 14.105469 C 15.157124 14.106432 15.434371 13.995245 15.648438 13.789062 C 15.817599 13.626129 15.932603 13.41616 15.978516 13.185547 C 16.007256 13.041202 16.007256 12.908016 15.978516 12.763672 C 15.935636 12.548271 15.833059 12.34881 15.681641 12.191406 C 15.579784 12.085522 15.415562 11.966578 15.220703 11.832031 C 14.336896 11.221771 13.403987 10.840242 12.4375 10.701172 C 12.17402 10.663262 11.909589 10.642992 11.640625 10.638672 z " />
</svg>
