<?xml version="1.0" encoding="UTF-8" standalone="no"?>
<svg
   height="16px"
   viewBox="0 0 16 16"
   width="16px"
   version="1.1"
   id="svg5"
   sodipodi:docname="cassette-wave-era-lullaby.svg"
   inkscape:version="1.3.2 (091e20ef0f, 2023-11-25)"
   xmlns:inkscape="http://www.inkscape.org/namespaces/inkscape"
   xmlns:sodipodi="http://sodipodi.sourceforge.net/DTD/sodipodi-0.dtd"
   xmlns="http://www.w3.org/2000/svg"
   xmlns:svg="http://www.w3.org/2000/svg">
  <defs
     id="defs5" />
  <sodipodi:namedview
     id="namedview5"
     pagecolor="#ffffff"
     bordercolor="#000000"
     borderopacity="0.25"
     inkscape:showpageshadow="2"
     inkscape:pageopacity="0.0"
     inkscape:pagecheckerboard="0"
     inkscape:deskcolor="#d1d1d1"
     inkscape:zoom="16"
     inkscape:cx="0.40625"
     inkscape:cy="14.28125"
     inkscape:window-width="1920"
     inkscape:window-height="1131"
     inkscape:window-x="0"
     inkscape:window-y="0"
     inkscape:window-maximized="1"
     inkscape:current-layer="svg5" />
  <path
     id="path240"
     style="color:#000000;fill:#2e3436;fill-opacity:1;stroke-width:0.932612;stroke-linecap:round;stroke-linejoin:round;stroke-miterlimit:0;-inkscape-stroke:none;paint-order:stroke fill markers"
     d="M 7.9450744,2.0014579e-5 C 6.7702451,2.0014579e-5 5.6162411,0.24618024 4.5024233,0.6393696 4.3121333,0.60299772 4.1399733,0.50331545 3.9432203,0.50275588 h -0.00365 c -1.734909,0 -3.19690878,1.45816742 -3.19856883,3.19310522 v 0.00914 c 4.8496e-4,0.2183246 0.11274239,0.407561 0.15664973,0.617492 -0.80851813,2.3791845 -0.81307511,4.9740758 -0.003643,7.3643579 -0.0429934,0.206853 -0.15211141,0.393324 -0.15300672,0.608384 v 0.0091 c -0.001865,1.737176 1.46136572,3.200341 3.19856892,3.198569 0.00373,9.3e-5 0.00748,9.3e-5 0.010929,0 0.1858882,-8.39e-4 0.348029,-0.09496 0.5282375,-0.127506 2.284357,0.833941 4.767548,0.83161 7.0492381,0 0.181281,0.03264 0.344929,0.12704 0.53188,0.127506 h 0.0073 c 1.733696,0 3.192852,-1.461667 3.193104,-3.194926 1.31e-4,-0.218604 -0.109602,-0.409009 -0.153006,-0.619313 0.807305,-2.3878573 0.804257,-4.9840104 -0.0055,-7.3661793 0.04402,-0.2111434 0.156594,-0.4015978 0.15665,-0.6211347 -0.0019,-1.7326053 -1.458668,-3.19151888 -3.191282,-3.19310433 h -0.0036 c -0.206032,9.327e-5 -0.385778,0.10318796 -0.584704,0.1420779 C 10.330343,0.25517672 9.1443478,0.00597617 7.946912,0.00550987 Z m 0,2.524610585421 c 0.97401,1.865e-4 1.7886429,0.1498335 2.6484736,0.413483 v -0.0055 c 0.320081,0.1047324 0.629058,0.2266602 0.921683,0.3715882 0.12691,-0.176357 0.331003,-0.2807919 0.548274,-0.2805121 0.372094,2.789e-4 0.67365,0.3018456 0.673958,0.6739579 -3.17e-4,0.2244798 -0.112298,0.4341395 -0.298727,0.5592028 0.750808,1.617894 1.217163,4.8673532 0.0073,7.4900426 0.183818,0.125996 0.293571,0.334488 0.293263,0.557381 -3.08e-4,0.372112 -0.301864,0.673679 -0.673958,0.673959 -0.212113,-9.3e-5 -0.411827,-0.09994 -0.539166,-0.269584 -1.7029952,0.862572 -4.7185674,1.180313 -7.0492379,0 C 4.3507194,12.880341 4.1508182,12.982296 3.9377446,12.983695 3.5642337,12.984348 3.2612654,12.681426 3.2619649,12.307916 3.2626644,12.085395 3.373073,11.877511 3.5570492,11.752355 3.3704543,11.349225 3.2676626,11.037982 3.1672577,10.684988 2.5812046,8.6286735 2.7154125,6.0798664 3.5607035,4.2605281 3.3742745,4.1354657 3.2622839,3.9258051 3.2619761,3.7013253 3.2622839,3.329213 3.5638409,3.0276472 3.9359342,3.0273674 4.1525612,3.0277405 4.3558501,3.1320821 4.4823868,3.3078795 5.4676068,2.7849647 6.6972496,2.5243508 7.9450744,2.5246306 Z M 6.3130028,3.1330147 A 0.20782431,0.20782431 0 0 0 6.2109983,3.1785541 L 5.8066234,3.5082475 a 0.20782431,0.20782431 0 0 0 -0.00911,0.3151204 l 0.1693987,0.1530072 -0.6994593,0.437162 a 0.20782431,0.20782431 0 0 0 0.00728,0.3570152 L 6.0652712,5.2131795 A 0.20782431,0.20782431 0 0 0 6.3129964,5.1803888 L 6.662726,4.8361234 A 0.20782431,0.20782431 0 0 0 6.6299391,4.5118951 L 6.5661866,4.4718207 6.9632754,4.2040584 a 0.20782431,0.20782431 0 0 0 0.051002,-0.2932628 l -0.50273,-0.6939913 a 0.20782431,0.20782431 0 0 0 -0.087432,-0.071037 l -0.00182,0.0055 a 0.20782431,0.20782431 0 0 0 -0.052824,-0.018214 0.20782431,0.20782431 0 0 0 -0.056467,0 z M 9.4241393,3.4809229 C 9.1578391,3.4809574 8.8913214,3.5822251 8.6882499,3.7851149 8.4045028,4.0693743 8.3093961,4.4924669 8.4441677,4.8707335 8.2945022,4.9556013 8.1569294,5.0595241 8.0343283,5.1803907 7.7178093,5.5002758 7.5206367,5.92008 7.4751252,6.3680137 L 5.5188251,5.8434193 C 5.1495763,5.7443759 4.7726046,5.9621763 4.6736452,6.3315831 l -0.025501,0.094719 C 4.5491658,6.7956165 4.766966,7.1708036 5.1363081,7.2696605 l 0.7741412,0.2076518 c -0.011098,0.027046 -0.021919,0.055854 -0.030965,0.081967 C 5.0283639,7.8719836 4.0474673,8.6310871 3.7100672,9.076596 3.474704,9.3871559 3.3947815,9.8018485 3.6007766,10.158572 l 0.065575,0.114755 c 0.2570461,0.445229 0.8226622,0.597556 1.2677697,0.340622 0.3919392,-0.397106 0.8057885,-0.7513594 1.2950925,-0.9617568 0.044486,-0.020517 0.084011,-0.014204 0.1111119,0.00914 0.015295,0.031709 0.025609,0.067652 0.00547,0.1111124 C 6.1352539,10.261598 5.7809352,10.675373 5.3840344,11.067537 5.1270813,11.512578 5.277625,12.078372 5.722835,12.335306 l 0.1147551,0.06557 c 0.3566958,0.205734 0.7711365,0.126846 1.0819759,-0.10929 0.4454525,-0.337326 1.2046773,-1.316588 1.5173166,-2.167596 0.027139,-0.0093 0.055202,-0.02075 0.081968,-0.02914 l 0.2076519,0.77232 c 0.098922,0.36922 0.4755115,0.587487 0.84518,0.488164 l 0.094719,-0.02368 C 10.035715,11.23279 10.253599,10.85569 10.154565,10.48647 L 9.6299709,8.5301719 c 0.4478871,-0.045698 0.8674671,-0.2428606 1.1876231,-0.5592027 0.120857,-0.1227318 0.224491,-0.2602483 0.309657,-0.4098393 0.378406,0.1342029 0.801415,0.03999 1.085618,-0.2440824 0.406489,-0.4060585 0.406134,-1.0652531 0,-1.4717788 C 11.930522,5.5631534 11.511284,5.4668845 11.134536,5.5975435 11.049669,5.4469266 10.94611,5.3088944 10.82488,5.1858828 h -0.0091 c -0.122033,-0.122452 -0.261158,-0.226704 -0.4117,-0.3114785 0.131424,-0.376961 0.03442,-0.7941166 -0.247725,-1.0765107 l 0.0036,-0.012749 C 9.9566788,3.5821151 9.6904033,3.4809173 9.4241032,3.4809528 Z m -2.0746982,1.078333 a 0.11502934,0.11502934 0 0 0 -0.056467,0.027326 l -0.2240454,0.18215 a 0.11502934,0.11502934 0 0 0 -0.00547,0.1748648 l 0.094723,0.085614 -0.3879813,0.2404396 a 0.11502934,0.11502934 0 0 0 0.00547,0.1985438 L 7.2128279,5.7122763 A 0.11502934,0.11502934 0 0 0 7.349441,5.6976995 L 7.5425211,5.5082617 A 0.11502934,0.11502934 0 0 0 7.5243062,5.3279327 L 7.4896979,5.3060723 7.7101004,5.1567088 A 0.11502934,0.11502934 0 0 0 7.7392445,4.9945947 L 7.4605538,4.6102558 a 0.11502934,0.11502934 0 0 0 -0.04918,-0.038256 l -0.00182,-0.00364 a 0.11502934,0.11502934 0 0 0 -0.029144,-0.00914 0.11502934,0.11502934 0 0 0 -0.030966,0 z m 1.712218,0.9708644 c 0.067068,-1.399e-4 0.1350644,0.024416 0.1857939,0.076502 0.1016919,0.1006289 0.099802,0.267974 -0.00365,0.3715873 -0.1033147,0.1030536 -0.2682702,0.1043593 -0.3697663,0 C 8.7723914,5.8775807 8.7724037,5.7103288 8.8758567,5.6066223 8.9275697,5.5550953 8.994583,5.5302603 9.0616506,5.5301203 Z M 8.928689,6.4135513 c 0.1181874,-0.015817 0.284279,0.056908 0.42259,0.1985448 v 0.00187 c 0.00653,0 0.00697,0.013635 0.012751,0.014577 0.00187,4.663e-4 0.00631,0 0.00911,0 0.0056,0 0.00879,0.015463 0.014572,0.016395 0.1854125,0.1853101 0.2525483,0.4186935 0.1493637,0.522773 -0.1030909,0.1040796 -0.3380133,0.036969 -0.5227729,-0.1530071 -0.0056,0 -0.00697,-0.013644 -0.012751,-0.014577 h -0.010929 c -0.0056,0 -0.00697,-0.015463 -0.012751,-0.016395 C 8.7917615,6.7978576 8.7261399,6.5622797 8.8303313,6.4591328 c 0.025899,-0.025675 0.058965,-0.04027 0.098361,-0.04554 z m 1.278699,0.2622972 c 0.06706,-1.398e-4 0.135069,0.024369 0.185793,0.076502 0.101702,0.1006289 0.09982,0.2678817 -0.0036,0.3715882 -0.103333,0.103147 -0.268223,0.1041728 -0.369765,0 -0.1016552,-0.1005356 -0.101671,-0.2677884 0.0019,-0.3715882 0.0517,-0.051573 0.118728,-0.076362 0.185794,-0.076502 z" />
</svg>
