<?xml version="1.0" encoding="UTF-8" standalone="no"?>
<svg
   height="16px"
   viewBox="0 0 16 16"
   width="16px"
   version="1.1"
   id="svg5"
   sodipodi:docname="cassette-wave-classes-sex.svg"
   inkscape:version="1.3.2 (091e20ef0f, 2023-11-25)"
   xmlns:inkscape="http://www.inkscape.org/namespaces/inkscape"
   xmlns:sodipodi="http://sodipodi.sourceforge.net/DTD/sodipodi-0.dtd"
   xmlns="http://www.w3.org/2000/svg"
   xmlns:svg="http://www.w3.org/2000/svg">
  <defs
     id="defs5" />
  <sodipodi:namedview
     id="namedview5"
     pagecolor="#ffffff"
     bordercolor="#000000"
     borderopacity="0.25"
     inkscape:showpageshadow="2"
     inkscape:pageopacity="0.0"
     inkscape:pagecheckerboard="0"
     inkscape:deskcolor="#d1d1d1"
     inkscape:zoom="14.738757"
     inkscape:cx="-6.5473635"
     inkscape:cy="13.128651"
     inkscape:window-width="1920"
     inkscape:window-height="1131"
     inkscape:window-x="0"
     inkscape:window-y="0"
     inkscape:window-maximized="1"
     inkscape:current-layer="svg5" />
  <path
     id="path234"
     style="color:#000000;fill:#2e3436;fill-opacity:1;stroke-width:0.93283;stroke-linecap:round;stroke-linejoin:round;stroke-miterlimit:0;-inkscape-stroke:none;paint-order:stroke fill markers"
     d="M 7.9450159,-7.0245746e-6 C 6.7699131,-6.2984575e-5 5.6156403,0.24620149 4.5015631,0.63949137 4.3112287,0.60357747 4.1390286,0.50337813 3.9422297,0.50284642 h -0.00364 C 2.2032727,0.50098076 0.74093243,1.9613814 0.739272,3.6966946 v 0.00729 c 4.8507e-4,0.2183472 0.11276864,0.4076649 0.15668621,0.6176352 -0.80870644,2.3796739 -0.81318053,4.975197 -0.003644,7.3660742 -0.0430034,0.20691 -0.15214684,0.393499 -0.15304235,0.608525 v 0.0073 c -0.001866,1.737607 1.46170604,3.201058 3.19931394,3.199314 0.00373,9e-6 0.00748,9e-6 0.010931,0 0.1859314,-9.14e-4 0.3481101,-0.09497 0.5283606,-0.127536 2.284889,0.834108 4.7686587,0.831785 7.0508786,0 0.181324,0.03246 0.34501,0.127069 0.532005,0.127536 h 0.0073 c 1.7341,-0.0019 3.193596,-1.461952 3.193848,-3.19567 1.3e-4,-0.21859 -0.109628,-0.409104 -0.153042,-0.619457 0.807493,-2.3884238 0.804574,-4.985172 -0.0055,-7.3678961 0.04403,-0.2111831 0.156631,-0.4016912 0.156687,-0.621279 v -0.00182 C 15.258154,1.9636831 13.801046,0.50446718 12.068028,0.50286272 h -0.0036 C 11.858347,0.50290003 11.67856,0.60614914 11.479588,0.64497347 10.330847,0.24976197 9.1445749,4.2904543e-4 7.9468603,9.2754254e-6 Z m 0,2.5197330245746 c 0.9742369,1.959e-4 1.7890691,0.1498308 2.6490901,0.4135787 0.320157,0.104822 0.629205,0.2267034 0.921898,0.3716743 0.126939,-0.1763885 0.331081,-0.2808295 0.548402,-0.2805777 0.372179,3.079e-4 0.673807,0.3019352 0.674115,0.6741152 -3.17e-4,0.2245504 -0.112325,0.4342317 -0.298797,0.5593333 0.750983,1.6182804 1.217269,4.8684494 0.0073,7.4917872 0.18386,0.125979 0.293638,0.334631 0.293331,0.557512 -3.08e-4,0.37218 -0.301935,0.673807 -0.674115,0.674115 -0.212163,-9.3e-5 -0.411924,-0.09997 -0.539292,-0.269646 -1.7033825,0.86281 -4.7196666,1.180769 -7.05088,-0.0036 C 4.349847,12.879752 4.1498993,12.981749 3.9367759,12.98313 3.5631781,12.983829 3.2601393,12.68079 3.2608389,12.307193 3.2615385,12.08462 3.3719729,11.876707 3.555992,11.751503 3.3693303,11.34817 3.2665148,11.036957 3.1660864,10.683807 2.5798969,8.6270313 2.714136,6.0776212 3.5596239,4.2578498 3.3731514,4.1327482 3.2611348,3.9230669 3.2608269,3.6985165 3.2611348,3.3263365 3.562762,3.0247092 3.934942,3.0244013 4.1516194,3.0247371 4.3549557,3.1291128 4.4815218,3.304979 5.4669713,2.7819606 6.6969006,2.5213054 7.9450159,2.5215479 Z M 5.8680127,5.1396653 C 5.6803835,5.1443293 5.4951756,5.2083175 5.3469399,5.3236805 5.1492735,5.4776158 5.0219595,5.7202912 5.0080604,5.9704666 4.992109,6.2583561 5.0774578,6.5178291 5.2321581,6.7611854 5.4382759,7.0855392 6.0675157,7.7346912 6.671485,8.0000996 7.2754075,7.7346912 7.9028347,7.0855392 8.1089899,6.7611854 8.2636901,6.5178291 8.347217,6.2583561 8.3312657,5.9704666 8.3174598,5.7202912 8.1918652,5.4776158 7.9942081,5.3236805 7.7965417,5.1698197 7.5311833,5.1075555 7.2854763,5.1560627 7.0232302,5.207648 6.7915306,5.3879048 6.671485,5.6261213 6.5514952,5.3879048 6.3179364,5.2077413 6.0556717,5.1560627 5.9941983,5.1446821 5.9305122,5.1377996 5.8680127,5.1396653 Z M 8.5280344,8.0000996 C 8.3404146,8.0047638 8.1533755,8.0687612 8.0051397,8.1841148 7.8074733,8.3380409 7.6819813,8.5807163 7.6680821,8.8309009 7.6521308,9.1187998 7.7374889,9.3764322 7.8921799,9.6197978 8.0982977,9.9441332 8.7257063,10.595107 9.3296848,10.860534 9.9336068,10.595107 10.561016,9.9441332 10.76719,9.6197978 c 0.154682,-0.2433656 0.240049,-0.500998 0.224097,-0.7888969 -0.01381,-0.2501846 -0.1394,-0.49286 -0.337057,-0.6467861 -0.148255,-0.1154562 -0.335359,-0.179351 -0.522895,-0.1840152 -0.0625,-0.00187 -0.124457,0.00282 -0.1858365,0.014575 C 9.6832523,8.0662605 9.4497118,8.2483392 9.3296848,8.4865557 9.2096858,8.2483392 8.9779675,8.0663537 8.7156935,8.0146751 8.6542201,8.0027349 8.5906272,7.998234 8.5280344,8.0000996 Z" />
</svg>
