<?xml version="1.0" encoding="UTF-8" standalone="no"?>
<svg
   height="16px"
   viewBox="0 0 16 16"
   width="16px"
   version="1.1"
   id="svg5"
   sodipodi:docname="cassette-wave-era-children's_new_year_songs.svg"
   inkscape:version="1.3.2 (091e20ef0f, 2023-11-25)"
   xmlns:inkscape="http://www.inkscape.org/namespaces/inkscape"
   xmlns:sodipodi="http://sodipodi.sourceforge.net/DTD/sodipodi-0.dtd"
   xmlns="http://www.w3.org/2000/svg"
   xmlns:svg="http://www.w3.org/2000/svg">
  <defs
     id="defs5" />
  <sodipodi:namedview
     id="namedview5"
     pagecolor="#ffffff"
     bordercolor="#000000"
     borderopacity="0.25"
     inkscape:showpageshadow="2"
     inkscape:pageopacity="0.0"
     inkscape:pagecheckerboard="0"
     inkscape:deskcolor="#d1d1d1"
     inkscape:zoom="22.627417"
     inkscape:cx="4.1321553"
     inkscape:cy="13.987456"
     inkscape:window-width="1920"
     inkscape:window-height="1131"
     inkscape:window-x="0"
     inkscape:window-y="0"
     inkscape:window-maximized="1"
     inkscape:current-layer="svg5" />
  <path
     id="path220"
     style="stroke-width:0.516311;fill:#2e3436;fill-opacity:1"
     d="M 8.0214844 0 C 5.9663164 0.007999992 3.9097209 0.79543718 2.3515625 2.3535156 C -0.76475441 5.4696725 -0.79247067 10.574877 2.3164062 13.683594 C 5.4252731 16.792301 10.532131 16.764604 13.648438 13.648438 C 16.106085 11.19092 16.641424 7.4947151 15.234375 4.5175781 C 15.352345 4.4665782 15.463877 4.3935449 15.560547 4.296875 L 15.666016 4.1933594 C 16.075145 3.7842398 16.075155 3.1239633 15.666016 2.7148438 L 15.1875 2.2363281 C 15.30815 1.8735385 15.225247 1.4576985 14.935547 1.1679688 L 14.830078 1.0625 C 14.540218 0.77266029 14.124638 0.689707 13.761719 0.81054688 L 13.283203 0.33398438 C 12.874064 -0.075135216 12.217733 -0.075125216 11.808594 0.33398438 L 11.703125 0.43945312 C 11.606325 0.53625303 11.533412 0.64752512 11.482422 0.765625 C 10.393113 0.25111551 9.2072232 -0.0047399953 8.0214844 0 z M 7.8886719 1.9550781 C 8.1097675 1.9491563 8.3320877 1.9540325 8.5546875 1.9726562 C 9.8572162 2.0882361 11.082969 2.6234377 12.048828 3.4980469 C 12.090928 3.5663468 12.141922 3.6321063 12.201172 3.6914062 L 12.304688 3.7949219 C 12.378487 3.8687218 12.463611 3.9293725 12.550781 3.9765625 C 14.655839 6.3619801 14.52719 9.9889751 12.257812 12.257812 C 9.8859947 14.62968 6.0568658 14.64591 3.7050781 12.294922 C 1.3520805 9.9435845 1.3674667 6.112722 3.7402344 3.7402344 C 4.851702 2.6292042 6.3410023 1.9965312 7.8886719 1.9550781 z M 8.6777344 3.1738281 C 8.4362921 3.1739856 8.1938504 3.2669021 8.0097656 3.4511719 C 7.7525359 3.7088016 7.6668626 4.0906541 7.7890625 4.4335938 C 7.6533626 4.5108937 7.5291286 4.6052639 7.4179688 4.7148438 C 7.130989 5.0049735 6.9514062 5.384976 6.9101562 5.7910156 L 5.1367188 5.3164062 C 4.8019191 5.2266063 4.4608037 5.424916 4.3710938 5.7597656 L 4.3476562 5.8457031 C 4.2579563 6.1805228 4.456106 6.5216682 4.7910156 6.6113281 L 5.4921875 6.7988281 C 5.4821875 6.8231281 5.4731437 6.8484469 5.4648438 6.8730469 C 4.6932045 7.1565366 3.8039466 7.8461404 3.4980469 8.25 C 3.2846571 8.5315697 3.2117677 8.9070291 3.3984375 9.2304688 L 3.4589844 9.3339844 C 3.6522495 9.6687091 4.0364678 9.8193258 4.3925781 9.7285156 C 4.3122601 10.410556 4.5333367 11.121227 5.0566406 11.644531 C 5.9374151 12.525305 7.3498791 12.551841 8.2617188 11.722656 C 8.2785127 11.707766 8.2943729 11.691301 8.3105469 11.675781 L 11.080078 8.90625 C 11.168318 9.2560429 11.149649 9.6358811 11.130859 10.003906 C 11.127359 10.072906 11.123894 10.141015 11.121094 10.208984 L 12.746094 10.162109 C 12.788188 8.9426845 12.49302 7.7530777 11.810547 6.7167969 L 9.2695312 9.2578125 L 8.8652344 7.7460938 C 9.271274 7.7048938 9.6511465 7.525121 9.9414062 7.2382812 C 10.051056 7.1271314 10.145436 7.0028774 10.222656 6.8671875 C 10.565586 6.9893874 10.947438 6.9036841 11.205078 6.6464844 C 11.573608 6.2783047 11.575191 5.6811396 11.207031 5.3125 C 10.951052 5.0566903 10.570235 4.9688407 10.228516 5.0878906 C 10.151616 4.9514208 10.057186 4.8263336 9.9472656 4.7148438 L 9.9414062 4.7070312 C 9.8306564 4.5962814 9.7028761 4.5026812 9.5664062 4.4257812 C 9.6854561 4.0840716 9.5995697 3.7051785 9.34375 3.4492188 C 9.1594252 3.2651289 8.9191766 3.1736706 8.6777344 3.1738281 z M 8.3496094 5.0332031 C 8.4103768 5.0328156 8.4717082 5.0552625 8.5175781 5.1015625 C 8.609578 5.1933624 8.6088249 5.3434501 8.515625 5.4375 C 8.4219251 5.5307999 8.2714874 5.531953 8.1796875 5.4394531 C 8.0876876 5.3476532 8.0884407 5.1975855 8.1816406 5.1035156 C 8.2285406 5.0567657 8.2888419 5.0335906 8.3496094 5.0332031 z M 8.2285156 5.8359375 C 8.3356779 5.821612 8.4853658 5.8876045 8.6113281 6.0136719 L 8.625 6.0253906 L 8.6308594 6.0332031 C 8.6348594 6.0362031 8.6400313 6.0404219 8.6445312 6.0449219 C 8.8126411 6.2128617 8.8728268 6.4252413 8.7792969 6.5195312 C 8.685697 6.6140312 8.4731573 6.5535055 8.3046875 6.3847656 L 8.2929688 6.3730469 L 8.2851562 6.3652344 C 8.2811563 6.3622344 8.2779375 6.3580156 8.2734375 6.3535156 C 8.1046677 6.1850558 8.044232 5.9724362 8.1386719 5.8789062 C 8.1621469 5.8556313 8.1927949 5.8407127 8.2285156 5.8359375 z M 9.3886719 6.0722656 C 9.4494381 6.0718781 9.5107757 6.094325 9.5566406 6.140625 C 9.6487405 6.2324249 9.6478874 6.3825126 9.5546875 6.4765625 C 9.4609876 6.5699624 9.3105599 6.5710155 9.21875 6.4785156 C 9.1267501 6.3867157 9.1275032 6.236638 9.2207031 6.1425781 C 9.2676031 6.0958282 9.3279057 6.0726531 9.3886719 6.0722656 z " />
</svg>
