<?xml version="1.0" encoding="UTF-8" standalone="no"?>
<svg
   height="16px"
   viewBox="0 0 16 16"
   width="16px"
   version="1.1"
   id="svg5"
   sodipodi:docname="cassette-wave-classes-party.svg"
   inkscape:version="1.3.2 (091e20ef0f, 2023-11-25)"
   xmlns:inkscape="http://www.inkscape.org/namespaces/inkscape"
   xmlns:sodipodi="http://sodipodi.sourceforge.net/DTD/sodipodi-0.dtd"
   xmlns="http://www.w3.org/2000/svg"
   xmlns:svg="http://www.w3.org/2000/svg">
  <defs
     id="defs5" />
  <sodipodi:namedview
     id="namedview5"
     pagecolor="#ffffff"
     bordercolor="#000000"
     borderopacity="0.25"
     inkscape:showpageshadow="2"
     inkscape:pageopacity="0.0"
     inkscape:pagecheckerboard="0"
     inkscape:deskcolor="#d1d1d1"
     inkscape:zoom="14.738757"
     inkscape:cx="-2.7478572"
     inkscape:cy="15.299798"
     inkscape:window-width="1920"
     inkscape:window-height="1131"
     inkscape:window-x="0"
     inkscape:window-y="0"
     inkscape:window-maximized="1"
     inkscape:current-layer="svg5" />
  <path
     id="path1527"
     style="fill:#2e3436;fill-opacity:1;fill-rule:nonzero;stroke:none;stroke-width:0.00130661"
     d="M 7.9316406,0 C 7.3930112,0 6.9589844,0.434017 6.9589844,0.972656 V 1.945312 C 6.0429373,2.104298 5.195371,2.469731 4.4628906,2.990234 L 3.7675781,2.294922 c -0.380884,-0.380874 -0.9941265,-0.380864 -1.375,0 l -0.097656,0.097656 c -0.3808632,0.380874 -0.3808736,0.994117 0,1.375 L 2.9902344,4.462891 C 2.4697309,5.195371 2.1042981,6.042937 1.9453125,6.958984 H 0.97265625 C 0.43402614,6.958984 0,7.393011 0,7.931641 v 0.136718 c 0,0.53863 0.43402614,0.972657 0.97265625,0.972657 H 1.9453125 c 0.159096,0.915588 0.524646,1.763933 1.0449219,2.496093 l -0.6953125,0.695313 c -0.3808632,0.380873 -0.3808632,0.994126 0,1.375 l 0.097656,0.09766 c 0.3808735,0.380864 0.9941265,0.380864 1.375,0 l 0.6953125,-0.695312 c 0.7324804,0.520503 1.5800467,0.885936 2.4960938,1.044922 v 0.972656 C 6.9589844,15.565973 7.3930112,16 7.9316406,16 h 0.1367188 c 0.5386294,0 0.9726562,-0.434027 0.9726562,-0.972656 v -0.972656 c 0.9160471,-0.158986 1.7636134,-0.524419 2.4960934,-1.044922 l 0.695313,0.695312 c 0.380873,0.380864 0.994126,0.380864 1.375,0 l 0.09766,-0.09766 c 0.380863,-0.380874 0.380863,-0.994127 0,-1.375 l -0.695312,-0.695313 c 0.520275,-0.73216 0.885826,-1.580505 1.044922,-2.496093 h 0.972656 C 15.565984,9.041016 16,8.606989 16,8.068359 V 7.931641 C 16,7.393011 15.565984,6.958984 15.027344,6.958984 H 14.054688 C 13.895702,6.042937 13.530269,5.195371 13.009766,4.462891 l 0.695312,-0.695313 c 0.380874,-0.380883 0.380863,-0.994126 0,-1.375 l -0.09766,-0.097656 c -0.380874,-0.380864 -0.994116,-0.380874 -1.375,0 L 11.537109,2.990234 C 10.804629,2.469731 9.9570627,2.104298 9.0410156,1.945312 V 0.972656 C 9.0410156,0.434017 8.6069888,0 8.0683594,0 Z M 8,3.734375 c 2.340378,0 4.265625,1.925247 4.265625,4.265625 0,2.340378 -1.925247,4.265625 -4.265625,4.265625 C 5.6596223,12.265625 3.734375,10.340378 3.734375,8 3.734375,5.659622 5.6596223,3.734375 8,3.734375 Z m 0,0.876953 c -0.1633436,0 -0.3261463,0.085675 -0.4101562,0.25586 L 6.8183594,6.427734 5.0957031,6.679688 c -0.3755796,0.054609 -0.525726,0.51628 -0.2539062,0.78125 l 1.2460937,1.214843 -0.2949218,1.716797 c -0.06417,0.37416 0.3300159,0.659042 0.6660156,0.482422 L 8,10.064453 9.5410156,10.875 c 0.3359397,0.17667 0.7282624,-0.108212 0.6640624,-0.482422 L 9.9121094,8.675781 11.158203,7.460938 c 0.27191,-0.26497 0.121883,-0.726651 -0.253906,-0.78125 L 9.1816406,6.427734 8.4101562,4.867188 C 8.3262013,4.697003 8.1633436,4.611328 8,4.611328 Z" />
</svg>
