<?xml version="1.0" encoding="UTF-8" standalone="no"?>
<svg
   height="16px"
   viewBox="0 0 16 16"
   width="16px"
   version="1.1"
   id="svg5"
   sodipodi:docname="cassette-wave-mood-autumn.svg"
   inkscape:version="1.3.2 (091e20ef0f, 2023-11-25)"
   xmlns:inkscape="http://www.inkscape.org/namespaces/inkscape"
   xmlns:sodipodi="http://sodipodi.sourceforge.net/DTD/sodipodi-0.dtd"
   xmlns="http://www.w3.org/2000/svg"
   xmlns:svg="http://www.w3.org/2000/svg">
  <defs
     id="defs5" />
  <sodipodi:namedview
     id="namedview5"
     pagecolor="#ffffff"
     bordercolor="#000000"
     borderopacity="0.25"
     inkscape:showpageshadow="2"
     inkscape:pageopacity="0.0"
     inkscape:pagecheckerboard="0"
     inkscape:deskcolor="#d1d1d1"
     inkscape:zoom="16.000001"
     inkscape:cx="-0.031249999"
     inkscape:cy="17.593749"
     inkscape:window-width="1920"
     inkscape:window-height="1131"
     inkscape:window-x="0"
     inkscape:window-y="0"
     inkscape:window-maximized="1"
     inkscape:current-layer="svg5" />
  <path
     id="path1282"
     style="fill:#2e3436;fill-opacity:1;stroke-width:3.60346;paint-order:stroke markers fill"
     d="M 8.0009969,2.5e-7 C 3.5972067,2.5e-7 0,3.6150747 0,8.0009903 0,12.386897 3.5972067,16 8.0009969,16 12.404766,16 16.00001,12.386897 16,8.0009904 16,3.6150748 12.404766,2.5e-7 8.0009969,2.5e-7 Z m 0,1.95518085 A 6.031546,6.0448401 0 0 1 14.03215,8.0009903 6.031546,6.0448401 0 0 1 8.0009969,14.044819 6.031546,6.0448401 0 0 1 4.6674143,13.020677 l 1.0367602,-1.032068 1.0866044,1.07961 c 0.373333,0.370928 0.9744625,0.370922 1.3477881,0 l 0.095701,-0.09509 c 0.1704344,-0.169337 0.262317,-0.385563 0.277134,-0.606166 l 1.648847,0.437787 c 0.509976,0.135764 1.031703,-0.162874 1.168349,-0.669556 l 0.03389,-0.130742 c 0.05539,-0.205394 0.03923,-0.411534 -0.03389,-0.59428 h 0.25919 c 0.527973,0 0.953022,-0.422322 0.953022,-0.946886 v -0.134703 c 0,-0.5245645 -0.425049,-0.9468871 -0.953022,-0.9468871 h -0.25919 c 0.07312,-0.1827464 0.08929,-0.3888853 0.03389,-0.5942805 L 11.328598,8.6566739 C 11.277884,8.4686504 11.173796,8.3103167 11.037508,8.19116 l 1.124485,-0.6457846 c 0.457231,-0.262285 0.612888,-0.8392697 0.34891,-1.2935499 L 12.443111,6.1349508 C 12.336038,5.950681 12.176423,5.8165917 11.994517,5.7387641 l 0.183428,-0.1822453 c 0.373332,-0.3709301 0.373324,-0.9681895 0,-1.3391115 l -0.0957,-0.095085 c -0.373327,-0.370922 -0.974456,-0.3709291 -1.347789,0 L 10.551028,4.3045689 C 10.47264,4.1241877 10.337447,3.9650791 10.152274,3.858859 L 10.034642,3.7915065 C 9.5774188,3.5292296 8.9966947,3.6838847 8.7327104,4.13817 L 8.0827415,5.2554169 C 7.9630012,5.1209624 7.8025479,5.0183226 7.6142057,4.9681817 L 7.4846106,4.9325241 C 7.2775691,4.8774044 7.0686223,4.8952489 6.884486,4.9681817 V 4.7106596 c 0,-0.524573 -0.4250593,-0.9468854 -0.9530218,-0.9468854 H 5.7958879 C 5.2679255,3.7637732 4.8428661,4.1860866 4.8428661,4.7106596 V 4.9681817 C 4.6591566,4.8958351 4.4511247,4.8775778 4.2447352,4.9325241 L 4.1131465,4.9681817 C 3.6031809,5.1039466 3.3026069,5.6203346 3.4392523,6.1270276 L 3.8818692,7.7652591 C 3.6596159,7.7798459 3.4403798,7.8711101 3.269782,8.0406085 l -0.095701,0.095085 c -0.3733257,0.370923 -0.373333,0.9681814 0,1.3391115 L 4.2606854,10.554414 3.1820561,11.62808 A 6.031546,6.0448401 0 0 1 1.9678505,8.0009903 6.031546,6.0448401 0 0 1 8.0009969,1.9551811 Z" />
</svg>
