<?xml version="1.0" encoding="UTF-8" standalone="no"?>
<svg
   height="16px"
   viewBox="0 0 16 16"
   width="16px"
   version="1.1"
   id="svg5"
   sodipodi:docname="cassette-wave-classes-for_lovers.svg"
   inkscape:version="1.3.2 (091e20ef0f, 2023-11-25)"
   xmlns:inkscape="http://www.inkscape.org/namespaces/inkscape"
   xmlns:sodipodi="http://sodipodi.sourceforge.net/DTD/sodipodi-0.dtd"
   xmlns="http://www.w3.org/2000/svg"
   xmlns:svg="http://www.w3.org/2000/svg">
  <defs
     id="defs5" />
  <sodipodi:namedview
     id="namedview5"
     pagecolor="#ffffff"
     bordercolor="#000000"
     borderopacity="0.25"
     inkscape:showpageshadow="2"
     inkscape:pageopacity="0.0"
     inkscape:pagecheckerboard="0"
     inkscape:deskcolor="#d1d1d1"
     inkscape:zoom="14.738757"
     inkscape:cx="-0.84810408"
     inkscape:cy="14.621314"
     inkscape:window-width="1920"
     inkscape:window-height="1131"
     inkscape:window-x="0"
     inkscape:window-y="0"
     inkscape:window-maximized="1"
     inkscape:current-layer="svg5" />
  <path
     id="path1539"
     style="color:#000000;fill:#2e3436;fill-opacity:1;stroke-width:1.00003;stroke-linejoin:round;-inkscape-stroke:none"
     d="M 9.4292211,0.00231947 C 9.1750126,0.01031974 8.9236804,0.03975875 8.6772422,0.08826041 8.0550616,0.2107546 7.6158016,0.57518708 7.1498462,0.90078822 6.7057714,0.59711783 6.2872824,0.25606116 5.7162034,0.12927682 c -0.013,-0.004 -0.025964,-0.006765 -0.039064,-0.009765 C 5.2654355,0.04560895 4.9490145,-0.00407775 4.6087432,0.00427254 3.6166103,0.02837336 2.636798,0.36025072 1.8293512,0.98868123 0.75912568,1.8221888 0.10004447,3.0794768 0.02460196,4.4341122 v 0.00391 c -0.07500248,1.3549755 0.35081266,2.5939639 1.00003414,3.6153579 0.6039947,0.9504755 1.638232,2.1349199 2.9551793,3.1504989 0.087917,0.171743 0.1814181,0.339861 0.2832129,0.500017 0.8237973,1.296283 2.5549489,3.116379 4.724771,4.070452 l 0.3437618,0.152348 a 0.85649494,0.85649494 0 0 0 0.6933839,0 l 0.341808,-0.152348 c 2.170473,-0.953913 3.902728,-2.774159 4.726725,-4.070452 0.573689,-0.90278 0.949415,-1.9982424 0.882842,-3.1954223 -0.0661,-1.195419 -0.647789,-2.3039119 -1.59185,-3.0391661 -0.04628,-0.036005 -0.09501,-0.067699 -0.142584,-0.1015655 0.0342,-0.3013953 0.04486,-0.6123999 0.02734,-0.9297198 C 14.194224,3.0825269 13.535054,1.8224428 12.464478,0.98868523 11.595468,0.31263309 10.520701,-0.0318977 9.4331231,0.00232347 h -0.00195 z M 4.6810117,2.967265 h 0.00195 c 0.120984,-0.003 0.2394733,0.006 0.3593873,0.029298 0.4933463,0.097203 0.9819114,0.4729612 1.2109789,0.9277657 0.3692623,0.7345842 1.4179083,0.7345842 1.7871706,0 C 8.2704763,3.4679741 8.756868,3.0935463 9.2495244,2.996563 h 0.00195 c 0.4665155,-0.092003 1.0140106,0.039802 1.3906736,0.3320423 0.376533,0.2932401 0.639698,0.7951323 0.666039,1.2715276 6.27e-4,0.01128 -4.96e-4,0.021982 0,0.033204 -0.08846,0.01142 -0.175925,0.023692 -0.263681,0.041017 C 10.491127,4.7832881 10.096041,5.1092323 9.6811766,5.4009423 9.2867635,5.128863 8.911596,4.8248086 8.4037892,4.7114657 h -0.00195 C 7.9359367,4.6056721 7.6064991,4.5956327 7.4232931,4.6001329 6.548254,4.6214336 5.6840109,4.9151857 4.9720372,5.4693036 4.4682165,5.8616981 4.0682766,6.3612022 3.7942626,6.9224784 3.6883982,6.7403731 3.5971354,6.5774326 3.5247221,6.4634787 3.1271789,5.8380572 2.9469467,5.2641456 2.983688,4.6001329 3.0102889,4.1231375 3.2733439,3.6217354 3.6497264,3.3286053 3.9313557,3.1094078 4.3104994,2.9762653 4.6810117,2.967265 Z M 7.483842,7.1685808 c 0.1157239,-0.003 0.226186,0.00704 0.3300894,0.027344 0.448815,0.088403 0.8914101,0.4264296 1.0996471,0.8398728 a 0.85649494,0.85649494 0 0 0 1.5293495,0.00195 c 0.209007,-0.4147433 0.649469,-0.7536029 1.097694,-0.8418259 a 0.85649494,0.85649494 0 0 0 0.002,0 c 0.0804,-0.0159 0.162315,-0.024844 0.244148,-0.027344 0.359772,-0.0106 0.738774,0.1118188 1.017613,0.3281362 0.342341,0.2666181 0.581549,0.7211917 0.605489,1.1543365 0.0333,0.5984095 -0.128879,1.1144462 -0.484391,1.6738846 -0.390672,0.61459 -1.917221,2.126139 -3.2462053,2.853613 C 8.3498555,12.451387 6.8216646,10.939558 6.4310716,10.324938 6.0750698,9.7648397 5.9116557,9.248643 5.9447268,8.6510535 5.9689277,8.2173687 6.208015,7.7632451 6.5502163,7.496717 6.8060748,7.2975902 7.1458808,7.1767911 7.483842,7.1685808 Z" />
</svg>
