<?xml version="1.0" encoding="UTF-8" standalone="no"?>
<svg
   height="16px"
   viewBox="0 0 16 16"
   width="16px"
   version="1.1"
   id="svg5"
   sodipodi:docname="cassette-wave-era-2000s.svg"
   inkscape:version="1.3.2 (091e20ef0f, 2023-11-25)"
   xmlns:inkscape="http://www.inkscape.org/namespaces/inkscape"
   xmlns:sodipodi="http://sodipodi.sourceforge.net/DTD/sodipodi-0.dtd"
   xmlns="http://www.w3.org/2000/svg"
   xmlns:svg="http://www.w3.org/2000/svg">
  <defs
     id="defs5" />
  <sodipodi:namedview
     id="namedview5"
     pagecolor="#ffffff"
     bordercolor="#000000"
     borderopacity="0.25"
     inkscape:showpageshadow="2"
     inkscape:pageopacity="0.0"
     inkscape:pagecheckerboard="0"
     inkscape:deskcolor="#d1d1d1"
     inkscape:zoom="22.627417"
     inkscape:cx="7.4467183"
     inkscape:cy="12.705825"
     inkscape:window-width="1920"
     inkscape:window-height="1131"
     inkscape:window-x="0"
     inkscape:window-y="0"
     inkscape:window-maximized="1"
     inkscape:current-layer="svg5" />
  <path
     id="path42"
     style="color:#000000;-inkscape-font-specification:Nasalization;fill:#2e3436;fill-opacity:1;stroke-width:1.08289;stroke-linecap:round;stroke-linejoin:round;stroke-miterlimit:0;-inkscape-stroke:none;paint-order:stroke fill markers"
     d="M 1.1933558,1.1866804e-6 A 0.98568643,1.1311582 0 0 0 0.20595029,1.1313543 V 3.5332427 A 0.98568643,1.1311582 0 0 0 1.1933558,4.6626075 h 3.3818153 c 0.021434,0.084496 0.051969,0.1609745 0.051969,0.3976637 0,0.2104243 -0.024214,0.3000706 -0.030796,0.3240959 L 1.9805854,6.6867155 C 1.2304431,7.0560524 0.6402765,7.7898896 0.35415729,8.6571389 0.06803908,9.5244895 1.7518869e-7,10.494451 1.7518869e-7,11.673417 v 2.075805 c 0,0.473277 0.0266590048113,0.906148 0.24444540481131,1.373928 0.21778611,0.467778 0.79362902,0.876848 1.26649662,0.876848 h 5.0274912 a 0.98568643,1.1311582 0 0 0 0.985481,-1.129364 V 12.468745 A 0.98568643,1.1311582 0 0 0 6.5384334,11.335403 H 3.0854015 c 0.00828,-0.16787 0.017939,-0.31693 0.026947,-0.363861 L 5.6241693,9.7427599 a 0.98568643,1.1311582 0 0 0 0.0077,0 C 6.3396983,9.3893047 6.9257184,8.7282147 7.2525234,7.9055545 7.5793264,7.0829961 7.6913704,6.135594 7.6913704,5.0224932 7.6913704,3.6436897 7.5254914,2.500487 7.0715944,1.5767376 6.6176944,0.65288625 5.7388653,0.0039778 4.8099928,0.0039778 Z m 8.8038837,0 c -0.65177,0 -1.234149,0.2506240433196 -1.6225781,0.7555608833196 -0.388432,0.50493703 -0.563957,1.20920383 -0.563957,2.03603803 0,0.8232711 0.1721741,1.525645 0.560108,2.0300728 0.38793,0.5045297 0.97225,0.7555609 1.6264271,0.7555609 0.6541805,0 1.2384935,-0.2510312 1.6264285,-0.7555609 0.183217,-0.238216 0.2199,-0.601535 0.279091,-0.9464394 0.05918,0.3448027 0.09397,0.7082234 0.277166,0.9464394 0.387935,0.5045297 0.972247,0.7555609 1.626428,0.7555609 0.654177,0 1.238497,-0.2510312 1.626429,-0.7555609 0.387933,-0.5044278 0.560106,-1.2068017 0.560106,-2.0300728 0,-0.8268342 -0.175524,-1.531101 -0.563956,-2.03603803 C 15.040503,0.25062523 14.458123,1.1866804e-6 13.806353,1.1866804e-6 13.15458,1.1866804e-6 12.570283,0.24863688 12.18185,0.75357377 12.070608,0.89813237 11.978748,1.0602109 11.902759,1.2367352 11.82671,1.0599054 11.733143,0.89833597 11.621743,0.75357377 11.233311,0.24863688 10.649012,1.1866804e-6 9.9972395,1.1866804e-6 Z m 0,1.7815332133196 c 0.2951025,0 0.4026645,0.070237 0.4850415,0.1869019 0.08237,0.1167667 0.159756,0.3729358 0.159756,0.8171987 0,0.447928 -0.07728,0.7037981 -0.159756,0.8211755 -0.08248,0.1176829 -0.189937,0.186902 -0.4850415,0.186902 -0.2951024,0 -0.397984,-0.068248 -0.4792671,-0.1849136 C 9.4366924,3.4922358 9.3582175,3.234581 9.3582175,2.785635 c 0,-0.4442629 0.07954,-0.7003303 0.16168,-0.8171987 0.08214,-0.1176828 0.1857401,-0.1869019 0.477342,-0.1869019 z m 3.8091135,0 c 0.291602,0 0.395208,0.069219 0.477343,0.1869019 0.08214,0.1168684 0.161679,0.3729358 0.161679,0.8171987 0,0.448946 -0.07847,0.7066008 -0.159755,0.8231639 -0.08128,0.1166649 -0.184164,0.1849136 -0.479267,0.1849136 -0.295105,0 -0.402566,-0.069219 -0.485042,-0.186902 -0.08247,-0.1173774 -0.159755,-0.3732475 -0.159755,-0.8211755 0,-0.4442629 0.0774,-0.700432 0.159755,-0.8171987 0.08238,-0.1168684 0.189939,-0.1869019 0.485042,-0.1869019 z M 8.6364294,5.7482293 a 0.82576681,0.94763699 0 0 0 -0.825725,0.9484278 v 8.3569009 a 0.82576681,0.94763699 0 0 0 0.825725,0.94644 h 1.2722715 a 0.82576681,0.94763699 0 0 0 0.8257241,-0.94644 v -2.533117 c 0.514661,0.01222 0.870043,0.05602 0.925813,0.08351 0.06326,0.03156 0.07095,0.01837 0.244445,0.405618 l 1.11059,2.475456 a 0.82576681,0.94763699 0 0 0 0.733337,0.514974 h 1.424327 a 0.82576681,0.94763699 0 0 0 0.735261,-1.381881 l -1.176032,-2.62458 c -0.232384,-0.520004 -0.457967,-0.955189 -0.779531,-1.32422 -0.03596,-0.04173 -0.09452,-0.0488 -0.132808,-0.08749 0.228446,-0.307237 0.571694,-0.494862 0.731411,-0.8609411 h 0.0019 l 1.1433,-2.5967414 a 0.82576681,0.94763699 0 0 0 -0.73911,-1.3739279 h -1.370435 a 0.82576681,0.94763699 0 0 0 -0.733336,0.518951 l -1.11248,2.4993162 c -0.183426,0.4092434 -0.218722,0.4289389 -0.244444,0.443395 -0.02224,0.012221 -0.325885,0.053345 -0.762208,0.067601 V 6.6986454 A 0.82576681,0.94763699 0 0 0 9.9087009,5.7502176 Z" />
</svg>
