<?xml version="1.0" encoding="UTF-8" standalone="no"?>
<svg
   height="16px"
   viewBox="0 0 16 16"
   width="16px"
   version="1.1"
   id="svg5"
   sodipodi:docname="cassette-wave-classes-date.svg"
   inkscape:version="1.3.2 (091e20ef0f, 2023-11-25)"
   xmlns:inkscape="http://www.inkscape.org/namespaces/inkscape"
   xmlns:sodipodi="http://sodipodi.sourceforge.net/DTD/sodipodi-0.dtd"
   xmlns="http://www.w3.org/2000/svg"
   xmlns:svg="http://www.w3.org/2000/svg">
  <defs
     id="defs5" />
  <sodipodi:namedview
     id="namedview5"
     pagecolor="#ffffff"
     bordercolor="#000000"
     borderopacity="0.25"
     inkscape:showpageshadow="2"
     inkscape:pageopacity="0.0"
     inkscape:pagecheckerboard="0"
     inkscape:deskcolor="#d1d1d1"
     inkscape:zoom="20.84375"
     inkscape:cx="7.2683658"
     inkscape:cy="10.002998"
     inkscape:window-width="1920"
     inkscape:window-height="1131"
     inkscape:window-x="0"
     inkscape:window-y="0"
     inkscape:window-maximized="1"
     inkscape:current-layer="svg5"
     showguides="true" />
  <path
     id="path1"
     style="color:#000000;fill:#2e3436;stroke-width:0.984731;stroke-linejoin:round;-inkscape-stroke:none"
     d="m 5.1914161,0.4770327 c -0.056343,0.00112 -0.1118146,0.00678 -0.1679687,0.009766 -0.049625,0.002622 -0.098988,0.005704 -0.1484375,0.009766 C 4.8148909,0.5015347 4.7551415,0.5070445 4.6953224,0.5141428 4.5801503,0.5277078 4.4653851,0.5435732 4.3515724,0.564924 4.2362652,0.58655451 4.1233521,0.6135119 4.0097755,0.64304832 3.954923,0.65735866 3.9001036,0.67182922 3.845713,0.6879702 3.7689959,0.71066332 3.6929044,0.73588101 3.6171974,0.76218895 3.5761731,0.77648619 3.5348539,0.78980621 3.4941505,0.8051577 3.3926934,0.84331755 3.2926496,0.88744247 3.1933693,0.93211082 3.1614849,0.9464852 3.1293078,0.96004062 3.0976661,0.97507958 2.9859406,1.0280989 2.8760445,1.0837333 2.767588,1.1450014 c -7.689e-4,4.348e-4 -0.00118,0.00152 -0.00195,0.00195 -0.1072009,0.060631 -0.2127757,0.126716 -0.3164062,0.1953125 -0.032459,0.021492 -0.065573,0.042192 -0.097656,0.064453 -0.1027354,0.071273 -0.2040796,0.1454506 -0.3027344,0.2246094 -7.141e-4,5.725e-4 -0.00124,0.00138 -0.00195,0.00195 -0.4569461,0.3670028 -0.8442625,0.7994354 -1.15624997,1.28125 -4.8868e-4,7.542e-4 -0.001465,0.0012 -0.001953,0.00195 -0.20734906,0.3205626 -0.38071297,0.6630353 -0.51757813,1.0214844 -2.1468e-4,5.62e-4 2.145e-4,0.00139 0,0.00195 -0.008842,0.02318 -0.0168546,0.046997 -0.0253906,0.070313 -0.0500211,0.1365956 -0.0954058,0.2751028 -0.13476562,0.4160156 -0.005843,0.020924 -0.0119741,0.041488 -0.0175781,0.0625 -1.6149e-4,6.052e-4 1.6128e-4,0.00135 0,0.00195 -0.0247732,0.093011 -0.0483087,0.1866102 -0.0683594,0.28125 -1.3165e-4,6.21e-4 1.3145e-4,0.00133 0,0.00195 -0.0200189,0.094648 -0.03751645,0.1909921 -0.05273438,0.2871094 -1.0026e-4,6.329e-4 1.0006e-4,0.00132 0,0.00195 -0.01518498,0.096121 -0.02875672,0.1916318 -0.0390625,0.2890625 -6.845e-5,6.468e-4 6.825e-5,0.00131 0,0.00195 C 0.02293909,5.45143 0.01509106,5.5503138 0.00977556,5.6489077 v 0.00195 c -0.04199041,0.7820912 0.05747465,1.5361383 0.25781249,2.2421875 1.7128e-4,6.041e-4 -1.7142e-4,0.00135 0,0.00195 0.20033902,0.7053677 0.50173927,1.3626467 0.86328125,1.9492188 0.2021166,0.327985 0.4397544,0.674453 0.7109375,1.029297 0.1805031,0.236189 0.3764041,0.476211 0.5859375,0.716797 0.1052639,0.120864 0.2138191,0.242444 0.3261718,0.363281 0.1123049,0.120785 0.2284275,0.239376 0.3476563,0.359375 0.2374834,0.239017 0.4879422,0.477595 0.7519531,0.708984 3.655e-4,3.21e-4 0.00159,-3.2e-4 0.00195,0 0.1318321,0.11552 0.266087,0.229302 0.4042968,0.341797 3.903e-4,3.18e-4 0.00156,-3.17e-4 0.00195,0 0.2768423,0.225285 0.5657052,0.44565 0.8671874,0.654297 4.364e-4,3.02e-4 0.00152,-3.02e-4 0.00195,0 0.150528,0.104149 0.3025501,0.205808 0.4589844,0.304688 4.627e-4,2.92e-4 0.00149,-2.93e-4 0.00195,0 0.1564461,0.09886 0.3163203,0.196221 0.4785156,0.289062 4.856e-4,2.78e-4 0.00147,-2.78e-4 0.00195,0 0.1622037,0.09282 0.3263449,0.183481 0.4941406,0.269531 5.116e-4,2.63e-4 0.00144,-2.62e-4 0.00195,0 0.1678054,0.08603 0.3384782,0.169537 0.5117187,0.248047 5.357e-4,2.43e-4 0.00142,-2.43e-4 0.00195,0 l 0.8203126,0.373047 0.00195,0.002 c 0.019929,0.0088 0.041432,0.0087 0.0625,0.01172 0.01193,0.0017 0.023142,0.0079 0.035156,0.0078 0.010736,-6.6e-5 0.020589,-0.0063 0.03125,-0.0078 0.021068,-0.003 0.042571,-0.0029 0.0625,-0.01172 l 0.00195,-0.002 0.8203126,-0.373047 c 1.5638948,-0.70876 2.9099578,-1.739315 3.9804688,-2.816406 0.119228,-0.119999 0.235351,-0.23859 0.347656,-0.359375 0.111723,-0.120098 0.221454,-0.241203 0.326172,-0.361328 3.31e-4,-3.81e-4 -3.32e-4,-0.0016 0,-0.002 0.209533,-0.240586 0.405434,-0.480608 0.585937,-0.716797 0.271307,-0.354827 0.508801,-0.701357 0.710938,-1.029297 0.361845,-0.5872134 0.662877,-1.2443339 0.863281,-1.9511719 0.05008,-0.1765123 0.09403,-0.3548381 0.130859,-0.5371093 0.110574,-0.5469045 0.158414,-1.1185466 0.126953,-1.7050782 -3.4e-5,-6.491e-4 3.5e-5,-0.0013 0,-0.00195 -0.0053,-0.098594 -0.01316,-0.1974777 -0.02344,-0.2949219 -6.8e-5,-6.468e-4 6.8e-5,-0.00131 0,-0.00195 -0.01031,-0.097431 -0.02388,-0.1929412 -0.03906,-0.2890625 -10e-5,-6.33e-4 1.01e-4,-0.00132 0,-0.00195 -0.01522,-0.096117 -0.03271,-0.1924615 -0.05273,-0.2871094 -1.31e-4,-6.211e-4 1.32e-4,-0.00133 0,-0.00195 -0.02005,-0.09464 -0.04359,-0.1882394 -0.06836,-0.28125 -1.62e-4,-6.052e-4 1.61e-4,-0.00135 0,-0.00195 -0.0056,-0.021012 -0.01174,-0.041576 -0.01758,-0.0625 C 15.749685,4.285301 15.704305,4.1467938 15.65428,4.0101982 15.64548,3.9862092 15.638,3.9617782 15.62889,3.9379322 15.59459,3.8481112 15.55836,3.7599917 15.519515,3.6723072 15.403007,3.4091337 15.267359,3.1575268 15.111338,2.9164858 14.799105,2.4337724 14.41079,2.0008549 13.953135,1.6332827 c -7.14e-4,-5.729e-4 -0.0012,-0.00138 -0.002,-0.00195 -0.09865,-0.079159 -0.199999,-0.1533366 -0.302734,-0.2246094 -0.03208,-0.022261 -0.0652,-0.042962 -0.09766,-0.064453 -0.10363,-0.068596 -0.209205,-0.134682 -0.316406,-0.1953125 -7.69e-4,-4.352e-4 -0.0012,-0.00152 -0.002,-0.00195 -0.108457,-0.061268 -0.218353,-0.1169025 -0.330078,-0.16992182 -0.03164,-0.015039 -0.06382,-0.0285944 -0.0957,-0.0429688 -0.09928,-0.0446684 -0.199324,-0.0887933 -0.300782,-0.12695312 -0.0144,-0.005415 -0.02853,-0.0122951 -0.04297,-0.0175781 -5.84e-4,-2.1414e-4 -0.0014,2.1392e-4 -0.002,0 -0.02576,-0.009417 -0.05224,-0.0163944 -0.07813,-0.0253906 -0.07571,-0.0263079 -0.151798,-0.0515256 -0.228515,-0.0742188 -0.05439,-0.016141 -0.10921,-0.0306115 -0.164063,-0.0449219 -0.113576,-0.0295364 -0.226489,-0.0564938 -0.341796,-0.078125 -0.113813,-0.0213508 -0.228578,-0.0372162 -0.34375,-0.0507812 -0.05982,-0.007098 -0.119569,-0.0126086 -0.179688,-0.0175781 -0.04945,-0.004062 -0.09881,-0.007144 -0.148438,-0.009766 -0.05615,-0.002985 -0.111625,-0.008645 -0.167968,-0.009766 -0.188684,-0.003769 -0.378417,0.003837 -0.56836,0.0214844 -0.189943,0.017647 -0.3805128,0.045335 -0.5703122,0.0839844 v -0.001953 C 9.3509022,0.64531693 9.0583707,0.75706915 8.783213,0.89304832 8.6456194,0.96078939 8.5131142,1.0345193 8.3828224,1.1117983 8.2525544,1.1892671 8.1254052,1.2706336 8.0000099,1.3520327 7.7491979,1.1892395 7.491994,1.0285305 7.2168068,0.89304832 6.9416491,0.75706915 6.6491176,0.64531693 6.330088,0.58054832 v 0.001953 C 6.1402885,0.54385211 5.9497184,0.5161641 5.7597755,0.49851708 5.5698326,0.48087005 5.3801003,0.47326389 5.1914161,0.4770327 Z m 0.1113282,2.6660156 c 0.1573348,0.00301 0.3151221,0.015617 0.46875,0.046875 C 6.2691994,3.2909685 6.7364771,3.54731 7.1132911,3.9047671 7.3369061,4.1168949 7.6498284,4.283671 8.0000099,4.2602358 8.3501914,4.283671 8.6631137,4.1168949 8.8867287,3.9047671 9.2635427,3.54731 9.7308204,3.2909685 10.228526,3.1899233 c 0.153627,-0.031258 0.311415,-0.043865 0.46875,-0.046875 0.586563,0.018916 1.170289,0.2260409 1.630859,0.5957031 0.62114,0.4988805 1.024557,1.2944912 1.068359,2.1054688 0.05162,0.9621321 -0.22143,1.821318 -0.732422,2.6503906 C 12.016056,9.5462078 9.9487542,11.731983 8.0000099,12.686017 6.0512656,11.731983 3.9839639,9.5462078 3.3359474,8.4946108 2.8249556,7.6655382 2.5519031,6.8063523 2.6035255,5.8442202 2.6473277,5.0332426 3.0507444,4.2376319 3.6718849,3.7387514 4.1324553,3.3690892 4.7161811,3.1619639 5.3027443,3.1430483 Z" />
</svg>
