<?xml version="1.0" encoding="UTF-8" standalone="no"?>
<svg
   height="16px"
   viewBox="0 0 16 16"
   width="16px"
   version="1.1"
   id="svg5"
   sodipodi:docname="cassette-wave-era-2020s.svg"
   inkscape:version="1.3.2 (091e20ef0f, 2023-11-25)"
   xmlns:inkscape="http://www.inkscape.org/namespaces/inkscape"
   xmlns:sodipodi="http://sodipodi.sourceforge.net/DTD/sodipodi-0.dtd"
   xmlns="http://www.w3.org/2000/svg"
   xmlns:svg="http://www.w3.org/2000/svg">
  <defs
     id="defs5" />
  <sodipodi:namedview
     id="namedview5"
     pagecolor="#ffffff"
     bordercolor="#000000"
     borderopacity="0.25"
     inkscape:showpageshadow="2"
     inkscape:pageopacity="0.0"
     inkscape:pagecheckerboard="0"
     inkscape:deskcolor="#d1d1d1"
     inkscape:zoom="22.627417"
     inkscape:cx="7.4467183"
     inkscape:cy="16.241359"
     inkscape:window-width="1920"
     inkscape:window-height="1131"
     inkscape:window-x="0"
     inkscape:window-y="0"
     inkscape:window-maximized="1"
     inkscape:current-layer="svg5" />
  <path
     id="path59"
     style="color:#000000;-inkscape-font-specification:Nasalization;fill:#2e3436;fill-opacity:1;stroke-width:1.07577;stroke-linecap:round;stroke-linejoin:round;stroke-miterlimit:0;-inkscape-stroke:none;paint-order:stroke fill markers"
     d="M 1.1777276,1.8776753e-5 A 0.97277816,1.1311549 0 0 0 0.203253,1.1313688 v 2.401881 a 0.97277816,1.1311549 0 0 0 0.9744746,1.129362 h 3.3375282 c 0.021105,0.0845 0.051288,0.160973 0.051288,0.397662 0,0.210424 -0.023974,0.30007 -0.030393,0.324095 L 1.9546479,6.6867128 C 1.2143343,7.0560498 0.6318963,7.7898838 0.3495192,8.6571308 0.0671517,9.5244798 0,10.494438 0,11.673401 v 2.075798 c 0,0.473276 0.026286,0.906146 0.2412442,1.373925 0.2149389,0.467777 0.783231,0.876845 1.2499109,0.876845 H 6.4528077 A 0.97277816,1.1311549 0 0 0 7.4253828,14.870608 V 12.468726 A 0.97277816,1.1311549 0 0 0 6.4528077,11.335389 H 3.0449958 c 0.00778,-0.167871 0.017743,-0.316931 0.026594,-0.363862 L 5.5505166,9.7427488 a 0.97277816,1.1311549 0 0 0 0.0076,0 c 0.698561,-0.353454 1.276905,-1.014542 1.5994301,-1.8372 0.322525,-0.822556 0.4330998,-1.769955 0.4330998,-2.883053 0,-1.378799 -0.1637103,-2.521999 -0.6116586,-3.445745 C 6.5310281,0.65290178 5.6637116,0.00399478 4.7470022,0.00399478 Z M 13.842099,0.00201878 c -0.643231,0 -1.219889,0.248594 -1.60323,0.753571 -0.173954,0.229144 -0.160214,0.62031102 -0.250741,0.92456502 -0.02782,-0.442429 -0.125159,-0.87203102 -0.387511,-1.15719802 -0.295166,-0.320817 -0.703516,-0.457312 -1.145435,-0.457312 H 8.2649887 a 0.43287506,0.50335092 0 0 0 -0.4312003,0.503043 V 1.3441298 a 0.43287506,0.50335092 0 0 0 0.4312003,0.505031 h 1.9698453 l -1.3524886,0.361873 c -0.3828436,0.101191 -0.7127508,0.294884 -0.9174874,0.626318 -0.2051937,0.33222 -0.2564407,0.725335 -0.2564407,1.137316 v 0.670013 c 0,0.203267 0.049991,0.450086 0.2070522,0.630295 0.1570901,0.180208 0.3674913,0.23661 0.5432743,0.236609 h 3.0411972 a 0.43287506,0.50335092 0 0 0 0.433099,-0.503043 v -0.767488 c 0.07674,0.216063 0.177071,0.412912 0.305829,0.582575 0.382854,0.504457 0.957616,0.753571 1.60323,0.753571 0.645614,0 1.222265,-0.249114 1.605128,-0.753571 C 15.830072,4.3191878 16,3.6147968 16,2.7916098 c 0,-0.826873 -0.171332,-1.531056 -0.554672,-2.03603202 -0.38334,-0.504976 -0.959998,-0.753571 -1.603229,-0.753571 z m 0,1.77954002 c 0.287795,0 0.390037,0.06993 0.471091,0.186901 0.08111,0.11695 0.159563,0.370997 0.159563,0.815208 0,0.448986 -0.07742,0.710535 -0.157663,0.827138 -0.08024,0.116594 -0.181744,0.182924 -0.472991,0.182924 -0.291238,0 -0.397295,-0.06759 -0.47869,-0.184912 -0.0814,-0.117357 -0.157663,-0.377253 -0.157663,-0.82515 0,-0.444211 0.07635,-0.69839 0.157663,-0.815208 0.08131,-0.116817 0.187452,-0.186901 0.47869,-0.186901 z m -2.12181,1.14328 c 0.01002,0.364541 0.04892,0.709268 0.125372,1.021992 a 0.43287506,0.50335092 0 0 0 -0.34572,-0.216727 H 9.953698 l 0.856702,-0.22269 a 0.43287506,0.50335092 0 0 0 0.0019,-0.002 c 0.363324,-0.09691 0.680061,-0.269353 0.90419,-0.570645 0.0017,-0.0025 0.0026,-0.0067 0.0038,-0.01 z m -3.1969601,2.823403 a 0.8149528,0.94763422 0 0 0 -0.8149116,0.948425 v 8.3568772 a 0.8149528,0.94763422 0 0 0 0.8149116,0.946437 H 9.778939 a 0.8149528,0.94763422 0 0 0 0.814911,-0.946437 v -2.53311 c 0.507927,0.01222 0.858651,0.05602 0.913689,0.08351 0.06244,0.03156 0.07004,0.01836 0.241244,0.405616 l 1.096046,2.47545 a 0.8149528,0.94763422 0 0 0 0.723733,0.514972 h 1.405675 a 0.8149528,0.94763422 0 0 0 0.725632,-1.381877 L 14.539238,11.993486 C 14.309895,11.473484 14.087267,11.0383 13.769915,10.66927 c -0.0355,-0.04174 -0.0933,-0.0488 -0.131069,-0.08749 0.225452,-0.307237 0.564208,-0.494861 0.721833,-0.8609402 h 0.0019 l 1.128339,-2.596735 A 0.8149528,0.94763422 0 0 0 14.761487,5.7502168 H 13.409 a 0.8149528,0.94763422 0 0 0 -0.723732,0.518949 l -1.097947,2.499309 c -0.181025,0.409242 -0.215859,0.428938 -0.241244,0.443393 -0.02198,0.01222 -0.321618,0.05335 -0.752226,0.06761 V 6.6986458 A 0.8149528,0.94763422 0 0 0 9.77894,5.7502208 Z" />
</svg>
