<?xml version="1.0" encoding="UTF-8" standalone="no"?>
<svg
   height="16px"
   viewBox="0 0 16 16"
   width="16px"
   version="1.1"
   id="svg5"
   sodipodi:docname="cassette-wave-genre-author's_song.svg"
   inkscape:version="1.3.2 (091e20ef0f, 2023-11-25)"
   xmlns:inkscape="http://www.inkscape.org/namespaces/inkscape"
   xmlns:sodipodi="http://sodipodi.sourceforge.net/DTD/sodipodi-0.dtd"
   xmlns="http://www.w3.org/2000/svg"
   xmlns:svg="http://www.w3.org/2000/svg">
  <defs
     id="defs5" />
  <sodipodi:namedview
     id="namedview5"
     pagecolor="#ffffff"
     bordercolor="#000000"
     borderopacity="0.25"
     inkscape:showpageshadow="2"
     inkscape:pageopacity="0.0"
     inkscape:pagecheckerboard="0"
     inkscape:deskcolor="#d1d1d1"
     inkscape:zoom="22.627417"
     inkscape:cx="2.541165"
     inkscape:cy="11.91033"
     inkscape:window-width="1920"
     inkscape:window-height="1131"
     inkscape:window-x="0"
     inkscape:window-y="0"
     inkscape:window-maximized="1"
     inkscape:current-layer="svg5" />
  <path
     id="path88"
     style="color:#000000;fill:#2e3436;fill-opacity:1;stroke-width:1.02927;stroke-linecap:round;stroke-linejoin:round;stroke-miterlimit:0;-inkscape-stroke:none;paint-order:stroke fill markers"
     d="m 6.8892758,0.81619775 c -3.7806464,0 -6.88928799,3.10864265 -6.88928798,6.88928855 0,3.7252747 3.01907258,6.7960747 6.72444368,6.8852677 0.00875,0.05016 0.018034,0.102433 0.018093,0.102526 6.18e-5,1.44e-4 0.1808445,0.237122 0.1809268,0.237215 1.03e-5,10e-6 0.023616,0.0096 0.028144,0.01206 l 0.010056,0.03016 c 7.2e-5,1.13e-4 0.2411225,0.180823 0.2412357,0.180927 1.234e-4,4e-5 0.1766797,0.03016 0.1769061,0.03016 2.058e-4,0 0.096288,-0.008 0.096494,-0.008 5.454e-4,-1.04e-4 0.071731,-0.02083 0.090464,-0.02814 0.1507779,-0.05846 0.1158157,-0.05667 0.1427311,-0.07437 0.021306,-0.0141 0.044471,-0.03117 0.06835,-0.04824 0.1458992,-0.05198 0.2704646,-0.102104 0.4583477,-0.190978 0.2503805,-0.118501 0.5668038,-0.268338 0.9287573,-0.428194 0.723876,-0.319722 1.6428978,-0.676755 2.6013238,-0.88051 l 0.004,-0.0021 h 0.0021 c 0.588094,-0.134515 1.175282,-0.437175 1.658495,-0.920716 l 0.02613,-0.02613 L 16.000012,9.1026317 15.676354,8.778974 13.718324,6.8209444 C 13.278354,3.4524395 10.370044,0.81619775 6.8892758,0.81619775 Z m 0,2.05854415 c 2.2977036,0.00412 4.2748562,1.6253349 4.7282182,3.8778639 L 9.3217353,8.437234 9.295601,8.4653784 C 8.8120494,8.9485805 8.5073901,9.5337588 8.3728747,10.121863 v 0.004 l -0.00201,0.0021 C 8.1896255,10.980524 7.8882208,11.793395 7.5989106,12.47398 7.3642265,12.51217 7.127027,12.53311 6.8892757,12.5363 4.2214183,12.536079 2.0587304,10.373391 2.0585349,7.7055316 2.0587304,5.0376707 4.2214183,2.8749828 6.8892786,2.8747872 Z M 7.1244806,3.9422104 V 7.5929097 C 6.787956,7.3676504 6.3818116,7.2350771 5.9464465,7.2350771 c -1.1696376,0 -2.1168427,0.9492194 -2.1168427,2.1188523 0,1.1696426 0.9472051,2.1168436 2.1168427,2.1168436 1.1353856,0 2.0635682,-0.892162 2.1168428,-2.0143177 0.00122,-0.020431 0.00159,-0.041899 0.00201,-0.062319 v -3.570288 c 0.2823274,0.1685824 0.5146896,0.4261464 0.7397893,0.6754598 0.042215,0.046739 0.082611,0.093126 0.1246383,0.1387099 L 9.9469382,5.5604998 C 9.1881031,4.7474016 8.232283,4.1702537 7.1244806,3.9422104 Z m 5.5645024,3.3029175 1.96205,1.9620499 -1.96205,2.6757052 c -0.337931,0.333566 -0.742207,0.545402 -1.143859,0.637265 -0.362057,0.07719 -0.689455,0.178279 -1.001129,0.289482 l 0.715667,-0.737779 a 1.2686987,1.2686987 0 0 0 0.703604,-0.34376 1.2686987,1.2686987 0 0 0 0,-1.7951958 1.2686987,1.2686987 0 0 0 -1.795196,0 1.2686987,1.2686987 0 0 0 -0.3377298,0.6533468 l -0.7478303,0.773964 c 0.1127567,-0.313814 0.2155362,-0.643839 0.2935034,-1.009169 v -0.0061 C 9.4685453,9.9451372 9.681461,9.5415572 10.013277,9.2050985 Z" />
</svg>
