<?xml version="1.0" encoding="UTF-8" standalone="no"?>
<svg
   height="16px"
   viewBox="0 0 16 16"
   width="16px"
   version="1.1"
   id="svg5"
   sodipodi:docname="cassette-wave-genre-reggae.svg"
   inkscape:version="1.3.2 (091e20ef0f, 2023-11-25)"
   xmlns:inkscape="http://www.inkscape.org/namespaces/inkscape"
   xmlns:sodipodi="http://sodipodi.sourceforge.net/DTD/sodipodi-0.dtd"
   xmlns="http://www.w3.org/2000/svg"
   xmlns:svg="http://www.w3.org/2000/svg">
  <defs
     id="defs5" />
  <sodipodi:namedview
     id="namedview5"
     pagecolor="#ffffff"
     bordercolor="#000000"
     borderopacity="0.25"
     inkscape:showpageshadow="2"
     inkscape:pageopacity="0.0"
     inkscape:pagecheckerboard="0"
     inkscape:deskcolor="#d1d1d1"
     inkscape:zoom="16"
     inkscape:cx="-4.65625"
     inkscape:cy="16.15625"
     inkscape:window-width="1920"
     inkscape:window-height="1131"
     inkscape:window-x="0"
     inkscape:window-y="0"
     inkscape:window-maximized="1"
     inkscape:current-layer="svg5" />
  <path
     id="path86"
     style="color:#000000;fill:#2e3436;fill-opacity:1;stroke-width:1.22415;stroke-linecap:round;stroke-linejoin:round;stroke-miterlimit:0;-inkscape-stroke:none;paint-order:stroke fill markers"
     d="M 8.0000003,1.2e-7 C 3.6114823,1.2e-7 1.75e-7,3.6114824 1.75e-7,8 c 0,4.388518 3.611482125,8 8.000000125,8 C 12.388518,16 16,12.388518 16,8 16,6.6187592 15.642086,5.3158505 15.014943,4.1769286 l -0.03587,0.038255 v 1.317393 l -0.0024,0.028692 c 0.0013,-0.014322 -0.0012,0.012303 -0.0024,0.038255 -0.04689,0.9875437 -0.611588,1.84468 -1.424985,2.3096238 5.03e-4,0.030359 0.0024,0.060496 0.0024,0.090854 0,1.0877487 -0.320919,2.1043816 -0.870293,2.9647346 L 9.2241486,7.5074724 V 2.5893602 C 9.7167328,2.7025829 10.185855,2.8799068 10.620443,3.115362 11.06471,2.8211869 11.59464,2.6491341 12.162582,2.6491341 c 0.04995,0 0.08679,0.038197 0.136282,0.040646 V 1.2695765 C 11.053833,0.46795528 9.5774851,1.2e-7 8.0000003,1.2e-7 Z M 13.216975,0.61446498 V 3.8852362 C 12.915541,3.6834598 12.552547,3.5672453 12.162582,3.5672453 c -1.047698,0 -1.895994,0.8483212 -1.895994,1.895995 0,1.0476984 0.848296,1.8959952 1.895994,1.8959952 1.017009,0 1.848266,-0.7999687 1.895995,-1.80514 0.0011,-0.01824 0.0012,-0.036751 0.0024,-0.054991 V 2.3024516 c 0.252884,0.1510097 0.460654,0.3792008 0.662283,0.6025099 0.03783,0.041866 0.0748,0.083478 0.112377,0.1243282 l 0.91097,-0.9635393 C 15.066905,1.3374201 14.209342,0.81873868 13.217037,0.61446498 Z M 6.7758521,2.5869694 v 4.920503 L 3.3185897,10.964735 C 2.7692152,10.104382 2.4482966,9.0877488 2.4482966,8 c 0,-2.6264811 1.8618957,-4.849707 4.3275555,-5.4130306 z m 0,8.3825476 v 2.441124 C 6.1560453,13.269035 5.5755449,13.024882 5.0520028,12.693367 Z m 2.4482965,0 1.7238494,1.72385 c -0.523542,0.331515 -1.1040432,0.575668 -1.7238494,0.717274 z" />
</svg>
