<?xml version="1.0" encoding="UTF-8" standalone="no"?>
<svg
   height="16px"
   viewBox="0 0 16 16"
   width="16px"
   version="1.1"
   id="svg5"
   sodipodi:docname="cassette-wave-era-popular.svg"
   inkscape:version="1.3.2 (091e20ef0f, 2023-11-25)"
   xmlns:inkscape="http://www.inkscape.org/namespaces/inkscape"
   xmlns:sodipodi="http://sodipodi.sourceforge.net/DTD/sodipodi-0.dtd"
   xmlns="http://www.w3.org/2000/svg"
   xmlns:svg="http://www.w3.org/2000/svg">
  <defs
     id="defs5" />
  <sodipodi:namedview
     id="namedview5"
     pagecolor="#ffffff"
     bordercolor="#000000"
     borderopacity="0.25"
     inkscape:showpageshadow="2"
     inkscape:pageopacity="0.0"
     inkscape:pagecheckerboard="0"
     inkscape:deskcolor="#d1d1d1"
     inkscape:zoom="22.627417"
     inkscape:cx="7.8002717"
     inkscape:cy="11.645165"
     inkscape:window-width="1920"
     inkscape:window-height="1131"
     inkscape:window-x="0"
     inkscape:window-y="0"
     inkscape:window-maximized="1"
     inkscape:current-layer="svg5" />
  <path
     id="path121"
     style="fill:#2e3436;fill-opacity:1;fill-rule:nonzero;stroke:none;stroke-width:0.0031699"
     d="m 8.0008426,0.33781395 c -0.3962736,0 -0.7932544,0.2056507 -0.9970756,0.61853807 L 5.1344943,4.7456294 0.95302078,5.3524601 C 0.04198919,5.4849508 -0.32298302,6.6042756 0.33643394,7.2470988 L 3.3627827,10.19735 2.6486346,14.361263 c -0.1556781,0.907675 0.7965761,1.599176 1.6117112,1.170733 l 3.7404968,-1.964882 3.7385464,1.964882 c 0.815005,0.428573 1.767619,-0.262909 1.611711,-1.170733 L 12.636952,10.19735 c -0.62579,1.420894 -2.05041,2.417567 -3.6936681,2.417567 -2.2156294,0 -4.0331804,-1.817541 -4.0331804,-4.0331809 0,-2.2156094 1.817541,-4.0331804 4.0331804,-4.0331804 0.2526635,0 0.4457859,0.163725 0.6868309,0.208781 V 2.2422087 L 8.995967,0.95635202 C 8.7922956,0.54346465 8.3971161,0.33781395 8.0008426,0.33781395 Z M 12.636952,10.19735 15.6633,7.2470988 C 16.322967,6.6042756 15.958394,5.4848909 15.046713,5.3524601 L 14.096467,5.2139232 13.206709,6.1563645 12.976465,6.4061212 V 8.642224 c 0,0.046755 -0.0029,0.093504 -0.0059,0.1404882 -0.02458,0.500402 -0.141246,0.9777237 -0.333658,1.4146378 z M 10.629141,0.82952245 V 6.0588032 C 10.147002,5.7360579 9.5670256,5.5475825 8.9432839,5.5475825 c -1.6757259,0 -3.0341537,1.3584377 -3.0341537,3.0341536 0,1.6757259 1.3584278,3.0341539 3.0341537,3.0341539 1.6266641,0 2.9539161,-1.278149 3.0302511,-2.8858608 0.002,-0.029172 0.0039,-0.058734 0.0039,-0.087805 V 3.5261143 c 0.404475,0.2415144 0.735048,0.6086742 1.057563,0.9658559 0.06044,0.066935 0.121243,0.1336087 0.181464,0.1990249 L 14.67403,3.1475767 C 13.58685,1.9826727 12.216274,1.1562538 10.629141,0.82952245 Z" />
</svg>
