<?xml version="1.0" encoding="UTF-8" standalone="no"?>
<svg
   height="16px"
   viewBox="0 0 16 16"
   width="16px"
   version="1.1"
   id="svg5"
   sodipodi:docname="cassette-wave-genre-dance_music.svg"
   inkscape:version="1.3.2 (091e20ef0f, 2023-11-25)"
   xmlns:inkscape="http://www.inkscape.org/namespaces/inkscape"
   xmlns:sodipodi="http://sodipodi.sourceforge.net/DTD/sodipodi-0.dtd"
   xmlns="http://www.w3.org/2000/svg"
   xmlns:svg="http://www.w3.org/2000/svg">
  <defs
     id="defs5" />
  <sodipodi:namedview
     id="namedview5"
     pagecolor="#ffffff"
     bordercolor="#000000"
     borderopacity="0.25"
     inkscape:showpageshadow="2"
     inkscape:pageopacity="0.0"
     inkscape:pagecheckerboard="0"
     inkscape:deskcolor="#d1d1d1"
     inkscape:zoom="11.313709"
     inkscape:cx="-11.092738"
     inkscape:cy="25.234873"
     inkscape:window-width="1920"
     inkscape:window-height="1131"
     inkscape:window-x="0"
     inkscape:window-y="0"
     inkscape:window-maximized="1"
     inkscape:current-layer="svg5" />
  <path
     id="path825"
     style="fill:#2e3436;fill-opacity:1;fill-rule:nonzero;stroke:none;stroke-width:0.0169095"
     d="m 7.9999944,-5e-8 c -0.4433971,0 -0.8780321,0.036626 -1.3025974,0.1073829 0.2285501,0.1817678 0.442778,0.3795094 0.6419605,0.5929384 L 7.9112867,1.3166036 6.7464199,2.5491687 C 7.1569641,2.4492487 7.5774908,2.395963 7.9999944,2.3904293 11.097977,2.3906563 13.609341,4.9020227 13.609566,8.0000007 13.60934,11.097979 11.097977,13.609344 7.9999944,13.609571 4.9020114,13.609344 2.3906494,11.097979 2.3904223,8.0000007 2.3959203,7.7584483 2.4169441,7.5174972 2.4534579,7.2786699 1.483613,7.0077036 0.7228661,6.213182 0.5018961,5.224395 0.1776714,6.0903979 -8e-7,7.0263808 -8e-7,8.0000007 -8e-7,12.390171 3.6098315,16 8.0000005,16 12.390169,16 16.000001,12.390171 16.000001,8.0000006 16.000001,3.609843 12.390169,1.5e-7 8.0000005,1.5e-7 Z M 4.2135918,0.27545965 V 3.4689235 C 3.9192821,3.2719163 3.5648676,3.1561134 3.18412,3.1561134 c -1.0229363,0 -1.8511817,0.8306049 -1.8511817,1.8535162 0,1.0229352 0.8282454,1.8511819 1.8511817,1.8511819 0.9929699,0 1.8022461,-0.781061 1.8488475,-1.7624746 0.00108,-0.017809 0.00347,-0.035883 0.00466,-0.053691 v -3.123432 c 0.2469087,0.1474416 0.4474322,0.3725732 0.644296,0.590604 0.036932,0.040876 0.075358,0.081505 0.1120513,0.121389 L 6.6833831,1.6924423 C 6.0197366,0.98132625 5.1824434,0.47490485 4.2135918,0.27545965 Z m 4.484389,3.31485285 c -0.078107,0 -0.1389667,0.00961 -0.182084,0.028012 -0.1340971,0.057609 -1.7504204,2.0902286 -1.9819084,2.9810331 -0.078956,0.3041816 0.00502,0.7280952 0.095713,1.1765393 0.1055255,0.5252007 0.2155271,1.0685062 0.098044,1.5360372 -0.00645,0.02558 -0.015956,0.05008 -0.023343,0.0747 L 8.9757768,10.329733 C 9.1386328,10.014341 9.3200038,9.6777011 9.5010158,9.3469501 9.7832378,8.83069 10.075141,8.2980778 10.264366,7.8832791 10.613882,7.1164182 10.329566,4.3798143 10.030925,3.9964974 9.9560348,3.9005214 9.1628248,3.5903113 8.6979808,3.5903113 Z M 6.5199829,9.806829 c -0.080701,0.1390511 -0.1730025,0.269975 -0.2684571,0.403851 -0.2108538,0.295733 -0.4279251,0.601698 -0.5672596,1.062153 -0.2698794,0.892658 -0.03753,1.585463 0.6069443,1.806829 0.1718001,0.05892 0.3342549,0.08871 0.4832216,0.08871 0.8576573,0 1.3102133,-0.967669 1.9375547,-2.306392 l 0.02802,-0.06069 c 0.0091,-0.01936 0.02094,-0.04097 0.03035,-0.06069 z" />
</svg>
