<?xml version="1.0" encoding="UTF-8" standalone="no"?>
<svg
   height="16px"
   viewBox="0 0 16 16"
   width="16px"
   version="1.1"
   id="svg5"
   sodipodi:docname="cassette-wave-genre-soundtracks.svg"
   inkscape:version="1.3.2 (091e20ef0f, 2023-11-25)"
   xmlns:inkscape="http://www.inkscape.org/namespaces/inkscape"
   xmlns:sodipodi="http://sodipodi.sourceforge.net/DTD/sodipodi-0.dtd"
   xmlns="http://www.w3.org/2000/svg"
   xmlns:svg="http://www.w3.org/2000/svg">
  <defs
     id="defs5" />
  <sodipodi:namedview
     id="namedview5"
     pagecolor="#ffffff"
     bordercolor="#000000"
     borderopacity="0.25"
     inkscape:showpageshadow="2"
     inkscape:pageopacity="0.0"
     inkscape:pagecheckerboard="0"
     inkscape:deskcolor="#d1d1d1"
     inkscape:zoom="16"
     inkscape:cx="1.84375"
     inkscape:cy="7.09375"
     inkscape:window-width="1920"
     inkscape:window-height="1131"
     inkscape:window-x="0"
     inkscape:window-y="0"
     inkscape:window-maximized="1"
     inkscape:current-layer="svg5" />
  <path
     id="path23"
     style="color:#000000;fill:#2e3436;fill-opacity:1;stroke-width:1.22415;stroke-linecap:round;stroke-linejoin:round;stroke-miterlimit:0;-inkscape-stroke:none;paint-order:stroke fill markers"
     d="M 8.0000002,-1e-7 C 3.6114818,-1e-7 -1.5e-7,3.6114821 -1.5e-7,7.9999998 -1.5e-7,12.388517 3.6114818,16 8.0000002,16 12.388518,16 16,12.388517 16,7.9999998 16,3.6114821 12.388518,-1e-7 8.0000002,-1e-7 Z m 0,2.4482965 c 3.0464498,0 5.5517028,2.5052549 5.5517028,5.5517034 0,3.0464482 -2.505253,5.5517032 -5.5517028,5.5517032 -3.0464494,0 -5.5517037,-2.505255 -5.5517037,-5.5517032 0,-3.0464485 2.5052543,-5.5517034 5.5517037,-5.5517034 z M 5.6927674,3.5648531 c -0.062711,0.0014 -0.1258718,0.00677 -0.1864912,0.014346 -0.090941,0.011372 -0.1800014,0.027355 -0.2677825,0.05021 -0.047542,0.012361 -0.094596,0.027437 -0.141064,0.043036 -0.046467,0.015599 -0.093379,0.031447 -0.1386729,0.050208 C 4.686994,3.8352221 4.4393092,4.0054008 4.222355,4.2223553 3.8663845,4.5784111 3.6373887,5.0213251 3.5768081,5.5062763 c -0.053028,0.4243363 0.041903,0.9119691 0.3371189,1.2982663 0.021087,0.027592 0.041387,0.05479 0.064554,0.081291 0.023167,0.0265 0.04883,0.051221 0.074118,0.076509 0.4046137,0.4046553 0.8381728,0.5547836 1.3484759,0.6335923 0.5103143,0.078814 1.1800504,0.058421 1.7142856,-0.475792 C 7.6496052,6.5859168 7.6747657,5.9113922 7.5959354,5.4010754 7.5171301,4.8907696 7.3669786,4.4596246 6.9623431,4.054991 6.6083015,3.7009184 6.1317435,3.5550513 5.6927674,3.5648531 Z m 4.5188286,0 C 9.7995092,3.5765801 9.3640192,3.7262093 9.0352662,4.054991 8.6306302,4.4596259 8.4804791,4.8907696 8.4016739,5.4010754 8.3228439,5.911391 8.3480049,6.5859168 8.8822472,7.1201433 9.4164832,7.6543612 10.086219,7.67475 10.596533,7.5959353 11.106837,7.5171263 11.540395,7.3669983 11.945009,6.962343 12.349619,6.557736 12.481403,5.9912312 12.420801,5.5062763 12.360221,5.0213251 12.131225,4.5784123 11.775254,4.2223553 11.485981,3.933083 11.139457,3.7283074 10.759115,3.6294085 c -0.08778,-0.022855 -0.176842,-0.038825 -0.267782,-0.05021 -0.09093,-0.01136 -0.18464,-0.017051 -0.279737,-0.014345 z M 5.7405857,4.5451289 c 0.2023257,-0.00108 0.3905309,0.065346 0.5283921,0.203227 C 6.5957914,5.0751594 6.8421174,6.0042831 6.4219964,6.4243872 6.0018632,6.844503 5.0751526,6.5957982 4.7483564,6.2689777 4.4215903,5.9421967 4.4955948,5.3382362 4.9157201,4.918111 5.099511,4.7343027 5.3190746,4.616143 5.5349671,4.5690378 5.6043653,4.5539036 5.673144,4.5454888 5.7405857,4.5451289 Z m 4.5164373,0 c 0.06744,3.599e-4 0.13622,0.00878 0.205619,0.023909 0.215892,0.047105 0.435455,0.1652649 0.619247,0.3490732 0.420125,0.4201265 0.494129,1.0240857 0.167364,1.3508667 C 10.922457,6.5957981 9.9957462,6.844503 9.5756132,6.4243872 9.1554912,6.0042831 9.4018182,5.0751594 9.7286312,4.7483559 9.8664922,4.6104752 10.054698,4.5440456 10.257023,4.5451289 Z M 8.0000002,7.1392706 C 7.5004011,7.1390992 7.0949818,7.5434375 7.0938433,8.0430364 7.0936721,8.5435661 7.4994708,8.9493641 8.0000002,8.9491931 8.5005293,8.9493641 8.9039372,8.5435661 8.9037662,8.0430364 8.9026272,7.5434375 8.499599,7.1390992 8.0000002,7.1392706 Z M 5.8099223,8.3682007 C 5.666692,8.3686052 5.5286549,8.3819657 5.4010759,8.4016737 4.8907694,8.4804787 4.4572339,8.6306301 4.0526001,9.0352661 3.6479496,9.4398851 3.5162225,10.006377 3.5768081,10.491333 c 0.011372,0.09094 0.029739,0.180001 0.0526,0.267782 0.098899,0.380342 0.3036746,0.729258 0.5929468,1.018529 0.3560571,0.355972 0.7989706,0.582577 1.2839212,0.643157 0.4849557,0.06061 1.05146,-0.0688 1.4560669,-0.473402 C 7.366998,11.542785 7.5171267,11.109227 7.5959349,10.598924 7.67475,10.08861 7.6519699,9.4164821 7.117752,8.8822471 6.7170826,8.4815648 6.2396133,8.3669874 5.8099223,8.3682007 Z m 4.3777647,0 C 9.7579962,8.3669907 9.2805262,8.4815647 8.8798572,8.8822471 8.3456387,9.4164821 8.3228588,10.08861 8.4016739,10.598924 c 0.078809,0.510303 0.2289373,0.943863 0.6335923,1.348475 0.202303,0.202306 0.445091,0.335601 0.698147,0.411238 0.03163,0.0094 0.06375,0.01626 0.09564,0.02391 0.127544,0.03063 0.2557308,0.0491 0.3825468,0.0526 0.09511,0.0026 0.188808,-0.0029 0.279737,-0.01435 0.484951,-0.06058 0.927864,-0.287186 1.283921,-0.643157 0.289272,-0.289271 0.494046,-0.638188 0.592946,-1.018529 0.02286,-0.08778 0.04123,-0.176842 0.0526,-0.267783 0.06058,-0.484954 -0.07114,-1.0514459 -0.475793,-1.4560649 -0.404634,-0.404636 -0.83817,-0.5547872 -1.348476,-0.6335926 -0.127579,-0.019708 -0.265616,-0.033068 -0.408846,-0.033473 z M 5.7955768,9.3532571 c 0.2421582,7.24e-4 0.4712715,0.06481 0.6288105,0.222355 0.4201159,0.420134 0.171411,1.3492349 -0.1554094,1.6760319 C 5.9421965,11.578409 5.3358457,11.504405 4.9157201,11.084279 4.7319122,10.900488 4.6137471,10.680925 4.5666467,10.465033 4.5061107,10.187438 4.5621267,9.9148371 4.7459652,9.7310221 4.9502174,9.5267631 5.3919795,9.3520521 5.7955768,9.3532571 Z m 4.4064552,0 c 0.403597,-0.0012 0.84536,0.173506 1.049612,0.377765 0.183841,0.183815 0.239854,0.4564159 0.179318,0.7340109 -0.04711,0.215892 -0.165265,0.435455 -0.349073,0.619246 -0.420126,0.420126 -1.026476,0.49413 -1.3532579,0.167365 -0.32682,-0.326797 -0.575525,-1.2558979 -0.155409,-1.6760319 0.157539,-0.157545 0.386652,-0.221631 0.6288099,-0.222355 z" />
</svg>
