<?xml version="1.0" encoding="UTF-8" standalone="no"?>
<svg
   height="16px"
   viewBox="0 0 16 16"
   width="16px"
   version="1.1"
   id="svg5"
   sodipodi:docname="cassette-wave-era-2010s.svg"
   inkscape:version="1.3.2 (091e20ef0f, 2023-11-25)"
   xmlns:inkscape="http://www.inkscape.org/namespaces/inkscape"
   xmlns:sodipodi="http://sodipodi.sourceforge.net/DTD/sodipodi-0.dtd"
   xmlns="http://www.w3.org/2000/svg"
   xmlns:svg="http://www.w3.org/2000/svg">
  <defs
     id="defs5" />
  <sodipodi:namedview
     id="namedview5"
     pagecolor="#ffffff"
     bordercolor="#000000"
     borderopacity="0.25"
     inkscape:showpageshadow="2"
     inkscape:pageopacity="0.0"
     inkscape:pagecheckerboard="0"
     inkscape:deskcolor="#d1d1d1"
     inkscape:zoom="22.627417"
     inkscape:cx="7.4467183"
     inkscape:cy="16.241359"
     inkscape:window-width="1920"
     inkscape:window-height="1131"
     inkscape:window-x="0"
     inkscape:window-y="0"
     inkscape:window-maximized="1"
     inkscape:current-layer="svg5" />
  <path
     id="path57"
     style="color:#000000;-inkscape-font-specification:Nasalization;fill:#2e3436;fill-opacity:1;stroke-width:1.0828;stroke-linecap:round;stroke-linejoin:round;stroke-miterlimit:0;-inkscape-stroke:none;paint-order:stroke fill markers"
     d="M 1.1933303,8.5994444e-7 A 0.98565307,1.1310178 0 0 0 0.20595831,1.1312139 v 2.40159 a 0.98565307,1.1310178 0 0 0 0.98737199,1.131212 h 3.3817011 c 0.021384,0.08448 0.053891,0.158966 0.053891,0.395627 0,0.210398 -0.026216,0.300034 -0.03272,0.324056 L 1.9805327,6.6858849 C 1.2304208,7.0551759 0.64027413,7.7889219 0.35415965,8.6560629 0.06805502,9.5233069 1.4525e-5,10.493148 1.4525e-5,11.671968 v 2.075546 c 0,0.473218 0.028558495,0.908024 0.246361825,1.375746 0.21778364,0.467721 0.79167245,0.876739 1.26452915,0.876739 h 5.0292461 a 0.98565307,1.1310178 0 0 0 0.9854473,-1.131212 v -2.40159 A 0.98565307,1.1310178 0 0 0 6.5401516,11.333996 H 3.0872369 c 0.00788,-0.16785 0.016054,-0.316892 0.025021,-0.363817 L 5.6259184,9.7415509 a 0.98565307,1.1310178 0 0 0 0.0077,0 c 0.7078067,-0.353412 1.2918805,-1.01442 1.6186742,-1.836978 0.3267937,-0.822456 0.4407567,-1.767753 0.4407567,-2.880716 0,-1.378632 -0.1658771,-2.521693 -0.619754,-3.445328 C 6.6194086,0.65479286 5.7386883,0.00596486 4.809846,0.00596486 Z m 12.6183447,0 c -0.651755,0 -1.2341,0.24857400005556 -1.622524,0.75347900005556 -0.626231,0.81405904 -0.680385,3.18536704 -0.002,4.06759404 0.387911,0.504417 0.970279,0.755468 1.624449,0.755468 0.654158,0 1.240376,-0.251051 1.628298,-0.755468 0.38791,-0.504406 0.560087,-1.206723 0.560087,-2.029821 0,-0.826752 -0.173599,-1.532858 -0.562013,-2.03777304 C 15.049549,0.24857486 14.463344,8.5994444e-7 13.8116,8.5994444e-7 Z M 8.8113,0.06760086 c -0.2422129,-1.42e-4 -0.4386842,0.225047 -0.438832,0.502983 V 1.3459319 c 1.478e-4,0.277934 0.1966191,0.503124 0.438832,0.502981 h 0.1924702 v 1.880716 H 8.8113 c -0.2422129,-1.44e-4 -0.4386842,0.225044 -0.438832,0.50298 v 0.775348 c 1.478e-4,0.277936 0.1966191,0.503124 0.438832,0.502982 h 0.4080368 c 0.055994,0 0.1110188,-0.0024 0.1655243,-0.006 0.017938,0.0026 0.037266,0.0059 0.055817,0.006 h 0.6774949 c 0.02175,1.4e-5 0.04261,-0.0024 0.06351,-0.006 0.05444,0.0036 0.1096,0.006 0.165524,0.006 h 0.408036 c 0.242213,1.42e-4 0.438685,-0.225046 0.438833,-0.502982 v -0.775348 c -1.48e-4,-0.277936 -0.19662,-0.503124 -0.438833,-0.502982 h -0.19247 V 0.57058186 c -1.41e-4,-0.262769 -0.176247,-0.478493 -0.400338,-0.500995 -0.01218,-0.0014 -0.02411,-0.0017 -0.03657,-0.002 h -0.0077 -0.6774952 c -0.020525,9.1e-5 -0.041824,7.58e-4 -0.06159,0.004 -0.052553,-0.0033 -0.1058242,-0.004 -0.1597503,-0.004 z m 5.000375,1.71570604 c 0.291583,0 0.399038,0.06799 0.481175,0.184891 0.08209,0.116946 0.157825,0.372941 0.157825,0.817097 0,0.448931 -0.07647,0.706493 -0.157825,0.823062 -0.0812,0.116579 -0.186084,0.186879 -0.481175,0.186879 -0.295102,0 -0.398704,-0.06961 -0.481176,-0.186879 -0.08248,-0.117323 -0.161675,-0.37521 -0.161675,-0.823062 0,-0.444167 0.07736,-0.698316 0.15975,-0.815109 0.08238,-0.116803 0.187999,-0.186879 0.483101,-0.186879 z m -5.1755229,3.96421 a 0.82573886,0.94751932 0 0 0 -0.825697,0.950298 v 8.3538761 a 0.82573886,0.94751932 0 0 0 0.825697,0.94831 h 1.2741526 a 0.82573886,0.94751932 0 0 0 0.8256963,-0.94831 v -2.532803 c 0.514649,0.01221 0.870015,0.05602 0.925782,0.0835 0.06326,0.03156 0.07097,0.01836 0.244437,0.405567 l 1.108628,2.477137 a 0.82573886,0.94751932 0 0 0 0.735237,0.512922 h 1.422354 a 0.82573886,0.94751932 0 0 0 0.735236,-1.381709 L 14.733607,11.994038 C 14.501229,11.4741 14.27373,11.03698 13.952178,10.667995 c -0.03597,-0.04173 -0.09261,-0.04681 -0.13088,-0.08549 0.228436,-0.307199 0.569751,-0.4948 0.729462,-0.8608341 h 0.002 l 1.143273,-2.596421 a 0.82573886,0.94751932 0 0 0 -0.737161,-1.375746 h -1.370388 a 0.82573886,0.94751932 0 0 0 -0.735235,0.518887 l -1.110554,2.499005 c -0.18342,0.409193 -0.220641,0.428886 -0.246362,0.44334 -0.02227,0.01222 -0.325875,0.05533 -0.762181,0.06958 V 6.6998009 A 0.82573886,0.94751932 0 0 0 9.9103047,5.7495029 Z" />
</svg>
