<?xml version="1.0" encoding="UTF-8" standalone="no"?>
<svg
   height="16px"
   viewBox="0 0 16 16"
   width="16px"
   version="1.1"
   id="svg5"
   sodipodi:docname="cassette-wave-mood-beauty.svg"
   inkscape:version="1.3.2 (091e20ef0f, 2023-11-25)"
   xmlns:inkscape="http://www.inkscape.org/namespaces/inkscape"
   xmlns:sodipodi="http://sodipodi.sourceforge.net/DTD/sodipodi-0.dtd"
   xmlns="http://www.w3.org/2000/svg"
   xmlns:svg="http://www.w3.org/2000/svg">
  <defs
     id="defs5" />
  <sodipodi:namedview
     id="namedview5"
     pagecolor="#ffffff"
     bordercolor="#000000"
     borderopacity="0.25"
     inkscape:showpageshadow="2"
     inkscape:pageopacity="0.0"
     inkscape:pagecheckerboard="0"
     inkscape:deskcolor="#d1d1d1"
     inkscape:zoom="32"
     inkscape:cx="7.078125"
     inkscape:cy="10.109375"
     inkscape:window-width="1920"
     inkscape:window-height="1131"
     inkscape:window-x="0"
     inkscape:window-y="0"
     inkscape:window-maximized="1"
     inkscape:current-layer="svg5" />
  <path
     id="path1188"
     style="fill:#2e3436;fill-opacity:1;stroke-width:3.60346;paint-order:stroke markers fill"
     d="M 8.0019531 0 C 3.5981717 0 -1.1842367e-15 3.6160463 0 8.0019531 C 0 12.387851 3.5981717 16 8.0019531 16 C 12.405714 16 16.00001 12.38785 16 8.0019531 C 16 3.6160463 12.405714 -1.1842367e-15 8.0019531 0 z M 8.0019531 1.9550781 C 11.333302 1.9552955 14.031784 4.6632622 14.03125 8.0019531 C 14.030693 11.339872 11.33253 14.044705 8.0019531 14.044922 C 4.6705981 14.045808 1.9693073 11.340652 1.96875 8.0019531 C 1.9682157 4.662482 4.6698264 1.954192 8.0019531 1.9550781 z M 7.9277344 3.0449219 C 7.9188444 3.0449219 7.9109447 3.0461139 7.9023438 3.046875 C 7.1605237 3.083663 7.1074219 5.0301404 7.1074219 5.1777344 C 7.1074219 5.1844544 7.1086974 5.2154809 7.109375 5.2324219 C 7.1088926 5.2494209 7.1074219 5.2823385 7.1074219 5.2890625 L 7.109375 5.2890625 C 7.109375 5.4366566 7.1605412 7.3831435 7.9023438 7.4199219 C 7.9092037 7.4205612 7.9168541 7.421585 7.9238281 7.421875 C 7.9267381 7.421875 7.9271875 7.4218947 7.9296875 7.421875 C 7.9325975 7.4219279 7.93552 7.421875 7.9375 7.421875 C 7.955168 7.421875 7.9729154 7.4212619 7.9902344 7.4199219 C 7.9937244 7.419683 7.99692 7.4183207 8 7.4179688 C 8.00349 7.4182941 8.0063986 7.4195699 8.0097656 7.4199219 C 8.0271426 7.4212619 8.04489 7.421875 8.0625 7.421875 C 8.06541 7.421875 8.0683325 7.4219279 8.0703125 7.421875 C 8.0720525 7.4218947 8.0736719 7.421875 8.0761719 7.421875 C 8.0832619 7.4216245 8.0907993 7.420683 8.0976562 7.4199219 C 8.8394821 7.3831389 8.8925781 5.4366566 8.8925781 5.2890625 C 8.8925781 5.2823425 8.8913026 5.2494269 8.890625 5.2324219 C 8.8910493 5.2154869 8.8925781 5.1844584 8.8925781 5.1777344 C 8.8925781 5.0301404 8.8394588 3.0836668 8.0976562 3.046875 C 8.0890563 3.0462357 8.0810996 3.0449219 8.0722656 3.0449219 C 8.0687756 3.0448493 8.06558 3.0449219 8.0625 3.0449219 C 8.04274 3.0449184 8.0251544 3.0451268 8.0058594 3.046875 C 8.0041194 3.0467018 8.00232 3.0470348 8 3.046875 C 7.99884 3.046997 7.9953006 3.0467448 7.9941406 3.046875 C 7.9748456 3.045135 7.95726 3.0449219 7.9375 3.0449219 C 7.93401 3.0449219 7.9308144 3.0448493 7.9277344 3.0449219 z M 5.6132812 5.40625 C 5.5690274 5.4061961 5.5297983 5.4185148 5.4980469 5.4472656 C 5.4958269 5.4491556 5.4944875 5.450825 5.4921875 5.453125 C 5.4913467 5.453928 5.4891112 5.4542481 5.4882812 5.4550781 C 5.4831413 5.4602181 5.4791934 5.4671303 5.4746094 5.4726562 L 5.4726562 5.4726562 L 5.4726562 5.4746094 C 5.4671863 5.4791694 5.4602561 5.4831073 5.4550781 5.4882812 C 5.4542562 5.4891031 5.453935 5.4913375 5.453125 5.4921875 C 5.450655 5.4946575 5.4492856 5.4956269 5.4472656 5.4980469 C 5.2632665 5.7012457 5.7583557 6.2231995 5.796875 6.2617188 C 5.798645 6.2634887 5.8059479 6.2731028 5.8105469 6.2773438 C 5.8148569 6.2819137 5.8224638 6.2892606 5.8242188 6.2910156 L 5.8261719 6.2910156 C 5.8646898 6.3295346 6.3866385 6.824634 6.5898438 6.640625 C 6.5916537 6.639145 6.5939431 6.6363656 6.5957031 6.6347656 L 6.5957031 6.6328125 C 6.596539 6.6320046 6.5991994 6.6312694 6.5996094 6.6308594 C 6.6042094 6.6262594 6.6071701 6.6220735 6.6113281 6.6171875 C 6.612088 6.6163035 6.6125513 6.6141912 6.6132812 6.6132812 C 6.6141878 6.612544 6.6158575 6.6124681 6.6171875 6.6113281 C 6.6220575 6.6071581 6.6262534 6.6022542 6.6308594 6.5976562 L 6.6328125 6.5957031 L 6.6347656 6.59375 C 6.6367556 6.59163 6.639145 6.5897706 6.640625 6.5878906 C 6.8246403 6.3846656 6.3295349 5.862738 6.2910156 5.8242188 C 6.2892485 5.8224517 6.2819587 5.8148085 6.2773438 5.8105469 C 6.2730329 5.8060141 6.2634735 5.7986298 6.2617188 5.796875 C 6.2292189 5.7643751 5.8522521 5.4065409 5.6132812 5.40625 z M 10.386719 5.40625 C 10.147701 5.4065559 9.7707819 5.7643744 9.7382812 5.796875 C 9.7365113 5.798645 9.7288504 5.8059479 9.7246094 5.8105469 C 9.7200394 5.8148569 9.7107394 5.8224638 9.7089844 5.8242188 L 9.7089844 5.8261719 C 9.6704654 5.8646908 9.175366 6.3866385 9.359375 6.5898438 C 9.360855 6.5916537 9.3636344 6.5939431 9.3652344 6.5957031 L 9.3671875 6.5957031 L 9.3691406 6.5976562 C 9.3737406 6.6022562 9.3779265 6.6071701 9.3828125 6.6113281 C 9.3836965 6.612088 9.3858088 6.6125513 9.3867188 6.6132812 C 9.387456 6.6141878 9.3875319 6.6158575 9.3886719 6.6171875 C 9.3928419 6.6220575 9.3977458 6.6262534 9.4023438 6.6308594 L 9.4042969 6.6328125 L 9.40625 6.6347656 C 9.40837 6.6367556 9.4102294 6.639145 9.4121094 6.640625 C 9.6153082 6.8246241 10.137262 6.3295349 10.175781 6.2910156 C 10.177581 6.2892456 10.185213 6.2800056 10.189453 6.2753906 C 10.193953 6.2710806 10.201365 6.2634737 10.203125 6.2617188 C 10.241645 6.2232008 10.73674 5.701256 10.552734 5.4980469 C 10.550834 5.4958269 10.549175 5.4944875 10.546875 5.4921875 C 10.546072 5.4913467 10.545822 5.4891112 10.544922 5.4882812 C 10.539822 5.4831413 10.534817 5.4791934 10.529297 5.4746094 L 10.527344 5.4726562 L 10.525391 5.4707031 C 10.520791 5.4652331 10.516939 5.4602561 10.511719 5.4550781 C 10.510897 5.4542562 10.508712 5.453935 10.507812 5.453125 C 10.505313 5.450655 10.504353 5.4492856 10.501953 5.4472656 C 10.47019 5.4185191 10.430981 5.4061934 10.386719 5.40625 z M 5.1777344 7.1074219 L 5.1777344 7.109375 C 5.0301404 7.109375 3.0836534 7.1605412 3.046875 7.9023438 C 3.0462358 7.9092037 3.0452119 7.9168541 3.0449219 7.9238281 C 3.0449219 7.9267381 3.0449022 7.9271875 3.0449219 7.9296875 C 3.0448691 7.9325975 3.0449219 7.93552 3.0449219 7.9375 C 3.0449219 7.955168 3.045535 7.9729154 3.046875 7.9902344 C 3.0471139 7.9937244 3.0484761 7.99692 3.0488281 8 C 3.0485027 8.00349 3.047227 8.0063986 3.046875 8.0097656 C 3.045535 8.0271426 3.0449219 8.04489 3.0449219 8.0625 C 3.0449219 8.06541 3.0448691 8.0683325 3.0449219 8.0703125 C 3.0449022 8.0720525 3.0449219 8.0736719 3.0449219 8.0761719 C 3.0451724 8.0832619 3.0461139 8.0907993 3.046875 8.0976562 C 3.083657 8.8394821 5.0301404 8.8925781 5.1777344 8.8925781 C 5.1844544 8.8925781 5.2154169 8.8913026 5.2324219 8.890625 C 5.2493569 8.8910493 5.2823385 8.8925781 5.2890625 8.8925781 C 5.4366565 8.8925781 7.3831302 8.8394588 7.4199219 8.0976562 C 7.4205612 8.0890563 7.421875 8.0810996 7.421875 8.0722656 C 7.4219476 8.0687756 7.421875 8.06558 7.421875 8.0625 C 7.4218785 8.04274 7.4216701 8.0251544 7.4199219 8.0058594 C 7.4200951 8.0041194 7.4197621 8.00232 7.4199219 8 C 7.4197999 7.99884 7.4200521 7.9953006 7.4199219 7.9941406 C 7.4216619 7.9748456 7.421875 7.95726 7.421875 7.9375 C 7.421875 7.93401 7.4219476 7.9308144 7.421875 7.9277344 C 7.421875 7.9188444 7.420683 7.9109447 7.4199219 7.9023438 C 7.3831329 7.1605155 5.4366565 7.1074219 5.2890625 7.1074219 C 5.2823425 7.1074219 5.2493629 7.1086974 5.2324219 7.109375 C 5.2154229 7.1088926 5.1844584 7.1074219 5.1777344 7.1074219 z M 10.710938 7.1074219 L 10.710938 7.109375 C 10.563344 7.109375 8.6168565 7.1605412 8.5800781 7.9023438 C 8.5794388 7.9092037 8.578415 7.9168541 8.578125 7.9238281 C 8.578125 7.9267381 8.5781053 7.9271875 8.578125 7.9296875 C 8.5780721 7.9325975 8.578125 7.93552 8.578125 7.9375 C 8.578125 7.955168 8.5787381 7.9729154 8.5800781 7.9902344 C 8.580317 7.9937244 8.5816793 7.99692 8.5820312 8 C 8.5817059 8.00349 8.5804301 8.0063986 8.5800781 8.0097656 C 8.5787381 8.0271426 8.578125 8.04489 8.578125 8.0625 C 8.578125 8.06541 8.5780721 8.0683325 8.578125 8.0703125 C 8.5781053 8.0720525 8.578125 8.0736719 8.578125 8.0761719 C 8.5783755 8.0832619 8.579317 8.0907993 8.5800781 8.0976562 C 8.6168601 8.8394821 10.563344 8.8925781 10.710938 8.8925781 C 10.717637 8.8925781 10.750578 8.8913026 10.767578 8.890625 C 10.784518 8.8910493 10.815546 8.8925781 10.822266 8.8925781 C 10.969859 8.8925781 12.916333 8.8394588 12.953125 8.0976562 C 12.953764 8.0890563 12.955078 8.0810996 12.955078 8.0722656 C 12.955151 8.0687756 12.955078 8.06558 12.955078 8.0625 C 12.955082 8.04274 12.954854 8.0251544 12.953125 8.0058594 C 12.953298 8.0041194 12.952965 8.00232 12.953125 8 C 12.953003 7.99884 12.953255 7.9953006 12.953125 7.9941406 C 12.954825 7.9748456 12.955078 7.95726 12.955078 7.9375 C 12.955078 7.93401 12.955151 7.9308144 12.955078 7.9277344 C 12.955078 7.9188444 12.953846 7.9109447 12.953125 7.9023438 C 12.916335 7.1605237 10.969859 7.1074219 10.822266 7.1074219 C 10.815566 7.1074219 10.784518 7.1086974 10.767578 7.109375 C 10.750578 7.1088926 10.717657 7.1074219 10.710938 7.1074219 z M 7.9277344 8.578125 C 7.9188444 8.578125 7.9109447 8.579317 7.9023438 8.5800781 C 7.1605237 8.6168661 7.1074219 10.563344 7.1074219 10.710938 C 7.1074219 10.717637 7.1086974 10.750638 7.109375 10.767578 C 7.1088926 10.784578 7.1074219 10.815546 7.1074219 10.822266 L 7.109375 10.822266 C 7.109375 10.969859 7.1605412 12.916346 7.9023438 12.953125 C 7.9092037 12.953764 7.9168541 12.954778 7.9238281 12.955078 C 7.9267381 12.955078 7.9271875 12.955097 7.9296875 12.955078 C 7.9325975 12.95513 7.93552 12.955078 7.9375 12.955078 C 7.955168 12.955078 7.9729154 12.954425 7.9902344 12.953125 C 7.9937244 12.952886 7.99692 12.951484 8 12.951172 C 8.00349 12.951497 8.0063986 12.952813 8.0097656 12.953125 C 8.0271426 12.954425 8.04489 12.955078 8.0625 12.955078 C 8.06541 12.955078 8.0683325 12.95513 8.0703125 12.955078 C 8.0720525 12.955097 8.0736719 12.955078 8.0761719 12.955078 C 8.0832619 12.954827 8.0907993 12.953846 8.0976562 12.953125 C 8.8394821 12.916345 8.8925781 10.969859 8.8925781 10.822266 C 8.8925781 10.815566 8.8913026 10.784578 8.890625 10.767578 C 8.8910493 10.750638 8.8925781 10.717657 8.8925781 10.710938 C 8.8925781 10.563344 8.8394588 8.6168698 8.0976562 8.5800781 C 8.0890563 8.5794388 8.0810996 8.578125 8.0722656 8.578125 C 8.0687756 8.5780524 8.06558 8.578125 8.0625 8.578125 C 8.04274 8.5781215 8.0251544 8.5783299 8.0058594 8.5800781 C 8.0041194 8.5799049 8.00232 8.5802379 8 8.5800781 C 7.99884 8.5802001 7.9953006 8.5799479 7.9941406 8.5800781 C 7.9748456 8.5783381 7.95726 8.578125 7.9375 8.578125 C 7.93401 8.578125 7.9308144 8.5780524 7.9277344 8.578125 z M 6.4726562 9.3183594 C 6.2336895 9.3186525 5.8567194 9.6764837 5.8242188 9.7089844 C 5.8224488 9.7107544 5.8147879 9.7180573 5.8105469 9.7226562 C 5.8059769 9.7269662 5.79863 9.7365263 5.796875 9.7382812 C 5.758357 9.7767992 5.2632566 10.298748 5.4472656 10.501953 C 5.4487456 10.503753 5.451525 10.506113 5.453125 10.507812 L 5.4550781 10.509766 L 5.4570312 10.511719 C 5.4616312 10.516319 5.4658171 10.519268 5.4707031 10.523438 C 5.471587 10.524197 5.4717463 10.526644 5.4726562 10.527344 C 5.4733934 10.52825 5.4754225 10.527997 5.4765625 10.529297 C 5.4807325 10.534197 5.4836833 10.540352 5.4882812 10.544922 L 5.4902344 10.546875 L 5.4921875 10.548828 C 5.4943075 10.550828 5.4961669 10.551234 5.4980469 10.552734 C 5.7012457 10.736734 6.2231995 10.241645 6.2617188 10.203125 C 6.2634887 10.201325 6.2711296 10.194073 6.2753906 10.189453 C 6.2799206 10.185153 6.2892606 10.177531 6.2910156 10.175781 C 6.3295346 10.137261 6.8246303 9.6153185 6.640625 9.4121094 C 6.638735 9.4098894 6.6351125 9.4065969 6.6328125 9.4042969 L 6.6308594 9.4023438 C 6.6257194 9.3972038 6.6207604 9.3913027 6.6152344 9.3867188 L 6.6132812 9.3847656 C 6.6087213 9.3792956 6.6028302 9.3743186 6.5976562 9.3691406 C 6.5968344 9.3683187 6.5965531 9.3660444 6.5957031 9.3652344 C 6.5932331 9.3627644 6.5903106 9.361395 6.5878906 9.359375 C 6.5561408 9.3306251 6.5169094 9.3183051 6.4726562 9.3183594 z M 9.5273438 9.3183594 C 9.48309 9.3183055 9.4438608 9.3306242 9.4121094 9.359375 C 9.4098894 9.361265 9.4065969 9.3648875 9.4042969 9.3671875 L 9.4023438 9.3691406 C 9.3972038 9.3742806 9.3913027 9.3792396 9.3867188 9.3847656 L 9.3867188 9.3867188 L 9.3847656 9.3886719 C 9.3792956 9.3932319 9.3743186 9.3971698 9.3691406 9.4023438 L 9.3671875 9.4042969 C 9.3647175 9.4067669 9.361395 9.4096894 9.359375 9.4121094 C 9.1753759 9.6153082 9.6704651 10.137262 9.7089844 10.175781 C 9.7107544 10.177581 9.7200104 10.185213 9.7246094 10.189453 C 9.7286142 10.193727 9.7358658 10.200666 9.7382812 10.203125 C 9.7768002 10.241645 10.298748 10.736743 10.501953 10.552734 C 10.503753 10.551234 10.506113 10.548475 10.507812 10.546875 L 10.509766 10.546875 L 10.511719 10.544922 C 10.516319 10.540322 10.521221 10.534167 10.525391 10.529297 L 10.527344 10.527344 C 10.52825 10.526607 10.527997 10.524537 10.529297 10.523438 C 10.534197 10.519238 10.540362 10.516289 10.544922 10.511719 L 10.546875 10.509766 L 10.548828 10.507812 C 10.550828 10.505713 10.551234 10.503853 10.552734 10.501953 C 10.736734 10.298754 10.241645 9.7768005 10.203125 9.7382812 C 10.201325 9.7365113 10.194073 9.7288704 10.189453 9.7246094 C 10.185153 9.7200794 10.177531 9.7107394 10.175781 9.7089844 C 10.14328 9.676484 9.7663142 9.3186502 9.5273438 9.3183594 z " />
</svg>
