<?xml version="1.0" encoding="UTF-8" standalone="no"?>
<svg
   height="16px"
   viewBox="0 0 16 16"
   width="16px"
   version="1.1"
   id="svg5"
   sodipodi:docname="cassette-wave-classes-workout.svg"
   inkscape:version="1.3.2 (091e20ef0f, 2023-11-25)"
   xmlns:inkscape="http://www.inkscape.org/namespaces/inkscape"
   xmlns:sodipodi="http://sodipodi.sourceforge.net/DTD/sodipodi-0.dtd"
   xmlns="http://www.w3.org/2000/svg"
   xmlns:svg="http://www.w3.org/2000/svg">
  <defs
     id="defs5" />
  <sodipodi:namedview
     id="namedview5"
     pagecolor="#ffffff"
     bordercolor="#000000"
     borderopacity="0.25"
     inkscape:showpageshadow="2"
     inkscape:pageopacity="0.0"
     inkscape:pagecheckerboard="0"
     inkscape:deskcolor="#d1d1d1"
     inkscape:zoom="14.738757"
     inkscape:cx="-1.3230424"
     inkscape:cy="12.110926"
     inkscape:window-width="1920"
     inkscape:window-height="1131"
     inkscape:window-x="0"
     inkscape:window-y="0"
     inkscape:window-maximized="1"
     inkscape:current-layer="svg5" />
  <path
     id="path1617"
     style="fill:#2e3436;fill-opacity:1;stroke-width:3.76123;paint-order:stroke markers fill"
     d="M 10.927734 0 C 10.676064 -0.0094677929 10.44337 0.068348786 10.273438 0.23828125 L 10.173828 0.33789062 C 9.9493462 0.5623705 9.8874966 0.89876972 9.9726562 1.2402344 C 9.6310337 1.1549038 9.2948932 1.2168256 9.0703125 1.4414062 L 8.9707031 1.5410156 C 8.7673726 1.7443461 8.6982001 2.0382333 8.75 2.3457031 C 8.4425303 2.2939031 8.1486433 2.3630755 7.9453125 2.5664062 L 7.8457031 2.6660156 C 7.4572867 3.0544319 7.5526883 3.7753444 8.0605469 4.2832031 L 9.0878906 5.3105469 L 5.3105469 9.0878906 L 4.2832031 8.0605469 C 3.7753445 7.5526883 3.0544327 7.457286 2.6660156 7.8457031 L 2.5664062 7.9453125 C 2.3419517 8.1697671 2.2801173 8.5042783 2.3652344 8.8457031 C 2.0238097 8.760586 1.6892987 8.8224201 1.4648438 9.046875 L 1.3632812 9.1464844 C 1.1596931 9.3500725 1.0923553 9.6452332 1.1445312 9.953125 C 0.83663951 9.900949 0.54147904 9.9702396 0.33789062 10.173828 L 0.23828125 10.273438 C -0.15013515 10.661854 -0.054733642 11.382767 0.453125 11.890625 L 1.4804688 12.917969 L 1.3847656 13.013672 C 0.99634389 13.402093 0.9963512 14.027602 1.3847656 14.416016 L 1.484375 14.515625 C 1.8727894 14.90404 2.498297 14.904047 2.8867188 14.515625 L 2.9824219 14.419922 L 4.109375 15.546875 C 4.6172337 16.054733 5.3381461 16.150135 5.7265625 15.761719 L 5.8261719 15.662109 C 6.0297603 15.458521 6.099051 15.16336 6.046875 14.855469 C 6.3547668 14.907645 6.6499276 14.840306 6.8535156 14.636719 L 6.953125 14.535156 C 7.17758 14.310699 7.239414 13.976191 7.1542969 13.634766 C 7.4957217 13.719883 7.830233 13.658048 8.0546875 13.433594 L 8.1542969 13.333984 C 8.5427141 12.945564 8.4473117 12.224655 7.9394531 11.716797 L 6.8125 10.589844 L 10.589844 6.8125 L 11.716797 7.9394531 C 12.224655 8.4473118 12.945569 8.5427132 13.333984 8.1542969 L 13.433594 8.0546875 C 13.636926 7.8513566 13.706096 7.5574698 13.654297 7.25 C 13.961767 7.3017999 14.255654 7.2326273 14.458984 7.0292969 L 14.558594 6.9296875 C 14.783176 6.7051068 14.845096 6.3689662 14.759766 6.0273438 C 15.10123 6.1125037 15.43763 6.0506517 15.662109 5.8261719 L 15.761719 5.7265625 C 16.150139 5.3381453 16.054733 4.6172336 15.546875 4.109375 L 14.419922 2.9824219 L 14.515625 2.8867188 C 14.90404 2.4983043 14.90404 1.8727887 14.515625 1.484375 L 14.416016 1.3847656 C 14.027602 0.99635124 13.402086 0.99635058 13.013672 1.3847656 L 12.917969 1.4804688 L 11.890625 0.453125 C 11.604955 0.16745451 11.25131 0.012172877 10.927734 0 z " />
</svg>
