<?xml version="1.0" encoding="UTF-8" standalone="no"?>
<svg
   height="16px"
   viewBox="0 0 16 16"
   width="16px"
   version="1.1"
   id="svg5"
   sodipodi:docname="cassette-wave-mood-mystic.svg"
   inkscape:version="1.3.2 (091e20ef0f, 2023-11-25)"
   xmlns:inkscape="http://www.inkscape.org/namespaces/inkscape"
   xmlns:sodipodi="http://sodipodi.sourceforge.net/DTD/sodipodi-0.dtd"
   xmlns="http://www.w3.org/2000/svg"
   xmlns:svg="http://www.w3.org/2000/svg">
  <defs
     id="defs5" />
  <sodipodi:namedview
     id="namedview5"
     pagecolor="#ffffff"
     bordercolor="#000000"
     borderopacity="0.25"
     inkscape:showpageshadow="2"
     inkscape:pageopacity="0.0"
     inkscape:pagecheckerboard="0"
     inkscape:deskcolor="#d1d1d1"
     inkscape:zoom="11.313709"
     inkscape:cx="-0.3093592"
     inkscape:cy="5.2591065"
     inkscape:window-width="1920"
     inkscape:window-height="1131"
     inkscape:window-x="0"
     inkscape:window-y="0"
     inkscape:window-maximized="1"
     inkscape:current-layer="svg5" />
  <path
     id="path1360"
     style="color:#000000;fill:#2e3436;fill-opacity:1;stroke-width:1.01752;stroke-linecap:round;stroke-linejoin:round;stroke-miterlimit:0;-inkscape-stroke:none;paint-order:stroke fill markers"
     d="M 1.6660156 0 C 1.1488161 -7.4014794e-17 0.73242187 0.41638427 0.73242188 0.93359375 L 0.73242188 4.625 C 0.73242188 4.6408335 0.73360359 4.6562396 0.734375 4.671875 C 0.26417571 5.6882854 0 6.8168804 0 8.0019531 C 0 12.387856 3.5981673 16 8.0019531 16 C 12.405718 16 16.00001 12.387854 16 8.0019531 C 16 6.8168804 15.735614 5.6882854 15.265625 4.671875 C 15.266396 4.6562396 15.267578 4.6408335 15.267578 4.625 L 15.267578 0.93359375 C 15.267578 0.41638427 14.851184 -7.4014794e-17 14.333984 0 L 14.201172 0 C 13.930802 0 13.693958 0.12034518 13.517578 0.296875 L 12.576172 1.2402344 C 12.53564 1.2807966 12.499317 1.3262263 12.46875 1.375 C 11.191434 0.50770722 9.6539309 -4.4424097e-16 8.0019531 0 C 6.3505335 0 4.8086567 0.50825002 3.53125 1.375 C 3.5006828 1.3262263 3.4643596 1.2807966 3.4238281 1.2402344 L 2.4824219 0.296875 C 2.306042 0.12034518 2.069198 0 1.7988281 0 L 1.6660156 0 z M 8.0019531 1.9550781 C 11.333305 1.9552955 14.031784 4.663259 14.03125 8.0019531 C 14.030693 11.339874 11.332533 14.044705 8.0019531 14.044922 C 4.6705947 14.045808 1.9693072 11.340655 1.96875 8.0019531 C 1.968216 4.6624787 4.6698232 1.954192 8.0019531 1.9550781 z M 5.4257812 4.5253906 A 1.4384522 1.4384522 0 0 0 3.9882812 5.9648438 A 1.4384522 1.4384522 0 0 0 5.4257812 7.4023438 A 1.4384522 1.4384522 0 0 0 6.8652344 5.9648438 A 1.4384522 1.4384522 0 0 0 5.4257812 4.5253906 z M 10.634766 4.5253906 A 1.4384522 1.4384522 0 0 0 9.1972656 5.9648438 A 1.4384522 1.4384522 0 0 0 10.634766 7.4023438 A 1.4384522 1.4384522 0 0 0 12.074219 5.9648438 A 1.4384522 1.4384522 0 0 0 10.634766 4.5253906 z M 5.421875 8.7871094 C 4.9046755 8.7871094 4.4882812 9.2034936 4.4882812 9.7207031 L 4.4882812 11.193359 C 4.4882812 11.710569 4.9046755 12.126953 5.421875 12.126953 L 5.5546875 12.126953 C 6.071887 12.126953 6.4882812 11.710569 6.4882812 11.193359 L 6.4882812 10.869141 C 7.2619092 11.029723 8.0579569 11.048828 8.1699219 11.048828 C 8.1801219 11.048828 8.2281063 11.047875 8.2539062 11.046875 C 8.2796062 11.047515 8.3276906 11.048828 8.3378906 11.048828 C 8.4282345 11.048828 8.9646089 11.03468 9.5742188 10.945312 L 9.5742188 11.193359 C 9.5742188 11.710569 9.9906127 12.126953 10.507812 12.126953 L 10.640625 12.126953 C 11.157824 12.126953 11.574219 11.710569 11.574219 11.193359 L 11.574219 9.8046875 C 11.574329 9.7996875 11.574219 9.7957156 11.574219 9.7910156 L 11.574219 9.7207031 C 11.574219 9.2034936 11.157824 8.7871094 10.640625 8.7871094 L 10.507812 8.7871094 C 10.505231 8.7871094 10.502577 8.7870887 10.5 8.7871094 L 8.2539062 8.796875 L 5.9375 8.7871094 C 5.8715413 8.7870969 5.8065264 8.7945195 5.7441406 8.8066406 C 5.6832574 8.7942453 5.6193374 8.7871094 5.5546875 8.7871094 L 5.421875 8.7871094 z " />
</svg>
