<?xml version="1.0" encoding="UTF-8" standalone="no"?>
<svg
   height="16px"
   viewBox="0 0 16 16"
   width="16px"
   version="1.1"
   id="svg5"
   sodipodi:docname="cassette-wave-mood-cool.svg"
   inkscape:version="1.3.2 (091e20ef0f, 2023-11-25)"
   xmlns:inkscape="http://www.inkscape.org/namespaces/inkscape"
   xmlns:sodipodi="http://sodipodi.sourceforge.net/DTD/sodipodi-0.dtd"
   xmlns="http://www.w3.org/2000/svg"
   xmlns:svg="http://www.w3.org/2000/svg">
  <defs
     id="defs5" />
  <sodipodi:namedview
     id="namedview5"
     pagecolor="#ffffff"
     bordercolor="#000000"
     borderopacity="0.25"
     inkscape:showpageshadow="2"
     inkscape:pageopacity="0.0"
     inkscape:pagecheckerboard="0"
     inkscape:deskcolor="#d1d1d1"
     inkscape:zoom="22.627417"
     inkscape:cx="1.4363106"
     inkscape:cy="13.943262"
     inkscape:window-width="1920"
     inkscape:window-height="1131"
     inkscape:window-x="0"
     inkscape:window-y="0"
     inkscape:window-maximized="1"
     inkscape:current-layer="svg5" />
  <path
     id="path1188"
     style="fill:#2e3436;fill-opacity:1;stroke-width:3.60346;paint-order:stroke markers fill"
     d="M 8.0019531 0 C 3.5981761 0 -1.1842367e-15 3.6160507 0 8.0019531 C 0 12.387847 3.5981761 16 8.0019531 16 C 12.40571 16 16.00001 12.387846 16 8.0019531 C 16 3.6160507 12.40571 -1.1842367e-15 8.0019531 0 z M 8.0019531 1.9550781 C 11.333299 1.9552955 14.031784 4.6632656 14.03125 8.0019531 C 14.030693 11.339869 11.332527 14.044705 8.0019531 14.044922 C 6.4513554 14.045334 5.0375344 13.459212 3.96875 12.496094 C 4.8679034 12.495778 5.0937824 12.494477 5.1152344 12.490234 C 5.2590022 12.455664 5.3637613 12.375303 5.4257812 12.251953 C 5.4563812 12.191093 5.4718094 12.129441 5.4746094 12.056641 L 5.4765625 12.009766 L 5.1640625 9.6972656 C 4.9919957 8.4257269 4.8487562 7.38 4.8476562 7.375 C 4.8464563 7.3678 4.8442969 7.3642844 4.8417969 7.3652344 C 4.8391369 7.3662344 4.834125 7.3564969 4.828125 7.3417969 C 4.822765 7.3285969 4.8094081 7.3040562 4.7988281 7.2851562 C 4.7057542 7.1198464 4.5367837 6.9970968 4.3574219 6.9667969 C 4.3157659 6.9608369 4.3050422 6.9619306 3.1152344 6.9628906 C 2.4671673 6.9634723 2.2032932 6.9618049 2.0605469 6.9628906 C 2.5522366 4.1189289 5.0237592 1.9542861 8.0019531 1.9550781 z M 7.4121094 2.9160156 C 7.3156923 2.9171156 7.2127698 2.9285156 7.1230469 2.9472656 C 6.8001532 3.0144856 6.5763887 3.1719733 6.5117188 3.3769531 C 6.4931688 3.4356831 6.4902274 3.4595095 6.4902344 3.5371094 C 6.4902344 3.6328293 6.4975857 3.6827577 6.5410156 3.8671875 C 6.6017356 4.1250372 6.6185344 4.2456208 6.6152344 4.4316406 C 6.6116444 4.6342004 6.5844981 4.7762539 6.5175781 4.9648438 C 6.4056132 5.2803834 6.1895327 5.7135342 5.90625 6.1835938 C 5.6541723 6.6018733 5.3929356 6.9738602 5.2460938 7.125 L 5.2070312 7.1640625 L 5.5273438 9.5195312 C 5.7026996 10.81533 5.8473094 11.88965 5.8496094 11.90625 L 5.8535156 11.935547 L 5.953125 11.972656 C 6.5316984 12.192716 7.0505207 12.351169 7.4121094 12.417969 C 7.5192833 12.437769 7.6231501 12.452031 7.71875 12.457031 L 7.71875 12.458984 C 7.728458 12.459494 8.3473409 12.459314 9.0957031 12.458984 C 10.579814 12.458484 10.470175 12.459853 10.595703 12.439453 C 10.751697 12.414063 10.897449 12.361462 11.007812 12.289062 C 11.064142 12.252113 11.096578 12.225434 11.142578 12.177734 C 11.24712 12.069404 11.307828 11.938978 11.335938 11.767578 C 11.345137 11.712838 11.344937 11.577131 11.335938 11.519531 C 11.326658 11.460431 11.306386 11.378066 11.285156 11.322266 C 11.269696 11.281466 11.264772 11.267941 11.263672 11.244141 L 11.263672 11.216797 L 11.292969 11.208984 C 11.362794 11.189824 11.461471 11.145016 11.525391 11.103516 C 11.695286 10.993066 11.805923 10.82569 11.845703 10.619141 C 11.862863 10.530291 11.865246 10.498859 11.865234 10.380859 C 11.865234 10.25212 11.861067 10.211781 11.835938 10.113281 C 11.809186 10.008431 11.754049 9.8863468 11.699219 9.8105469 C 11.692769 9.8013469 11.6875 9.7919656 11.6875 9.7910156 C 11.6875 9.7899156 11.705716 9.7790781 11.728516 9.7675781 C 11.940145 9.6564182 12.081535 9.4783898 12.140625 9.25 C 12.182675 9.0879302 12.182625 8.8852236 12.140625 8.7148438 C 12.098647 8.5445739 12.02121 8.3988355 11.896484 8.2597656 C 11.862997 8.2224157 11.793552 8.1573656 11.763672 8.1347656 C 11.756442 8.1280656 11.751953 8.1240469 11.751953 8.1230469 C 11.751883 8.1217469 11.76426 8.1093031 11.78125 8.0957031 C 11.815892 8.0679232 11.872054 8.0124687 11.896484 7.9804688 C 11.970078 7.8840588 12.013273 7.7713092 12.033203 7.6308594 C 12.039272 7.5875594 12.039303 7.3994499 12.033203 7.34375 C 11.99621 7.0116903 11.86602 6.7203685 11.662109 6.5117188 C 11.569434 6.4169288 11.484891 6.3534687 11.367188 6.2929688 C 11.223978 6.2193088 11.073005 6.1806687 10.896484 6.1679688 C 10.864001 6.1649688 10.460897 6.1641025 9.7929688 6.1640625 L 8.7402344 6.1640625 L 8.7382812 6.0722656 C 8.7330713 5.8955958 8.7409931 5.3491679 8.7519531 5.1113281 C 8.7579531 4.9834183 8.7579531 4.7911281 8.7519531 4.7363281 C 8.7494031 4.7130481 8.7429812 4.6662125 8.7382812 4.6328125 C 8.6735853 4.178593 8.4332995 3.6380596 8.1367188 3.28125 C 8.0947638 3.2307901 7.9868493 3.1222906 7.9433594 3.0878906 C 7.8503615 3.0144007 7.7509724 2.9636062 7.6640625 2.9414062 C 7.5983831 2.9242563 7.5085264 2.9149156 7.4121094 2.9160156 z " />
</svg>
