<?xml version="1.0" encoding="UTF-8" standalone="no"?>
<svg
   height="16px"
   viewBox="0 0 16 16"
   width="16px"
   version="1.1"
   id="svg5"
   sodipodi:docname="cassette-wave-genre-folk.svg"
   inkscape:version="1.3.2 (091e20ef0f, 2023-11-25)"
   xmlns:inkscape="http://www.inkscape.org/namespaces/inkscape"
   xmlns:sodipodi="http://sodipodi.sourceforge.net/DTD/sodipodi-0.dtd"
   xmlns="http://www.w3.org/2000/svg"
   xmlns:svg="http://www.w3.org/2000/svg">
  <defs
     id="defs5" />
  <sodipodi:namedview
     id="namedview5"
     pagecolor="#ffffff"
     bordercolor="#000000"
     borderopacity="0.25"
     inkscape:showpageshadow="2"
     inkscape:pageopacity="0.0"
     inkscape:pagecheckerboard="0"
     inkscape:deskcolor="#d1d1d1"
     inkscape:zoom="16"
     inkscape:cx="-3.65625"
     inkscape:cy="20.15625"
     inkscape:window-width="1920"
     inkscape:window-height="1131"
     inkscape:window-x="0"
     inkscape:window-y="0"
     inkscape:window-maximized="1"
     inkscape:current-layer="svg5" />
  <path
     id="path3"
     style="fill:#2e3436;fill-opacity:1;stroke-width:3.55688;stroke-dasharray:none;paint-order:stroke markers fill"
     d="m 14.343499,-5.4828013e-4 c -0.239682,1e-6 -0.479381,0.0909725301 -0.663039,0.27463105013 L 13.5863,0.37020367 C 13.348378,0.60812714 13.264903,0.93896758 13.335209,1.2431401 l -0.01177,0.01177 c -0.257687,-0.015144 -0.52024,0.076905 -0.717965,0.2746311 l -0.09416,0.094159 C 12.313691,1.8213229 12.221652,2.0841014 12.236682,2.3416663 L 10.1946,4.3837479 C 9.9001536,4.272684 9.6919045,4.3177038 9.4962522,4.2935116 9.1559414,4.2514396 8.8477857,4.2490493 8.5115018,4.2601636 7.8389269,4.2823852 7.0758615,4.3712214 6.2673697,4.5230255 4.6503791,4.8265983 2.9449358,5.1235946 1.5280139,6.5415678 0.44161607,7.6279512 -0.08691956,9.124518 0.01165532,10.527648 c 0.09857459,1.403144 0.75271054,2.69671 1.75764188,3.70164 1.0049315,1.004932 2.3004656,1.661036 3.7036027,1.759604 1.4031372,0.09858 2.8977214,-0.429961 3.9841192,-1.516358 1.4168299,-1.416816 1.7180109,-3.128435 2.0205029,-4.7452402 0.151244,-0.8084149 0.241542,-1.5720049 0.262862,-2.2441322 0.01065,-0.3360711 0.0073,-0.6427555 -0.03531,-0.982789 -0.02442,-0.1950108 0.02035,-0.4031799 -0.09023,-0.6963867 l 2.040115,-2.0420817 c 0.258393,0.015796 0.521643,-0.074381 0.719927,-0.2726705 l 0.09416,-0.094159 c 0.198117,-0.1981188 0.290228,-0.461749 0.27463,-0.7199275 l 0.01177,-0.011769 c 0.304339,0.070561 0.636816,-0.013003 0.874898,-0.2510917 l 0.09416,-0.094159 c 0.367317,-0.367317 0.367337,-0.9587515 0,-1.32607855 L 15.4126,0.68014526 15.318441,0.58598587 15.006538,0.27408277 C 14.822879,0.09041923 14.583181,-5.4928013e-4 14.343499,-5.4828013e-4 Z M 8.2957199,6.2826289 6.1732103,8.4051383 c -0.3673066,0.3672969 -0.3673066,0.9587514 0,1.3260785 l 0.094159,0.094159 c 0.3673268,0.3673272 0.9587614,0.3673272 1.3260782,0 L 9.7159574,7.7028669 C 9.611756,9.3503017 9.032243,12.056845 8.0367816,13.052297 6.6316274,14.457464 4.5946888,14.214219 3.1895347,12.809051 1.7843664,11.403897 1.543083,9.3669591 2.9482513,7.9618047 3.9366702,6.972651 6.6464477,6.3890938 8.2957199,6.2826289 Z m -3.440741,3.1249146 -0.6826555,0.6826555 1.6556358,1.655635 0.6826557,-0.682655 z" />
</svg>
