<?xml version="1.0" encoding="UTF-8" standalone="no"?>
<svg
   height="16px"
   viewBox="0 0 16 16"
   width="16px"
   version="1.1"
   id="svg5"
   sodipodi:docname="cassette-wave-genre- r'n'b.svg"
   inkscape:version="1.3.2 (091e20ef0f, 2023-11-25)"
   xmlns:inkscape="http://www.inkscape.org/namespaces/inkscape"
   xmlns:sodipodi="http://sodipodi.sourceforge.net/DTD/sodipodi-0.dtd"
   xmlns="http://www.w3.org/2000/svg"
   xmlns:svg="http://www.w3.org/2000/svg">
  <defs
     id="defs5" />
  <sodipodi:namedview
     id="namedview5"
     pagecolor="#ffffff"
     bordercolor="#000000"
     borderopacity="0.25"
     inkscape:showpageshadow="2"
     inkscape:pageopacity="0.0"
     inkscape:pagecheckerboard="0"
     inkscape:deskcolor="#d1d1d1"
     inkscape:zoom="16"
     inkscape:cx="1.53125"
     inkscape:cy="10.09375"
     inkscape:window-width="1920"
     inkscape:window-height="1131"
     inkscape:window-x="0"
     inkscape:window-y="0"
     inkscape:window-maximized="1"
     inkscape:current-layer="svg5" />
  <path
     id="path137"
     style="color:#000000;fill:#2e3436;fill-opacity:1;stroke-width:0.931143;stroke-linecap:round;stroke-linejoin:round;stroke-miterlimit:0;-inkscape-stroke:none;paint-order:stroke fill markers"
     d="m 4.4810524,0.40182512 c -2.0288987,0 -3.76952435,1.39150288 -4.30848052,3.26141508 0.002978,4.339e-4 0.004778,0.00144 0.007756,0.00194 C 0.06467984,4.0595024 -6.9654694e-8,4.4736453 -6.9654694e-8,4.9022687 v 4.771904 C -6.9654694e-8,12.124539 2.030702,14.157164 4.4810524,14.157164 h 2.9841367 c -0.00397,-0.0069 -0.00572,-0.01437 -0.0097,-0.02133 h 0.4052531 c 0.3189801,0 0.6314546,-0.03322 0.9326639,-0.09889 0.3423276,0.324034 0.7641042,0.56923 1.2448439,0.698044 l 0.04654,0.01163 -0.02909,0.112463 c -0.080712,0.305745 0.09784,0.618302 0.403315,0.699982 l 0.07756,0.01939 c 0.305485,0.08168 0.619081,-0.09763 0.699982,-0.403314 l 0.03296,-0.124097 0.04266,0.01164 c 1.581496,0.423758 3.240279,-0.560103 3.670546,-2.165874 L 15.896006,9.4938437 C 16.326273,7.8880864 15.381431,6.2043991 13.799936,5.7806393 L 12.527945,5.4393735 C 12.466565,5.4229255 12.403302,5.4090065 12.3418,5.3967155 V 4.8828776 c 0,-2.4503345 -2.030702,-4.48105248 -4.4810529,-4.48105248 z m 0,1.89635198 h 3.3796947 c 1.3199006,0 2.4014519,0.9734448 2.5769449,2.2434347 l 0.0019,-0.00194 c 0.01469,0.1123004 0.02521,0.2267725 0.02521,0.3432048 v 0.769787 c -0.5229426,0.2590313 -0.9740454,0.6678387 -1.28165,1.1847362 -7.246e-4,0.00387 -9.462e-4,0.00774 -0.00194,0.011634 C 9.0413613,7.0837282 8.9279187,7.3411902 8.8535203,7.618821 l -0.9113348,3.402963 c -0.1111468,0.414803 -0.1294373,0.834952 -0.069804,1.237088 -0.00392,2e-5 -0.00771,0 -0.011634,0 H 4.7757819 l 0.00776,0.02133 H 4.4810524 c -1.4431135,0 -2.6040907,-1.162908 -2.6040907,-2.6060293 v -4.771904 c 0,-0.1709743 0.017402,-0.3367291 0.048475,-0.4983256 0.00298,-0.012936 0.00478,-0.025914 0.00776,-0.03878 0.2465811,-1.1829677 1.2893978,-2.066986 2.5478557,-2.066986 z M 6.1718693,2.7984417 C 5.4323136,2.7982133 4.6924071,3.0776566 4.1359086,3.6341551 c -1.112987,1.1129671 -1.112987,2.9589244 0,4.0719213 0.08657,0.08657 0.1788786,0.1654699 0.2734005,0.2384983 0.3692218,-0.428143 0.8918627,-0.7205803 1.4794647,-0.7852991 a 1.5209603,1.5209603 0 0 1 -0.7911161,-0.4130093 1.5209603,1.5209603 0 0 1 0,-2.1523012 1.5209603,1.5209603 0 0 1 2.1484232,0.00194 1.5209603,1.5209603 0 0 1 0.1939011,0.2462543 C 8.0331137,5.0081797 8.5730158,5.2912912 9.0416043,5.6623596 9.0396188,4.9255738 8.7604535,4.1906666 8.2058909,3.636094 7.6494024,3.0795956 6.911435,2.79867 6.1718693,2.7984417 Z m 0,2.5943956 C 6.0110005,5.3927777 5.8813752,5.52282 5.8810178,5.6836888 c -5.96e-5,0.1611865 0.1296849,0.2928501 0.2908515,0.2927905 0.025514,10e-6 0.050154,-0.00374 0.073682,-0.00969 v -0.564252 c -0.023529,-0.00596 -0.048267,-0.00969 -0.073682,-0.00969 z m 0.8182623,0.1047065 v 2.6525659 c -0.030558,-0.020455 -0.061021,-0.0399 -0.093073,-0.05817 -0.2243608,-0.1278901 -0.4853057,-0.199718 -0.762031,-0.199718 -0.849674,0 -1.5376351,0.6879809 -1.5376351,1.537635 0,0.8496733 0.6879611,1.5376343 1.5376351,1.5376343 0.8247753,0 1.4989268,-0.648767 1.5376351,-1.4639519 8.935e-4,-0.014792 9.462e-4,-0.029805 0.00194,-0.044597 V 6.866485 c 0.2050868,0.1224684 0.3735863,0.3075291 0.5371057,0.4886306 0.030677,0.033953 0.060655,0.0677 0.091134,0.1008285 L 9.0416043,6.674523 C 8.4903576,6.0838533 7.7948827,5.6632078 6.9901316,5.4975438 Z m 4.7505754,1.2913808 c 0.135632,-8.26e-4 0.27367,0.015541 0.41107,0.052353 h 0.0019 l 1.270052,0.3412658 c 0.477882,0.1280477 0.842432,0.4665424 1.025736,0.8919448 L 14.164469,7.998867 C 13.858885,7.917618 13.548111,8.096688 13.466425,8.4021811 l -0.02133,0.079499 c -0.08171,0.305477 0.0997,0.616821 0.405253,0.6980436 l 0.620483,0.1648159 -0.05429,0.2055351 -0.622422,-0.164816 c -0.305585,-0.081248 -0.618298,0.09976 -0.699984,0.4052532 l -0.01939,0.07756 c -0.08171,0.3054771 0.09766,0.6168201 0.403314,0.6980431 l 0.620483,0.164816 -0.05429,0.205535 -0.622422,-0.164815 c -0.305585,-0.08125 -0.616359,0.09976 -0.698045,0.405253 l -0.02133,0.07756 c -0.08171,0.305477 0.09766,0.618761 0.403314,0.699983 l 0.622422,0.164816 -0.05623,0.205535 -0.622422,-0.164816 c -0.305585,-0.08125 -0.616359,0.09782 -0.698045,0.403314 l -0.02133,0.07756 c -0.08171,0.305477 0.0997,0.618761 0.405253,0.699983 l 0.281156,0.07562 c -0.371632,0.274804 -0.855157,0.383747 -1.332099,0.25595 l -1.099419,-0.29473 0.0019,0.01357 -0.176451,-0.04654 C 9.9276838,13.215334 9.5606658,12.872615 9.3789921,12.441139 l 0.2947296,0.07756 c 0.3055852,0.08125 0.6164083,-0.0978 0.6980443,-0.403314 l 0.02133,-0.0795 c 0.08161,-0.305488 -0.09775,-0.616822 -0.403314,-0.698044 l -0.622422,-0.164816 0.054292,-0.207474 0.624361,0.166755 c 0.305587,0.08125 0.616409,-0.09974 0.698045,-0.405253 l 0.02133,-0.07756 c 0.08161,-0.305488 -0.09775,-0.618761 -0.403314,-0.6999829 L 9.737709,9.7846953 9.7939402,9.5791603 10.416363,9.7439761 c 0.305585,0.081249 0.618347,-0.097804 0.699983,-0.4033141 l 0.02133,-0.07756 c 0.08161,-0.3054889 -0.09969,-0.61876 -0.405253,-0.6999828 l -0.622422,-0.1648158 0.05429,-0.2074741 0.624361,0.1667549 c 0.305585,0.081248 0.616408,-0.097803 0.698044,-0.4033141 l 0.02133,-0.079499 c 0.08161,-0.3054879 -0.09775,-0.616822 -0.403314,-0.6980437 L 10.819678,7.1011064 C 11.08399,6.904303 11.40499,6.79097 11.740708,6.7889258 Z m 0.659264,0.8570425 c -0.24333,0.00955 -0.461026,0.1745106 -0.527411,0.4227042 l -1.087785,4.0641647 c -0.08171,0.305467 0.09977,0.616364 0.405253,0.698044 l 0.07756,0.02133 c 0.305475,0.08168 0.618277,-0.09978 0.699982,-0.405253 L 13.053416,8.38473 c 0.0817,-0.3054671 -0.09784,-0.616406 -0.403314,-0.6980437 l -0.0795,-0.021329 c -0.05728,-0.015309 -0.11448,-0.021593 -0.170632,-0.01939 z" />
</svg>
