<?xml version="1.0" encoding="UTF-8" standalone="no"?>
<svg
   height="16px"
   viewBox="0 0 16 16"
   width="16px"
   version="1.1"
   id="svg5"
   sodipodi:docname="cassette-wave-genre-country.svg"
   inkscape:version="1.3.2 (091e20ef0f, 2023-11-25)"
   xmlns:inkscape="http://www.inkscape.org/namespaces/inkscape"
   xmlns:sodipodi="http://sodipodi.sourceforge.net/DTD/sodipodi-0.dtd"
   xmlns="http://www.w3.org/2000/svg"
   xmlns:svg="http://www.w3.org/2000/svg">
  <defs
     id="defs5" />
  <sodipodi:namedview
     id="namedview5"
     pagecolor="#ffffff"
     bordercolor="#000000"
     borderopacity="0.25"
     inkscape:showpageshadow="2"
     inkscape:pageopacity="0.0"
     inkscape:pagecheckerboard="0"
     inkscape:deskcolor="#d1d1d1"
     inkscape:zoom="16"
     inkscape:cx="1.84375"
     inkscape:cy="7.09375"
     inkscape:window-width="1920"
     inkscape:window-height="1131"
     inkscape:window-x="0"
     inkscape:window-y="0"
     inkscape:window-maximized="1"
     inkscape:current-layer="svg5" />
  <path
     id="path17"
     style="fill:#2e3436;fill-opacity:1;stroke-width:3.58835;stroke-dasharray:none;paint-order:stroke markers fill"
     d="M 14.330078 0 C 14.088276 1.2662487e-06 13.84544 0.09206047 13.660156 0.27734375 L 13.566406 0.37304688 C 13.326698 0.61275474 13.24208 0.94737709 13.3125 1.2539062 L 13.298828 1.2675781 C 13.038994 1.2524218 12.775542 1.343599 12.576172 1.5429688 L 12.480469 1.6386719 C 12.281112 1.8380285 12.187978 2.103455 12.203125 2.3632812 L 8.859375 5.7070312 C 7.8983025 5.0453835 6.7723427 4.7128906 5.6445312 4.7128906 C 4.1928334 4.7128906 2.7405339 5.2614336 1.6445312 6.3574219 C -0.54745257 8.54942 -0.54745974 12.163464 1.6445312 14.355469 C 3.8365366 16.547475 7.4505657 16.547468 9.6425781 14.355469 C 11.590036 12.407985 11.805941 9.3387246 10.292969 7.140625 L 13.636719 3.796875 C 13.896545 3.8120235 14.161972 3.7188933 14.361328 3.5195312 L 14.457031 3.4238281 C 14.656895 3.2239641 14.750102 2.9596722 14.734375 2.6992188 L 14.746094 2.6875 C 15.052623 2.7579215 15.387245 2.6733082 15.626953 2.4335938 L 15.722656 2.3398438 C 16.093223 1.9692772 16.093244 1.3725299 15.722656 1.0019531 L 15.408203 0.6875 L 15.3125 0.59179688 L 14.998047 0.27734375 C 14.812764 0.092055405 14.571881 -1.2662487e-06 14.330078 0 z M 5.3847656 6.734375 A 3.6299472 3.6299472 0 0 1 7.3828125 7.1835938 L 6.0859375 8.4804688 C 5.7153811 8.8510151 5.7153811 9.4477827 6.0859375 9.8183594 L 6.1816406 9.9140625 C 6.5522174 10.284639 7.1489647 10.284639 7.5195312 9.9140625 L 8.8242188 8.609375 A 3.6299472 3.6299472 0 0 1 8.2109375 12.923828 A 3.6299472 3.6299472 0 0 1 3.0761719 12.923828 A 3.6299472 3.6299472 0 0 1 3.0761719 7.7890625 A 3.6299472 3.6299472 0 0 1 5.3847656 6.734375 z M 4.7558594 9.4921875 L 4.0683594 10.179688 L 5.7382812 11.849609 L 6.4257812 11.162109 L 4.7558594 9.4921875 z " />
</svg>
