<?xml version="1.0" encoding="UTF-8" standalone="no"?>
<svg
   height="16px"
   viewBox="0 0 16 16"
   width="16px"
   version="1.1"
   id="svg5"
   sodipodi:docname="cassette-wave-era-forgotten.svg"
   inkscape:version="1.3.2 (091e20ef0f, 2023-11-25)"
   xmlns:inkscape="http://www.inkscape.org/namespaces/inkscape"
   xmlns:sodipodi="http://sodipodi.sourceforge.net/DTD/sodipodi-0.dtd"
   xmlns="http://www.w3.org/2000/svg"
   xmlns:svg="http://www.w3.org/2000/svg">
  <defs
     id="defs5" />
  <sodipodi:namedview
     id="namedview5"
     pagecolor="#ffffff"
     bordercolor="#000000"
     borderopacity="0.25"
     inkscape:showpageshadow="2"
     inkscape:pageopacity="0.0"
     inkscape:pagecheckerboard="0"
     inkscape:deskcolor="#d1d1d1"
     inkscape:zoom="22.627417"
     inkscape:cx="7.8002717"
     inkscape:cy="11.645165"
     inkscape:window-width="1920"
     inkscape:window-height="1131"
     inkscape:window-x="0"
     inkscape:window-y="0"
     inkscape:window-maximized="1"
     inkscape:current-layer="svg5" />
  <path
     id="rect102"
     style="fill:#2e3436;fill-opacity:1;stroke:none;stroke-width:1.83029;stroke-linecap:round;stroke-linejoin:round;stroke-miterlimit:0;stroke-opacity:1;paint-order:stroke fill markers"
     d="M 10.160156 0.21289062 L 10.160156 7.7636719 C 9.4641513 7.2977871 8.6269902 7.0273437 7.7265625 7.0273438 C 7.1335866 7.0273438 6.5685285 7.1458477 6.0527344 7.359375 L 6.0527344 5.2617188 C 6.0527344 5.1622318 6.0336628 5.0648415 5.9980469 4.9785156 L 8.671875 4.9785156 C 9.0786627 4.9785156 9.4042969 4.6509283 9.4042969 4.2441406 L 9.4042969 1.2714844 C 9.4042969 0.86469674 9.0786627 0.53710938 8.671875 0.53710938 L 5.5351562 0.53710938 C 5.1283687 0.53710938 4.8046875 0.86469667 4.8046875 1.2714844 L 4.8046875 4.2441406 C 4.8046875 4.3436275 4.8218059 4.4390647 4.8574219 4.5253906 L 3.0507812 4.5253906 L 3.0507812 3.1699219 C 3.0507812 2.7631343 2.7251569 2.4355469 2.3183594 2.4355469 L 0.73632812 2.4355469 C 0.32954046 2.4355469 -1.4802959e-16 2.7631343 0 3.1699219 L 0 4.6464844 C 0 5.053272 0.32954046 5.3789062 0.73632812 5.3789062 L 2.21875 5.3789062 L 2.21875 7.4941406 C 2.21875 7.9009382 2.5424213 8.2285156 2.9492188 8.2285156 L 4.7128906 8.2285156 C 3.8715012 9.0266898 3.3457031 10.154952 3.3457031 11.40625 C 3.3457031 11.608698 3.3601308 11.808756 3.3867188 12.003906 L 3.0507812 12.003906 L 3.0507812 10.650391 C 3.0507812 10.243603 2.7251471 9.9140625 2.3183594 9.9140625 L 0.73632812 9.9140625 C 0.32953059 9.9140625 7.4014794e-17 10.243603 0 10.650391 L 0 12.123047 C 0 12.529844 0.32953059 12.857422 0.73632812 12.857422 L 2.21875 12.857422 L 2.21875 14.972656 L 2.21875 15.091797 C 2.21875 15.364706 2.4380291 15.582031 2.7109375 15.582031 L 5.5585938 15.582031 C 5.7116069 15.582031 5.8470957 15.512738 5.9375 15.404297 C 6.4840258 15.649338 7.0888324 15.787109 7.7265625 15.787109 C 10.074782 15.787109 11.99138 13.939999 12.101562 11.619141 C 12.104062 11.576901 12.106522 11.534427 12.107422 11.492188 L 12.107422 4.1074219 C 12.691335 4.456086 13.169211 4.9863203 13.634766 5.5019531 C 13.722076 5.598617 13.809564 5.6947739 13.896484 5.7890625 L 16 3.5605469 C 14.430569 1.8788883 12.451327 0.68453179 10.160156 0.21289062 z " />
</svg>
