<?xml version="1.0" encoding="UTF-8" standalone="no"?>
<svg
   height="16px"
   viewBox="0 0 16 16"
   width="16px"
   version="1.1"
   id="svg5"
   sodipodi:docname="cassette-wave-classes-road.svg"
   inkscape:version="1.3.2 (091e20ef0f, 2023-11-25)"
   xmlns:inkscape="http://www.inkscape.org/namespaces/inkscape"
   xmlns:sodipodi="http://sodipodi.sourceforge.net/DTD/sodipodi-0.dtd"
   xmlns="http://www.w3.org/2000/svg"
   xmlns:svg="http://www.w3.org/2000/svg">
  <defs
     id="defs5" />
  <sodipodi:namedview
     id="namedview5"
     pagecolor="#ffffff"
     bordercolor="#000000"
     borderopacity="0.25"
     inkscape:showpageshadow="2"
     inkscape:pageopacity="0.0"
     inkscape:pagecheckerboard="0"
     inkscape:deskcolor="#d1d1d1"
     inkscape:zoom="14.738757"
     inkscape:cx="-2.7478572"
     inkscape:cy="15.299798"
     inkscape:window-width="1920"
     inkscape:window-height="1131"
     inkscape:window-x="0"
     inkscape:window-y="0"
     inkscape:window-maximized="1"
     inkscape:current-layer="svg5" />
  <path
     id="path1495"
     style="color:#000000;fill:#2e3436;fill-opacity:1;stroke-width:1.22411;stroke-linecap:round;stroke-linejoin:round;stroke-miterlimit:0;-inkscape-stroke:none;paint-order:stroke fill markers"
     d="M 8.0683594 1.6191406 C 3.679962 1.6191406 0.068359375 5.2287902 0.068359375 9.6171875 C 0.068359375 11.117437 0.4916299 12.527072 1.2226562 13.732422 A 1.2446283 1.2446283 0 0 0 1.4550781 14.091797 C 1.4808991 14.129717 1.504723 14.167682 1.53125 14.205078 L 1.53125 14.169922 A 1.2446283 1.2446283 0 0 0 2.3652344 14.490234 A 1.2446283 1.2446283 0 0 0 3.6113281 13.246094 A 1.2446283 1.2446283 0 0 0 3.5058594 12.771484 L 3.7675781 12.621094 C 3.9933605 12.490734 4.0699239 12.204204 3.9394531 11.978516 L 3.90625 11.919922 C 3.7757735 11.694227 3.4894441 11.617697 3.2636719 11.748047 L 3.0136719 11.892578 C 2.7636532 11.343246 2.6006589 10.747563 2.5429688 10.123047 L 2.8085938 10.123047 C 3.0693054 10.123047 3.2794438 9.9130309 3.2792969 9.6523438 L 3.2792969 9.5839844 C 3.27915 9.3232855 3.0692932 9.1132812 2.8085938 9.1132812 L 2.5410156 9.1132812 C 2.6012805 8.4561308 2.7785773 7.8305936 3.0507812 7.2578125 L 3.2597656 7.3789062 C 3.4855486 7.5092616 3.7721275 7.4328663 3.9023438 7.2070312 L 3.9355469 7.1484375 C 4.0657693 6.9225921 3.9894441 6.636209 3.7636719 6.5058594 L 3.5644531 6.390625 C 3.9298086 5.883746 4.3779286 5.4402994 4.8886719 5.0800781 L 4.9960938 5.2675781 C 5.1264576 5.4933675 5.4149366 5.569928 5.640625 5.4394531 L 5.6972656 5.40625 C 5.9229646 5.2757751 5.9994844 4.9894409 5.8691406 4.7636719 L 5.7597656 4.5761719 C 6.3187639 4.3173547 6.9265265 4.1483599 7.5644531 4.0898438 L 7.5644531 4.3125 C 7.5644531 4.5731975 7.7744585 4.7830619 8.0351562 4.7832031 L 8.1015625 4.7832031 C 8.3622499 4.7833443 8.5722656 4.5732076 8.5722656 4.3125 L 8.5722656 4.0898438 C 9.205076 4.1478911 9.8079842 4.315009 10.363281 4.5703125 L 7.9199219 8.7734375 C 7.4915222 8.8443218 7.1631328 9.2115884 7.1621094 9.6601562 C 7.1619481 10.160673 7.5678426 10.566577 8.0683594 10.566406 C 8.5688761 10.566577 8.9747708 10.160673 8.9746094 9.6601562 C 8.9742654 9.4897667 8.9239401 9.3329942 8.8417969 9.1972656 L 11.101562 5.3085938 C 11.110879 5.2956592 11.120759 5.28169 11.128906 5.2675781 L 11.240234 5.0742188 C 11.750447 5.4327318 12.198693 5.8741513 12.564453 6.3789062 L 12.353516 6.5 C 12.127744 6.6303497 12.051418 6.9167324 12.181641 7.1425781 L 12.214844 7.2011719 C 12.34506 7.4270067 12.631639 7.5034026 12.857422 7.3730469 L 13.080078 7.2441406 C 13.35591 7.8205454 13.534954 8.4510193 13.595703 9.1132812 L 13.304688 9.1132812 C 13.043989 9.1132812 12.836084 9.323285 12.835938 9.5839844 L 12.835938 9.6523438 C 12.835791 9.9130309 13.043977 10.123047 13.304688 10.123047 L 13.59375 10.123047 C 13.535365 10.75247 13.369046 11.351476 13.115234 11.904297 L 12.855469 11.753906 C 12.629697 11.623556 12.341414 11.700082 12.210938 11.925781 L 12.177734 11.984375 C 12.047265 12.210063 12.123826 12.496597 12.349609 12.626953 L 12.623047 12.785156 A 1.2446283 1.2446283 0 0 0 12.53125 13.246094 A 1.2446283 1.2446283 0 0 0 13.775391 14.490234 A 1.2446283 1.2446283 0 0 0 14.605469 14.173828 L 14.605469 14.201172 C 14.625939 14.172222 14.643993 14.142531 14.664062 14.113281 A 1.2446283 1.2446283 0 0 0 14.929688 13.703125 A 1.2446283 1.2446283 0 0 0 14.931641 13.701172 C 15.651482 12.502872 16.068359 11.104415 16.068359 9.6171875 C 16.068359 5.2287902 12.456726 1.6191406 8.0683594 1.6191406 z " />
</svg>
