<?xml version="1.0" encoding="UTF-8" standalone="no"?>
<svg
   height="16px"
   viewBox="0 0 16 16"
   width="16px"
   version="1.1"
   id="svg5"
   sodipodi:docname="cassette-wave-classes-run.svg"
   inkscape:version="1.3.2 (091e20ef0f, 2023-11-25)"
   xmlns:inkscape="http://www.inkscape.org/namespaces/inkscape"
   xmlns:sodipodi="http://sodipodi.sourceforge.net/DTD/sodipodi-0.dtd"
   xmlns="http://www.w3.org/2000/svg"
   xmlns:svg="http://www.w3.org/2000/svg">
  <defs
     id="defs5" />
  <sodipodi:namedview
     id="namedview5"
     pagecolor="#ffffff"
     bordercolor="#000000"
     borderopacity="0.25"
     inkscape:showpageshadow="2"
     inkscape:pageopacity="0.0"
     inkscape:pagecheckerboard="0"
     inkscape:deskcolor="#d1d1d1"
     inkscape:zoom="7.3693785"
     inkscape:cx="9.1595241"
     inkscape:cy="38.198608"
     inkscape:window-width="1920"
     inkscape:window-height="1131"
     inkscape:window-x="0"
     inkscape:window-y="0"
     inkscape:window-maximized="1"
     inkscape:current-layer="svg5" />
  <path
     id="path1681"
     style="fill:#2e3436;fill-opacity:1;stroke-width:3.98035;paint-order:stroke markers fill"
     d="M 4.7636719,0.06836156 C 4.5026119,0.06914492 4.2407868,0.16966115 4.0371094,0.36718969 L 0.7421875,3.560549 c -0.005706,0.00545 -0.0119668,0.010014 -0.0175781,0.015625 l -0.0390625,0.039063 -0.0625,0.060547 -0.001953,0.00391 c -0.17634903,0.172388 -0.27552651,0.3936322 -0.296875,0.6210937 -1.9412e-4,0.00191 1.8339e-4,0.00395 0,0.00586 -0.002705,0.030736 -0.003997,0.06289 -0.003906,0.09375 -5e-6,0.00131 0,0.0026 0,0.00391 2.6834e-4,0.030862 8.5047e-4,0.06103 0.003906,0.091797 1.7653e-4,0.00195 -1.8778e-4,0.00391 0,0.00586 0.003234,0.030836 0.009596,0.06323 0.015625,0.09375 2.3975e-4,0.00126 -2.4452e-4,0.00265 0,0.00391 0.006266,0.031115 0.0142726,0.061238 0.0234375,0.091797 0.0280545,0.095737 0.0702709,0.1894183 0.12695313,0.2753906 0.0376166,0.056851 0.0807039,0.1119528 0.13085937,0.1621094 L 9.1757812,13.683596 H 1.0488281 C 0.46752559,13.683596 0,14.15113 0,14.732424 v 0.150391 c 0,0.581304 0.46752559,1.048828 1.0488281,1.048828 H 14.951172 C 15.532485,15.931643 16,15.464119 16,14.882815 v -0.150391 c 0,-0.290647 -0.118936,-0.554482 -0.308594,-0.74414 a 2.6096641,2.6096641 0 0 0 0.291016,-0.953125 C 15.993332,12.975029 16,12.912962 16,12.849612 v -0.07031 -0.07422 c 0,-0.0174 -0.0012,-0.03554 -0.002,-0.05274 v -0.002 c -0.0013,-0.02584 -0.0028,-0.05083 -0.0059,-0.07617 a 2.6096641,2.6096641 0 0 0 -2.601563,-2.404297 2.6096641,2.6096641 0 0 0 -0.08398,0.0059 L 10.353516,3.701174 C 10.19166,3.346215 9.8233287,3.168109 9.4492188,3.1835959 9.3713385,3.1868199 9.2931996,3.20058 9.2167969,3.2207053 v -0.00195 A 2.5233535,2.5233535 0 0 1 8.3535156,3.3750022 2.5233535,2.5233535 0 0 1 5.8828125,1.3222678 C 5.9190811,1.0202066 5.8202857,0.70309841 5.5878906,0.47070531 L 5.484375,0.36718969 C 5.2837537,0.16656841 5.0247329,0.06759854 4.7636719,0.06836156 Z M 4.1347656,3.3281272 a 4.9046442,4.9046442 0 0 0 4.21875,2.4277344 4.9046442,4.9046442 0 0 0 0.5195313,-0.035156 L 9.0507812,6.1093772 A 0.83426255,0.83426255 0 0 0 8.4609375,6.9082053 0.83426255,0.83426255 0 0 0 9.2949219,7.7421897 0.83426255,0.83426255 0 0 0 9.7363281,7.6152366 L 9.9570312,8.0976584 A 0.83426255,0.83426255 0 0 0 9.3496094,8.8984397 0.83426255,0.83426255 0 0 0 10.183594,9.7343772 0.83426255,0.83426255 0 0 0 10.640625,9.5957053 l 0.712891,1.5624997 a 2.6096641,2.6096641 0 0 0 -0.330078,0.521485 h -0.66211 c -0.02809,0 -0.05452,0.0017 -0.08203,0.0039 L 3.0117188,4.4160178 Z M 1.0234375,9.5410178 C 0.45599263,9.5410178 0,9.9989608 0,10.566409 v 0.144531 c 0,0.567437 0.45599263,1.02539 1.0234375,1.025391 h 2.265625 c 0.567455,0 1.0234375,-0.457954 1.0234375,-1.025391 v -0.144531 c 0,-0.5674482 -0.4559825,-1.0253912 -1.0234375,-1.0253912 z" />
</svg>
