<?xml version="1.0" encoding="UTF-8" standalone="no"?>
<svg
   height="16px"
   viewBox="0 0 16 16"
   width="16px"
   version="1.1"
   id="svg5"
   sodipodi:docname="cassette-wave-classes-wake.svg"
   inkscape:version="1.3.2 (091e20ef0f, 2023-11-25)"
   xmlns:inkscape="http://www.inkscape.org/namespaces/inkscape"
   xmlns:sodipodi="http://sodipodi.sourceforge.net/DTD/sodipodi-0.dtd"
   xmlns="http://www.w3.org/2000/svg"
   xmlns:svg="http://www.w3.org/2000/svg">
  <defs
     id="defs5" />
  <sodipodi:namedview
     id="namedview5"
     pagecolor="#ffffff"
     bordercolor="#000000"
     borderopacity="0.25"
     inkscape:showpageshadow="2"
     inkscape:pageopacity="0.0"
     inkscape:pagecheckerboard="0"
     inkscape:deskcolor="#d1d1d1"
     inkscape:zoom="14.738757"
     inkscape:cx="-1.3230424"
     inkscape:cy="19.845636"
     inkscape:window-width="1920"
     inkscape:window-height="1131"
     inkscape:window-x="0"
     inkscape:window-y="0"
     inkscape:window-maximized="1"
     inkscape:current-layer="svg5" />
  <path
     id="path1652"
     style="color:#000000;fill:#2e3436;fill-opacity:1;stroke-width:3.43837;stroke-linecap:round;stroke-linejoin:round;stroke-miterlimit:0;-inkscape-stroke:none;paint-order:stroke fill markers"
     d="M 4.6601562 0 C 4.0138412 -0.012188786 3.3577774 0.13785623 2.7519531 0.46289062 C 2.7166659 0.48256281 2.6795982 0.49932397 2.6445312 0.51953125 C 2.5998305 0.54529842 2.5552257 0.5724524 2.5117188 0.59960938 C 1.0730803 1.4909298 0.40276959 3.1862555 0.76171875 4.7734375 C 1.0179505 5.6707987 1.7724715 5.3807177 2.0800781 5.203125 L 3.3417969 4.4765625 L 5.6933594 3.1171875 L 6.953125 2.390625 C 7.2607671 2.2130324 7.8857764 1.7039066 7.2363281 1.0332031 C 6.5267598 0.3774789 5.6047432 0.017352964 4.6601562 0 z M 11.339844 0 C 10.395257 0.017352964 9.4732405 0.3774789 8.7636719 1.0332031 C 8.1142236 1.7039066 8.7392328 2.2130324 9.046875 2.390625 L 10.306641 3.1171875 L 12.658203 4.4765625 L 13.919922 5.203125 C 14.227529 5.3807177 14.98205 5.6707987 15.238281 4.7734375 C 15.597231 3.1862555 14.92692 1.4909298 13.488281 0.59960938 C 13.444771 0.5724524 13.400175 0.54529842 13.355469 0.51953125 C 13.320399 0.49932397 13.28334 0.48256281 13.248047 0.46289062 C 12.642222 0.13785624 11.986158 -0.012188776 11.339844 0 z M 7.8730469 2.984375 C 5.7557281 3.0358673 3.7036124 4.1507772 2.5761719 6.1035156 C 1.2651779 8.3742207 1.5592389 11.160688 3.09375 13.117188 L 2.015625 14.195312 C 1.6246046 14.586337 1.6246026 15.216397 2.015625 15.607422 L 2.1152344 15.707031 C 2.5062556 16.098045 3.1363246 16.098045 3.5273438 15.707031 L 4.6875 14.546875 C 4.7478989 14.584575 4.8070454 14.624299 4.8691406 14.660156 C 6.9262118 15.847814 9.4044459 15.716547 11.306641 14.541016 L 12.472656 15.707031 C 12.863676 16.098045 13.493743 16.098045 13.884766 15.707031 L 13.984375 15.607422 C 14.375398 15.216397 14.375396 14.586337 13.984375 14.195312 L 12.908203 13.119141 C 13.09461 12.883996 13.267746 12.634143 13.421875 12.367188 C 15.139872 9.3915749 14.108489 5.5304974 11.132812 3.8125 C 10.10993 3.2219216 8.9821508 2.957431 7.8730469 2.984375 z M 8.3789062 4.90625 C 8.8689165 4.947136 9.3596872 5.0728542 9.8242188 5.2871094 L 9.6914062 5.5175781 C 9.5893952 5.6943686 9.6469892 5.9163252 9.8242188 6.0175781 L 9.8710938 6.0429688 C 10.048344 6.1441884 10.271152 6.088697 10.373047 5.9121094 L 10.505859 5.6816406 C 10.926017 5.9784587 11.279265 6.3414341 11.560547 6.7480469 L 11.337891 6.8769531 C 11.161172 6.9790716 11.101015 7.2041116 11.203125 7.3808594 L 11.230469 7.4238281 C 11.332653 7.6004368 11.555739 7.662655 11.732422 7.5605469 L 11.949219 7.4335938 C 12.155808 7.8906621 12.281985 8.3828042 12.324219 8.8828125 L 12.089844 8.8828125 C 11.885703 8.8828125 11.722656 9.0458059 11.722656 9.25 L 11.722656 9.3007812 C 11.722656 9.5048363 11.885681 9.6699219 12.089844 9.6699219 L 12.318359 9.6699219 C 12.272599 10.140462 12.153148 10.610435 11.947266 11.056641 L 11.763672 10.951172 C 11.586892 10.849081 11.357115 10.907001 11.255859 11.083984 L 11.230469 11.132812 C 11.129182 11.310042 11.192362 11.530702 11.369141 11.632812 L 11.552734 11.738281 C 11.254547 12.160364 10.885463 12.515014 10.476562 12.796875 L 10.384766 12.632812 C 10.282727 12.456083 10.057533 12.395936 9.8808594 12.498047 L 9.8339844 12.523438 C 9.6572584 12.625559 9.5990639 12.850541 9.7011719 13.027344 L 9.7890625 13.1875 C 9.3432854 13.387725 8.8656876 13.512487 8.3789062 13.556641 L 8.3789062 13.388672 C 8.3789062 13.184616 8.2158807 13.017578 8.0117188 13.017578 L 7.9570312 13.017578 C 7.7528907 13.017578 7.5898437 13.184508 7.5898438 13.388672 L 7.5898438 13.556641 C 7.1096902 13.513165 6.6329959 13.387725 6.1777344 13.177734 L 6.265625 13.027344 C 6.3677014 12.850638 6.3056331 12.625548 6.1289062 12.523438 L 6.0820312 12.498047 C 5.9053048 12.395883 5.6860924 12.458004 5.5839844 12.634766 L 5.4941406 12.783203 C 5.0878498 12.496219 4.7453389 12.148195 4.46875 11.757812 L 4.6152344 11.671875 C 4.7919611 11.569742 4.8518942 11.340874 4.75 11.164062 L 4.7226562 11.121094 C 4.6206876 10.944375 4.401368 10.882264 4.2246094 10.984375 L 4.0703125 11.072266 C 3.8648353 10.629583 3.7340598 10.155173 3.6835938 9.6699219 L 3.8730469 9.6660156 C 3.9283448 9.6660156 3.9784532 9.6581057 4.0253906 9.6367188 L 7.3496094 9.6445312 L 6.3105469 11.425781 C 6.2070813 11.60175 6.2686922 11.82346 6.4453125 11.925781 L 6.4941406 11.955078 C 6.6707817 12.057336 6.8931313 11.99814 6.9960938 11.822266 L 8.1191406 9.9023438 C 8.3263285 9.8724165 8.5156468 9.7537738 8.6289062 9.5585938 C 8.8249531 9.2192752 8.7125257 8.7876193 8.3730469 8.5917969 C 8.0337284 8.3957287 7.5962389 8.5101733 7.4003906 8.8496094 C 7.3993306 8.8528194 7.3986144 8.856171 7.3964844 8.859375 L 3.6738281 8.8496094 C 3.715409 8.3621225 3.8434974 7.8723248 4.0566406 7.4101562 L 4.25 7.5234375 C 4.4266838 7.6256843 4.6517981 7.5673836 4.7539062 7.390625 L 4.78125 7.34375 C 4.8834004 7.1670987 4.8232646 6.9419516 4.6464844 6.8398438 L 4.453125 6.7285156 C 4.7387272 6.3241048 5.0826081 5.9810362 5.4707031 5.7050781 L 5.5898438 5.9140625 C 5.6918871 6.091003 5.9149309 6.1469223 6.0917969 6.0449219 L 6.1386719 6.0214844 C 6.3156119 5.9195368 6.3735922 5.6924478 6.2714844 5.515625 L 6.1542969 5.3085938 C 6.606372 5.0976959 7.0915892 4.9648777 7.5878906 4.9160156 L 7.5878906 5.1699219 C 7.5878906 5.3740519 7.7529121 5.5371094 7.9570312 5.5371094 L 8.0117188 5.5371094 C 8.2157739 5.5371094 8.375 5.3740625 8.375 5.1699219 L 8.3789062 4.90625 z " />
</svg>
