<?xml version="1.0" encoding="UTF-8" standalone="no"?>
<svg
   height="16px"
   viewBox="0 0 16 16"
   width="16px"
   version="1.1"
   id="svg5"
   sodipodi:docname="cassette-wave-genre-metal.svg"
   inkscape:version="1.3.2 (091e20ef0f, 2023-11-25)"
   xmlns:inkscape="http://www.inkscape.org/namespaces/inkscape"
   xmlns:sodipodi="http://sodipodi.sourceforge.net/DTD/sodipodi-0.dtd"
   xmlns="http://www.w3.org/2000/svg"
   xmlns:svg="http://www.w3.org/2000/svg">
  <defs
     id="defs5" />
  <sodipodi:namedview
     id="namedview5"
     pagecolor="#ffffff"
     bordercolor="#000000"
     borderopacity="0.25"
     inkscape:showpageshadow="2"
     inkscape:pageopacity="0.0"
     inkscape:pagecheckerboard="0"
     inkscape:deskcolor="#d1d1d1"
     inkscape:zoom="16"
     inkscape:cx="-2.78125"
     inkscape:cy="16.90625"
     inkscape:window-width="1920"
     inkscape:window-height="1131"
     inkscape:window-x="0"
     inkscape:window-y="0"
     inkscape:window-maximized="1"
     inkscape:current-layer="svg5" />
  <path
     id="path30"
     style="fill:#2e3436;fill-opacity:1;stroke-width:3.49216;stroke-dasharray:none;paint-order:stroke markers fill"
     d="M 14.083984 0.453125 C 14.068046 0.45312504 14.052844 0.45428566 14.037109 0.45507812 C 14.010346 0.45644632 13.983619 0.45918523 13.957031 0.46289062 C 13.945199 0.46451153 13.933557 0.46668709 13.921875 0.46875 C 13.917365 0.46955689 13.912703 0.46982833 13.908203 0.47070312 C 13.829574 0.48581976 13.753629 0.51127315 13.683594 0.54492188 C 13.674405 0.54937711 13.665319 0.55381417 13.65625 0.55859375 C 13.606239 0.58475751 13.55965 0.61582832 13.515625 0.65039062 C 13.51125 0.65383383 13.50628 0.65662259 13.501953 0.66015625 C 13.500548 0.66130082 13.499445 0.66290979 13.498047 0.6640625 C 13.496987 0.66493793 13.495197 0.66513473 13.494141 0.66601562 C 13.472636 0.68392085 13.451411 0.70483898 13.431641 0.72460938 C 13.421603 0.73467927 13.411907 0.74338006 13.402344 0.75390625 L 8.5703125 5.5859375 C 7.7929375 5.1916159 6.8560148 5.1410876 6.03125 5.5488281 L 1.6035156 7.7382812 C 1.3403494 7.8684081 1.1041744 8.0378847 0.90039062 8.234375 C 0.89852163 8.236135 0.89639325 8.2384644 0.89453125 8.2402344 L 0.89257812 8.2421875 L 0.89257812 8.2441406 C 0.016032192 9.0962821 -0.27430964 10.473722 0.2890625 11.613281 L 0.34765625 11.732422 C 0.37315542 11.784042 0.40220875 11.835016 0.43164062 11.884766 C 0.4597337 11.932256 0.49016291 11.979751 0.52148438 12.025391 C 0.54874765 12.065061 0.57600898 12.104357 0.60546875 12.142578 C 0.61425474 12.153878 0.62388751 12.164631 0.6328125 12.175781 C 0.66049417 12.210571 0.68936003 12.243881 0.71875 12.277344 C 1.1109371 12.724532 1.6402322 13.048982 2.1113281 13.177734 C 2.2127741 13.205424 2.2743305 13.172341 2.3652344 13.181641 C 2.3740044 13.271741 2.3415397 13.334586 2.3691406 13.435547 C 2.4977509 13.906129 2.823095 14.436065 3.2695312 14.828125 C 3.3034882 14.857895 3.3377369 14.887986 3.3730469 14.916016 C 3.3840639 14.924816 3.395024 14.934649 3.40625 14.943359 C 3.44446 14.972789 3.4818376 15.000154 3.5214844 15.027344 C 3.6149393 15.091474 3.7134952 15.149315 3.8144531 15.199219 L 3.9316406 15.257812 C 5.0718052 15.821486 6.4526675 15.529981 7.3046875 14.652344 C 7.3069575 14.650044 7.3082869 14.648784 7.3105469 14.646484 C 7.3605828 14.595054 7.4089316 14.539865 7.4550781 14.484375 C 7.5905733 14.32057 7.7095393 14.139849 7.8066406 13.943359 L 9.9960938 9.5136719 C 10.402474 8.6916532 10.351915 7.7600343 9.9609375 6.984375 L 14.519531 2.4257812 L 15.080078 2.4257812 C 15.590099 2.4257868 16.000003 2.0158687 16 1.5058594 L 16 1.375 C 16.000004 0.86499773 15.590092 0.45312291 15.080078 0.453125 L 14.083984 0.453125 z M 6.7597656 7.3964844 L 5.7558594 8.4003906 C 5.3952272 8.7610089 5.3952265 9.3424866 5.7558594 9.703125 L 5.8476562 9.7949219 C 6.2082961 10.155567 6.7897598 10.155553 7.1503906 9.7949219 L 8.1386719 8.8066406 L 6.0332031 13.066406 C 5.9908372 13.152146 5.9376779 13.229455 5.875 13.294922 C 5.6383335 13.544139 5.2787099 13.643287 4.9433594 13.541016 C 4.8954704 13.526426 4.847227 13.507335 4.8007812 13.484375 L 4.6835938 13.425781 C 4.6561908 13.412181 4.6303887 13.398472 4.6054688 13.382812 C 4.6045721 13.382315 4.6024525 13.381359 4.6015625 13.380859 C 4.5756935 13.364469 4.5505977 13.346705 4.5273438 13.328125 C 4.5226938 13.324425 4.5182789 13.320186 4.5136719 13.316406 C 4.2156941 13.058699 4.1841461 12.623713 4.2695312 12.195312 L 4.4980469 11.052734 L 4.4941406 11.052734 L 4.4941406 11.046875 L 3.3515625 11.277344 C 2.9229548 11.362774 2.4881447 11.331589 2.2304688 11.033203 C 2.2265788 11.028703 2.222447 11.024101 2.21875 11.019531 C 2.200133 10.996311 2.1844727 10.971202 2.1679688 10.945312 C 2.1515828 10.919443 2.1352067 10.891841 2.1210938 10.863281 L 2.0625 10.746094 C 2.0395135 10.699641 2.0205021 10.65146 2.0058594 10.603516 C 1.9035955 10.268172 2.0027219 9.9065743 2.2519531 9.6699219 C 2.31742 9.6072441 2.3947322 9.556038 2.4804688 9.5136719 L 6.7597656 7.3964844 z M 4.6152344 9.2304688 L 3.9453125 9.9003906 L 5.5703125 11.525391 L 6.2402344 10.855469 L 4.6152344 9.2304688 z " />
</svg>
