<?xml version="1.0" encoding="UTF-8" standalone="no"?>
<svg
   height="16px"
   viewBox="0 0 16 16"
   width="16px"
   version="1.1"
   id="svg5"
   sodipodi:docname="cassette-wave-genre-indie.svg"
   inkscape:version="1.3.2 (091e20ef0f, 2023-11-25)"
   xmlns:inkscape="http://www.inkscape.org/namespaces/inkscape"
   xmlns:sodipodi="http://sodipodi.sourceforge.net/DTD/sodipodi-0.dtd"
   xmlns="http://www.w3.org/2000/svg"
   xmlns:svg="http://www.w3.org/2000/svg">
  <defs
     id="defs5" />
  <sodipodi:namedview
     id="namedview5"
     pagecolor="#ffffff"
     bordercolor="#000000"
     borderopacity="0.25"
     inkscape:showpageshadow="2"
     inkscape:pageopacity="0.0"
     inkscape:pagecheckerboard="0"
     inkscape:deskcolor="#d1d1d1"
     inkscape:zoom="32"
     inkscape:cx="9.390625"
     inkscape:cy="9.109375"
     inkscape:window-width="1920"
     inkscape:window-height="1131"
     inkscape:window-x="0"
     inkscape:window-y="0"
     inkscape:window-maximized="1"
     inkscape:current-layer="svg5" />
  <path
     id="path19"
     style="fill:#2e3436;fill-opacity:1;stroke-width:3.86525;paint-order:stroke markers fill"
     d="M 13.009766 0.0234375 C 10.918646 -0.029334667 9.4256702 0.91125877 7.7578125 1.8515625 C 6.2984289 2.6743155 5.0333099 3.4791353 4.0800781 4.3691406 L 4.0800781 4.3710938 C 3.9815272 4.4631197 3.8906178 4.5564629 3.7988281 4.6503906 C 3.7965181 4.6514306 3.7737016 4.6658874 3.6738281 4.7617188 C 1.8108988 6.5478049 1.5377687 9.4484894 2.9804688 11.519531 L 0.31445312 14.117188 C -0.089915741 14.511054 -0.10746297 15.151116 0.28320312 15.558594 L 0.3828125 15.662109 C 0.77347547 16.069585 1.4198511 16.087267 1.8242188 15.693359 L 4.5800781 13.007812 C 6.5502436 14.173834 9.1560448 13.915709 10.873047 12.269531 C 10.975461 12.171381 10.999769 12.141539 11.001953 12.138672 L 11.011719 12.128906 C 12.043229 11.194699 12.984064 9.8728646 13.951172 8.3144531 C 14.956485 6.6945109 15.948982 5.2430265 15.996094 3.1699219 C 15.995365 3.1891189 15.995117 3.2030521 15.996094 3.1582031 C 15.996348 3.1527431 15.997847 3.1367664 15.998047 3.1464844 L 16 3.1347656 L 16 3.1308594 L 16 3.1289062 L 16 3.1269531 L 16 3.125 L 16 3.1230469 L 16 3.1191406 C 16.0034 2.9312973 15.989652 2.7730975 15.976562 2.6542969 C 15.971763 2.6116229 15.973403 2.6211981 15.970703 2.5957031 C 15.906703 2.0974438 15.703187 1.4573762 15.199219 0.9296875 C 15.203019 0.9341325 15.189281 0.92262609 15.181641 0.9140625 L 15.171875 0.90234375 C 14.994964 0.72240582 14.896913 0.65533207 14.958984 0.70703125 C 14.218915 0.090657576 13.220115 0.029457414 13.056641 0.0234375 L 13.041016 0.0234375 C 13.030366 0.02313503 13.020436 0.02358386 13.009766 0.0234375 z M 12.955078 2.2070312 C 12.959378 2.2075135 12.963407 2.207353 12.966797 2.2070312 C 12.968497 2.2069149 12.972909 2.2071586 12.974609 2.2070312 C 13.007209 2.2076743 13.039313 2.2100606 13.070312 2.2128906 L 13.074219 2.2128906 C 13.108749 2.2158206 13.139455 2.2215045 13.171875 2.2265625 C 13.265395 2.2416325 13.349378 2.2690615 13.423828 2.3046875 C 13.473738 2.3285565 13.519982 2.3548479 13.560547 2.3886719 C 13.577317 2.4025619 13.594295 2.4159296 13.609375 2.4316406 C 13.610875 2.4327606 13.611681 2.4344069 13.613281 2.4355469 C 13.615581 2.4377769 13.616941 2.4400194 13.619141 2.4433594 C 13.72527 2.5544351 13.785152 2.7069557 13.806641 2.890625 C 13.807057 2.892825 13.808194 2.8932044 13.808594 2.8964844 C 13.815094 2.9552473 13.817606 3.0169474 13.816406 3.0820312 C 13.816126 3.0842212 13.816682 3.0876638 13.816406 3.0898438 C 13.816128 3.0920337 13.816684 3.0935231 13.816406 3.0957031 C 13.816083 3.1011531 13.814853 3.1090204 13.814453 3.1152344 C 13.796583 3.9701474 13.185065 5.3227669 12.400391 6.6601562 L 11.087891 6.671875 L 11.84375 5.9335938 C 12.248171 5.5397358 12.265736 4.9015535 11.875 4.4941406 L 11.773438 4.3886719 C 11.382711 3.9812587 10.738353 3.9655079 10.333984 4.359375 L 7.6230469 7 L 7.6152344 4.4824219 C 9.4278967 3.3262309 11.731266 2.1762251 12.955078 2.2070312 z M 5.4375 6.0976562 L 5.4472656 9.0292969 C 5.4473492 9.0573558 5.4489119 9.0837702 5.4511719 9.1113281 L 4.5820312 9.9589844 C 3.9667011 8.7951643 4.1739961 7.3096564 5.1855469 6.3398438 C 5.2115058 6.3149548 5.251088 6.2813272 5.28125 6.2539062 C 5.317185 6.2156893 5.3559416 6.1741449 5.3984375 6.1328125 C 5.4098715 6.1217005 5.425603 6.1089782 5.4375 6.0976562 z M 10.951172 8.8535156 C 10.377922 9.6311324 9.8347883 10.268592 9.453125 10.599609 C 9.423382 10.629669 9.3881581 10.669553 9.3613281 10.695312 C 8.4998977 11.521214 7.2890945 11.746646 6.2460938 11.386719 L 8.8398438 8.859375 C 8.8816107 8.864625 8.9234665 8.8693006 8.9667969 8.8691406 L 10.951172 8.8535156 z " />
</svg>
