<?xml version="1.0" encoding="UTF-8" standalone="no"?>
<svg
   height="16px"
   viewBox="0 0 16 16"
   width="16px"
   version="1.1"
   id="svg5"
   sodipodi:docname="cassette-wave-era-for_exam.svg"
   inkscape:version="1.3.2 (091e20ef0f, 2023-11-25)"
   xmlns:inkscape="http://www.inkscape.org/namespaces/inkscape"
   xmlns:sodipodi="http://sodipodi.sourceforge.net/DTD/sodipodi-0.dtd"
   xmlns="http://www.w3.org/2000/svg"
   xmlns:svg="http://www.w3.org/2000/svg">
  <defs
     id="defs5" />
  <sodipodi:namedview
     id="namedview5"
     pagecolor="#ffffff"
     bordercolor="#000000"
     borderopacity="0.25"
     inkscape:showpageshadow="2"
     inkscape:pageopacity="0.0"
     inkscape:pagecheckerboard="0"
     inkscape:deskcolor="#d1d1d1"
     inkscape:zoom="16"
     inkscape:cx="0.40625"
     inkscape:cy="14.28125"
     inkscape:window-width="1920"
     inkscape:window-height="1131"
     inkscape:window-x="0"
     inkscape:window-y="0"
     inkscape:window-maximized="1"
     inkscape:current-layer="svg5" />
  <path
     id="path293"
     style="color:#000000;fill:#2e3436;fill-opacity:1;stroke-width:1.11322;stroke-linecap:round;stroke-linejoin:round;stroke-miterlimit:0;-inkscape-stroke:none;paint-order:stroke fill markers"
     d="m 8.4996926,-1.375e-6 c -3.9908402,0 -7.2750238,3.284244475 -7.2750238,7.275024275 0,0.7606958 0.1199956,1.4971082 0.3408012,2.1886131 C 1.9310318,9.322431 2.2278375,9.206988 2.6371226,9.0499468 L 3.6477067,8.6618674 C 3.5614097,8.3632409 3.503939,8.0519473 3.4743512,7.734021 H 3.716655 c 0.2370932,0 0.4276127,-0.1904082 0.427479,-0.427479 V 7.2454735 C 4.1440005,7.0083906 3.9537371,6.8179945 3.716655,6.8179945 H 3.4723812 C 3.5270356,6.2197058 3.6874517,5.6510743 3.9353194,5.1297479 L 4.1264045,5.240064 c 0.2053288,0.1185465 0.4666552,0.047779 0.585075,-0.1575959 l 0.031519,-0.051219 C 4.8614241,4.8258635 4.7907215,4.5647161 4.5854027,4.4461747 L 4.4021975,4.3397972 C 4.7345137,3.87915 5.1433488,3.4772717 5.6078066,3.1499481 l 0.098497,0.169416 C 5.8248563,3.524616 6.0861363,3.5936022 6.291379,3.4749892 L 6.344568,3.4454412 C 6.5498104,3.3267269 6.618726,3.0657188 6.5001938,2.8603659 L 6.4016963,2.69095 C 6.9095116,2.4563262 7.4613794,2.3027324 8.0406944,2.2496813 v 0.2009351 c 0,0.2370233 0.1904045,0.4272772 0.427479,0.4274789 H 8.529242 C 8.7663064,2.8781962 8.958691,2.6877406 8.958691,2.4506164 V 2.2496813 c 0.5761928,0.052994 1.12562,0.2046256 1.631119,0.4373281 l -0.100469,0.1733565 c -0.118542,0.2053529 -0.04962,0.466361 0.155627,0.5850749 l 0.05318,0.031519 c 0.205243,0.1186131 0.466523,0.047656 0.585076,-0.1575959 l 0.100468,-0.1753254 c 0.464136,0.3258398 0.870874,0.7270424 1.203639,1.1859094 l -0.191085,0.1103172 c -0.05443,0.031433 -0.09759,0.072457 -0.131987,0.1201662 L 8.9114121,6.4831024 8.9252017,4.0915843 C 8.927219,3.85456 8.7347669,3.6624371 8.4977227,3.6621345 H 8.4366547 C 8.19956,3.6618319 8.0086077,3.8525901 8.0072058,4.0896145 l -0.01576,2.5806332 C 7.800194,6.8205927 7.6768535,7.0521443 7.6762537,7.3144213 c -1.412e-4,0.4551876 0.3682619,0.8256103 0.8234389,0.8254085 0.455177,2.018e-4 0.8255497,-0.3702209 0.8254085,-0.8254085 -8e-6,-0.00408 -0.00192,-0.00776 -0.00202,-0.01182 L 13.071898,5.1514169 c 0.242096,0.5154584 0.399186,1.0765151 0.453089,1.6665776 h -0.262004 c -0.237082,0 -0.427345,0.1903961 -0.427479,0.427479 v 0.061069 c -1.33e-4,0.2370708 0.190386,0.427479 0.427479,0.427479 h 0.267913 c -0.04188,0.5977794 -0.172684,1.138672 -0.405762,1.6429377 L 12.853281,9.2193627 C 12.647962,9.1008213 12.386862,9.1697359 12.268206,9.3749889 l -0.03152,0.053188 c -0.118651,0.2052429 -0.04774,0.4665285 0.157596,0.5850751 l 0.269883,0.155627 c 0.0885,0.05164 0.714895,0.420162 0.529917,1.073622 -0.07474,0.264055 -0.213101,0.422941 -0.303372,0.490517 -0.180482,0.13808 -0.224458,0.117962 -0.246244,0.128048 -0.479879,0.181852 -1.298444,0.444181 -2.013289,0.685542 l 0.02758,1.022404 c 0.0071,0.246303 0.005,0.455925 0,0.650083 2.950597,-0.928933 5.11596,-3.7036 5.11596,-6.9440723 0,-3.9907798 -3.284184,-7.275024275 -7.2750244,-7.275024075 z M 6.0195261,8.7524843 c -0.3193261,0 -0.6378496,0.044655 -0.8825375,0.1339571 L 0.59231486,10.543169 c -0.4893758,0.178603 -0.4893758,0.467541 0,0.646144 l 0.25806342,0.09456 -0.0157596,2.655492 c -0.002017,0.237125 0.20023862,0.496926 0.42747912,0.42945 h 0.061069 c 0.2370947,6.05e-4 0.4280673,-0.188485 0.4294491,-0.425509 l 0.01379,-2.326511 0.4353589,0.159565 v 2.35212 c 0,0 -0.00258,0.427729 0.1280467,0.614625 0.1307465,0.186795 0.5299164,0.291552 0.5299164,0.291552 l 2.2477126,0.819499 c 0.5327494,0.194461 1.3879614,0.194461 1.9207008,0 l 2.0132885,-0.734791 c 0,0 0.4862596,-0.214126 0.6658433,-0.470817 0.1795727,-0.256693 0.1772952,-0.817529 0.1772952,-0.817529 V 11.79212 l 1.6074787,-0.587045 c 0.489376,-0.178602 0.489376,-0.465571 0,-0.644173 L 6.9040335,8.8864414 C 6.6593455,8.7971397 6.3388521,8.7524843 6.0195261,8.7524843 Z" />
</svg>
