<?xml version="1.0" encoding="UTF-8" standalone="no"?>
<svg
   height="16px"
   viewBox="0 0 16 16"
   width="16px"
   version="1.1"
   id="svg5"
   sodipodi:docname="cassette-wave-mood-winter.svg"
   inkscape:version="1.3.2 (091e20ef0f, 2023-11-25)"
   xmlns:inkscape="http://www.inkscape.org/namespaces/inkscape"
   xmlns:sodipodi="http://sodipodi.sourceforge.net/DTD/sodipodi-0.dtd"
   xmlns="http://www.w3.org/2000/svg"
   xmlns:svg="http://www.w3.org/2000/svg">
  <defs
     id="defs5" />
  <sodipodi:namedview
     id="namedview5"
     pagecolor="#ffffff"
     bordercolor="#000000"
     borderopacity="0.25"
     inkscape:showpageshadow="2"
     inkscape:pageopacity="0.0"
     inkscape:pagecheckerboard="0"
     inkscape:deskcolor="#d1d1d1"
     inkscape:zoom="22.627417"
     inkscape:cx="6.0325047"
     inkscape:cy="15.711029"
     inkscape:window-width="1920"
     inkscape:window-height="1131"
     inkscape:window-x="0"
     inkscape:window-y="0"
     inkscape:window-maximized="1"
     inkscape:current-layer="svg5" />
  <path
     id="path1188"
     style="fill:#2e3436;fill-opacity:1;stroke-width:3.60346;paint-order:stroke markers fill"
     d="M 8.0019531 0 C 3.5981673 0 0 3.6160419 0 8.0019531 C 0 12.387855 3.5981673 16 8.0019531 16 C 12.405718 16 16.00001 12.387854 16 8.0019531 C 16 3.6160419 12.405718 1.1842367e-15 8.0019531 0 z M 8.0019531 1.9550781 C 11.333305 1.9552955 14.031784 4.6632588 14.03125 8.0019531 C 14.030693 11.339875 11.332533 14.044705 8.0019531 14.044922 C 4.6705947 14.045808 1.9693073 11.340655 1.96875 8.0019531 C 1.9682157 4.6624786 4.669823 1.954192 8.0019531 1.9550781 z M 6.1542969 4.1914062 C 6.0850565 4.1989919 6.0178932 4.2200019 5.953125 4.2558594 L 5.8867188 4.2949219 C 5.8704688 4.3039219 5.8549937 4.3120656 5.8398438 4.3222656 C 5.617636 4.4763255 5.5433363 4.7748384 5.6738281 5.0175781 C 5.5641802 5.0847781 5.4779941 5.192352 5.4394531 5.3261719 L 5.4179688 5.4023438 C 5.3358088 5.6880935 5.4993985 5.9804301 5.7851562 6.0625 L 6.2636719 6.203125 C 6.182382 6.2830249 6.1041181 6.3698707 6.0332031 6.4628906 C 5.8394303 6.7165604 5.7012945 6.9966128 5.6191406 7.2890625 L 5.2617188 6.9160156 C 5.056057 6.7028558 4.7140738 6.7002171 4.5 6.9042969 L 4.4472656 6.9550781 C 4.3469757 7.051778 4.2916361 7.182127 4.2832031 7.3105469 C 3.9894194 7.3095469 3.7514527 7.5413778 3.7460938 7.8359375 L 3.7421875 7.9140625 C 3.7368875 8.2097522 3.9705713 8.4493013 4.265625 8.4570312 C 4.245485 8.6129211 4.2940185 8.7721414 4.4121094 8.8945312 L 4.4648438 8.953125 C 4.6712365 9.1670848 5.0106466 9.1732367 5.2246094 8.9667969 L 5.6074219 8.5996094 C 5.7099898 9.005179 5.9100465 9.3866622 6.2070312 9.7011719 L 5.7011719 9.8261719 C 5.4126402 9.8978718 5.2388049 10.188133 5.3105469 10.476562 L 5.328125 10.548828 C 5.361755 10.684018 5.4458015 10.797631 5.5527344 10.869141 C 5.4046875 11.12303 5.4856635 11.445696 5.7382812 11.597656 L 5.8066406 11.638672 C 6.0592924 11.790652 6.3803314 11.708884 6.5351562 11.458984 L 6.5410156 11.458984 C 6.6651295 11.550784 6.8279705 11.591141 6.9902344 11.550781 L 7.0644531 11.529297 C 7.3529728 11.457597 7.5268101 11.169299 7.4550781 10.880859 L 7.3320312 10.376953 C 7.7458998 10.492573 8.1842067 10.501707 8.5976562 10.404297 L 8.4570312 10.888672 C 8.3749513 11.174422 8.538395 11.472668 8.8242188 11.554688 L 8.9003906 11.574219 C 9.0343185 11.612719 9.1736866 11.595962 9.2890625 11.539062 C 9.4348364 11.794482 9.7556271 11.88703 10.013672 11.744141 L 10.080078 11.707031 C 10.339326 11.563891 10.432618 11.240068 10.291016 10.980469 L 10.294922 10.978516 C 10.436614 10.917016 10.549454 10.795345 10.595703 10.634766 L 10.617188 10.5625 C 10.699267 10.27676 10.535826 9.9785243 10.25 9.8964844 L 9.7675781 9.7578125 C 9.850858 9.6762126 9.9294782 9.5910637 10.001953 9.4960938 C 10.185949 9.255374 10.319134 8.9892903 10.402344 8.7128906 L 10.740234 9.0625 C 10.946608 9.2764298 11.284095 9.2845648 11.498047 9.078125 L 11.554688 9.0234375 C 11.67505 8.9073676 11.726849 8.7477298 11.714844 8.59375 C 12.010033 8.59675 12.252447 8.3581397 12.257812 8.0625 L 12.257812 7.9882812 C 12.263112 7.6926615 12.031248 7.4512694 11.736328 7.4433594 L 11.738281 7.4394531 C 11.734381 7.3108533 11.686591 7.1842943 11.589844 7.0839844 L 11.533203 7.0292969 C 11.326827 6.8153671 10.989353 6.8092052 10.775391 7.015625 L 10.425781 7.3515625 C 10.323156 6.9534329 10.126363 6.5777978 9.8359375 6.2675781 L 10.298828 6.1542969 C 10.587355 6.0825969 10.761184 5.7942891 10.689453 5.5058594 L 10.673828 5.4296875 C 10.633498 5.2674977 10.520212 5.1427618 10.380859 5.0761719 C 10.532047 4.8216921 10.447285 4.4906405 10.193359 4.3378906 L 10.128906 4.3007812 C 9.8755225 4.1483814 9.5488191 4.2269859 9.3945312 4.4785156 C 9.2812554 4.4175157 9.1450075 4.3979407 9.0097656 4.4316406 L 8.9375 4.4492188 C 8.6490423 4.5210187 8.4751421 4.8111797 8.546875 5.0996094 L 8.6640625 5.5703125 C 8.2608929 5.4646126 7.8387996 5.4616407 7.4375 5.5566406 L 7.578125 5.0722656 C 7.6601549 4.7865959 7.4947371 4.490273 7.2089844 4.4082031 L 7.1347656 4.3867188 C 6.9738698 4.3402188 6.8090245 4.3754907 6.6816406 4.4628906 C 6.5729702 4.2695633 6.3620179 4.1686494 6.1542969 4.1914062 z " />
</svg>
