<?xml version="1.0" encoding="UTF-8" standalone="no"?>
<svg
   height="16px"
   viewBox="0 0 16 16"
   width="16px"
   version="1.1"
   id="svg5"
   sodipodi:docname="cassette-wave-era-white_noise.svg"
   inkscape:version="1.3.2 (091e20ef0f, 2023-11-25)"
   xmlns:inkscape="http://www.inkscape.org/namespaces/inkscape"
   xmlns:sodipodi="http://sodipodi.sourceforge.net/DTD/sodipodi-0.dtd"
   xmlns="http://www.w3.org/2000/svg"
   xmlns:svg="http://www.w3.org/2000/svg">
  <defs
     id="defs5" />
  <sodipodi:namedview
     id="namedview5"
     pagecolor="#ffffff"
     bordercolor="#000000"
     borderopacity="0.25"
     inkscape:showpageshadow="2"
     inkscape:pageopacity="0.0"
     inkscape:pagecheckerboard="0"
     inkscape:deskcolor="#d1d1d1"
     inkscape:zoom="16"
     inkscape:cx="0.40625"
     inkscape:cy="19.28125"
     inkscape:window-width="1920"
     inkscape:window-height="1131"
     inkscape:window-x="0"
     inkscape:window-y="0"
     inkscape:window-maximized="1"
     inkscape:current-layer="svg5" />
  <path
     id="path284"
     style="fill:#2e3436;fill-opacity:1;stroke-width:4.29263;paint-order:stroke markers fill"
     d="M 4.5585938 0.1953125 C 3.9316744 0.1953125 3.4277344 0.70121563 3.4277344 1.328125 L 3.4277344 14.671875 C 3.4277344 15.298784 3.9316744 15.804688 4.5585938 15.804688 L 4.7207031 15.804688 C 5.3476125 15.804688 5.8515625 15.298784 5.8515625 14.671875 L 5.8515625 1.328125 C 5.8515625 0.70121563 5.3476125 0.1953125 4.7207031 0.1953125 L 4.5585938 0.1953125 z M 7.953125 1.4082031 C 7.3262156 1.4082031 6.8222656 1.9121531 6.8222656 2.5390625 L 6.8222656 13.460938 C 6.8222656 14.087847 7.3262156 14.591797 7.953125 14.591797 L 8.1152344 14.591797 C 8.7421437 14.591797 9.2460938 14.087847 9.2460938 13.460938 L 9.2460938 2.5390625 C 9.2460938 1.9121531 8.7421437 1.4082031 8.1152344 1.4082031 L 7.953125 1.4082031 z M 11.347656 3.8320312 C 10.720727 3.8320312 10.214844 4.3359813 10.214844 4.9628906 L 10.214844 11.037109 C 10.214844 11.664019 10.720727 12.167969 11.347656 12.167969 L 11.507812 12.167969 C 12.134722 12.167969 12.640625 11.664019 12.640625 11.037109 L 12.640625 4.9628906 C 12.640625 4.3359813 12.134722 3.8320313 11.507812 3.8320312 L 11.347656 3.8320312 z M 1.1660156 4.5644531 C 0.5390963 4.5644531 0.033203125 5.0751081 0.033203125 5.7109375 L 0.033203125 10.289062 C 0.033203125 10.924882 0.5390963 11.435547 1.1660156 11.435547 L 1.3261719 11.435547 C 1.9530712 11.435547 2.4589844 10.924882 2.4589844 10.289062 L 2.4589844 5.7109375 C 2.4589844 5.0751081 1.9530712 4.5644531 1.3261719 4.5644531 L 1.1660156 4.5644531 z M 14.742188 6.2558594 C 14.115268 6.2558594 13.609375 6.7617625 13.609375 7.3886719 L 13.609375 8.6113281 C 13.609375 9.2382375 14.115268 9.7441406 14.742188 9.7441406 L 14.902344 9.7441406 C 15.529253 9.7441406 16.033203 9.2382375 16.033203 8.6113281 L 16.033203 7.3886719 C 16.033203 6.7617625 15.529253 6.2558594 14.902344 6.2558594 L 14.742188 6.2558594 z " />
</svg>
