<?xml version="1.0" encoding="UTF-8" standalone="no"?>
<svg
   height="16px"
   viewBox="0 0 16 16"
   width="16px"
   version="1.1"
   id="svg5"
   sodipodi:docname="cassette-wave-genre-music_of_world.svg"
   inkscape:version="1.3.2 (091e20ef0f, 2023-11-25)"
   xmlns:inkscape="http://www.inkscape.org/namespaces/inkscape"
   xmlns:sodipodi="http://sodipodi.sourceforge.net/DTD/sodipodi-0.dtd"
   xmlns="http://www.w3.org/2000/svg"
   xmlns:svg="http://www.w3.org/2000/svg">
  <defs
     id="defs5" />
  <sodipodi:namedview
     id="namedview5"
     pagecolor="#ffffff"
     bordercolor="#000000"
     borderopacity="0.25"
     inkscape:showpageshadow="2"
     inkscape:pageopacity="0.0"
     inkscape:pagecheckerboard="0"
     inkscape:deskcolor="#d1d1d1"
     inkscape:zoom="16"
     inkscape:cx="-4.65625"
     inkscape:cy="16.15625"
     inkscape:window-width="1920"
     inkscape:window-height="1131"
     inkscape:window-x="0"
     inkscape:window-y="0"
     inkscape:window-maximized="1"
     inkscape:current-layer="svg5" />
  <path
     id="path230"
     style="color:#000000;fill:#2e3436;fill-opacity:1;stroke-width:1.19521;stroke-linecap:round;stroke-linejoin:round;stroke-miterlimit:0;-inkscape-stroke:none;paint-order:stroke fill markers"
     d="M 7.9999987,-2.5e-7 C 3.6098256,-2.5e-7 -3e-7,3.6098258 -3e-7,7.9999989 -3e-7,12.390148 3.6098256,16 7.9999987,16 12.390138,16 16,12.390148 16,7.9999988 16,3.6098257 12.390138,-2.5e-7 7.9999987,-2.5e-7 Z m 0,2.39042885 a 5.6099799,5.6099799 0 0 1 1.3586226,0.1890865 c 0.09084,0.1639595 0.180059,0.3372298 0.261453,0.5229063 0.4122417,0.1658121 0.8028847,0.3691456 1.1718707,0.6069454 -0.0747,-0.2371305 -0.153202,-0.4682682 -0.23811,-0.6839805 a 5.6099799,5.6099799 0 0 1 1.533704,1.1601982 c -0.165931,0.036334 -0.343231,0.068295 -0.515903,0.1027167 0.22274,0.1896446 0.434736,0.3924032 0.634957,0.6069442 l 0.130727,0.1400648 c 0.119521,-0.026175 0.236998,-0.054514 0.350161,-0.084035 a 5.6099799,5.6099799 0 0 1 0.882404,2.6028602 h -1.944558 -0.235774 v -0.228773 c -0.006,-0.1072106 -0.01408,-0.2115589 -0.02101,-0.3174788 L 10.362412,8.0723715 10.262034,7.9626507 v 0.4832217 l 0.242777,-0.00705 -0.0047,0.2544504 c -0.03191,0.5851165 -0.09633,1.1648325 -0.172746,1.7181202 l -0.03735,0.221768 -0.105049,-0.0093 c -0.06574,0.300992 -0.169333,0.586791 -0.3104747,0.852057 l 0.2497807,0.01634 -0.09571,0.291801 c -0.1208827,0.394325 -0.2482427,0.764107 -0.3945137,1.094834 -0.08331,0.19604 -0.172966,0.37467 -0.266121,0.541582 A 5.6099799,5.6099799 0 0 1 8.0000039,13.609536 5.6099799,5.6099799 0 0 1 6.6437165,13.422784 c -0.030717,-0.05438 -0.058588,-0.118087 -0.088708,-0.17508 -0.4060382,-0.04315 -0.7906558,-0.159825 -1.1415229,-0.336154 0.00717,0.01888 0.013719,0.03984 0.021009,0.05836 A 5.6099799,5.6099799 0 0 1 3.9101177,11.814383 c 0.067171,-0.01482 0.1398903,-0.02804 0.2100972,-0.04202 -0.1690033,-0.251305 -0.3049446,-0.527014 -0.401518,-0.819375 -0.1375094,0.03 -0.2791268,0.05817 -0.4085207,0.09104 A 5.6099799,5.6099799 0 0 1 2.4277722,8.445833 H 3.8937767 C 4.0562303,8.1155367 4.2695378,7.8132012 4.5264001,7.5540919 H 4.3746641 2.4277722 A 5.6099799,5.6099799 0 0 1 3.3125105,4.9535659 C 3.709752,5.0582666 4.1389821,5.1438798 4.5847612,5.2150191 l 0.2404425,0.03735 -0.03735,0.2427779 C 4.6923556,6.086635 4.6341834,6.7020402 4.6151077,7.3253194 L 4.6127777,7.472387 C 4.8801346,7.2209736 5.188084,7.012514 5.5255288,6.8584389 5.5551702,6.4252345 5.5970003,5.9968614 5.6585897,5.5838551 l 0.039685,-0.2241027 0.2287712,0.021012 c 0.471536,0.04494 0.9575114,0.072155 1.4496648,0.086378 V 4.5800685 C 6.9631184,4.5717021 6.5534407,4.5558893 6.155818,4.5217062 L 5.8826924,4.5030251 5.964396,4.2158939 C 6.0725629,3.8152102 6.205625,3.4464723 6.3519073,3.1093871 6.4359308,2.9228381 6.5261528,2.7503555 6.6180289,2.5864808 A 5.6099799,5.6099799 0 0 1 7.9999956,2.3903904 Z M 5.4344901,3.0300548 C 5.2954747,3.3862765 5.1669294,3.7690427 5.0609856,4.171579 L 4.9979571,4.3886776 4.78786,4.3560005 C 4.4836671,4.3020963 4.1921663,4.2460408 3.9147941,4.1832549 A 5.6099799,5.6099799 0 0 1 5.4344901,3.0300596 Z M 8.2731243,3.627662 V 7.866938 C 7.8823489,7.6053545 7.4130612,7.4514146 6.9074986,7.4514146 c -1.3582046,0 -2.4581269,1.1022566 -2.4581269,2.4604617 0,1.3582147 1.0999223,2.4581247 2.4581269,2.4581247 1.3184398,0 2.3939277,-1.036003 2.4557917,-2.339071 0.0012,-0.02367 0.0047,-0.0487 0.0047,-0.07237 V 5.8126597 c 0.327846,0.1957642 0.595332,0.4948439 0.8567257,0.7843595 0.049,0.054263 0.09831,0.1081788 0.147067,0.1610742 L 11.55296,5.506857 C 10.67179,4.5626746 9.5595323,3.8924737 8.2731243,3.627662 Z m 3.1234317,4.8182081 h 0.233441 1.939888 a 5.6099799,5.6099799 0 0 1 -0.882404,2.6028589 c -0.396644,-0.09956 -0.825634,-0.188125 -1.279253,-0.268456 l -0.235775,-0.03968 0.03968,-0.233441 c 0.0955,-0.5851157 0.152626,-1.2028557 0.184418,-1.832505 z m -0.408521,3.1677849 0.224103,0.03035 c 0.304062,0.049 0.590506,0.109709 0.873067,0.172746 a 5.6099799,5.6099799 0 0 1 -1.517363,1.150861 c 0.140701,-0.355493 0.265549,-0.737269 0.37117,-1.143857 z" />
</svg>
