<?xml version="1.0" encoding="UTF-8" standalone="no"?>
<svg
   height="16px"
   viewBox="0 0 16 16"
   width="16px"
   version="1.1"
   id="svg5"
   sodipodi:docname="cassette-wave-classes-work.svg"
   inkscape:version="1.3.2 (091e20ef0f, 2023-11-25)"
   xmlns:inkscape="http://www.inkscape.org/namespaces/inkscape"
   xmlns:sodipodi="http://sodipodi.sourceforge.net/DTD/sodipodi-0.dtd"
   xmlns="http://www.w3.org/2000/svg"
   xmlns:svg="http://www.w3.org/2000/svg">
  <defs
     id="defs5" />
  <sodipodi:namedview
     id="namedview5"
     pagecolor="#ffffff"
     bordercolor="#000000"
     borderopacity="0.25"
     inkscape:showpageshadow="2"
     inkscape:pageopacity="0.0"
     inkscape:pagecheckerboard="0"
     inkscape:deskcolor="#d1d1d1"
     inkscape:zoom="14.738757"
     inkscape:cx="-2.7478572"
     inkscape:cy="15.299798"
     inkscape:window-width="1920"
     inkscape:window-height="1131"
     inkscape:window-x="0"
     inkscape:window-y="0"
     inkscape:window-maximized="1"
     inkscape:current-layer="svg5" />
  <path
     id="path1481"
     style="color:#000000;fill:#2e3436;fill-opacity:1;stroke-width:1.22411;stroke-linecap:round;stroke-linejoin:round;stroke-miterlimit:0;-inkscape-stroke:none;paint-order:stroke fill markers"
     d="m 8.0683593,0.0683595 c -4.388394,0 -7.9999998,3.6116058 -7.9999998,8.0000003 0,4.3883942 3.6116058,8.0000002 7.9999998,8.0000002 4.3883947,0 7.9999997,-3.611606 7.9999997,-8.0000002 0,-4.3883945 -3.611605,-8.0000003 -7.9999997,-8.0000003 z M 7.5640501,2.5406571 v 0.2226051 c 0,0.2606996 0.2101208,0.4706739 0.47082,0.4708201 h 0.066978 C 8.3625354,3.2342286 8.5726683,3.0239739 8.5726683,2.7632622 V 2.5406571 C 9.2058497,2.5988725 9.8097844,2.7656304 10.36533,3.0213263 L 10.255012,3.214383 c -0.130349,0.2257712 -0.05234,0.5117297 0.173356,0.6422056 l 0.05713,0.033489 c 0.225689,0.1304709 0.513821,0.054397 0.644177,-0.1713854 l 0.110318,-0.1930567 c 0.510232,0.3585336 0.958031,0.7993373 1.323811,1.3041125 l -0.208815,0.1201678 c -0.05865,0.033863 -0.108261,0.078866 -0.145778,0.130017 l -3.6877625,2.113765 0.01379,-2.6259535 C 8.5372555,4.3070467 8.3270554,4.0953064 8.0663883,4.0949544 H 7.99941 C 7.7387026,4.0946014 7.5301232,4.3031575 7.5285901,4.5638036 l -0.01576,2.8387096 C 7.3015113,7.5678863 7.1628373,7.8226008 7.1621778,8.1116981 7.1620164,8.6122149 7.5678422,9.0180508 8.0683585,9.0178793 8.5688749,9.0180508 8.9747007,8.6122149 8.9745393,8.1116981 c -8.2e-6,-0.00405 -0.00191,-0.00778 -0.00197,-0.011819 L 13.097665,5.7339595 c 0.265392,0.5658845 0.437084,1.1826305 0.496429,1.830091 h -0.287616 c -0.260699,0 -0.470673,0.2101204 -0.47082,0.4708201 v 0.066978 c -1.46e-4,0.2606866 0.210109,0.4708201 0.47082,0.4708201 h 0.287614 c -0.05786,0.6293437 -0.221689,1.2300527 -0.47476,1.7828113 l -0.263974,-0.151686 c -0.225771,-0.13035 -0.5137,-0.05235 -0.644177,0.173357 l -0.03349,0.05713 c -0.13047,0.225688 -0.05243,0.513821 0.173356,0.644176 l 0.265945,0.153657 c -0.365996,0.522794 -0.818739,0.980139 -1.337602,1.351392 L 11.117851,12.303771 C 10.9875,12.078003 10.70149,12.000193 10.475643,12.130415 l -0.05713,0.03349 c -0.22583,0.130216 -0.303711,0.416423 -0.173356,0.642207 l 0.165476,0.287613 c -0.5679485,0.267634 -1.1875633,0.440573 -1.8379704,0.500373 v -0.334893 c 0,-0.260712 -0.2101329,-0.470968 -0.4708199,-0.47082 h -0.066978 c -0.2606992,1.48e-4 -0.47082,0.210121 -0.47082,0.47082 v 0.334893 C 6.9099146,13.53414 6.2868873,13.359846 5.7162297,13.089783 L 5.879736,12.808079 C 6.0100916,12.582296 5.934184,12.296088 5.7083496,12.165872 l -0.057129,-0.03349 C 5.4253752,12.002161 5.137394,12.078001 5.0070445,12.303769 L 4.8494479,12.577593 C 4.3297739,12.204386 3.8755185,11.745621 3.5098763,11.220292 L 3.7679409,11.070576 C 3.9937236,10.94022 4.0717677,10.654057 3.9412972,10.428369 l -0.035459,-0.05713 C 3.7753614,10.145543 3.4894036,10.067535 3.2636316,10.197884 L 3.011477,10.343661 C 2.7614254,9.7941303 2.5981118,9.1975808 2.5406569,8.572669 h 0.2679144 c 0.2607114,0 0.4709668,-0.2101335 0.47082,-0.4708201 V 8.0348706 C 3.2792444,7.7741709 3.0692704,7.5640505 2.8085713,7.5640505 H 2.5406569 C 2.6009441,6.9063091 2.7763068,6.279604 3.0489061,5.7063799 L 3.2596916,5.8285175 C 3.4854743,5.9588724 3.7736517,5.8829698 3.903868,5.657131 L 3.937357,5.600002 C 4.0675796,5.374156 3.989773,5.0861753 3.7640008,4.9558254 L 3.5650352,4.8415681 C 3.9306335,4.3343601 4.377697,3.8899355 4.888847,3.5295763 L 4.9971947,3.7167224 C 5.1275504,3.9425037 5.4137129,4.0205486 5.639401,3.8900777 L 5.6985,3.8546187 C 5.9241985,3.7241418 6.0002357,3.4381843 5.8698861,3.2124131 L 5.7615384,3.025267 C 6.3199161,2.7671 6.9270177,2.599046 7.5640501,2.5406571 Z" />
</svg>
