<?xml version="1.0" encoding="UTF-8" standalone="no"?>
<svg
   height="16px"
   viewBox="0 0 16 16"
   width="16px"
   version="1.1"
   id="svg5"
   sodipodi:docname="cassette-wave-era-1950s.svg"
   inkscape:version="1.3.2 (091e20ef0f, 2023-11-25)"
   xmlns:inkscape="http://www.inkscape.org/namespaces/inkscape"
   xmlns:sodipodi="http://sodipodi.sourceforge.net/DTD/sodipodi-0.dtd"
   xmlns="http://www.w3.org/2000/svg"
   xmlns:svg="http://www.w3.org/2000/svg">
  <defs
     id="defs5" />
  <sodipodi:namedview
     id="namedview5"
     pagecolor="#ffffff"
     bordercolor="#000000"
     borderopacity="0.25"
     inkscape:showpageshadow="2"
     inkscape:pageopacity="0.0"
     inkscape:pagecheckerboard="0"
     inkscape:deskcolor="#d1d1d1"
     inkscape:zoom="11.313709"
     inkscape:cx="2.6074561"
     inkscape:cy="17.545086"
     inkscape:window-width="1920"
     inkscape:window-height="1131"
     inkscape:window-x="0"
     inkscape:window-y="0"
     inkscape:window-maximized="1"
     inkscape:current-layer="svg5" />
  <path
     id="path62"
     style="color:#000000;-inkscape-font-specification:Nasalization;fill:#2e3436;fill-opacity:1;stroke-width:1.00153;stroke-linecap:round;stroke-linejoin:round;stroke-miterlimit:0;-inkscape-stroke:none;paint-order:stroke fill markers"
     d="m 13.811722,0.140625 c -0.651744,0 -1.234542,0.24856416 -1.622956,0.75347912 C 11.805535,1.3922908 11.638697,2.0915226 11.63411,2.9040445 11.577654,2.7664255 11.60595,2.6076817 11.507163,2.4885375 11.229713,2.1539057 10.780616,2.015101 10.251375,1.9895315 H 11.2396 A 0.43859943,0.50328994 0 0 0 11.680983,1.4825733 V 0.70921346 A 0.43859943,0.50328994 0 0 0 11.2396,0.20623136 H 8.5698295 c -0.1781086,0 -0.3915739,0.0543543 -0.5507503,0.23459245 C 7.8599039,0.62101098 7.8101077,0.86781025 7.8101067,1.0710425 v 1.72167 c 0,0.2032424 0.049795,0.4480434 0.2089725,0.6282305 0.1591764,0.1801873 0.3726417,0.2345925 0.5507503,0.2345925 h 1.6112375 c 0.09169,0 0.13464,0.012755 0.154288,0.01988 8.42e-4,0.00916 0.002,0.023364 0.002,0.065606 0,0.081126 -0.01076,0.1119758 -0.01367,0.1192843 -0.01016,0.00305 -0.03528,0.00994 -0.08789,0.00994 H 8.2651591 a 0.43859943,0.50328994 0 0 0 -0.4355223,0.502978 v 0.775348 a 0.43859943,0.50328994 0 0 0 0.4355223,0.502982 h 1.9510619 c 0.527979,0 0.979466,-0.1901885 1.273365,-0.55666 0.279615,-0.3486585 0.370701,-0.8108468 0.380839,-1.2743538 0.08941,0.3963873 0.09781,0.8589254 0.316388,1.143141 0.387917,0.5044163 0.970759,0.7514911 1.624909,0.7514911 0.65415,0 1.238946,-0.2470748 1.626861,-0.7514911 0.387917,-0.504406 0.560515,-1.2067233 0.560515,-2.029821 0,-0.8267723 -0.176008,-1.5328584 -0.564421,-2.03777331 C 15.046263,0.39117724 14.463465,0.14261307 13.811722,0.14261307 Z M 1.3827346,0.16646993 A 1.3828633,1.5819087 0 0 0 0,1.7489749 V 3.9875435 A 1.3828633,1.5819087 0 0 0 1.3827346,5.5700484 H 2.1639405 V 14.55812 a 1.3828633,1.5819087 0 0 0 1.3807816,1.582505 H 5.8668568 A 1.3828633,1.5819087 0 0 0 7.2495914,14.55812 V 4.8026528 C 7.2495914,3.5107956 7.0424725,2.1858229 6.159809,1.2718377 5.2771466,0.35787283 4.1279392,0.16646993 2.7791403,0.16646993 Z M 13.811722,1.9219371 c 0.291593,0 0.396358,0.069923 0.478489,0.1868788 0.08214,0.1169455 0.162099,0.370942 0.162099,0.8151093 0,0.4489208 -0.07886,0.7084604 -0.160147,0.8250497 -0.08127,0.1165791 -0.185352,0.1848906 -0.480441,0.1848906 -0.295091,0 -0.401874,-0.069618 -0.484348,-0.1868787 -0.08248,-0.1173222 -0.160147,-0.3752198 -0.160147,-0.8230616 0,-0.4441673 0.07778,-0.6983063 0.160147,-0.8151093 0.08237,-0.1167929 0.189255,-0.1868788 0.484348,-0.1868788 z M 8.636232,5.8881399 A 0.82572977,0.94751942 0 0 0 7.8101067,6.838438 v 8.353876 A 0.82572977,0.94751942 0 0 0 8.636232,16.138637 H 9.9095977 A 0.82572977,0.94751942 0 0 0 10.73377,15.192314 v -2.532803 c 0.514638,0.01201 0.869962,0.05561 0.925729,0.0835 0.06326,0.03155 0.07259,0.01818 0.24608,0.405567 l 1.109312,2.477138 a 0.82572977,0.94751942 0 0 0 0.734334,0.51491 h 1.423748 a 0.82572977,0.94751942 0 0 0 0.734333,-1.383697 l -1.175714,-2.622266 c -0.232374,-0.51997 -0.457704,-0.957069 -0.779253,-1.326044 -0.03596,-0.04133 -0.09453,-0.0469 -0.132806,-0.08549 0.228435,-0.307249 0.570718,-0.49477 0.730428,-0.8608343 l 0.002,-0.00198 1.144467,-2.5964214 a 0.82572977,0.94751942 0 0 0 -0.74024,-1.3757436 h -1.369063 a 0.82572977,0.94751942 0 0 0 -0.734333,0.5188866 l -1.111266,2.4990059 c -0.183419,0.4091416 -0.22036,0.428886 -0.24608,0.44334 -0.02224,0.01252 -0.325372,0.055739 -0.761676,0.069583 V 6.838438 A 0.82572977,0.94751942 0 0 0 9.9095977,5.8881399 Z" />
</svg>
