<?xml version="1.0" encoding="UTF-8" standalone="no"?>
<svg
   height="16px"
   viewBox="0 0 16 16"
   width="16px"
   version="1.1"
   id="svg5"
   sodipodi:docname="cassette-wave-mood-energetic.svg"
   inkscape:version="1.3.2 (091e20ef0f, 2023-11-25)"
   xmlns:inkscape="http://www.inkscape.org/namespaces/inkscape"
   xmlns:sodipodi="http://sodipodi.sourceforge.net/DTD/sodipodi-0.dtd"
   xmlns="http://www.w3.org/2000/svg"
   xmlns:svg="http://www.w3.org/2000/svg">
  <defs
     id="defs5" />
  <sodipodi:namedview
     id="namedview5"
     pagecolor="#ffffff"
     bordercolor="#000000"
     borderopacity="0.25"
     inkscape:showpageshadow="2"
     inkscape:pageopacity="0.0"
     inkscape:pagecheckerboard="0"
     inkscape:deskcolor="#d1d1d1"
     inkscape:zoom="22.627418"
     inkscape:cx="9.5680382"
     inkscape:cy="11.866135"
     inkscape:window-width="1920"
     inkscape:window-height="1131"
     inkscape:window-x="0"
     inkscape:window-y="0"
     inkscape:window-maximized="1"
     inkscape:current-layer="svg5" />
  <path
     id="path1404"
     style="color:#000000;fill:#2e3436;fill-opacity:1;stroke-width:1.01752;stroke-linecap:round;stroke-linejoin:round;stroke-miterlimit:0;-inkscape-stroke:none;paint-order:stroke fill markers"
     d="M 8.0019531 0 C 3.598167 0 -1.1842367e-15 3.6160419 0 8.0019531 C 0 12.387855 3.598167 16 8.0019531 16 C 12.405717 16 16.00001 12.387855 16 8.0019531 C 16 3.6160419 12.405717 0 8.0019531 0 z M 8.0019531 1.9550781 C 11.333304 1.9552958 14.031784 4.663259 14.03125 8.0019531 C 14.030693 11.339874 11.332533 14.044704 8.0019531 14.044922 C 4.6705946 14.045808 1.9693073 11.340655 1.96875 8.0019531 C 1.9686257 7.6855353 1.9917875 7.3691884 2.0410156 7.0566406 C 2.5045179 4.1183859 5.0337478 1.9541787 8.0019531 1.9550781 z M 8.234375 3.2519531 C 8.222991 3.2519531 8.2104407 3.2532863 8.1992188 3.2539062 C 8.1802418 3.2549662 8.1610291 3.2589388 8.1425781 3.2617188 C 7.938079 3.2925037 7.7700285 3.4245348 7.6894531 3.6074219 C 7.6881831 3.6103119 7.6867769 3.6142775 7.6855469 3.6171875 L 4.6816406 8.4824219 C 4.5567351 8.5913949 4.4785156 8.7521046 4.4785156 8.9316406 L 4.4785156 9.015625 C 4.4785156 9.3454183 4.7444147 9.6113281 5.0742188 9.6113281 L 7.0878906 9.6113281 L 7.0878906 12.150391 C 7.0878906 12.480183 7.3537898 12.748047 7.6835938 12.748047 L 7.7675781 12.748047 C 7.7781281 12.747819 7.7883281 12.746894 7.7988281 12.746094 C 8.0323698 12.733914 8.2282085 12.587396 8.3144531 12.382812 L 11.326172 7.5078125 C 11.435718 7.4075463 11.505176 7.2655821 11.515625 7.1074219 C 11.522625 7.0585479 11.523178 7.0094746 11.517578 6.9609375 C 11.506478 6.6410326 11.24458 6.3886719 10.921875 6.3886719 L 8.9140625 6.3886719 L 8.9140625 3.9082031 L 8.9140625 3.8496094 C 8.9140132 3.519816 8.6462102 3.2519531 8.3164062 3.2519531 L 8.2578125 3.2519531 L 8.234375 3.2519531 z " />
</svg>
