<?xml version="1.0" encoding="UTF-8" standalone="no"?>
<svg
   height="16px"
   viewBox="0 0 16 16"
   width="16px"
   version="1.1"
   id="svg5"
   sodipodi:docname="cassette-wave-mood-joy.svg"
   inkscape:version="1.3.2 (091e20ef0f, 2023-11-25)"
   xmlns:inkscape="http://www.inkscape.org/namespaces/inkscape"
   xmlns:sodipodi="http://sodipodi.sourceforge.net/DTD/sodipodi-0.dtd"
   xmlns="http://www.w3.org/2000/svg"
   xmlns:svg="http://www.w3.org/2000/svg">
  <defs
     id="defs5" />
  <sodipodi:namedview
     id="namedview5"
     pagecolor="#ffffff"
     bordercolor="#000000"
     borderopacity="0.25"
     inkscape:showpageshadow="2"
     inkscape:pageopacity="0.0"
     inkscape:pagecheckerboard="0"
     inkscape:deskcolor="#d1d1d1"
     inkscape:zoom="16.000001"
     inkscape:cx="-0.031249999"
     inkscape:cy="17.593749"
     inkscape:window-width="1920"
     inkscape:window-height="1131"
     inkscape:window-x="0"
     inkscape:window-y="0"
     inkscape:window-maximized="1"
     inkscape:current-layer="svg5" />
  <path
     id="path1325"
     style="color:#000000;fill:#2e3436;fill-opacity:1;stroke-width:1.01752;stroke-linecap:round;stroke-linejoin:round;stroke-miterlimit:0;-inkscape-stroke:none;paint-order:stroke fill markers"
     d="M 8.0019531 0 C 3.5981606 0 1.1842367e-15 3.6160374 0 8.0019531 C 0 12.387859 3.5981606 16 8.0019531 16 C 12.405725 16 16.00001 12.387859 16 8.0019531 C 16 3.6160374 12.405725 1.1842367e-15 8.0019531 0 z M 8.0019531 1.9550781 A 6.0315491 6.0448406 0 0 1 14.03125 8.0019531 A 6.0315491 6.0448406 0 0 1 8.0019531 14.044922 A 6.0315491 6.0448406 0 0 1 1.96875 8.0019531 A 6.0315491 6.0448406 0 0 1 2.0429688 7.0546875 A 6.0315491 6.0448406 0 0 1 8.0019531 1.9550781 z M 5.375 4.5917969 A 1.4683871 1.4589329 0 0 0 3.90625 6.0488281 A 1.4683871 1.4589329 0 0 0 5.375 7.5078125 A 1.4683871 1.4589329 0 0 0 6.84375 6.0488281 A 1.4683871 1.4589329 0 0 0 5.375 4.5917969 z M 10.693359 4.5917969 A 1.4683871 1.4589329 0 0 0 9.2382812 5.8417969 A 1.4683871 1.4589329 0 0 0 9.2246094 6.0488281 A 1.4683871 1.4589329 0 0 0 10.693359 7.5078125 A 1.4683871 1.4589329 0 0 0 12.160156 6.0488281 A 1.4683871 1.4589329 0 0 0 10.693359 4.5917969 z M 4.5429688 9.0976562 C 3.9769401 9.0975447 3.5194292 9.5528502 3.5195312 10.115234 C 3.5195312 10.120334 3.519419 10.124116 3.5195312 10.128906 C 3.5195312 10.142496 3.5203734 10.154679 3.5214844 10.167969 C 3.7422345 10.472777 4.0352202 10.739863 4.3789062 10.970703 C 4.3880962 10.976803 4.3952109 10.984144 4.4042969 10.990234 C 4.4439038 11.016404 4.4825229 11.043209 4.5234375 11.068359 C 5.4567738 11.660887 6.6607099 11.943734 7.8652344 11.957031 C 7.9547593 11.958015 8.0453121 11.959031 8.1347656 11.957031 C 8.2916998 11.955269 8.4491318 11.948518 8.6054688 11.9375 C 9.6998273 11.860373 10.764138 11.554675 11.59375 10.990234 C 11.60529 10.983134 11.615623 10.974397 11.626953 10.966797 C 11.967464 10.737052 12.259338 10.470617 12.478516 10.167969 C 12.479516 10.154679 12.480469 10.142496 12.480469 10.128906 C 12.480581 10.123806 12.480469 10.120024 12.480469 10.115234 C 12.480571 9.5528496 12.02306 9.0975447 11.457031 9.0976562 C 9.9083302 9.4562296 8.9548584 9.7240789 8.0078125 9.7714844 C 8.0027125 9.7712309 7.9955434 9.7717481 7.9902344 9.7714844 C 7.0432944 9.7240191 6.0915673 9.4561992 4.5429688 9.0976562 z " />
</svg>
