<?xml version="1.0" encoding="UTF-8" standalone="no"?>
<svg
   height="16px"
   viewBox="0 0 16 16"
   width="16px"
   version="1.1"
   id="svg5"
   sodipodi:docname="cassette-wave-genre-children's_music_of_world.svg"
   inkscape:version="1.3.2 (091e20ef0f, 2023-11-25)"
   xmlns:inkscape="http://www.inkscape.org/namespaces/inkscape"
   xmlns:sodipodi="http://sodipodi.sourceforge.net/DTD/sodipodi-0.dtd"
   xmlns="http://www.w3.org/2000/svg"
   xmlns:svg="http://www.w3.org/2000/svg">
  <defs
     id="defs5" />
  <sodipodi:namedview
     id="namedview5"
     pagecolor="#ffffff"
     bordercolor="#000000"
     borderopacity="0.25"
     inkscape:showpageshadow="2"
     inkscape:pageopacity="0.0"
     inkscape:pagecheckerboard="0"
     inkscape:deskcolor="#d1d1d1"
     inkscape:zoom="22.627417"
     inkscape:cx="2.541165"
     inkscape:cy="18.981398"
     inkscape:window-width="1920"
     inkscape:window-height="1131"
     inkscape:window-x="0"
     inkscape:window-y="0"
     inkscape:window-maximized="1"
     inkscape:current-layer="svg5" />
  <path
     id="path222"
     style="color:#000000;fill:#2e3436;fill-opacity:1;stroke-width:0.832327;stroke-linecap:round;stroke-linejoin:round;stroke-miterlimit:0;-inkscape-stroke:none;paint-order:stroke fill markers"
     d="m 5.5702008,0.81980525 c -3.0572423,0 -5.57019905,2.51295705 -5.57019905,5.57019805 0,2.376742 1.52048465,4.4250057 3.63325315,5.2191027 0.1855681,0.461362 0.4623286,0.892323 0.8323739,1.262368 l 1.1953048,1.195305 c 1.4845535,1.484554 3.9475821,1.484554 5.4321284,0 l 2.000064,-1.998092 c 0.802,-0.802007 1.168847,-1.889722 1.104572,-2.9547297 0.268971,0.0878 0.576442,0.02513 0.790954,-0.189355 l 0.07889,-0.0789 c 0.292412,-0.292364 0.302822,-0.755274 0.03353,-1.061178 0.301107,-0.587864 0.410578,-1.252029 0.329399,-1.895524 0.09261,-0.03805 0.18097,-0.09418 0.256419,-0.169631 l 0.07692,-0.0789 c 0.304406,-0.304408 0.304406,-0.794257 0,-1.098655 l -0.29784,-0.29784 0.30573,-0.30573 c 0.304398,-0.304398 0.304398,-0.7942561 0,-1.098654 l -0.0789,-0.0789 c -0.304406,-0.3043979 -0.794256,-0.304389 -1.098655,0 l -0.305729,0.3057311 -0.29784,-0.29784 c -0.304407,-0.304399 -0.794257,-0.304399 -1.098654,0 l -0.07692,0.0789 c -0.07565,0.07565 -0.133554,0.161556 -0.171603,0.254447 -0.644097,-0.08108 -1.307252,0.02933 -1.89553,0.331371 C 10.579197,3.2848043 10.363642,3.2196813 10.154176,3.2419743 9.1454507,1.7837063 7.4620768,0.81980525 5.5702008,0.81980525 Z m 0,1.66474805 c 0.3195717,0.005 0.6379748,0.04975 0.9467761,0.132153 0.064006,0.115586 0.1261904,0.237742 0.1834378,0.368849 0.1062964,0.234742 0.192478,0.490227 0.2721982,0.7692559 l 0.055228,0.201189 -0.2031624,0.01183 c -0.4074736,0.03546 -0.8411275,0.04931 -1.2663129,0.04931 -0.4340416,0 -0.8603288,-0.01385 -1.2722304,-0.04931 l -0.1893551,-0.01183 0.055229,-0.201189 C 4.2273352,3.4757823 4.3203665,3.2202973 4.4222348,2.9855553 4.4808309,2.8556463 4.5436642,2.7347723 4.6076451,2.6206523 4.9214987,2.5352453 5.2449777,2.4898293 5.5702008,2.4845533 Z m 1.7791501,0.4418289 c 0.3998662,0.205833 0.7602418,0.479927 1.0670956,0.808704 -0.1977191,0.04328 -0.3995907,0.08435 -0.613432,0.1222921 L 7.6471908,3.8790753 7.6116867,3.7291693 C 7.5373601,3.4468443 7.4469578,3.1743403 7.3493509,2.9263822 Z m -3.5661898,0.0039 c -0.096807,0.248066 -0.1865861,0.514577 -0.2603634,0.794896 l -0.043394,0.151878 -0.1459613,-0.02367 C 3.1216075,3.8158362 2.919086,3.7767862 2.725928,3.7330622 3.0302516,3.4069152 3.3871405,3.1355782 3.7831614,2.9302752 Z m 5.0514447,1.337321 c 0.013234,0.02372 0.026631,0.04703 0.03945,0.07101 0.014482,-0.0011 0.028902,-9.94e-4 0.043394,-0.002 -0.3830981,0.02581 -0.7621987,0.106612 -1.124297,0.244585 l -0.017752,-0.104542 0.1656858,-0.02564 c 0.3164754,-0.04953 0.6174541,-0.111293 0.8935199,-0.183438 z m -6.5288098,0.002 c 0.276632,0.07291 0.5751973,0.131926 0.88563,0.181466 l 0.1676583,0.02564 -0.025642,0.169631 c -0.066503,0.4119 -0.1070358,0.84016 -0.1203198,1.274201 l -0.00395,0.159768 H 3.0454647 1.6903914 C 1.7424954,5.4349233 1.9535304,4.8128682 2.305796,4.2696013 Z m 1.6608029,0.2820601 0.1597684,0.01578 c 0.4650456,0.04428 0.9482668,0.06903 1.4398887,0.06903 0.4871938,0 0.9723874,-0.02475 1.441861,-0.06903 l 0.1577961,-0.01578 0.025642,0.1558239 c 0.0074,0.04973 0.01279,0.105435 0.019724,0.155824 C 6.9443617,5.0212453 6.6915582,5.2134663 6.4637209,5.4412563 L 5.8246472,6.0803303 H 3.9942135 3.8166929 l 0.00987,-0.17752 c 0.017725,-0.407466 0.054895,-0.8099891 0.1124263,-1.195305 z m 5.3078638,1.4280539 c 0.525314,0.02201 1.0431123,0.234408 1.4458063,0.637102 l 1.197277,1.195305 c 0.536908,0.5369161 0.733189,1.280561 0.593707,1.9704781 -0.354962,0.6697457 -0.430519,0.8910767 -0.919161,1.4339697 l -0.161741,0.159767 -1.177553,1.177553 -0.159768,0.161741 C 9.5440937,13.285518 9.5525777,13.472932 8.546628,13.522364 7.9352262,13.570054 7.3081846,13.360879 6.8384863,12.89118 L 5.6431815,11.695895 C 5.1734915,11.226204 4.9623411,10.599138 5.010025,9.9877523 l 0.3412339,0.3412337 c 0.3044066,0.304399 0.7942481,0.304399 1.0986547,0 l 0.078898,-0.0789 c 0.3044067,-0.3043977 0.3043901,-0.7942557 0,-1.0986537 l -0.710082,-0.710083 0.1617409,-0.16174 0.710082,0.710082 c 0.3043901,0.304399 0.7942647,0.304399 1.0986547,0 l 0.076926,-0.07693 c 0.3043899,-0.3043979 0.30439,-0.794249 0,-1.098654 l -0.7100821,-0.712055 0.161741,-0.159768 0.710082,0.710081 c 0.3043984,0.304399 0.794248,0.304391 1.0986546,0 l 0.0789,-0.0789 c 0.3043991,-0.304399 0.304407,-0.794257 0,-1.098655 L 8.7517628,6.0211563 c 0.1724832,-0.03487 0.3475949,-0.04876 0.5226999,-0.04142 z m -7.5840713,0.721914 h 1.3511284 0.1637134 l 0.00395,0.159768 c 0.013234,0.43847 0.058286,0.864274 0.1203194,1.276176 l 0.025642,0.161741 -0.1676583,0.02761 C 2.8728879,8.3827183 2.5760317,8.4414053 2.3038277,8.5103883 1.9523821,7.9674443 1.7422954,7.3463303 1.6903914,6.7016513 Z m 2.1263013,0 H 3.9942133 5.2033252 L 4.4656288,7.4393473 c -0.2010321,0.201035 -0.3741407,0.420809 -0.5207269,0.652881 l -0.00592,-0.0217 c -0.062011,-0.385316 -0.094707,-0.78932 -0.112427,-1.201222 z m 5.694464,0.153851 v 2.952758 c -0.272133,-0.182158 -0.5986609,-0.287978 -0.9507215,-0.287978 -0.9458344,0 -1.7120867,0.7662548 -1.7120867,1.7120858 0,0.945839 0.7662523,1.712087 1.7120867,1.712087 0.9181365,0 1.6670338,-0.721804 1.7101148,-1.629243 9.9e-4,-0.01652 0.0016,-0.0328 0.0019,-0.04931 V 8.3782133 c 0.228306,0.136326 0.415624,0.344761 0.597652,0.546369 0.03413,0.03779 0.06858,0.07359 0.102568,0.110457 l 0.822531,-0.86985 C 11.181618,7.5076743 10.406988,7.0398912 9.5111567,6.8554822 Z m -6.031753,2.047404 0.039449,0.126236 v 0.002 C 3.4624897,9.2187262 3.4181061,9.4100752 3.390644,9.6031322 3.1481672,9.4431612 2.9231159,9.2565062 2.7219834,9.0469012 2.9174219,9.0036212 3.1198431,8.9625112 3.333443,8.9246092 Z" />
</svg>
