<?xml version="1.0" encoding="UTF-8" standalone="no"?>
<svg
   width="16"
   height="16"
   version="1.1"
   id="svg44401"
   sodipodi:docname="explicit-symbolic.svg"
   inkscape:version="1.2.2 (b0a8486541, 2022-12-01)"
   xmlns:inkscape="http://www.inkscape.org/namespaces/inkscape"
   xmlns:sodipodi="http://sodipodi.sourceforge.net/DTD/sodipodi-0.dtd"
   xmlns="http://www.w3.org/2000/svg"
   xmlns:svg="http://www.w3.org/2000/svg">
  <defs
     id="defs44405" />
  <sodipodi:namedview
     id="namedview44403"
     pagecolor="#505050"
     bordercolor="#ffffff"
     borderopacity="1"
     inkscape:showpageshadow="0"
     inkscape:pageopacity="0"
     inkscape:pagecheckerboard="1"
     inkscape:deskcolor="#505050"
     showgrid="false"
     inkscape:zoom="32"
     inkscape:cx="9.515625"
     inkscape:cy="6.75"
     inkscape:window-width="1920"
     inkscape:window-height="1011"
     inkscape:window-x="0"
     inkscape:window-y="0"
     inkscape:window-maximized="1"
     inkscape:current-layer="svg44401"
     showguides="true">
    <sodipodi:guide
       position="7.9902496,1.6751709"
       orientation="1,0"
       id="guide236"
       inkscape:locked="false" />
    <sodipodi:guide
       position="6.1429902,12.552854"
       orientation="0,-1"
       id="guide325"
       inkscape:locked="false" />
    <sodipodi:guide
       position="2.8284271,8.619573"
       orientation="1,0"
       id="guide327"
       inkscape:locked="false" />
  </sodipodi:namedview>
  <g
     transform="translate(-20,-276)"
     inkscape:label="cellular network mobile connection type edge"
     id="g7043"
     style="display:inline">
    <title
       id="title47677">network-cellular-edge</title>
    <path
       id="rect15081"
       d="m 623,320 c -1.662,0 -3,1.338 -3,3 v 10 c 0,1.662 1.338,3 3,3 h 10 c 1.662,0 3,-1.338 3,-3 v -10 c 0,-1.662 -1.338,-3 -3,-3 z m 3,3 H 626.0937 632 v 2 h -6 v 2 h 4 v 2 h -4 v 2 c -3.6e-4,-4.5e-4 0.0315,10e-5 0.0312,0 H 632 v 2 h -6 c -0.6248,0 -0.99413,-0.24118 -1.34375,-0.5625 -0.33108,-0.30424 -0.64399,-0.78976 -0.625,-1.4375 H 624 V 330.90625 325.0625 325 h 0.0312 c -0.013,-0.4751 0.11013,-0.99964 0.46875,-1.40625 0.35357,-0.40089 0.93419,-0.583 1.5,-0.5625 z"
       transform="translate(-600,-44)"
       style="fill:#2e3436;fill-opacity:1" />
  </g>
</svg>
