<?xml version="1.0" encoding="UTF-8" standalone="no"?>
<svg
   width="128"
   height="128"
   viewBox="0 0 128 128"
   fill="none"
   version="1.1"
   id="svg35"
   sodipodi:docname="io.github.Rirusha.Cassette-symbolic.svg"
   inkscape:version="1.3.2 (091e20ef0f, 2023-11-25)"
   inkscape:export-filename="io.github.Rirusha.Cassette-symbolic.png"
   inkscape:export-xdpi="75"
   inkscape:export-ydpi="75"
   xmlns:inkscape="http://www.inkscape.org/namespaces/inkscape"
   xmlns:sodipodi="http://sodipodi.sourceforge.net/DTD/sodipodi-0.dtd"
   xmlns="http://www.w3.org/2000/svg"
   xmlns:svg="http://www.w3.org/2000/svg">
  <sodipodi:namedview
     id="namedview35"
     pagecolor="#ffffff"
     bordercolor="#000000"
     borderopacity="0.25"
     inkscape:showpageshadow="2"
     inkscape:pageopacity="0.0"
     inkscape:pagecheckerboard="0"
     inkscape:deskcolor="#d1d1d1"
     inkscape:zoom="4.8078005"
     inkscape:cx="46.590952"
     inkscape:cy="65.414528"
     inkscape:window-width="1920"
     inkscape:window-height="1011"
     inkscape:window-x="0"
     inkscape:window-y="0"
     inkscape:window-maximized="1"
     inkscape:current-layer="svg35"
     showguides="true" />
  <path
     id="path1"
     style="fill:#2e3436;fill-opacity:1"
     d="M 99.197266,17.957031 C 97.361839,18.05314 96,19.576578 96,21.673828 v 27.28125 c -2.353394,-1.361297 -5.085709,-2.140625 -8,-2.140625 -5.498329,0 -10.346428,2.77581 -13.226562,7 H 53.228516 c -2.880058,-4.224711 -7.729789,-7 -13.228516,-7 -8.836573,0 -16,7.163527 -16,16 0,0.110581 0.0056,0.220032 0.0078,0.330078 -0.001,0.05715 -0.0078,0.112532 -0.0078,0.169922 0,0.488128 0.04814,0.963335 0.119141,1.431641 0.953975,7.925423 7.69826,14.068359 15.880859,14.068359 5.051796,0 9.554061,-2.34339 12.486328,-6 h 23.035156 c 2.932335,3.654614 7.428324,6 12.478516,6 8.208193,0 14.97265,-6.181271 15.89258,-14.142578 C 103.95639,64.227221 104,63.776764 104,63.314453 c 0,-0.03827 -0.005,-0.07512 -0.006,-0.113281 3.1e-4,-0.01309 0.002,-0.02596 0.002,-0.03906 l 0.004,-0.002 v -30.08789 c 2.35754,1.344718 4.54074,2.957862 6.50977,4.798828 0.72421,0.677127 1.84589,0.687605 2.54296,-0.01758 l 5.91602,-5.984375 c 0.86202,-0.872018 0.86956,-2.294935 -0.0273,-3.13086 -5.18132,-4.829049 -11.45407,-8.502494 -18.40821,-10.609375 -0.46299,-0.140273 -0.912376,-0.194054 -1.335934,-0.171875 z M 16,30.814453 c -4.418228,0 -8,3.58179 -8,8 v 4 52 7.999997 c 0,4.418 3.581772,8 8,8 h 96 c 4.418,0 8,-3.582 8,-8 v -7.999997 -52 c -2e-5,-0.678034 0.0158,-1.354166 0.0215,-2.029297 0.0198,-2.347091 -1.69314,-2.880487 -3.34765,-1.207031 l -1.92774,1.951172 C 112.98672,43.308887 112,44.148043 112,46.650507 V 63 82 c 0,2.761361 -2.239,5 -5,5 H 21 c -2.761361,0 -5,-2.238639 -5,-5 V 63 44 c 0,-2.761364 2.238636,-5 5,-5 h 69.050781 c 1.419369,-4.22e-4 2.56989,-1.150943 2.570313,-2.570312 v -3.044922 c 2.39e-4,-1.419644 -1.150669,-2.570552 -2.570313,-2.570313 z m 72.445312,23.931641 c 0.767947,0.03503 1.526935,0.179723 2.253907,0.429687 4.210727,1.446943 6.451101,6.0335 5.003906,10.244141 -1.44696,4.209696 -6.032132,6.44982 -10.242187,5.003906 -4.210476,-1.446148 -6.451597,-6.03157 -5.00586,-10.242187 1.161886,-3.384378 4.415649,-5.597828 7.990234,-5.435547 z m -48.091796,0.03516 c 0.767947,0.03503 1.526935,0.179724 2.253906,0.429688 4.210476,1.446149 6.451596,6.03157 5.005859,10.242187 -1.446132,4.211506 -6.032938,6.452875 -10.24414,5.005859 -4.210727,-1.446943 -6.451101,-6.033499 -5.003907,-10.24414 1.162371,-3.382885 4.414925,-5.595258 7.988282,-5.433594 z m -14.09375,34.8125 c 2.520471,2.19e-4 4.563359,2.043982 4.5625,4.564453 -2.19e-4,2.519708 -2.042792,4.562281 -4.5625,4.5625 -2.520471,8.6e-4 -4.564235,-2.042028 -4.564454,-4.5625 -8.6e-4,-2.521234 2.04322,-4.565313 4.564454,-4.564453 z m 75.427734,0.08203 c 2.51971,2.19e-4 4.56228,2.042792 4.5625,4.5625 -2.2e-4,2.519708 -2.04279,4.562281 -4.5625,4.5625 -2.520471,8.59e-4 -4.564234,-2.042029 -4.564453,-4.5625 2.19e-4,-2.520471 2.043982,-4.563359 4.564453,-4.5625 z m -27.066406,4.953125 c 2.520471,-8.59e-4 4.564234,2.042029 4.564453,4.5625 -2.17e-4,2.520474 -2.04398,4.563364 -4.564453,4.562504 -2.51971,-2.2e-4 -4.562283,-2.04279 -4.5625,-4.562504 2.19e-4,-2.519708 2.042792,-4.562281 4.5625,-4.5625 z m -21.0625,0.01953 c 2.520471,2.19e-4 4.563359,2.043982 4.5625,4.564453 -2.2e-4,2.519709 -2.042792,4.562279 -4.5625,4.562499 -2.520471,8.6e-4 -4.564233,-2.04203 -4.564453,-4.562499 -8.6e-4,-2.521234 2.043219,-4.565313 4.564453,-4.564453 z"
     sodipodi:nodetypes="sscsccsscscsccscsccccsccsssssccssssccsccscsssscssccccscccccccccccccccccccccccccccccccc" />
  <defs
     id="defs35">
    <inkscape:path-effect
       effect="fillet_chamfer"
       id="path-effect4"
       is_visible="true"
       lpeversion="1"
       nodesatellites_param="F,0,0,1,0,4.6737453,0,1 @ F,0,0,1,0,2.2201753,0,1 @ F,0,0,1,0,1.795416,0,1 @ F,0,0,1,0,0,0,1 @ F,0,0,1,0,0,0,1 @ F,0,0,1,0,0,0,1 @ F,0,0,1,0,0,0,1 @ F,0,0,1,0,0,0,1 @ F,0,0,1,0,0,0,1 @ F,0,0,1,0,0,0,1 | F,0,0,1,0,0,0,1 @ F,0,0,1,0,0,0,1 @ F,0,0,1,0,0,0,1 @ F,0,0,1,0,0,0,1"
       radius="0"
       unit="px"
       method="auto"
       mode="F"
       chamfer_steps="1"
       flexible="false"
       use_knot_distance="true"
       apply_no_radius="true"
       apply_with_radius="true"
       only_selected="false"
       hide_knots="false" />
    <inkscape:path-effect
       effect="fillet_chamfer"
       id="path-effect3"
       is_visible="true"
       lpeversion="1"
       nodesatellites_param="F,0,0,1,0,0,0,1 @ F,0,0,1,0,0,0,1 @ F,0,0,1,0,0,0,1 @ F,0,0,1,0,0,0,1 @ F,0,0,1,0,0,0,1 @ F,0,0,1,0,0,0,1 @ F,0,0,1,0,0,0,1 @ F,0,0,1,0,0,0,1 @ F,0,0,1,0,0,0,1 @ F,0,0,1,0,0,0,1 @ F,0,0,1,0,4.2609818,0,1 @ F,0,0,1,0,3.9060244,0,1 @ F,0,0,1,0,0,0,1 @ F,0,0,1,0,0,0,1 @ F,0,0,1,0,0,0,1 @ F,0,0,1,0,0,0,1 @ F,0,0,1,0,0,0,1 @ F,0,0,1,0,0,0,1 @ F,0,0,1,0,0,0,1 @ F,0,0,1,0,0,0,1 @ F,0,0,1,0,2.5710778,0,1 @ F,0,0,1,0,2.5698802,0,1 | F,0,0,1,0,0,0,1 @ F,0,0,1,0,0,0,1 @ F,0,0,1,0,0,0,1 @ F,0,0,1,0,0,0,1 | F,0,0,1,0,0,0,1 @ F,0,0,1,0,0,0,1 @ F,0,0,1,0,0,0,1 @ F,0,0,1,0,0,0,1 | F,0,0,1,0,0,0,1 @ F,0,0,1,0,0,0,1 @ F,0,0,1,0,0,0,1 @ F,0,0,1,0,0,0,1 | F,0,0,1,0,0,0,1 @ F,0,0,1,0,0,0,1 @ F,0,0,1,0,0,0,1 @ F,0,0,1,0,0,0,1"
       radius="0"
       unit="px"
       method="auto"
       mode="F"
       chamfer_steps="1"
       flexible="false"
       use_knot_distance="true"
       apply_no_radius="true"
       apply_with_radius="true"
       only_selected="false"
       hide_knots="false" />
    <inkscape:path-effect
       effect="fillet_chamfer"
       id="path-effect2"
       is_visible="true"
       lpeversion="1"
       nodesatellites_param="F,0,0,1,0,0,0,1 @ F,0,0,1,0,0,0,1 @ F,0,0,1,0,0,0,1 @ F,0,0,1,0,0,0,1 @ F,0,0,1,0,0,0,1 @ F,0,0,1,0,0,0,1 @ F,0,0,1,0,0,0,1 @ F,0,0,1,0,0,0,1 @ F,0,0,1,0,0,0,1 @ F,0,0,1,0,0,0,1 @ F,0,0,1,0,0,0,1 @ F,0,0,1,0,0,0,1 @ F,0,0,1,0,0,0,1 @ F,0,0,1,0,0,0,1 @ F,0,0,1,0,0,0,1 @ F,0,0,1,0,0,0,1 @ F,0,0,1,0,0,0,1 @ F,0,0,1,0,0,0,1 @ F,0,0,1,0,0,0,1 @ F,0,0,1,0,0,0,1 @ F,0,0,1,0,0,0,1 @ F,0,0,1,0,2.3764884,0,1 @ F,0,0,1,0,0,0,1 | F,0,0,1,0,0,0,1 @ F,0,0,1,0,0,0,1 @ F,0,0,1,0,0,0,1 @ F,0,0,1,0,0,0,1 | F,0,0,1,0,0,0,1 @ F,0,0,1,0,0,0,1 @ F,0,0,1,0,0,0,1 @ F,0,0,1,0,0,0,1 | F,0,0,1,0,0,0,1 @ F,0,0,1,0,0,0,1 @ F,0,0,1,0,0,0,1 @ F,0,0,1,0,0,0,1 | F,0,0,1,0,0,0,1 @ F,0,0,1,0,0,0,1 @ F,0,0,1,0,0,0,1 @ F,0,0,1,0,0,0,1"
       radius="0"
       unit="px"
       method="auto"
       mode="F"
       chamfer_steps="1"
       flexible="false"
       use_knot_distance="true"
       apply_no_radius="true"
       apply_with_radius="true"
       only_selected="false"
       hide_knots="false" />
    <filter
       id="filter0_i_12_4"
       x="16"
       y="39"
       width="96"
       height="24"
       filterUnits="userSpaceOnUse"
       color-interpolation-filters="sRGB">
      <feFlood
         flood-opacity="0"
         result="BackgroundImageFix"
         id="feFlood17" />
      <feBlend
         mode="normal"
         in="SourceGraphic"
         in2="BackgroundImageFix"
         result="shape"
         id="feBlend17" />
      <feColorMatrix
         in="SourceAlpha"
         type="matrix"
         values="0 0 0 0 0 0 0 0 0 0 0 0 0 0 0 0 0 0 127 0"
         result="hardAlpha"
         id="feColorMatrix17" />
      <feOffset
         dy="1"
         id="feOffset17" />
      <feComposite
         in2="hardAlpha"
         operator="arithmetic"
         k2="-1"
         k3="1"
         id="feComposite17" />
      <feColorMatrix
         type="matrix"
         values="0 0 0 0 0 0 0 0 0 0 0 0 0 0 0 0 0 0 0.25 0"
         id="feColorMatrix18" />
      <feBlend
         mode="normal"
         in2="shape"
         result="effect1_innerShadow_12_4"
         id="feBlend18" />
    </filter>
    <filter
       id="filter1_i_12_4"
       x="99"
       y="89.8146"
       width="5"
       height="5"
       filterUnits="userSpaceOnUse"
       color-interpolation-filters="sRGB">
      <feFlood
         flood-opacity="0"
         result="BackgroundImageFix"
         id="feFlood18" />
      <feBlend
         mode="normal"
         in="SourceGraphic"
         in2="BackgroundImageFix"
         result="shape"
         id="feBlend19" />
      <feColorMatrix
         in="SourceAlpha"
         type="matrix"
         values="0 0 0 0 0 0 0 0 0 0 0 0 0 0 0 0 0 0 127 0"
         result="hardAlpha"
         id="feColorMatrix19" />
      <feOffset
         dy="1"
         id="feOffset19" />
      <feComposite
         in2="hardAlpha"
         operator="arithmetic"
         k2="-1"
         k3="1"
         id="feComposite19" />
      <feColorMatrix
         type="matrix"
         values="0 0 0 0 0 0 0 0 0 0 0 0 0 0 0 0 0 0 0.25 0"
         id="feColorMatrix20" />
      <feBlend
         mode="normal"
         in2="shape"
         result="effect1_innerShadow_12_4"
         id="feBlend20" />
    </filter>
    <filter
       id="filter2_i_12_4"
       x="51"
       y="94.8146"
       width="5"
       height="5"
       filterUnits="userSpaceOnUse"
       color-interpolation-filters="sRGB">
      <feFlood
         flood-opacity="0"
         result="BackgroundImageFix"
         id="feFlood20" />
      <feBlend
         mode="normal"
         in="SourceGraphic"
         in2="BackgroundImageFix"
         result="shape"
         id="feBlend21" />
      <feColorMatrix
         in="SourceAlpha"
         type="matrix"
         values="0 0 0 0 0 0 0 0 0 0 0 0 0 0 0 0 0 0 127 0"
         result="hardAlpha"
         id="feColorMatrix21" />
      <feOffset
         dy="1"
         id="feOffset21" />
      <feComposite
         in2="hardAlpha"
         operator="arithmetic"
         k2="-1"
         k3="1"
         id="feComposite21" />
      <feColorMatrix
         type="matrix"
         values="0 0 0 0 0 0 0 0 0 0 0 0 0 0 0 0 0 0 0.25 0"
         id="feColorMatrix22" />
      <feBlend
         mode="normal"
         in2="shape"
         result="effect1_innerShadow_12_4"
         id="feBlend22" />
    </filter>
    <filter
       id="filter3_i_12_4"
       x="72"
       y="94.8146"
       width="5"
       height="5"
       filterUnits="userSpaceOnUse"
       color-interpolation-filters="sRGB">
      <feFlood
         flood-opacity="0"
         result="BackgroundImageFix"
         id="feFlood22" />
      <feBlend
         mode="normal"
         in="SourceGraphic"
         in2="BackgroundImageFix"
         result="shape"
         id="feBlend23" />
      <feColorMatrix
         in="SourceAlpha"
         type="matrix"
         values="0 0 0 0 0 0 0 0 0 0 0 0 0 0 0 0 0 0 127 0"
         result="hardAlpha"
         id="feColorMatrix23" />
      <feOffset
         dy="1"
         id="feOffset23" />
      <feComposite
         in2="hardAlpha"
         operator="arithmetic"
         k2="-1"
         k3="1"
         id="feComposite23" />
      <feColorMatrix
         type="matrix"
         values="0 0 0 0 0 0 0 0 0 0 0 0 0 0 0 0 0 0 0.25 0"
         id="feColorMatrix24" />
      <feBlend
         mode="normal"
         in2="shape"
         result="effect1_innerShadow_12_4"
         id="feBlend24" />
    </filter>
    <filter
       id="filter4_i_12_4"
       x="24"
       y="89.8146"
       width="5"
       height="5"
       filterUnits="userSpaceOnUse"
       color-interpolation-filters="sRGB">
      <feFlood
         flood-opacity="0"
         result="BackgroundImageFix"
         id="feFlood24" />
      <feBlend
         mode="normal"
         in="SourceGraphic"
         in2="BackgroundImageFix"
         result="shape"
         id="feBlend25" />
      <feColorMatrix
         in="SourceAlpha"
         type="matrix"
         values="0 0 0 0 0 0 0 0 0 0 0 0 0 0 0 0 0 0 127 0"
         result="hardAlpha"
         id="feColorMatrix25" />
      <feOffset
         dy="1"
         id="feOffset25" />
      <feComposite
         in2="hardAlpha"
         operator="arithmetic"
         k2="-1"
         k3="1"
         id="feComposite25" />
      <feColorMatrix
         type="matrix"
         values="0 0 0 0 0 0 0 0 0 0 0 0 0 0 0 0 0 0 0.25 0"
         id="feColorMatrix26" />
      <feBlend
         mode="normal"
         in2="shape"
         result="effect1_innerShadow_12_4"
         id="feBlend26" />
    </filter>
    <linearGradient
       id="paint0_linear_12_4"
       x1="8"
       y1="110.815"
       x2="120"
       y2="110.815"
       gradientUnits="userSpaceOnUse">
      <stop
         stop-color="#545454"
         id="stop26"
         offset="0"
         style="stop-color:#474747;stop-opacity:1;" />
      <stop
         offset="0.0176714"
         stop-color="#9F9F9F"
         id="stop27" />
      <stop
         offset="0.0716421"
         stop-color="#545454"
         id="stop28"
         style="stop-color:#474747;stop-opacity:1;" />
      <stop
         offset="0.92859203"
         stop-color="#545454"
         id="stop29"
         style="stop-color:#474747;stop-opacity:1;" />
      <stop
         offset="0.981657"
         stop-color="#9F9F9F"
         id="stop30" />
      <stop
         offset="1"
         stop-color="#545454"
         id="stop31"
         style="stop-color:#474747;stop-opacity:1;" />
    </linearGradient>
    <linearGradient
       id="paint1_linear_12_4"
       x1="96.0013"
       y1="22.8146"
       x2="96.0013"
       y2="70.8146"
       gradientUnits="userSpaceOnUse">
      <stop
         stop-color="#FF5D3D"
         id="stop32" />
      <stop
         offset="1"
         stop-color="#FC3D17"
         id="stop33" />
    </linearGradient>
    <linearGradient
       id="paint2_linear_12_4"
       x1="40"
       y1="30.8146"
       x2="40.0967"
       y2="70.8144"
       gradientUnits="userSpaceOnUse">
      <stop
         stop-color="#FF5D3D"
         id="stop34" />
      <stop
         offset="1"
         stop-color="#FC3D17"
         id="stop35" />
    </linearGradient>
  </defs>
</svg>
