<?xml version="1.0" encoding="UTF-8"?>
<svg xmlns="http://www.w3.org/2000/svg" xmlns:xlink="http://www.w3.org/1999/xlink" height="16px" viewBox="0 0 16 16" width="16px"><filter id="a" height="100%" width="100%" x="0%" y="0%"><feColorMatrix color-interpolation-filters="sRGB" values="0 0 0 0 1 0 0 0 0 1 0 0 0 0 1 0 0 0 1 0"/></filter><mask id="b"><g filter="url(#a)"><path d="m -1.6 -1.6 h 19.2 v 19.2 h -19.2 z" fill-opacity="0.5"/></g></mask><clipPath id="c"><path d="m 0 0 h 1600 v 1200 h -1600 z"/></clipPath><mask id="d"><g filter="url(#a)"><path d="m -1.6 -1.6 h 19.2 v 19.2 h -19.2 z" fill-opacity="0.7"/></g></mask><clipPath id="e"><path d="m 0 0 h 1600 v 1200 h -1600 z"/></clipPath><mask id="f"><g filter="url(#a)"><path d="m -1.6 -1.6 h 19.2 v 19.2 h -19.2 z" fill-opacity="0.35"/></g></mask><clipPath id="g"><path d="m 0 0 h 1600 v 1200 h -1600 z"/></clipPath><path d="m 11.394531 1.964844 c -0.972656 -0.027344 -1.921875 0.324218 -2.636719 0.984375 l -0.757812 0.675781 l -0.753906 -0.675781 c -1 -0.898438 -2.40625 -1.191407 -3.679688 -0.769531 c -1.277344 0.417968 -2.230468 1.488281 -2.5 2.804687 c -0.269531 1.316406 0.183594 2.675781 1.191406 3.566406 l 5.742188 5.117188 l 5.746094 -5.117188 c 1.167968 -1.011719 1.597656 -2.640625 1.078125 -4.097656 s -1.882813 -2.445313 -3.429688 -2.488281 z m -6.511719 1.953125 c 0.292969 0.019531 0.605469 0.140625 1.027344 0.519531 v 0.003906 l 2.089844 1.863282 l 2.097656 -1.871094 l 0.011719 -0.011719 c 0.335937 -0.304687 0.773437 -0.46875 1.230469 -0.457031 c 0.890625 0.023437 1.363281 0.5 1.601562 1.160156 c 0.234375 0.65625 0.167969 1.328125 -0.503906 1.910156 l -0.011719 0.011719 l -4.425781 3.945313 l -4.414062 -3.9375 l -0.003907 -0.003907 c -0.566406 -0.496093 -0.65625 -0.859375 -0.65625 -1.25 c -0.003906 -0.390625 0.175781 -0.855469 0.507813 -1.226562 c 0.328125 -0.367188 0.769531 -0.601563 1.15625 -0.644531 c 0.097656 -0.011719 0.191406 -0.015626 0.292968 -0.011719 z m 0 0" fill="#222222"/><g mask="url(#b)"><g clip-path="url(#c)" transform="matrix(1 0 0 1 -560 -500)"><path d="m 550 182 c -0.351562 0.003906 -0.695312 0.101562 -1 0.28125 v 3.4375 c 0.304688 0.179688 0.648438 0.277344 1 0.28125 c 1.105469 0 2 -0.894531 2 -2 s -0.894531 -2 -2 -2 z m 0 5 c -0.339844 0 -0.679688 0.058594 -1 0.175781 v 6.824219 h 4 v -4 c 0 -1.65625 -1.34375 -3 -3 -3 z m 0 0"/></g></g><g mask="url(#d)"><g clip-path="url(#e)" transform="matrix(1 0 0 1 -560 -500)"><path d="m 569 182 v 4 c 1.105469 0 2 -0.894531 2 -2 s -0.894531 -2 -2 -2 z m 0 5 v 7 h 3 v -4 c 0 -1.65625 -1.34375 -3 -3 -3 z m 0 0"/></g></g><g mask="url(#f)"><g clip-path="url(#g)" transform="matrix(1 0 0 1 -560 -500)"><path d="m 573 182.269531 v 3.449219 c 0.613281 -0.355469 0.996094 -1.007812 1 -1.71875 c 0 -0.714844 -0.382812 -1.375 -1 -1.730469 z m 0 4.90625 v 6.824219 h 2 v -4 c 0 -1.269531 -0.800781 -2.402344 -2 -2.824219 z m 0 0"/></g></g></svg>
