<?xml version="1.0" encoding="UTF-8" standalone="no"?>
<svg
   width="16"
   height="16"
   version="1.1"
   id="svg44401"
   sodipodi:docname="replaced-symbolic.svg"
   inkscape:version="1.2.2 (b0a8486541, 2022-12-01)"
   xmlns:inkscape="http://www.inkscape.org/namespaces/inkscape"
   xmlns:sodipodi="http://sodipodi.sourceforge.net/DTD/sodipodi-0.dtd"
   xmlns="http://www.w3.org/2000/svg"
   xmlns:svg="http://www.w3.org/2000/svg">
  <defs
     id="defs44405" />
  <sodipodi:namedview
     id="namedview44403"
     pagecolor="#505050"
     bordercolor="#ffffff"
     borderopacity="1"
     inkscape:showpageshadow="0"
     inkscape:pageopacity="0"
     inkscape:pagecheckerboard="1"
     inkscape:deskcolor="#505050"
     showgrid="false"
     inkscape:zoom="32"
     inkscape:cx="8.515625"
     inkscape:cy="7.46875"
     inkscape:window-width="1920"
     inkscape:window-height="1011"
     inkscape:window-x="0"
     inkscape:window-y="0"
     inkscape:window-maximized="1"
     inkscape:current-layer="svg44401"
     showguides="true">
    <sodipodi:guide
       position="7.9902496,1.6751709"
       orientation="1,0"
       id="guide236"
       inkscape:locked="false" />
    <sodipodi:guide
       position="22.223511,12.530273"
       orientation="0,-1"
       id="guide325"
       inkscape:locked="false" />
    <sodipodi:guide
       position="2.8284271,8.619573"
       orientation="1,0"
       id="guide327"
       inkscape:locked="false" />
  </sodipodi:namedview>
  <g
     inkscape:label="emblem important critical urgent"
     id="g516049"
     transform="rotate(90,187.0356,23.967579)">
    <title
       id="title516043">emblem-important</title>
    <path
       id="path516047"
       style="fill:#333333;fill-opacity:1"
       d="m 708,708 c -4.40642,0 -8,3.59357 -8,8 0,4.40643 3.59358,8 8,8 4.40643,0 8,-3.59357 8,-8 0,-4.40643 -3.59357,-8 -8,-8 z m 1,3 v 6 c 0,0.55228 -0.44772,1 -1,1 -0.55228,0 -1,-0.44772 -1,-1 v -6 z m -1,8 c 0.55228,0 1,0.44772 1,1 0,0.55228 -0.44772,1 -1,1 -0.55228,0 -1,-0.44772 -1,-1 0,-0.55228 0.44772,-1 1,-1 z"
       transform="rotate(-90,183.03544,727.96742)" />
  </g>
</svg>
